<svg xmlns="http://www.w3.org/2000/svg" viewBox="0 0 505.84 527.62"><defs><style>.cls-1{fill:#050505;}.cls-2{fill:#ffc100;}.cls-3,.cls-7{fill:#fff;}.cls-4{fill:#dd2405;}.cls-5{fill:#020202;}.cls-6{fill:#ff0;}.cls-7{opacity:0.67;}.cls-8{fill:#ff7400;}</style></defs><g id="Capa_2" data-name="Capa 2"><g id="Capa_1-2" data-name="Capa 1"><path class="cls-1" d="M243.44,478.52A218.16,218.16,0,0,1,89.17,106.09,218.16,218.16,0,1,1,397.7,414.62,216.7,216.7,0,0,1,243.44,478.52Z"/><circle class="cls-2" cx="240.71" cy="257.4" r="210.38"/><polyline class="cls-3" points="227.63 75.96 225.55 76.71 211.71 81.73 191.13 95.68 178.15 107.05 156.86 136.75 144.58 156.79 139.72 165.8 119.86 208.71 102.11 275.59 102.11 282.34 97.93 285.3 88.72 288.61 71.94 306.55 65.11 321.79 54.57 361.04 49.84 389.48 172.62 376.76 384.78 373.33 381.3 322.85 378.87 288.94 370.23 266.44 360.07 261.64 353.55 261.64 352.33 250.39 343.8 235.73 330.72 224.47 306.99 207.75 298.63 205.72 286.63 208.71 265.44 202.72 252.31 189.82 246.12 173.55 245.74 167.41 256.45 168 272.87 169.99 295.01 157.7 297.2 112.26 291.43 86.53 261.49 75.96 234.95 75.54"/><path class="cls-4" d="M185.81,60.63,205,44.2l25.82-11.12,20.78-3,13.11,3-.75-4.57-3.41-5.39L256,19.17l-1.59-2.35-11.6-8.26-3.87-7,24.72,2L278.1,8.71l10.69,4.4L305,21.9l16.29,23.66,3.78,11.15,2,9.45L329.59,60,333,44l-1.52-6.6-2.63-3.54-.27-.41-.45-.34,5.42,2.16,9.23,9.64,2.28,2.61,1.59,24.68L339.82,90.6,330,113.25l8.36,3.22,4.41,4.55,6.66,5.29-3.53,13.08L335,151.77l-1.67,4.34.44,13.4-3.47,4.77-9.2-.85-9.78-7.2-1.71-3.58-5.37-3-5.78-1.18L288.86,161l-7.8,7-9.25,2.22-12.89-2.07-8.38-.57-4.63.64,4.28,19,11,13.19,16,5.25,11.65,3H295l2.19,3.13,1.44,11.68,5.47,9.84,4.68,20.79-6,17.29L292.1,289.83l-3.62,2L279.09,283,274.24,274l-2.75-7.83.89-3.32-.89-3.45v-3.87l-.31-2-.92.22s-15.89,16.12-26.51,15.82c0,0-4-3.83-1.6-8s3.59-6.43,3.59-6.43l2.7-2.44,1.91-3,2-1.58-4.15-.66-10-.35H233.9l-3-7.12,1.27-4.76,4.8-4,.61-6,1.62-2.83L236,220.34l-10.48-14.62-.83-11.62-7.56-1.79-4.31-3.83.72-4.73,4.26-2.33,3.58-1.76,1.74-1.92,1.22-2.86,1.14-2.62.23-2.27.11-2.05-1.13-3.66-4.34-3.38s-17.3-16.05-9.78-25.94,1.94-10.81,1.94-10.81l8.87-.23,1.32-4.66,3-3.24,2-1.19,2.93-.35,1.48-3,2.72-.34.46-.69,2.57-1.59,6.08-2.84,15.77-9.78,7.76-4,7-3.64,2.66-7.27L251.94,73.3l-24.12,3.18s-12.44-16.1-43.9-11.19"/><path class="cls-3" d="M313.65,138.44s-4.61,1.25-6.66,7.15-1.42,12.81.74,16,12.82-3.48,12.82-3.48,4.64-12.59-1.35-17.06S313.65,138.44,313.65,138.44Z"/><path class="cls-3" d="M245.52,105.16l23.1-.91,18.88,6.94,9.05,5.28S298,106.18,298,105.73s-4.45-14.89-5.12-15.36-11.12-7.26-11.12-7.26l-10-2.75"/><path class="cls-5" d="M327.07,66.16s-12-68.47-92.65-60L234.26.35S318-8.75,327.07,66.16Z"/><path class="cls-5" d="M328.13,33.08s7.89,5.48-1.06,33.08C327.07,66.16,346.18,43,328.13,33.08Z"/><path class="cls-5" d="M264.67,33.08s4-15.9-25.55-30.4l-8.34,2.6S255.57,13.35,264.67,33.08Z"/><path class="cls-5" d="M264.67,33.08S219.4,22.79,185.74,66.16l-7.59-3.64S215.61,13.65,264.67,33.08Z"/><path class="cls-5" d="M227.82,76.48s-5.46-18.66-45.72-15.62v7.2S213.72,64.42,227.82,76.48Z"/><path class="cls-5" d="M178.15,62.52s-2.88,5.08,3.95,5.54V64.34"/><path class="cls-5" d="M328.13,33.08s41.86,13.7-3.49,79.18l6.82,1.26S376.21,48.83,328.13,33.08Z"/><path class="cls-5" d="M324.64,112.26s42.74,9.18,5.62,39.51l4.7,2.8S379.39,120.45,324.64,112.26Z"/><path class="cls-5" d="M227.82,76.48S130.23,112.42,105.67,283l-7.74,2.28S125.13,100.19,227.82,76.48Z"/><path class="cls-5" d="M299.7,119.69s-44.51-38.82-86.36,13.73l-4.73-4S256.18,72.53,299.7,119.69Z"/><path class="cls-5" d="M294.92,116.21c8.95-45-67.1-39.73-67.1-39.73,93.34-6.07,71.88,43.21,71.88,43.21"/><path class="cls-5" d="M47.89,388.11s-4.55-88.71,50-102.81c0,0-41.4,11.37-41.85,102.81l-8.28,1.82Z"/><path class="cls-5" d="M105.67,283s56-5.46,66.87,80.53c0,0,5.13-86.68-66.87-88"/><path class="cls-5" d="M97.93,285.3s26.31-8.57,50.16,16.56l-2.54-7.31-13.5-8-13.65-4.7-9.85-1.67-6.52-.91"/><path class="cls-5" d="M167.49,324.27S194.61,308.5,201,361c0,0,2.25-52.24-35-41.47"/><path class="cls-5" d="M213.34,133.42s-9.41,13.34,10.61,30.86c0,0-26.41-18.35-15.34-34.88"/><path class="cls-5" d="M224,164.28s4.32,12.06-8.11,17.74C215.84,182,237.15,176.79,224,164.28Z"/><path class="cls-5" d="M211.17,142.89a22.73,22.73,0,0,1,6.56-14.66h-3.28l-2.17,2.54-2.43,2.65v5.84"/><path class="cls-5" d="M264.82,137.16S271,139.49,270,150"/><path class="cls-5" d="M307,145.59s4.76-10,10.45-4.75,5.84,19.3-5.58,19.6l-.08,2.73s11.65.27,11.5-12.14S312.52,130.73,307,145.59Z"/><path class="cls-5" d="M311.86,160.44v2.73c-6.73-.24-6.77-8-5.75-12.83a.42.42,0,0,1,0-.07,1.36,1.36,0,0,1,0-.17,1.85,1.85,0,0,1,.06-.26c.34-1.33,1.52-4.88,4.51-5H311c1.2.13,2.5,1.15,3.71,4.1C317.42,155.54,311.86,160.44,311.86,160.44Z"/><path class="cls-5" d="M311.86,145.1s4.15,1.55,3.52,8.52"/><path class="cls-5" d="M333.9,171.9,335,154.57l-4.7-2.8,3.47,20.81a2.18,2.18,0,0,1,.11-.27A2.7,2.7,0,0,1,333.9,171.9Z"/><path class="cls-5" d="M288.86,210.23c38.52,46.63-3.72,85.07-3.72,85.07,53.69-38.44,9.87-86.59,9.87-86.59"/><path class="cls-5" d="M285.14,295.3l5.66-4.37s-17.71-8.82-19.31-38.16C271.49,252.77,265.81,273.24,285.14,295.3Z"/><path class="cls-5" d="M271.49,252.77s-16.72,14.55-28.73,14.78V273A47.68,47.68,0,0,0,271.49,252.77Z"/><path class="cls-5" d="M297.2,208.71s53.23,17.67,56.41,52.93c0,0,2.48-37.23-53.63-57.25"/><path class="cls-5" d="M353.61,261.64s-17.94,1.35-11.94,27.41a33.73,33.73,0,0,1,.07,14c-1.66,7.23-5.11,18.11-11.79,26.18l-2.61,4.09s-.8,6.14,2.84,1.59,16.46-24.71,14.94-41.55S338.9,275.29,353.61,261.64Z"/><path class="cls-5" d="M332.46,327.38s-6.6-33.21-10.47-45l-.45,7.05,5.8,43.9"/><path class="cls-5" d="M322,282.34s-18.42,62.1-18.19,78.7l-8.21-.77s8.21-52.68,26.4-77.93"/><path class="cls-5" d="M252.31,247.23s-7.89,9.25-9.55,20.32V273S230.09,262.89,252.31,247.23Z"/><path class="cls-5" d="M221.22,195.37a54.86,54.86,0,0,0,20.93,31.39S227.82,210.23,229.1,194c0,0-22.51-4-13.26-12C215.84,182,203.48,190.29,221.22,195.37Z"/><polygon class="cls-6" points="245.91 168.24 253.99 167.56 265.89 167.9 274.84 169.38 282.42 166.5 289.93 161.65 296.45 158.69 304.2 159.68 308.3 162.01 312.13 168.4 317.15 186.82 319.73 195.77 316.17 197.87 305.25 197.5 300.7 196.68 301.08 199.82 292.89 207.6 274.69 206.69 260.44 198.77 251.62 188.01 247.39 177.27 245.91 168.24"/><path class="cls-5" d="M242.15,226.76s-13.35,6.52-13,17.29,23.2,3.18,23.2,3.18S216.07,252.24,242.15,226.76Z"/><path class="cls-5" d="M237.49,222.51a137.71,137.71,0,0,0-7.55,17.6l4.61-4.93,7.6-8.42"/><path class="cls-3" d="M286.63,232.9s11,24.5,0,49C286.63,281.89,316.66,246.78,286.63,232.9Z"/><path class="cls-5" d="M235.12,227.35s-6.33,8.93-6,17.34"/><path class="cls-5" d="M380.91,226s-11,.76-9.26,10.65-3.59-1.46-3.59-2.26,1-7.79,1-7.79l6.41-2.6"/><path class="cls-5" d="M353.61,261.64s24.8-9.33,28.89,27.75,2.28,83.94,2.28,83.94l-10.3-2.5S395,257.32,353.61,261.64Z"/><path class="cls-5" d="M245.74,165.8s-5.86,43.37,43.12,44.43v-3.94S251.35,206.83,245.74,165.8Z"/><path class="cls-5" d="M288.86,206.29s6.86,2.12,12-7.74c0,0,3.32,12.29-12,11.68"/><path class="cls-5" d="M284.22,205.93s8.56,2.17,13.8-3.21l.62,3.64-1.44,2.35h-4.55"/><path class="cls-5" d="M255.59,181.42s27,20.92,43,14.86a25.17,25.17,0,0,0,19,1.1S300.84,196,299.32,191C299.32,191,271,192.33,255.59,181.42Z"/><path class="cls-5" d="M308.3,162a23.7,23.7,0,0,1,3.56,15.92c-1.32,9.1,5.51,14.25,5.81,15.31s2.37,3.42,0,4.14,2.88-2,2.88-2S315.76,166.86,308.3,162Z"/><path class="cls-5" d="M308.3,162s-9-6.48-18.08,1.16-12.58,12.33-32.6,6.42c0,0-2.3-1.25-11.5-1.35a45.15,45.15,0,0,1,25-1.38C284.91,170,288,148.81,308.3,162Z"/><path class="cls-5" d="M312.13,166.76s15.25,8.77,21.16,5.5C333.29,172.26,326.75,182.28,312.13,166.76Z"/><path class="cls-5" d="M332.45,165s2.68,9.74-6,7.63l5.71,2.53,1.15-2.07.44-2.09v-1.44"/><path class="cls-5" d="M329.19,176.27a19.81,19.81,0,0,1-13-5.67"/><path class="cls-5" d="M332.33,164.21s1.41,6-1.11,7.94-.58,1.28-.58,1.28,1.93-1.23,2-1.34.68-2.88.68-2.88l-.13-2.45s1.92,7.86-6.06,6l5.13,1.12,1.06-1.88.24-1.65.63-2.68s1.23,12.28-9.52,7.59l3.12-2.44,3.1.38,1.52-.45,1.23-1.6"/><path class="cls-5" d="M297.2,93.32s-17.38-30.74-71.43-16.84c0,0,53.43-3.47,65.66,18.4"/><path class="cls-5" d="M223.16,179s-12.11,6-6,11.1-1.74,1.51-1.74,1.51l-1.67-1.51-1.91-3.31,1.65-2.7a12.46,12.46,0,0,1,5.08-3.6"/><path class="cls-5" d="M217.17,181.11s4.52-2.71,6.34-6.31,1.06,1.71,1.06,1.71l-2.52,2.2-3,2.18-.91,1.13"/><path class="cls-3" d="M273.49,27.1s39.84-3.19,44.95,45.09C318.44,72.19,303.51,41.11,273.49,27.1Z"/><path class="cls-5" d="M320.55,195.37s1.3,3.91-10.22,3.4l4.76-1.68s5.22,1,2.58-3.85"/><path class="cls-5" d="M250.19,102.27s-31.36,7.67-42.75,29.16"/><path class="cls-3" d="M257.62,137.89s-3.59,9.61-1.69,17.9,12.81,6.38,12.81,6.38l8.47-6.74,2.56-8.77L278.18,135l-5.57-6.37-4.55-1.94-4.83,1.76Z"/><path class="cls-5" d="M257.62,137.89s7-15,15.47-7.12c8.64,8,8.64,29-8.27,29.42l-.11,4.09s17.25.41,17-18.22S265.81,115.6,257.62,137.89Z"/><path class="cls-5" d="M264.82,160.19v4.09c-10-.36-10-11.94-8.51-19.26a.31.31,0,0,0,0-.09l.06-.26c0-.1.06-.24.09-.39.5-2,2.25-7.33,6.68-7.53h.34c1.77.18,3.7,1.72,5.5,6.14C273.05,152.83,264.82,160.19,264.82,160.19Z"/><polygon class="cls-3" points="382.93 302.61 386.19 295.29 388.96 279.63 388.96 255.88 376.67 243.92 369.39 230.84 376.67 224.69 383.63 224.69 391.57 227.99 400.56 236.87 407.84 246.91 413.64 258.36 420.01 253.01 426.04 248.35 430.47 243.92 436.16 237.38 442.63 227.01 454.58 216.68 471.83 207.44 483.06 212 483.06 222.76 476.12 232.81 460.16 246.29 456.06 251.88 468.88 254.3 474.37 257.34 475.74 258.52 478.43 262.72 478.05 268.82 475.54 274 476.12 275.88 481.23 279.5 484.61 284.98 483.42 290.32 480.3 295.57 477.36 298.03 469.62 299.95 468.12 301.68 473.07 313.11 472.1 327.51 467.44 351.06 452.65 365.94 429.33 373.33 405.56 373.33 390.7 362.43 384.78 354.54 382.93 302.61"/><path class="cls-5" d="M412.77,256.86C391.8,210.16,372,224,372,224l1.13,4.63c18.25-13.29,39.48,28.13,39.88,28.92C413,257.28,412.86,257.07,412.77,256.86Z"/><path class="cls-5" d="M373.17,228.48s-7.16,11.29,19.38,27.4l-7.24,1.52S354.67,235.3,372,223.85"/><path class="cls-5" d="M438.23,233.73s22-38.06,41.71-27.6-10.32,32.15-10.32,32.15,22.14-20.32,7.89-27.75S438.23,233.73,438.23,233.73Z"/><path class="cls-5" d="M410.77,252.57s18.7-6.4,27.46-18.84c0,0-3.82,11.29-24.59,24.63"/><path class="cls-5" d="M475.54,258.3s-14.67-9.86-32.87,3.34c-14.07,10.19-15.46,14.58-13.49,16.43l.12.1v0a6.54,6.54,0,0,0,1.39,1.24h0a12.67,12.67,0,0,0,5.5,1.87l.34,2.28,0,.19s-.59,0-1.51,0h0a31.54,31.54,0,0,1-4.33-.48C424,282,416.1,277.64,434.9,262.4,462.19,240.25,475.54,258.3,475.54,258.3Z"/><path class="cls-5" d="M475.54,258.3s7.58,7.72-2.88,13.72l2.88,1.75S484.64,267,475.54,258.3Z"/><path class="cls-5" d="M475.54,273.77s20.92,9.93,1.82,24.26C477.36,298,489.64,290.45,475.54,273.77Z"/><path class="cls-5" d="M419.12,301.45S394,313.05,389,288.93l-2.76,8.65S399.56,320.33,419.12,301.45Z"/><path class="cls-5" d="M468.26,301s-3.87,24.34-33.21,26.84c0,0,17.11,7.39,38.87-12.4Z"/><path class="cls-5" d="M472.66,312.14s18.35,38.44-27.6,59.59-59.91-16.6-59.91-16.6,19.41,19.43,35.64,16.76C432.63,369.94,470.53,367.64,472.66,312.14Z"/><path class="cls-5" d="M444.9,295.76S465.46,269.26,478,277l-2.47-3.2L472.66,272S452.64,277,444.9,295.76Z"/><path class="cls-5" d="M466.31,277.16s11.65-4.9,15.22,6.62V280l-1.06-1.63-4.2-3.59-3.61-1H469"/><path class="cls-5" d="M444.9,295.76s20.09,6,37.4-6.83c.16-.11,0,0-.54,3.15l-4.4,5.95S458.25,307.59,444.9,295.76Z"/><path class="cls-5" d="M469.62,238.28s-11.56,7.46-8.16,13.14-7.61,1.23-7.61,1.23S453.7,245.18,469.62,238.28Z"/><path class="cls-5" d="M457.05,280c-14.11,7.53-26.34,3.27-26.34,3.27s-15.45-9.36-2-4.51a3,3,0,0,0,.39.13c.54.2,1.09.38,1.63.54h0a12.67,12.67,0,0,0,5.5,1.87,30.91,30.91,0,0,0,7.66,0,61.14,61.14,0,0,0,12.46-1.13l.2,0Z"/><path class="cls-5" d="M385.31,257.5s3.32,23.56-1.68,44.18c0,0,9.37-3.19,8.92-45.8"/><path class="cls-5" d="M461.46,277l-4.4,3h0l-.53.11-.2,0-10,2.29-9.76,1.14-1.48.17h0l-5.74-1.88-.74-1.51.5-1.47.24-.7a6.54,6.54,0,0,0,1.39,1.24h0a12.67,12.67,0,0,0,5.5,1.87,30.91,30.91,0,0,0,7.66,0c.57-.06,1.15-.13,1.76-.22h0A37.13,37.13,0,0,0,461.46,277Z"/><path class="cls-7" d="M429.3,278.17v0l-.12-.13Z"/><path class="cls-5" d="M430.71,370.21s-21.24,6.89-45.56-15.08l17.51,18.2,14.58,1.38L433,376.2"/><polyline class="cls-5" points="482.3 288.94 478.88 292.29 476.12 296.08 477.36 298.03 481.52 294.34 482.9 290.78 482.9 289.26"/><path class="cls-5" d="M475.54,298.48s6.92-1,9.38-9.55"/><path class="cls-5" d="M57.94,498.92a17.74,17.74,0,0,1-16.07-10.28l-40.08-87c-.16-.35-.3-.7-.44-1.05l-.18-.46A17.71,17.71,0,0,1,12.11,377a716.85,716.85,0,0,1,226.5-36.53c10.1,0,20.36.21,30.5.64a721.77,721.77,0,0,1,194.67,35.13,17.68,17.68,0,0,1,10.42,24.49l-41.92,87A17.68,17.68,0,0,1,411.19,497a591,591,0,0,0-147.53-25c-8.3-.35-16.7-.52-25-.52A586.71,586.71,0,0,0,63.22,498.12,17.84,17.84,0,0,1,57.94,498.92Z"/><path class="cls-5" d="M85.37,513.36A4.71,4.71,0,0,1,84,515.8a7.58,7.58,0,0,1-3.24,1.72l-3.08.89,2,6.9-2.79.8-4.91-17,5.88-1.69a7.77,7.77,0,0,1,3.51-.29,4.9,4.9,0,0,1,2.56,1.24,5.44,5.44,0,0,1,1.5,5Zm-3.15.47a2.77,2.77,0,0,0,.2-2.27c-.54-1.86-1.86-2.48-4-1.88l-3.08.89,1.6,5.56,3.08-.89A3.46,3.46,0,0,0,82.22,513.83Z"/><path class="cls-5" d="M94.45,520.15a8.64,8.64,0,0,1-4-2.32,9.21,9.21,0,0,1-2.32-4.24,9,9,0,0,1,0-4.81,8.63,8.63,0,0,1,2.39-3.94,9.55,9.55,0,0,1,8.84-2.24,8.51,8.51,0,0,1,4,2.31,9.7,9.7,0,0,1,2.3,9.05,8.4,8.4,0,0,1-2.38,3.94,9.47,9.47,0,0,1-8.83,2.25Zm6.91-4a5.61,5.61,0,0,0,1.52-2.75,7.5,7.5,0,0,0-.1-3.54,7.31,7.31,0,0,0-1.6-3.14,5.56,5.56,0,0,0-2.65-1.67,6.61,6.61,0,0,0-6.07,1.55,5.46,5.46,0,0,0-1.53,2.72,8.06,8.06,0,0,0,1.7,6.68,5.62,5.62,0,0,0,2.65,1.7,6.55,6.55,0,0,0,6.08-1.55Z"/><path class="cls-5" d="M112.87,514.26l5.84-1.31.52,2.29-8.68,2-3.88-17.28,2.84-.64Z"/><path class="cls-5" d="M123.88,511.89l5.86-1.19.47,2.3-8.71,1.77L118,497.42l2.85-.58Z"/><path class="cls-5" d="M135.77,511a8.58,8.58,0,0,1-3.8-2.63,9.13,9.13,0,0,1-2-4.39,9,9,0,0,1,.39-4.8,8.62,8.62,0,0,1,2.69-3.74,9.2,9.2,0,0,1,4.28-1.93,9.3,9.3,0,0,1,4.7.36,8.55,8.55,0,0,1,3.78,2.62,9.67,9.67,0,0,1,1.6,9.19,8.47,8.47,0,0,1-2.67,3.75,9.13,9.13,0,0,1-4.3,1.93A9.24,9.24,0,0,1,135.77,511Zm7.19-3.45a5.53,5.53,0,0,0,1.73-2.63,7.32,7.32,0,0,0,.17-3.54,7.24,7.24,0,0,0-1.35-3.25,5.51,5.51,0,0,0-2.51-1.86,6,6,0,0,0-3.22-.24,6.16,6.16,0,0,0-3,1.31,5.51,5.51,0,0,0-1.73,2.6,8.08,8.08,0,0,0,1.18,6.79,5.55,5.55,0,0,0,2.52,1.89,6.09,6.09,0,0,0,3.22.26A6.2,6.2,0,0,0,143,507.51Z"/><path class="cls-5" d="M168.64,503.32l-7.35.93-.81,3.75-3,.39L161.53,490l3.33-.43,8.54,16.79-3,.39Zm-1.1-2.25-3.9-7.8-1.84,8.53Z"/><path class="cls-5" d="M178.58,505.4a5.25,5.25,0,0,1-2.4-1.55,4.45,4.45,0,0,1-1.07-2.58l3.09-.3a2.81,2.81,0,0,0,1.08,1.79,3.2,3.2,0,0,0,2.32.51,3.4,3.4,0,0,0,2.26-.95,2.36,2.36,0,0,0,.66-1.94,2.09,2.09,0,0,0-.66-1.4,3.59,3.59,0,0,0-1.38-.73,20.9,20.9,0,0,0-2.21-.45,20.24,20.24,0,0,1-2.89-.65,4.71,4.71,0,0,1-2-1.28,4.28,4.28,0,0,1-1-2.57,4.71,4.71,0,0,1,.5-2.73,4.93,4.93,0,0,1,2-2,7.94,7.94,0,0,1,3.11-.92,6.71,6.71,0,0,1,4.32.87,4.73,4.73,0,0,1,2.16,3.34l-3.19.31a2.36,2.36,0,0,0-1.08-1.56,3.39,3.39,0,0,0-2.27-.47,3.18,3.18,0,0,0-2,.83,2.27,2.27,0,0,0-.61,1.91,1.92,1.92,0,0,0,.63,1.28,3.52,3.52,0,0,0,1.33.7,20.51,20.51,0,0,0,2.15.46,20.34,20.34,0,0,1,2.94.68,4.72,4.72,0,0,1,2,1.3,4.26,4.26,0,0,1,1,2.6,4.76,4.76,0,0,1-.48,2.61,5.22,5.22,0,0,1-1.91,2.12,7,7,0,0,1-3.19,1A8.07,8.07,0,0,1,178.58,505.4Z"/><path class="cls-5" d="M201.6,500.32l-7.4.51-1,3.69-3,.21,5.13-18.12,3.36-.23,7.52,17.26-3,.21Zm-1-2.31-3.42-8-2.35,8.41Z"/><path class="cls-5" d="M218.92,486.52a7.76,7.76,0,0,1,3.39,3,10.13,10.13,0,0,1,.34,9.41,7.66,7.66,0,0,1-3.17,3.16,11.14,11.14,0,0,1-4.92,1.23l-5.78.21-.63-17.7,5.77-.2A10.8,10.8,0,0,1,218.92,486.52Zm.26,12.57a6.49,6.49,0,0,0,1.48-4.79,6.66,6.66,0,0,0-1.83-4.76A6.3,6.3,0,0,0,214,488l-2.88.11.47,13,2.88-.11A6.38,6.38,0,0,0,219.18,499.09Z"/><path class="cls-5" d="M230.21,501.93a8.55,8.55,0,0,1-3.29-3.22,9.58,9.58,0,0,1,0-9.34,8.62,8.62,0,0,1,3.28-3.23,9.58,9.58,0,0,1,9.12,0,8.46,8.46,0,0,1,3.28,3.22,9.7,9.7,0,0,1,0,9.33,8.51,8.51,0,0,1-3.27,3.25,9.12,9.12,0,0,1-4.57,1.17A9.24,9.24,0,0,1,230.21,501.93Zm7.68-2.18a5.6,5.6,0,0,0,2.14-2.3,8,8,0,0,0,0-6.89,5.57,5.57,0,0,0-2.16-2.27,6.62,6.62,0,0,0-6.27,0,5.51,5.51,0,0,0-2.15,2.28,7.24,7.24,0,0,0-.76,3.44,7.31,7.31,0,0,0,.78,3.45,5.53,5.53,0,0,0,2.16,2.28,6.09,6.09,0,0,0,3.14.8A6.26,6.26,0,0,0,237.89,499.75Z"/><path class="cls-5" d="M266.74,503.7l-2.1-2.28a8.5,8.5,0,0,1-2.86,1.77,8.77,8.77,0,0,1-3.38.48,8.11,8.11,0,0,1-3.31-.81,5.09,5.09,0,0,1-2.15-2,5.28,5.28,0,0,1-.67-2.9,5.46,5.46,0,0,1,1.19-3.22,7,7,0,0,1,3.21-2.14,6.23,6.23,0,0,1-1-1.72,4.6,4.6,0,0,1-.23-1.73,3.66,3.66,0,0,1,.69-2.06,4.07,4.07,0,0,1,1.78-1.37,5.79,5.79,0,0,1,2.62-.42,5.29,5.29,0,0,1,2.53.68,3.78,3.78,0,0,1,1.51,1.64,3.88,3.88,0,0,1,.32,2.23l-2.9-.13a2,2,0,0,0-.39-1.48,1.71,1.71,0,0,0-1.3-.58,1.92,1.92,0,0,0-1.39.43,1.63,1.63,0,0,0-.57,1.19,2.7,2.7,0,0,0,.33,1.38,11.36,11.36,0,0,0,1.31,1.8l4.48,4.87,1.94-2.9,3.13.14-2.46,3.82-.69,1,4.12,4.47Zm-3.92-4.28-4.48-4.91q-3.06,1.07-3.16,3.48a2.83,2.83,0,0,0,.87,2.22,3.62,3.62,0,0,0,2.46,1A5.66,5.66,0,0,0,262.82,499.42Z"/><path class="cls-5" d="M291.37,497.94a4.54,4.54,0,0,1-.16,5.27,4.76,4.76,0,0,1-2.17,1.53,7.14,7.14,0,0,1-3.12.35l-7.06-.61,1.53-17.64,6.73.58a7.35,7.35,0,0,1,3,.88,4.5,4.5,0,0,1,1.81,1.81,4.12,4.12,0,0,1,.46,2.35,4,4,0,0,1-1,2.47,4.73,4.73,0,0,1-2.31,1.31A3.94,3.94,0,0,1,291.37,497.94Zm-3.13,4.26a2.46,2.46,0,0,0,1-1.91,2.59,2.59,0,0,0-.71-2.13,3.56,3.56,0,0,0-2.3-1l-3.8-.33-.48,5.51,3.91.34A3.53,3.53,0,0,0,288.24,502.2Zm-5.6-7.7,3.58.31a3.5,3.5,0,0,0,2.28-.45,2.29,2.29,0,0,0,1-1.8,2.32,2.32,0,0,0-.64-1.93,3.32,3.32,0,0,0-2.16-.87l-3.58-.31Z"/><path class="cls-5" d="M303.87,507l-3.24-7.5-2.2-.25-.81,7-2.88-.33,2-17.59,6.08.7a7.49,7.49,0,0,1,3.34,1.1,5,5,0,0,1,1.89,2.14,5.26,5.26,0,0,1,.39,2.74,5.37,5.37,0,0,1-1.36,3,5.15,5.15,0,0,1-3.3,1.56l3.51,7.79ZM298.7,496.9l3.19.37a3.36,3.36,0,0,0,2.53-.53,2.92,2.92,0,0,0,1.07-2.08,2.8,2.8,0,0,0-.56-2.23,3.47,3.47,0,0,0-2.36-1.06l-3.19-.37Z"/><path class="cls-5" d="M314.21,507.31a8.66,8.66,0,0,1-2.78-3.68,9.58,9.58,0,0,1,1.36-9.24,8.61,8.61,0,0,1,3.73-2.71,9.17,9.17,0,0,1,4.66-.48,9.27,9.27,0,0,1,4.36,1.81,8.61,8.61,0,0,1,2.77,3.67,9.71,9.71,0,0,1-1.37,9.24,8.5,8.5,0,0,1-3.71,2.72,9.55,9.55,0,0,1-9-1.33Zm7.91-1a5.59,5.59,0,0,0,2.47-2,7.37,7.37,0,0,0,1.27-3.3,7.26,7.26,0,0,0-.27-3.51A5.41,5.41,0,0,0,323.8,495a6.14,6.14,0,0,0-3-1.24,6.24,6.24,0,0,0-3.21.32,5.45,5.45,0,0,0-2.46,1.93,7.27,7.27,0,0,0-1.28,3.29,7.35,7.35,0,0,0,.27,3.53,5.47,5.47,0,0,0,1.79,2.58,6.56,6.56,0,0,0,6.2.92Z"/><path class="cls-5" d="M341.33,509.09,334,507.76l-1.9,3.33-3-.54,9.42-16.31,3.31.61,3.06,18.58-3-.55Zm-.38-2.47L339.6,498l-4.34,7.58Z"/><path class="cls-5" d="M350.18,514.08a5.3,5.3,0,0,1-1.82-2.2,4.4,4.4,0,0,1-.24-2.79l3,.65a2.77,2.77,0,0,0,.49,2A3.16,3.16,0,0,0,353.7,513a3.44,3.44,0,0,0,2.44-.22,2.32,2.32,0,0,0,1.21-1.65,2,2,0,0,0-.2-1.53,3.63,3.63,0,0,0-1.09-1.12,20.74,20.74,0,0,0-2-1.1,19.69,19.69,0,0,1-2.56-1.49A4.7,4.7,0,0,1,350,504a4.17,4.17,0,0,1-.2-2.75,4.73,4.73,0,0,1,1.3-2.46,4.93,4.93,0,0,1,2.46-1.27,7.79,7.79,0,0,1,3.25.06,6.64,6.64,0,0,1,3.85,2.14,4.78,4.78,0,0,1,1.05,3.83l-3.14-.67a2.36,2.36,0,0,0-.55-1.81,3.44,3.44,0,0,0-2-1.13,3.06,3.06,0,0,0-2.12.2,2.19,2.19,0,0,0-1.16,1.62,1.9,1.9,0,0,0,.21,1.42,3.48,3.48,0,0,0,1.06,1.07,19.41,19.41,0,0,0,1.91,1.08,22.83,22.83,0,0,1,2.6,1.55,4.72,4.72,0,0,1,1.53,1.85,4.22,4.22,0,0,1,.2,2.79,4.85,4.85,0,0,1-1.24,2.34,5.22,5.22,0,0,1-2.47,1.44,7,7,0,0,1-3.35,0A8,8,0,0,1,350.18,514.08Z"/><path class="cls-5" d="M377.7,502.66l-.56,2.31-4.58-1.11L369,518.77l-2.83-.68,3.59-14.91-4.6-1.11.55-2.3Z"/><path class="cls-5" d="M383.07,506.5l-1.34,5,5.91,1.58-.62,2.29-5.9-1.58-1.4,5.24,6.64,1.78-.61,2.29-9.45-2.53,4.58-17.13,9.45,2.53-.61,2.29Z"/><path class="cls-5" d="M397.89,526.64,396,518.7l-2.12-.63-2,6.8-2.78-.82,5-17,5.87,1.72a7.73,7.73,0,0,1,3.11,1.66,4.91,4.91,0,0,1,1.49,2.43,5.19,5.19,0,0,1-.08,2.76,5.28,5.28,0,0,1-1.85,2.74,5.11,5.11,0,0,1-3.51,1l2.14,8.28Zm-3.39-10.79,3.08.9a3.34,3.34,0,0,0,2.59-.09,2.93,2.93,0,0,0,1.41-1.87,2.84,2.84,0,0,0-.17-2.29,3.49,3.49,0,0,0-2.16-1.44l-3.08-.91Z"/><path class="cls-3" d="M55.36,492.2a12,12,0,0,1-10.93-7l-40.07-87q-.17-.36-.3-.72l-.18-.46a12,12,0,0,1,7.43-15.74A711.23,711.23,0,0,1,236,345.08c10,0,20.21.21,30.26.63a716.36,716.36,0,0,1,193.14,34.85,12,12,0,0,1,7.1,16.66l-41.93,87A12,12,0,0,1,413.77,491a11.82,11.82,0,0,1-3.51-.53,596.7,596.7,0,0,0-148.94-25.26c-8.38-.35-16.87-.53-25.23-.53A592.76,592.76,0,0,0,59,491.65,12.09,12.09,0,0,1,55.36,492.2Z"/><path class="cls-8" d="M455.69,392l-41.92,87a610.35,610.35,0,0,0-358.41,1.2l-40.08-87-.17-.46A706,706,0,0,1,455.69,392Z"/><path d="M101.14,460a5,5,0,0,1-4.84-3.93L89,421.78l-7.66,1.62a5.07,5.07,0,0,1-1,.11,4.94,4.94,0,0,1-4.84-3.92l-3.35-15.77A5,5,0,0,1,76,397.94l41.31-8.76a4.45,4.45,0,0,1,1-.11,4.94,4.94,0,0,1,4.84,3.92l3.35,15.77a5,5,0,0,1-3.82,5.88l-7.62,1.61,7.28,34.3a5,5,0,0,1-3.82,5.87l-16.33,3.47A5.33,5.33,0,0,1,101.14,460Z"/><path class="cls-3" d="M107.05,411.11l8.31,39.14L99,453.71l-8.31-39.14-12.51,2.66-3.35-15.77,41.31-8.77,3.35,15.77Z"/><path d="M156.94,451.24a34.45,34.45,0,0,1-26.76-55.68,34.11,34.11,0,0,1,23.32-13,35.45,35.45,0,0,1,4.44-.29,32.66,32.66,0,0,1,20.63,7.38,34.41,34.41,0,0,1-17,61.27A38.5,38.5,0,0,1,156.94,451.24Zm.4-42.43a9.24,9.24,0,0,0-1,.07,6.77,6.77,0,0,0-4.86,2.88,8.34,8.34,0,0,0,1.43,11.31,6.73,6.73,0,0,0,4.42,1.67h0a7.4,7.4,0,0,0,5.87-2.93,8.5,8.5,0,0,0-1.42-11.36A6.67,6.67,0,0,0,157.34,408.81Z"/><path class="cls-3" d="M152,386.17a27.71,27.71,0,0,1,21.37,6.07,29.49,29.49,0,0,1-36.3,46.49,29.47,29.47,0,0,1-5.13-41.43A29.27,29.27,0,0,1,152,386.17Zm1.56,16.47a11.66,11.66,0,0,0-8.22,4.84,13.28,13.28,0,0,0,2.29,18.11A12,12,0,0,0,165,423.44a13.42,13.42,0,0,0-2.27-18.16A11.68,11.68,0,0,0,153.56,402.64Z"/><path d="M219.68,446.43a30.24,30.24,0,0,1-22.22-9.51,35,35,0,0,1-10.11-24.15c-.33-9.63,2.6-17.9,8.7-24.59a32.11,32.11,0,0,1,23.48-10.6h.89a35.5,35.5,0,0,1,10,1.58,5,5,0,0,1,3.55,4.58l.57,16.69a5,5,0,0,1-.73,2.76l1.33,0h.17a5,5,0,0,1,3.75,1.72,26,26,0,0,1,6.8,16.33,23,23,0,0,1-7,17.7,25.87,25.87,0,0,1-18,7.53Zm-5.22-36a11.58,11.58,0,0,0-.1,2,13.58,13.58,0,0,0,.24,2.12Z"/><path class="cls-3" d="M217.24,407.3l15.9-.54a21.11,21.11,0,0,1,5.6,13.26,18.17,18.17,0,0,1-5.55,14,21,21,0,0,1-14.63,6.09,25.37,25.37,0,0,1-19.69-8,30.14,30.14,0,0,1-8.7-20.85q-.42-12.5,7.41-21.07a27.23,27.23,0,0,1,20-9,29.47,29.47,0,0,1,9.26,1.38l.57,16.68a17.1,17.1,0,0,0-7.25-1.6,13.09,13.09,0,0,0-9.47,4,12.75,12.75,0,0,0-3.4,9.62c.14,4,1.39,7.09,3.78,9.34s5.52,3.31,9.44,3.17q3.75-.12,3.67-2.3-.06-1.65-2.52-1.56l-4,.13Z"/><path d="M266.87,446.8l-1.58,0c-7.75-.35-13.77-3-17.87-8-4-4.83-5.81-11.44-5.44-19.65l1.59-35.83a5,5,0,0,1,5-4.73h0a12.32,12.32,0,0,1-1.23-6,12.34,12.34,0,0,1,12.26-11.76h.59a12.1,12.1,0,0,1,8.58,4,11.33,11.33,0,0,1,.89,1.08,13.19,13.19,0,0,1,1-1,12.08,12.08,0,0,1,8.3-3.23h.6a12.32,12.32,0,0,1,11.76,12.85,12.33,12.33,0,0,1-1.76,5.88,4.91,4.91,0,0,1,3.22,1.59,5,5,0,0,1,1.3,3.56l-1.62,36.36c-.35,7.73-3,14-8,18.54C279.75,444.65,273.86,446.8,266.87,446.8Z"/><path class="cls-3" d="M286.94,384l-1.62,36.36q-.42,9.62-6.41,15.11t-15.52,5.07q-9.48-.42-14.27-6.23T244.8,418l1.6-35.82,16.68.74-1.6,35.78c-.15,3.43,1,5.19,3.43,5.3s3.61-1.55,3.76-5l1.6-35.78Zm-29.13-19.57a7.38,7.38,0,1,1-5.29,1.93A7.06,7.06,0,0,1,257.81,364.38Zm19.35.86a7.37,7.37,0,1,1-5.34,1.93A7.1,7.1,0,0,1,277.16,365.24Z"/><path d="M312.43,449.11a4.53,4.53,0,0,1-.52,0l-16.6-1.75a5,5,0,0,1-4.41-5.44l5.87-55.82a4.95,4.95,0,0,1,4.93-4.44,4.36,4.36,0,0,1,.51,0l16.61,1.74a5,5,0,0,1,4.41,5.45l-5.87,55.82a5,5,0,0,1-4.93,4.44Z"/><path class="cls-3" d="M316.18,387l-5.87,55.82-16.61-1.74,5.87-55.82Z"/><path d="M331.24,452.83a27.92,27.92,0,0,1-4.23-.34,23.65,23.65,0,0,1-9.61-3.83,5,5,0,0,1-2.13-4.87l2.49-16.05a5,5,0,0,1,8.17-3,6.37,6.37,0,0,0,1.12.82c-.18-.57-.45-1.37-.86-2.46a31.38,31.38,0,0,1-1.94-16.08,23.66,23.66,0,0,1,9.63-15.86A23.25,23.25,0,0,1,348,386.38a25,25,0,0,1,3.82.3,25.76,25.76,0,0,1,8.08,2.7,4.94,4.94,0,0,1,2.58,5.13L360,410.32a5,5,0,0,1-2.66,3.67,5,5,0,0,1-2.24.53,4.92,4.92,0,0,1-2.29-.57c-.29-.15-.53-.26-.71-.34a9.65,9.65,0,0,0,.49,1.61l.91,2.38a28.11,28.11,0,0,1,1.91,14.52,23.46,23.46,0,0,1-9.89,16.08A24.22,24.22,0,0,1,331.24,452.83Z"/><path class="cls-3" d="M355.46,392.43,353,408.24a9.49,9.49,0,0,0-2.67-1,4.39,4.39,0,0,0-3.42.88,4.66,4.66,0,0,0-1.86,3.13,9.26,9.26,0,0,0,.81,4.45l.92,2.39a23.18,23.18,0,0,1,1.63,12,18.59,18.59,0,0,1-7.87,12.8,19.58,19.58,0,0,1-14.91,3.43,18.66,18.66,0,0,1-7.6-3l2.49-16.05a8.21,8.21,0,0,0,4,2.15,5.39,5.39,0,0,0,3.79-.68,4,4,0,0,0,1.93-2.89c.12-.81-.37-2.7-1.49-5.68A26.34,26.34,0,0,1,327,406.5a18.82,18.82,0,0,1,7.69-12.65,18.31,18.31,0,0,1,14.22-3.6A20.45,20.45,0,0,1,355.46,392.43Z"/><path d="M365.93,458.83a27.25,27.25,0,0,1-5.61-.6,23.69,23.69,0,0,1-9.38-4.36,5,5,0,0,1-1.86-5L352.45,433a5,5,0,0,1,8.32-2.51,6.58,6.58,0,0,0,1.07.89c-.14-.59-.37-1.4-.72-2.5a31.36,31.36,0,0,1-1.05-16.16,24.59,24.59,0,0,1,23.56-19.39,24.68,24.68,0,0,1,5.08.55,25.6,25.6,0,0,1,7.92,3.13,5,5,0,0,1,2.3,5.27l-3.32,15.65a4.95,4.95,0,0,1-7.38,3.23c-.28-.17-.51-.29-.68-.38a9.18,9.18,0,0,0,.39,1.63l.79,2.43a28.28,28.28,0,0,1,1.11,14.61A23.52,23.52,0,0,1,379.07,455,24.23,24.23,0,0,1,365.93,458.83Z"/><path class="cls-3" d="M392,399.93l-3.32,15.65a9.25,9.25,0,0,0-2.6-1.18,4.35,4.35,0,0,0-3.47.69,4.67,4.67,0,0,0-2,3,9.35,9.35,0,0,0,.56,4.49l.79,2.44a23.32,23.32,0,0,1,1,12.06,18.64,18.64,0,0,1-8.57,12.35,19.59,19.59,0,0,1-15.07,2.6,18.56,18.56,0,0,1-7.42-3.46l3.36-15.89a8.22,8.22,0,0,0,3.83,2.37,5.37,5.37,0,0,0,3.82-.48,4,4,0,0,0,2.08-2.77c.17-.81-.22-2.72-1.18-5.76a26.41,26.41,0,0,1-.93-13.65,18.79,18.79,0,0,1,8.37-12.2,18.27,18.27,0,0,1,14.4-2.81A20.57,20.57,0,0,1,392,399.93Z"/><path class="cls-5" d="M505.84,377.88a9.47,9.47,0,1,1-9.38-9.21A9.27,9.27,0,0,1,505.84,377.88Zm-16.57,0a7.17,7.17,0,0,0,7.19,7.36,7.06,7.06,0,0,0,7-7.3,7.11,7.11,0,1,0-14.21-.06Zm5.68,4.77h-2.14v-9.21a25.26,25.26,0,0,1,3.54-.28,4.87,4.87,0,0,1,3.14.73,2.32,2.32,0,0,1,1,2,2.38,2.38,0,0,1-1.91,2.19v.11c.9.28,1.35,1,1.63,2.25a8.06,8.06,0,0,0,.67,2.24H498.6a7.18,7.18,0,0,1-.73-2.24c-.17-1-.73-1.41-1.91-1.41h-1Zm.05-5.16h1c1.18,0,2.14-.4,2.14-1.35s-.62-1.4-2-1.4a5,5,0,0,0-1.18.11Z"/><polygon class="cls-3" points="247.58 122.36 244.16 123.24 233.03 125.76 226.49 133.02 223.7 142.01 225.52 142.89 231.6 142.07 245.19 134.9 248.55 124.32 247.58 122.36"/><path class="cls-5" d="M247.15,122.42s-21.53,4.39-21.38,20.47h-3S222.89,121.06,247.15,122.42Z"/><path class="cls-5" d="M225.77,142.83s21.54-4.38,21.38-20.47h3S250,144.19,225.77,142.83Z"/><path class="cls-5" d="M353.61,261.64s-14,9.25-6.74,28.75l-3.41,1.42L342.1,277l1.11-8.72,2.74-3.2"/><path class="cls-5" d="M346.87,290.39s6.88,14.68-14.41,41.31l2.89-7.79,5.09-10.61,3.1-11.62.15-8.1-.49-4.65"/><path class="cls-5" d="M265,157l-33-9.78s-5.59.8-2.56,4.83c1.53,2,34,8.4,35.26,7.43A1.89,1.89,0,0,0,265,157Z"/><path class="cls-5" d="M265.23,156.38l-37.88-.85s-2.38,4.09,2.15,4.71c2.52.35,35-.12,36-1.37A1.88,1.88,0,0,0,265.23,156.38Z"/><path class="cls-5" d="M318.05,159l12-2.63a2.19,2.19,0,0,1,.6,3.22c-.64,1.09-12.23,1.68-12.62,1A1.88,1.88,0,0,1,318.05,159Z"/><path class="cls-5" d="M318,158.64,331.15,162s.59,2.74-1,2.67c-.89,0-12.09-3.64-12.37-4.51A1.65,1.65,0,0,1,318,158.64Z"/></g></g></svg>