<svg xmlns="http://www.w3.org/2000/svg" viewBox="0 0 563.07 424.84"><defs><style>.cls-1{fill:#050505;}.cls-2{fill:#ffc100;}.cls-3{fill:#fff;}.cls-4{fill:#dd2405;}.cls-5{fill:#020202;}.cls-6{fill:#ff0;}.cls-7{fill:#0a0a0a;}.cls-8{fill:#070707;}.cls-9{fill:#ff7400;}</style></defs><g id="Capa_2" data-name="Capa 2"><g id="Capa_1-2" data-name="Capa 1"><path class="cls-1" d="M269.35,401.73A183.15,183.15,0,0,1,139.84,89.06a183.15,183.15,0,0,1,259,259A182,182,0,0,1,269.35,401.73Z"/><circle class="cls-2" cx="267.06" cy="216.09" r="176.62"/><polygon class="cls-3" points="256.07 63.77 254.33 64.4 242.72 68.61 225.44 80.33 214.54 89.87 196.66 114.8 186.35 131.63 182.28 139.19 165.6 175.22 150.7 231.36 150.7 237.03 147.19 239.51 139.46 242.29 125.37 257.35 119.64 270.15 110.79 303.1 106.82 326.98 209.9 316.3 388 313.42 385.08 271.04 383.05 242.57 375.79 223.68 367.26 219.65 361.79 219.65 360.77 210.2 353.61 197.9 342.63 188.44 322.7 174.41 315.69 172.7 305.61 175.22 287.82 170.19 276.8 159.36 271.6 145.7 271.28 140.54 280.27 141.04 294.06 142.71 312.64 132.39 314.48 94.25 309.64 72.65 284.5 63.77 262.22 63.41 256.07 63.77"/><path class="cls-4" d="M221,50.9,237,37.1l21.68-9.33,17.45-2.55,11,2.55-.62-3.83-2.87-4.53-3.82-3.31-1.33-2-9.74-6.94-3.25-5.92L286.29,3l12.16,4.33,9,3.69,13.62,7.39,13.67,19.86,3.18,9.36,1.66,7.94,2.11-5.22,2.87-13.42-1.28-5.54-2.2-3-.23-.34-.38-.29L345,29.58l7.75,8.1,1.91,2.19L356,60.59l-5.72,15.47-8.3,19,7,2.71,3.71,3.82,5.59,4.44-3,11-9.15,10.39-1.4,3.65.37,11.25-2.91,4-7.73-.71-8.21-6-1.43-3-4.51-2.49-4.85-1-8,2.14-6.55,5.85-7.76,1.87-10.83-1.74-7-.48-3.88.54,3.58,16,9.24,11.08,13.45,4.4,9.78,2.52h5.16l1.84,2.62,1.21,9.81,4.59,8.26,3.93,17.46-5.07,14.51-8.94,15.43-3,1.67-7.88-7.42-4.08-7.5-2.3-6.57.74-2.79-.74-2.89v-3.25l-.26-1.67-.77.18s-13.34,13.54-22.26,13.28c0,0-3.33-3.22-1.34-6.7s3-5.39,3-5.39l2.27-2.06,1.6-2.47,1.65-1.33-3.49-.55-8.41-.29h-3.56l-2.55-6,1.07-4,4-3.39.51-5,1.37-2.38L263.14,185l-8.8-12.28-.7-9.75-6.35-1.5-3.61-3.22.6-4,3.58-2,3-1.48,1.46-1.6,1-2.41,1-2.2.2-1.9.09-1.72-1-3.07L250,135.07s-14.53-13.46-8.21-21.77,1.63-9.07,1.63-9.07l7.45-.19,1.1-3.92,2.55-2.72,1.72-1,2.46-.29,1.24-2.48,2.28-.29.39-.57,2.16-1.34,5.1-2.38,13.24-8.22,6.52-3.31,5.84-3,2.23-6.11-21.21-6.82L256.24,64.2s-10.45-13.51-36.86-9.39Z"/><path class="cls-3" d="M328.29,116.23s-3.87,1-5.59,6-1.19,10.76.62,13.48,10.77-2.92,10.77-2.92S338,122.21,333,118.45,328.29,116.23,328.29,116.23Z"/><path class="cls-3" d="M271.09,88.29l19.4-.77,15.85,5.82,7.6,4.44s1.19-8.64,1.19-9-3.74-12.5-4.3-12.89-9.33-6.1-9.33-6.1l-8.39-2.3"/><path class="cls-5" d="M339.56,55.55S329.5-1.94,261.77,5.19l-.12-4.9S331.92-7.35,339.56,55.55Z"/><path class="cls-5" d="M340.45,27.77s6.62,4.6-.89,27.78C339.56,55.55,355.6,36.07,340.45,27.77Z"/><path class="cls-5" d="M287.17,27.77s3.38-13.35-21.45-25.52l-7,2.18S279.53,11.2,287.17,27.77Z"/><path class="cls-5" d="M287.17,27.77s-38-8.64-66.26,27.78l-6.37-3.06S246,11.46,287.17,27.77Z"/><path class="cls-5" d="M256.24,64.2s-4.59-15.66-38.39-13.11v6S244.4,54.08,256.24,64.2Z"/><path class="cls-5" d="M214.54,52.49s-2.42,4.26,3.31,4.65V54"/><path class="cls-5" d="M340.45,27.77s35.14,11.5-2.93,66.48l5.72,1.06S380.81,41,340.45,27.77Z"/><path class="cls-5" d="M337.52,94.25s35.88,7.7,4.72,33.16l3.94,2.36S383.48,101.12,337.52,94.25Z"/><path class="cls-5" d="M256.24,64.2S174.31,94.38,153.69,237.6l-6.5,1.91S170,84.11,256.24,64.2Z"/><path class="cls-5" d="M316.58,100.49s-37.36-32.6-72.5,11.52l-4-3.37S280,60.89,316.58,100.49Z"/><path class="cls-5" d="M312.57,97.56c7.51-37.75-56.33-33.36-56.33-33.36,78.36-5.09,60.34,36.29,60.34,36.29"/><path class="cls-5" d="M105.18,325.83s-3.82-74.48,42-86.32c0,0-34.75,9.55-35.13,86.32l-7,1.53Z"/><path class="cls-5" d="M153.69,237.6s47-4.58,56.14,67.6c0,0,4.31-72.76-56.14-73.84Z"/><path class="cls-5" d="M147.19,239.51s22.09-7.19,42.11,13.91l-2.13-6.14-11.33-6.75-11.46-3.95-8.27-1.4-5.48-.76Z"/><path class="cls-5" d="M205.59,272.23S228.35,259,233.7,303.1c0,0,1.89-43.86-29.42-34.82Z"/><path class="cls-5" d="M244.08,112s-7.9,11.2,8.91,25.91c0,0-22.17-15.41-12.88-29.28Z"/><path class="cls-5" d="M253,137.92s3.63,10.12-6.81,14.89C246.18,152.81,264.07,148.42,253,137.92Z"/><path class="cls-5" d="M242.25,120a19.09,19.09,0,0,1,5.52-12.31H245l-1.82,2.13-2,2.23v4.9Z"/><path class="cls-5" d="M287.3,115.14s5.15,2,4.38,10.75Z"/><path class="cls-5" d="M322.7,122.22s4-8.37,8.78-4,4.9,16.2-4.69,16.45l-.06,2.29s9.78.23,9.65-10.19S327.35,109.75,322.7,122.22Z"/><path class="cls-5" d="M326.79,134.69V137c-5.65-.2-5.69-6.68-4.83-10.77a.12.12,0,0,0,0,0l0-.14c0-.06,0-.14.05-.23.29-1.11,1.28-4.09,3.79-4.2H326c1,.1,2.1,1,3.12,3.44C331.46,130.58,326.79,134.69,326.79,134.69Z"/><path class="cls-5" d="M326.79,121.81s3.48,1.31,2.95,7.16Z"/><path class="cls-5" d="M345.29,144.31l.89-14.54-3.94-2.36,2.91,17.47a2.18,2.18,0,0,1,.09-.23C345.25,144.54,345.27,144.42,345.29,144.31Z"/><path class="cls-5" d="M307.48,176.49c32.34,39.15-3.12,71.42-3.12,71.42,45.07-32.27,8.28-72.69,8.28-72.69Z"/><path class="cls-5" d="M304.36,247.91l4.75-3.67s-14.87-7.4-16.21-32C292.9,212.2,288.13,229.39,304.36,247.91Z"/><path class="cls-5" d="M292.9,212.2s-14,12.22-24.12,12.41v4.59A40,40,0,0,0,292.9,212.2Z"/><path class="cls-5" d="M314.48,175.22s44.69,14.83,47.36,44.43c0,0,2.08-31.26-45-48.06Z"/><path class="cls-5" d="M361.84,219.65s-15.06,1.13-10,23a28.45,28.45,0,0,1,.06,11.73c-1.4,6.07-4.29,15.2-9.9,22l-2.2,3.43s-.66,5.16,2.39,1.34,13.81-20.75,12.54-34.88S349.49,231.11,361.84,219.65Z"/><path class="cls-5" d="M344.08,274.84S338.54,247,335.3,237l-.39,5.92,4.87,36.85Z"/><path class="cls-5" d="M335.3,237S319.83,289.16,320,303.1l-6.89-.65S320,258.23,335.3,237Z"/><path class="cls-5" d="M276.8,207.56s-6.62,7.76-8,17.05v4.59S258.15,220.7,276.8,207.56Z"/><path class="cls-5" d="M250.7,164a46.07,46.07,0,0,0,17.57,26.36s-12-13.88-11-27.5c0,0-18.9-3.38-11.13-10.06C246.18,152.81,235.8,159.75,250.7,164Z"/><polygon class="cls-6" points="271.43 141.24 278.21 140.67 288.2 140.96 295.71 142.2 302.08 139.78 308.38 135.71 313.85 133.22 320.36 134.06 323.8 136.01 327.01 141.37 331.23 156.84 333.4 164.35 330.4 166.11 321.24 165.81 317.42 165.12 317.74 167.75 310.86 174.28 295.58 173.52 283.62 166.87 276.22 157.84 272.67 148.82 271.43 141.24"/><path class="cls-5" d="M268.27,190.37s-11.21,5.47-10.95,14.51,19.48,2.68,19.48,2.68S246.37,211.76,268.27,190.37Z"/><path class="cls-5" d="M264.35,186.8A117,117,0,0,0,258,201.58l3.88-4.15,6.38-7.06Z"/><path class="cls-3" d="M305.61,195.53s9.23,20.56,0,41.12C305.61,236.65,330.82,207.18,305.61,195.53Z"/><path class="cls-5" d="M262.36,190.87s-5.31,7.49-5,14.56Z"/><path class="cls-5" d="M384.76,189.69s-9.23.64-7.78,8.94-3-1.23-3-1.9.82-6.53.82-6.53l5.38-2.19Z"/><path class="cls-5" d="M361.84,219.65s20.82-7.83,24.25,23.3S388,313.41,388,313.41l-8.64-2.1S396.6,216,361.84,219.65Z"/><path class="cls-5" d="M271.28,139.19s-4.92,36.41,36.2,37.3v-3.31S276,173.64,271.28,139.19Z"/><path class="cls-5" d="M307.48,173.18s5.76,1.78,10.07-6.49c0,0,2.79,10.31-10.07,9.8Z"/><path class="cls-5" d="M303.59,172.88s7.18,1.83,11.58-2.69l.52,3.05-1.21,2h-3.82Z"/><path class="cls-5" d="M279.55,152.3s22.7,17.57,36.14,12.48a21.14,21.14,0,0,0,16,.92s-14.13-1.18-15.41-5.38C316.26,160.32,292.49,161.47,279.55,152.3Z"/><path class="cls-5" d="M323.8,136a19.88,19.88,0,0,1,3,13.36c-1.11,7.64,4.62,12,4.88,12.86s2,2.87,0,3.47,2.42-1.69,2.42-1.69S330.06,140.08,323.8,136Z"/><path class="cls-5" d="M323.8,136a12.48,12.48,0,0,0-15.18,1c-7.63,6.41-10.56,10.36-27.37,5.39,0,0-1.93-1-9.65-1.13a38,38,0,0,1,21-1.16C304.17,142.75,306.76,124.93,323.8,136Z"/><path class="cls-5" d="M327,140s12.81,7.36,17.77,4.61C344.78,144.61,339.29,153,327,140Z"/><path class="cls-5" d="M344.08,138.48s2.25,8.17-5.06,6.41l4.79,2.11,1-1.73.37-1.75v-1.21Z"/><path class="cls-5" d="M341.34,148a16.63,16.63,0,0,1-10.94-4.76Z"/><path class="cls-5" d="M344,137.86s1.18,5-.94,6.66-.49,1.08-.49,1.08,1.63-1,1.66-1.13.57-2.42.57-2.42l-.1-2.05s1.61,6.6-5.1,5l4.31.95.89-1.59L345,143l.53-2.25s1,10.31-8,6.37l2.61-2,2.61.31L344,145l1-1.34Z"/><path class="cls-5" d="M314.48,78.34s-14.59-25.8-60-14.14c0,0,44.85-2.91,55.12,15.46"/><path class="cls-5" d="M252.33,150.26s-10.17,5-5,9.33-1.46,1.26-1.46,1.26l-1.4-1.26-1.6-2.78,1.38-2.27a10.5,10.5,0,0,1,4.27-3Z"/><path class="cls-5" d="M247.29,152s3.8-2.27,5.33-5.29.89,1.43.89,1.43L251.39,150l-2.53,1.83-.76.95Z"/><path class="cls-3" d="M294.58,22.75S328,20.07,332.31,60.61C332.31,60.61,319.78,34.51,294.58,22.75Z"/><path class="cls-5" d="M334.09,164s1.09,3.28-8.59,2.86l4-1.41s4.39.83,2.17-3.23Z"/><path class="cls-5" d="M275,85.85s-26.32,6.45-35.88,24.49"/><path class="cls-3" d="M281.25,115.76s-3,8.07-1.42,15,10.76,5.37,10.76,5.37l7.11-5.66,2.15-7.37-1.34-9.82L293.83,108,290,106.33,286,107.81Z"/><path class="cls-5" d="M281.25,115.76s5.91-12.56,13-6c7.26,6.75,7.26,24.32-6.94,24.7l-.09,3.44s14.48.34,14.29-15.3S288.13,97.05,281.25,115.76Z"/><path class="cls-5" d="M287.3,134.48v3.43c-8.36-.3-8.42-10-7.15-16.16a.73.73,0,0,0,0-.08c0-.07,0-.14,0-.21l.08-.34c.42-1.67,1.89-6.15,5.61-6.31h.28c1.49.16,3.11,1.45,4.62,5.16C294.21,128.3,287.3,134.48,287.3,134.48Z"/><polygon class="cls-3" points="386.45 254.04 389.19 247.9 391.51 234.75 391.51 214.81 381.2 204.77 375.09 193.79 381.2 188.64 387.04 188.64 393.71 191.41 401.25 198.85 407.37 207.28 412.23 216.9 417.58 212.41 422.64 208.5 426.37 204.77 431.14 199.28 436.58 190.58 446.61 181.9 461.09 174.15 470.51 177.97 470.51 187.01 464.69 195.45 451.29 206.77 447.85 211.46 458.61 213.49 463.22 216.04 464.37 217.03 466.63 220.56 466.31 225.68 464.2 230.03 464.69 231.6 468.98 234.64 471.82 239.24 470.81 243.73 468.2 248.14 465.73 250.21 459.24 251.81 457.97 253.26 462.13 262.86 461.31 274.95 457.4 294.72 444.99 307.21 425.41 313.42 405.45 313.42 392.98 304.27 388 297.65 386.45 254.04"/><path class="cls-5" d="M411.51,215.64C393.9,176.43,377.31,188,377.31,188l.95,3.89c15.33-11.16,33.15,23.61,33.48,24.27Z"/><path class="cls-5" d="M378.26,191.81s-6,9.48,16.27,23l-6.08,1.28s-25.72-18.55-11.14-28.16Z"/><path class="cls-5" d="M409.82,212s15.7-5.38,23.06-15.82c0,0-3.2,9.48-20.65,20.68Z"/><path class="cls-5" d="M464.2,216.85s-12.32-8.28-27.6,2.8c-11.8,8.56-13,12.24-11.31,13.79l.1.09v0a5,5,0,0,0,1.17,1h0a10.58,10.58,0,0,0,4.61,1.58l.29,1.91,0,.16s-.49,0-1.26,0h0a26,26,0,0,1-3.63-.4c-5.65-1-12.27-4.73,3.51-17.53C453,201.7,464.2,216.85,464.2,216.85Z"/><path class="cls-5" d="M416.84,253.07s-21.07,9.74-25.34-10.5l-2.31,7.25S400.42,268.92,416.84,253.07Z"/><path class="cls-5" d="M461.78,262s15.41,32.28-23.17,50-50.29-13.94-50.29-13.94,16.3,16.31,29.92,14.07C428.18,310.57,460,308.64,461.78,262Z"/><path class="cls-5" d="M448.68,235.07c-11.84,6.33-22.11,2.75-22.11,2.75s-13-7.86-1.71-3.78l.32.1c.46.17.91.32,1.37.45h0a10.58,10.58,0,0,0,4.61,1.58,26.5,26.5,0,0,0,6.44,0,51.47,51.47,0,0,0,10.46-1l.16,0Z"/><path class="cls-5" d="M388.45,216.17S391.24,236,387,253.26c0,0,7.87-2.67,7.49-38.45Z"/><path class="cls-5" d="M426.57,310.8s-17.83,5.78-38.25-12.66L403,313.41l12.24,1.17,13.23,1.25Z"/><polygon class="cls-3" points="272.83 102.73 269.95 103.46 260.61 105.58 255.12 111.68 252.78 119.22 254.3 119.96 259.41 119.27 270.82 113.25 273.64 104.37 272.83 102.73"/><path class="cls-5" d="M272.47,102.78s-18.08,3.68-18,17.18H252S252.1,101.63,272.47,102.78Z"/><path class="cls-5" d="M254.52,119.91s18.08-3.68,18-17.18H275S274.89,121.05,254.52,119.91Z"/><path class="cls-5" d="M361.84,219.65s-11.77,7.77-5.65,24.13l-2.87,1.2-1.14-12.45.93-7.32,2.3-2.69Z"/><path class="cls-5" d="M356.19,243.78s5.77,12.33-12.11,34.69l2.43-6.54,4.27-8.91,2.6-9.76.13-6.79-.41-3.9Z"/><path class="cls-5" d="M287.46,131.77l-27.74-8.21s-4.69.67-2.15,4c1.29,1.71,28.52,7,29.6,6.24A1.58,1.58,0,0,0,287.46,131.77Z"/><path class="cls-5" d="M287.64,131.28l-31.8-.71s-2,3.43,1.8,4c2.12.3,29.38-.1,30.23-1.15A1.58,1.58,0,0,0,287.64,131.28Z"/><path class="cls-5" d="M332,133.5l10.07-2.2a1.82,1.82,0,0,1,.51,2.69c-.54.92-10.27,1.42-10.6.81A1.58,1.58,0,0,1,332,133.5Z"/><path class="cls-5" d="M332,133.18l11,2.8s.49,2.3-.85,2.24c-.75,0-10.16-3.05-10.39-3.78A1.42,1.42,0,0,1,332,133.18Z"/><path class="cls-7" d="M159.94,416.41a3.74,3.74,0,0,1,.43,4.32,4,4,0,0,1-1.61,1.48,5.92,5.92,0,0,1-2.51.62l-5.83.25-.63-14.58,5.56-.23a5.8,5.8,0,0,1,2.58.39,3.71,3.71,0,0,1,1.67,1.28,3.44,3.44,0,0,1,.63,1.88,3.27,3.27,0,0,1-.58,2.12,4,4,0,0,1-1.75,1.32A3.18,3.18,0,0,1,159.94,416.41Zm-7.49-1.89,3-.12a2.84,2.84,0,0,0,1.81-.62,1.83,1.83,0,0,0,.6-1.56,1.91,1.91,0,0,0-.73-1.52,2.78,2.78,0,0,0-1.86-.48l-2.95.13Zm5.39,5.7a2.05,2.05,0,0,0,.62-1.67,2.09,2.09,0,0,0-.81-1.66,2.93,2.93,0,0,0-2-.55l-3.14.13.19,4.55,3.23-.13A2.93,2.93,0,0,0,157.84,420.22Z"/><path class="cls-7" d="M175.4,422.09l-3.57-5.71-1.82.06.21,5.83-2.39.09-.53-14.58,5-.18a6.16,6.16,0,0,1,2.86.49,4,4,0,0,1,1.8,1.51,4.26,4.26,0,0,1,.65,2.18,4.36,4.36,0,0,1-.73,2.62,4.21,4.21,0,0,1-2.49,1.67l3.82,5.92Zm-5.46-7.56,2.64-.09a2.77,2.77,0,0,0,2-.74,2.42,2.42,0,0,0,.62-1.83,2.32,2.32,0,0,0-.74-1.75,2.84,2.84,0,0,0-2.05-.57l-2.65.1Z"/><path class="cls-7" d="M188.1,420.87a7.21,7.21,0,0,1-2.78-2.59,7.57,7.57,0,0,1-1.1-3.82,7.47,7.47,0,0,1,.88-3.87,7.14,7.14,0,0,1,2.64-2.73,7.86,7.86,0,0,1,7.51-.21,7.06,7.06,0,0,1,2.77,2.57,8,8,0,0,1,.21,7.69,6.84,6.84,0,0,1-2.62,2.74,7.57,7.57,0,0,1-3.73,1.07A7.72,7.72,0,0,1,188.1,420.87Zm6.28-2A4.61,4.61,0,0,0,196.1,417a6.13,6.13,0,0,0,.56-2.86,6,6,0,0,0-.72-2.82,4.58,4.58,0,0,0-1.83-1.82,5.48,5.48,0,0,0-5.16.15,4.58,4.58,0,0,0-1.72,1.92,6.6,6.6,0,0,0,.16,5.67,4.57,4.57,0,0,0,1.83,1.84,5.34,5.34,0,0,0,5.16-.15Z"/><path class="cls-7" d="M214.58,418l-6.1.13-1,3-2.5.05,4.92-14.71,2.77-.06,5.53,14.5-2.52.05Zm-.71-1.93-2.51-6.73-2.25,6.82Z"/><path class="cls-7" d="M226.81,420.45A4.28,4.28,0,0,1,225,419a3.78,3.78,0,0,1-.71-2.2l2.56,0a2.31,2.31,0,0,0,.77,1.54,2.66,2.66,0,0,0,1.87.58,2.89,2.89,0,0,0,1.92-.62,1.93,1.93,0,0,0,.67-1.55,1.65,1.65,0,0,0-.45-1.19,2.77,2.77,0,0,0-1.08-.7,13.61,13.61,0,0,0-1.78-.52,17.1,17.1,0,0,1-2.33-.74,3.81,3.81,0,0,1-1.53-1.18,3.47,3.47,0,0,1-.66-2.18,3.73,3.73,0,0,1,.6-2.21,3.94,3.94,0,0,1,1.74-1.47,6.28,6.28,0,0,1,2.62-.54,5.47,5.47,0,0,1,3.48,1,3.9,3.9,0,0,1,1.54,2.89l-2.64,0a1.91,1.91,0,0,0-.78-1.35,2.77,2.77,0,0,0-1.83-.54,2.63,2.63,0,0,0-1.67.54,1.84,1.84,0,0,0-.63,1.52,1.58,1.58,0,0,0,.42,1.1,3,3,0,0,0,1,.67,17.7,17.7,0,0,0,1.73.52,17,17,0,0,1,2.37.77,3.89,3.89,0,0,1,1.57,1.2,3.49,3.49,0,0,1,.67,2.21,4,4,0,0,1-.57,2.1,4.26,4.26,0,0,1-1.72,1.61,5.78,5.78,0,0,1-2.69.64A6.62,6.62,0,0,1,226.81,420.45Z"/><path class="cls-7" d="M250.82,406l0,1.95L247,408,247,420.6l-2.39,0L244.56,408l-3.9,0,0-1.95Z"/><path class="cls-7" d="M259.89,407.89v4.28h5v1.95h-5v4.47h5.67v2h-8.06V405.94h8.06v2Z"/><path class="cls-7" d="M280.25,420.59l-3.33-5.85h-1.83l0,5.84-2.39,0,.08-14.58,5,0a6.32,6.32,0,0,1,2.85.61,4,4,0,0,1,1.73,1.58,4.26,4.26,0,0,1-2.84,6.37l3.58,6.06Zm-5.15-7.77,2.65,0a2.83,2.83,0,0,0,2-.66,2.49,2.49,0,0,0,.69-1.81,2.36,2.36,0,0,0-.66-1.77,2.85,2.85,0,0,0-2-.65l-2.64,0Z"/><path class="cls-7" d="M311,421l-1.77-1.83a7,7,0,0,1-2.31,1.52,7.1,7.1,0,0,1-2.78.47,6.54,6.54,0,0,1-2.74-.59,4.23,4.23,0,0,1-1.82-1.59,4.29,4.29,0,0,1-.61-2.38,4.41,4.41,0,0,1,.9-2.68,5.73,5.73,0,0,1,2.59-1.83,5.47,5.47,0,0,1-.84-1.39,3.82,3.82,0,0,1-.22-1.42,3.06,3.06,0,0,1,.52-1.72,3.42,3.42,0,0,1,1.43-1.17,4.89,4.89,0,0,1,2.15-.4,4.34,4.34,0,0,1,2.1.5,3.13,3.13,0,0,1,1.28,1.32,3.21,3.21,0,0,1,.32,1.83l-2.39,0a1.68,1.68,0,0,0-.36-1.22,1.39,1.39,0,0,0-1.09-.44,1.56,1.56,0,0,0-1.13.39,1.33,1.33,0,0,0-.44,1,2.15,2.15,0,0,0,.3,1.12,9.87,9.87,0,0,0,1.12,1.46l3.8,3.9,1.53-2.43,2.58.05-1.94,3.2-.54.85,3.49,3.58Zm-3.32-3.43-3.8-4q-2.49.95-2.52,2.94a2.32,2.32,0,0,0,.77,1.81,3,3,0,0,0,2,.76A4.64,4.64,0,0,0,307.72,417.54Z"/><path class="cls-7" d="M338.39,418.64l-6.11-.17-1.13,2.95-2.5-.07,5.64-14.45,2.76.07,4.82,14.75-2.52-.07Zm-.62-2-2.18-6.84L333,416.54Z"/><path class="cls-7" d="M350.51,421.64a4.42,4.42,0,0,1-1.8-1.52,3.76,3.76,0,0,1-.59-2.23l2.56.09a2.28,2.28,0,0,0,.69,1.58,2.67,2.67,0,0,0,1.84.67,2.88,2.88,0,0,0,2-.53,2,2,0,0,0,.74-1.52,1.66,1.66,0,0,0-.39-1.21,2.76,2.76,0,0,0-1-.75c-.42-.18-1-.38-1.76-.61a16.31,16.31,0,0,1-2.29-.84,3.85,3.85,0,0,1-1.47-1.26,3.45,3.45,0,0,1-.56-2.2,3.88,3.88,0,0,1,.71-2.18,4,4,0,0,1,1.81-1.39,6.33,6.33,0,0,1,2.64-.41,5.43,5.43,0,0,1,3.43,1.18,3.87,3.87,0,0,1,1.4,2.95l-2.64-.09A1.92,1.92,0,0,0,355,410a2.83,2.83,0,0,0-1.8-.63,2.59,2.59,0,0,0-1.7.47,1.83,1.83,0,0,0-.7,1.49,1.51,1.51,0,0,0,.37,1.11,2.81,2.81,0,0,0,1,.72,17.18,17.18,0,0,0,1.7.6,19.11,19.11,0,0,1,2.34.88,4,4,0,0,1,1.5,1.28,3.55,3.55,0,0,1,.57,2.24,4.07,4.07,0,0,1-.67,2.08,4.3,4.3,0,0,1-1.8,1.52,5.71,5.71,0,0,1-2.72.5A6.47,6.47,0,0,1,350.51,421.64Z"/><path class="cls-7" d="M374.05,419.92l-6.1-.25-1.18,2.93-2.49-.1,5.83-14.38,2.77.12,4.61,14.81L375,423Zm-.59-2-2.09-6.88-2.67,6.68Z"/><path class="cls-7" d="M393.47,410.1a6.43,6.43,0,0,1,2.58,2.69,7.78,7.78,0,0,1,.76,3.94,7.6,7.6,0,0,1-1.14,3.81,6.32,6.32,0,0,1-2.83,2.37,9.06,9.06,0,0,1-4.12.67l-4.76-.23.72-14.57,4.75.23A9,9,0,0,1,393.47,410.1Zm-.67,10.34a5.33,5.33,0,0,0,1.56-3.83,5.54,5.54,0,0,0-1.17-4,5.19,5.19,0,0,0-3.85-1.62l-2.37-.11-.52,10.67,2.36.11A5.22,5.22,0,0,0,392.8,420.44Z"/><path class="cls-7" d="M405.9,423.66a7.06,7.06,0,0,1-2.55-2.81,7.52,7.52,0,0,1-.78-3.9,7.41,7.41,0,0,1,1.22-3.78,7,7,0,0,1,2.85-2.5,7.52,7.52,0,0,1,3.79-.74,7.63,7.63,0,0,1,3.71,1.17,7,7,0,0,1,2.54,2.8,7.46,7.46,0,0,1,.77,3.89,7.55,7.55,0,0,1-1.2,3.79,7,7,0,0,1-2.85,2.51,7.85,7.85,0,0,1-7.5-.43Zm6.42-1.42a4.59,4.59,0,0,0,1.88-1.78,6.12,6.12,0,0,0,.8-2.81,6,6,0,0,0-.48-2.86,4.52,4.52,0,0,0-1.66-2,5.11,5.11,0,0,0-2.54-.79,5.05,5.05,0,0,0-2.62.5,4.6,4.6,0,0,0-1.88,1.76,6.16,6.16,0,0,0-.8,2.8,6.06,6.06,0,0,0,.48,2.87,4.6,4.6,0,0,0,1.67,2,5.33,5.33,0,0,0,5.15.29Z"/><path class="cls-8" d="M536,408a13.52,13.52,0,0,1-1.42-.08A2585.72,2585.72,0,0,0,264.1,393.68c-78.91,0-158.24,3.65-235.78,10.84-.41,0-.83.06-1.25.06a13.38,13.38,0,0,1-13.23-11.2L.18,312.19a13.44,13.44,0,0,1,12-15.6c83.41-7.93,168.39-11.94,252.58-11.94,63,0,126.78,2.25,189.44,6.71,32.18,2.28,64.78,5.19,96.9,8.66a13.43,13.43,0,0,1,11.81,15.58l-13.66,81.14A13.38,13.38,0,0,1,536,408Z"/><path class="cls-3" d="M534.65,402.85c-.33,0-.65,0-1-.05a2588.68,2588.68,0,0,0-270.92-14.22c-79,0-158.5,3.66-236.16,10.86a8.44,8.44,0,0,1-.87,0,9.22,9.22,0,0,1-9.09-7.7L3,310.59a9.25,9.25,0,0,1,8.24-10.72c83.27-7.91,168.12-11.93,252.18-11.93,62.94,0,126.58,2.26,189.14,6.7,32.14,2.28,64.69,5.19,96.75,8.65A9.25,9.25,0,0,1,557.4,314l-13.65,81.14A9.25,9.25,0,0,1,534.65,402.85Z"/><path class="cls-9" d="M451.88,303.85a2664.61,2664.61,0,0,0-439.8,5.21l13.65,81.19a2590.48,2590.48,0,0,1,508.91,3.37l13.65-81.14Q500.35,307.3,451.88,303.85Z"/><polygon points="55.14 345.45 44.47 346.27 42.92 326.11 84.88 322.9 86.42 343.06 75.78 343.87 78.34 377.28 57.7 378.86 55.14 345.45"/><path d="M110.58,376.29a28,28,0,0,1-20.7-46.75,27.83,27.83,0,0,1,19.66-9.3c.59,0,1.18-.05,1.76-.05a26.51,26.51,0,0,1,18.22,7.16,28,28,0,0,1-17.09,48.88C111.81,376.27,111.19,376.29,110.58,376.29Zm.24-35.51h-.48a6.41,6.41,0,0,0-4.78,2.42,7.38,7.38,0,0,0-1.78,5.44,7.24,7.24,0,0,0,2.42,5.18,6.38,6.38,0,0,0,4.55,1.86h0l.46,0a6.39,6.39,0,0,0,4.79-2.4,7.88,7.88,0,0,0-.62-10.66A6.38,6.38,0,0,0,110.82,340.78Z"/><path d="M162.26,373.75a24.59,24.59,0,0,1-17.92-7.61A28.56,28.56,0,0,1,136,346.49a27.27,27.27,0,0,1,7-20.07A26.14,26.14,0,0,1,162,317.68h.85a29.22,29.22,0,0,1,8,1.24l2.33.67.78,19.47,2.83-.11,1.06,1.2a21.08,21.08,0,0,1,5.58,13.16,18.45,18.45,0,0,1-5.55,14.26,20.89,20.89,0,0,1-14.46,6.17C163,373.75,162.63,373.75,162.26,373.75Zm-3.73-32.83a7.54,7.54,0,0,0-1.51,5.2,7.64,7.64,0,0,0,1.94,5.27Zm6-2.76a8,8,0,0,0-4.62,1.46l9.35-.38-.09,0a11.57,11.57,0,0,0-4.39-1.05Z"/><path d="M201,372.53c-5.93,0-10.67-1.83-14.09-5.45s-5.29-8.9-5.45-15.58l-.81-33.38,4.64-.11a9.55,9.55,0,0,1,7.23-15.47h.26a9.34,9.34,0,0,1,6.57,2.63,10.16,10.16,0,0,1,1.39,1.64,10,10,0,0,1,1.3-1.7,9.41,9.41,0,0,1,6.7-3h.25a9.54,9.54,0,0,1,7.72,15.1l4.63-.11.82,33.83c.15,6.26-1.67,11.44-5.42,15.38s-8.8,6-15,6.17Zm0-55.57c-.14.23-.29.46-.45.68l.94,0A8.05,8.05,0,0,1,200.93,317Z"/><rect x="223.87" y="317.04" width="20.7" height="53.72" transform="translate(-4.02 2.77) rotate(-0.67)"/><path d="M255.08,371.76a19,19,0,0,1-8.08-1.85l-1.94-.9,0-21.87,5.17,3.29a3.68,3.68,0,0,0,1.75.74,1.14,1.14,0,0,0,.86-.24h0a23.58,23.58,0,0,0-1.49-2.94,25.56,25.56,0,0,1-3.59-12.66,19.08,19.08,0,0,1,5.68-13.82,18.64,18.64,0,0,1,13.69-5.83,20.68,20.68,0,0,1,6.79,1.14l2.26.78,0,20.48-4.44-1.51a6.47,6.47,0,0,0-1.28-.34c-.1,0-.14,0-.29.16a.55.55,0,0,0-.19.48,5,5,0,0,0,.8,1.92l1.07,1.85A22.87,22.87,0,0,1,275.2,352a18.92,18.92,0,0,1-5.86,14,19.76,19.76,0,0,1-14.24,5.73Z"/><path d="M284.08,371.81a19,19,0,0,1-8.09-1.94l-1.92-.93.2-21.86,5.14,3.35a3.65,3.65,0,0,0,1.73.76h0A1.19,1.19,0,0,0,282,351h0a22.31,22.31,0,0,0-1.45-3,25.48,25.48,0,0,1-3.45-12.7,19.08,19.08,0,0,1,5.83-13.76,18.66,18.66,0,0,1,13.56-5.67h.2a20.78,20.78,0,0,1,6.77,1.21l2.25.8-.19,20.48-4.43-1.56a7.13,7.13,0,0,0-1.27-.35.4.4,0,0,0-.3.15.6.6,0,0,0-.19.49,5.26,5.26,0,0,0,.78,1.92l1.05,1.86a22.87,22.87,0,0,1,3.23,11.41,18.92,18.92,0,0,1-6,14,19.71,19.71,0,0,1-14.08,5.57Z"/><path d="M321.94,371.12l.95-32.61a28.52,28.52,0,0,1,1.31-8.43,18.48,18.48,0,0,1,4-6.52,21,21,0,0,1,7.53-5.06,22.52,22.52,0,0,1,8.41-1.64h.66A19.73,19.73,0,0,1,359,323.08a19.42,19.42,0,0,1,5.45,14.5A18.33,18.33,0,0,1,358.69,351c-3.2,3-7.76,4.52-13.53,4.52h-1l-1-.05-.47,16.23Z"/><path d="M388.89,374.63c-.49,0-1,0-1.49,0a28,28,0,0,1-17.5-48.8,27.66,27.66,0,0,1,19-7.21l1.56,0a26.58,26.58,0,0,1,19.12,9.17,28,28,0,0,1-20.66,46.85Zm-.21-35.51a6.36,6.36,0,0,0-4.62,1.91,7.37,7.37,0,0,0-2.35,5.22,7.22,7.22,0,0,0,1.86,5.41,6.43,6.43,0,0,0,4.79,2.36h.39a6.37,6.37,0,0,0,4.63-1.89,7.89,7.89,0,0,0,.5-10.67,6.42,6.42,0,0,0-4.82-2.34Z"/><path d="M433.68,376c-6-.37-10.71-2.51-14-6.36s-4.66-8.86-4.29-15l2-33.46,20.66,1.27-1.91,31.23a7.9,7.9,0,0,0,.05,1.94,8,8,0,0,0,1.66.25l4.07.25-1.25,20.31Z"/><path d="M457.13,377.59c-6-.42-10.69-2.6-13.92-6.48s-4.59-8.9-4.16-15l2.36-33.44,20.64,1.45-2.19,31.21a8.27,8.27,0,0,0,0,1.94,7.29,7.29,0,0,0,1.66.26l4.07.29-1.43,20.3Z"/><path d="M489.67,381.27c-.87,0-1.77,0-2.66-.12a28,28,0,0,1-15.62-49.43,27.53,27.53,0,0,1,18-6.51c.91,0,1.85,0,2.78.12a26.54,26.54,0,0,1,18.75,9.9,28.14,28.14,0,0,1-3.43,39.46A27,27,0,0,1,489.67,381.27Zm-.31-35.52a6.45,6.45,0,0,0-4.41,1.74,7.37,7.37,0,0,0-2.54,5.12,7.22,7.22,0,0,0,1.65,5.48,6.46,6.46,0,0,0,4.7,2.55c.23,0,.45,0,.68,0h0a6.36,6.36,0,0,0,4.41-1.72,7.9,7.9,0,0,0,.9-10.64,6.4,6.4,0,0,0-4.73-2.53Z"/><path class="cls-3" d="M70.69,339.52l2.56,33.4L59.31,374l-2.56-33.4-10.68.81L45,328l35.26-2.7,1,13.45Z"/><path class="cls-3" d="M108.25,322.34a23.19,23.19,0,0,1,17.53,6.24,24.7,24.7,0,0,1-32.89,36.85,24.66,24.66,0,0,1-2-34.89A24.42,24.42,0,0,1,108.25,322.34Zm.4,13.84a9.79,9.79,0,0,0-7.13,3.59,11.13,11.13,0,0,0,.92,15.27,10.09,10.09,0,0,0,14.64-.85,11.25,11.25,0,0,0-.9-15.3A9.79,9.79,0,0,0,108.65,336.18Z"/><path class="cls-3" d="M160.49,341.63l13.31-.53a17.69,17.69,0,0,1,4.76,11.07A15.18,15.18,0,0,1,174,363.94a17.57,17.57,0,0,1-12.21,5.18,21.27,21.27,0,0,1-16.53-6.61,25.17,25.17,0,0,1-7.39-17.41,24,24,0,0,1,6.09-17.69,22.81,22.81,0,0,1,16.7-7.63,24.64,24.64,0,0,1,7.77,1.1l.56,14a14.31,14.31,0,0,0-6.08-1.31,11,11,0,0,0-7.91,3.39,10.63,10.63,0,0,0-2.8,8.07,10.82,10.82,0,0,0,3.21,7.8,10.52,10.52,0,0,0,7.93,2.61q3.13-.14,3.06-2c0-.92-.75-1.35-2.12-1.3l-3.34.14Z"/><path class="cls-3" d="M216.53,319.32l.74,30.47q.19,8.06-4.5,13T200.1,367.9q-7.95.19-12.28-4.39t-4.54-13.35l-.72-30,14-.34.73,30c.06,2.87,1.12,4.27,3.16,4.23s2.93-1.51,2.86-4.38l-.72-30Zm-25.46-14.68a6,6,0,0,1,4.43,1.7,6.19,6.19,0,0,1-8.53,9,6,6,0,0,1-1.91-4.35,6.16,6.16,0,0,1,6-6.31Zm16.21-.39a6.16,6.16,0,1,1-4.34,1.91A6,6,0,0,1,207.28,304.25Z"/><path class="cls-3" d="M239.45,319.06l.55,47-14,.16-.55-47Z"/><path class="cls-3" d="M271.3,318.74l0,13.39a8,8,0,0,0-2.34-.51,3.66,3.66,0,0,0-2.72,1.17,4,4,0,0,0-1.13,2.83,7.73,7.73,0,0,0,1.25,3.58l1.07,1.85a19.59,19.59,0,0,1,2.91,9.71,15.59,15.59,0,0,1-4.86,11.61,16.32,16.32,0,0,1-11.88,4.77,15.54,15.54,0,0,1-6.69-1.53l0-13.6a6.77,6.77,0,0,0,3.55,1.26,4.5,4.5,0,0,0,3-1,3.32,3.32,0,0,0,1.22-2.64q0-1-2-4.51a22.07,22.07,0,0,1-3.15-11,15.75,15.75,0,0,1,4.71-11.46,15.37,15.37,0,0,1,11.31-4.82A17.37,17.37,0,0,1,271.3,318.74Z"/><path class="cls-3" d="M300.84,319l-.12,13.4a7.61,7.61,0,0,0-2.34-.54,3.68,3.68,0,0,0-2.73,1.14,3.94,3.94,0,0,0-1.16,2.82,7.66,7.66,0,0,0,1.21,3.59l1.05,1.87a19.51,19.51,0,0,1,2.8,9.73,15.58,15.58,0,0,1-5,11.56,16.37,16.37,0,0,1-11.94,4.64,15.53,15.53,0,0,1-6.67-1.61l.13-13.6a6.84,6.84,0,0,0,3.53,1.31,4.53,4.53,0,0,0,3.06-1,3.36,3.36,0,0,0,1.25-2.63c0-.69-.64-2.19-1.92-4.53a22,22,0,0,1-3-11,15.75,15.75,0,0,1,4.84-11.41,15.33,15.33,0,0,1,11.35-4.7A17.3,17.3,0,0,1,300.84,319Z"/><path class="cls-3" d="M340.63,350.83,341,338.5q4.23.13,4.32-3.11.09-3-3.14-3.05c-2.19-.07-3.31,1.26-3.39,4L337.89,367l-14-.41.85-29.26a25.3,25.3,0,0,1,1.13-7.42,14.89,14.89,0,0,1,3.27-5.33,17.61,17.61,0,0,1,6.33-4.23,19.06,19.06,0,0,1,7.72-1.39,16.48,16.48,0,0,1,11.89,5.16,16.16,16.16,0,0,1,4.52,12.09,15,15,0,0,1-4.7,11.09q-4.1,3.84-12.16,3.61Z"/><path class="cls-3" d="M388.79,320.71a23.17,23.17,0,0,1,16.77,8.06,24.69,24.69,0,1,1-43,15.4A23.63,23.63,0,0,1,370.65,327,24.47,24.47,0,0,1,388.79,320.71Zm-1.06,13.81a9.75,9.75,0,0,0-7.47,2.82,11.12,11.12,0,0,0-.7,15.27,10.08,10.08,0,0,0,14.65.7,11.24,11.24,0,0,0,.72-15.3A9.78,9.78,0,0,0,387.73,334.52Z"/><path class="cls-3" d="M419.12,323.46l14,.86-1.71,27.87q-.19,3.27.78,4.41c.66.77,2,1.21,4.08,1.34l.72,0-.84,13.61-3.71-.22q-7.62-.48-11.62-5.18t-3.5-12.62Z"/><path class="cls-3" d="M443,325,457,326l-2,27.85c-.15,2.18.1,3.65.74,4.42s2,1.23,4.07,1.37l.72.05-1,13.61-3.71-.26q-7.62-.54-11.57-5.29t-3.39-12.65Z"/><path class="cls-3" d="M490.41,327.42a23.16,23.16,0,0,1,16.45,8.69,24.69,24.69,0,1,1-43.55,13.74A23.6,23.6,0,0,1,472.05,333,24.44,24.44,0,0,1,490.41,327.42Zm-1.58,13.76a9.76,9.76,0,0,0-7.58,2.53A11.12,11.12,0,0,0,480,358.94a10.09,10.09,0,0,0,14.61,1.27,11.26,11.26,0,0,0,1.3-15.27A9.76,9.76,0,0,0,488.83,341.18Z"/></g></g></svg>