<svg xmlns="http://www.w3.org/2000/svg" viewBox="0 0 4108.64 1044.42"><defs><style>.cls-1{fill:#2b2b2b;}.cls-2{fill:#e30713;}.cls-3{fill:#fff;}</style></defs><g id="Capa_2" data-name="Capa 2"><g id="Capa_1-2" data-name="Capa 1"><path class="cls-1" d="M2219.17,447.18c-16.92,24.42-27.68,53.53-58.36,70.26-2.92-7.32-6.17-13.29-7.65-19.65-3.53-14.67-5-29.87-9.41-44.21-12.57-40.62-64.33-65.43-104-49.13-41.06,16.87-66.39,50.33-82.11,89.81-9.9,24.71-14.34,51.85-19.07,78.28-4.45,25.14-18.07,45.65-29.59,67.25-1.62,3-8.41,5.64-11.61,4.63s-6.74-6.73-6.79-10.46a176.88,176.88,0,0,1,2.34-33.22c9.32-52.38,18.84-104.67,29-156.86,6.78-35.18-12.48-54.15-47.22-44.73-11.33,3.05-21.84,8.93-33,13-4.73,1.72-10,2.05-18.31,3.68.77-8.61,1-14.53,1.92-20.32,2.29-14.05,6.16-28,7.17-42.1,1.14-16.49-6.74-25.33-22.18-29-18.35-4.35-32.21.23-37.38,16.25-5.3,16.39-8.12,33.93-9.56,51.18-2.29,27.82-.47,54.82,33.84,66.44-17,40.05-31.83,78.62-49.46,115.94-16.49,34.94-40.25,65-73,86.66-26.24,17.39-46.17,9-51.81-22.13a120.61,120.61,0,0,1,3.82-56.59c20.74-7.65,39.14-11.38,54.25-20.6,35.89-22,57.16-75.42,49.32-116.81-8.27-43.4-43.54-65.09-85.12-50.57-13.86,4.83-27.39,13.1-38.57,22.71-45.07,38.76-67,90.47-75.56,147.68-4.4,29.49-18.07,53.91-32.12,78.77-1.91,3.44-6.12,5.63-13.62,12.18,0-18.49-1.58-32.07.28-45.16q13.2-93.27,28.06-186.3c8.89-55.78,18.54-111.36,28.1-167,2.73-15.82-.81-28.11-16.06-35.9-27.34-14-50-15.15-60.41,21.8-.86,3.06-2.29,6-3.11,9.08q-16.48,63.45-32.93,127c-2.29,8.84-4.3,17.78-6.73,28-6.65-2.25-10.42-3.3-14-4.78-38.28-15.87-71-8.13-99.94,21.5-38.28,39.24-58.4,87.23-65.23,140.23-4.07,31.35-17.07,57.5-33.17,83.16-2.63,4.21-7.08,7.27-14.25,14.44-1.43-13.72-4.15-23.09-3-32,4.25-34.65,9.12-69.3,15-103.71,4.39-25.86,11.08-51.33,15.58-77.14,1.43-8.12,1.48-18.3-2.25-25.19-11.38-21-39-25.66-59-11.66-2.58,1.77-5.35,3.2-8.69,5.21-3.59-2-7.13-3.68-10.33-5.88-37.71-25.52-72.79-19.93-107.68,6.84-29.73,22.75-46.79,53.62-60.17,87.13-8.6,21.5-23.66,36.61-43.54,50.56-16.25-54.53,1.15-99.75,29.73-141.71-18.5-30.3-50-37.18-74.94-15.72a124.25,124.25,0,0,0-26.67,33.12,167,167,0,0,0-22,86.94c.53,20.64,2.39,41.29,4.3,61.89,1,10.51-1.81,17.35-11.28,23.75-11.71,7.94-22.17,18.16-31.59,28.82-13.57,15.3-14.38,32.84-4.68,50.86,14.48,27,42.2,41.67,73.31,38.8,28.63-2.62,50.86-20.74,58.7-51.42a236.07,236.07,0,0,0,7.12-56.59c0-18.35,8.46-29.11,23.75-39.33,0,18.16-1,34.55.24,50.7,2.44,29.92,10.32,58.12,33.69,79.2,31.64,28.53,70.79,22.13,91.67-15,6.93-12.28,13.1-25,20.27-38.76,6.93,13.34,12.33,25.43,19.16,36.71,19.69,32.4,79.34,47.74,108.11,1.72,4.78-7.6,10.18-14.87,14.91-21.7,10.42,13.72,18.55,27.72,29.78,38.52,26.62,25.62,63,21.46,83.93-8.55,5.83-8.42,9.94-18,14.86-27.06,5.54-10.18,9-21.74,18.69-29.58,1.19,7.41,2.39,13.81,3.25,20.22,4.59,33.4,26.28,51.09,56.06,61.36,15.77,5.45,30.3,3.4,41.15-10s20.89-27.87,31-42c3.92-5.49,7.22-11.42,12.19-19.3,3.29,7.12,5.4,11.32,7.21,15.62,21.7,51.48,99.75,76.62,149.41,33,16.58-14.53,32.5-31,44.49-49.27C1774.92,594,1803.45,533,1814.16,465c1.72-10.85,8.08-9.32,17.49-6.69-2.39,9.41-4.39,17.78-6.64,26a650.46,650.46,0,0,0-21.75,148.4c-.91,27.1,7.27,51.91,27.1,71.55,27.48,27.2,63.28,25,86.41-5.92,7.6-10.14,13.1-21.8,19.7-32.7,2.58-4.25,5.59-8.22,8.6-12.52,8.17,13.39,14.19,25.57,22.37,36.14,15.1,19.59,35,31.87,60.31,34.45,30.4,3.06,51.95-12.42,69.49-34.26,25-31.12,37.62-68.06,45.12-106.68,2.49-12.71,7.79-21.41,18.55-28.68,13.76-9.27,26.62-19.93,39.14-30.82,17.49-15.3,24.66-36.8,31.69-57.88C2234.75,456.45,2231.93,448.09,2219.17,447.18Zm-554.75.43c5.31-10.09,10.95-21.46,24.71-23.47,15.1,41.68-15.53,110.41-54.63,118.05C1636.75,507.49,1648.94,477,1664.42,447.61ZM827.55,665.31c-6.55-20.07,23.32-22,23.32-22S834.14,685.38,827.55,665.31Zm300.57-217.8c-3.15,26-4.34,52.67-11.47,77.62a465.65,465.65,0,0,1-53.57,119.39c-6.31,10.08-6.41,10-20.46,15.68-15.91-59.55,35.89-204,82.21-228.12C1126.07,437.52,1128.7,442.73,1128.12,447.51Zm199.54,212.88c-9.41-4.35-7.16-13-7.45-20.65-1-30.73,7.74-59.69,16.54-88.51C1347.26,517,1361,484,1381.43,454.3c6-8.75,14-16.11,22.08-25.19C1424.69,475.42,1370.54,635.1,1327.66,660.39ZM2080.71,647c-8.18,9.7-17.69,16.87-30.88,13.09-12.66-3.63-18.83-14.24-21.27-26.33-1.72-8.42-1.76-17.35-1.62-26,.81-41.15,15.15-78.81,31.35-116.67,12,29.4,24.85,56.35,57.21,65.86C2114.45,579.71,2094.42,630.76,2080.71,647Zm40.57-121.54c-31.25-8.23-38.42-52.91-13.33-83.07C2121.71,459.61,2127.35,494.69,2121.28,525.47Z"/><path class="cls-2" d="M388.18,670c-40-2.73-74.32,1.89-107.33,13.92-15.39,5.61-30.92,11.75-43,24.6-5.17,5.51-14.83,6.8-22.47,10-11-27.46-1.54-57.59,19.1-71.43,23.34-15.64,49.78-20.29,76.64-22,30.79-1.94,61.75-2.2,92.61-1.74,12.11.18,19.35-4,25.16-13.9,8.8-15,18-29.69,27.47-44.25Q528.9,453.5,601.68,341.91c29.43-45.21,62-88.1,99.62-126.7a354.14,354.14,0,0,1,56.88-46.69c22.58-15.07,47.6-17.4,71.72-1.39,9.71,6.44,15.43,14.68,15.24,27.64-.55,39.06-6.87,77.13-15.49,115.12S813.89,386,806.91,424.15C797.78,474,788.34,523.87,781.06,574c-8.9,61.31-16.48,122.88-11.92,185.14,2.76,37.55,9.51,73.94,30.14,106.45a110.7,110.7,0,0,1,6.44,12.78c9.6,20.71,4.28,28-19.33,29.45-41,2.51-66.91-21.61-88.88-50.76s-34-63-38.39-98.85c-1.86-15.3-8.13-23.37-21.23-27.81-37.45-12.69-75-25.14-112.51-37.61-2.23-.74-4.76-.55-7.06-1.16-30.28-8-30.21-8-49.51,16.61-35.29,44.93-68.61,91.54-111.18,130.25-33.9,30.82-70.65,57.62-116.86,65.26-48.12,8-96.47,9.41-142.14-13.06-39-19.21-64-51.62-80.84-90.27C6,773.41-.39,744.09,0,714.74c.45-31.75,7.84-63,20.7-92.34C50.65,554.07,97.46,500,162.66,463.8,198.31,444,237.15,429.33,279,443c20.05,6.53,38.7,17.49,57.65,27.1a19.67,19.67,0,0,1,8.78,10.51A16.8,16.8,0,0,1,344,493.38c-1.35,2.14-6.93,2.07-10.63,2.11-2.15,0-4.51-1.39-6.46-2.66-26.93-17.61-55.27-15.29-81.58-1.31-24.3,12.91-46.83,29.48-69.06,45.9-29.09,21.47-50.11,49.94-68.56,81C88.89,650,79.84,684.47,76.52,719.87,73.12,756.13,75.11,792,92.66,826.7c20.26,40,72.72,57.46,111.76,40.81,34.47-14.69,62.17-38.27,85.26-67C320.41,762.21,350,723,379.94,684.11,382.19,681.19,383.72,677.7,388.18,670Zm262.43,26.93c3.75-37.41,6.48-68.88,10.15-100.23,6-51,10.41-102.39,19.47-152.9,11.31-63.1,25.92-125.66,48.55-186,1.68-4.49,1.54-9.67,2.83-18.51-31.18,33.84-51.42,69.54-70.23,106C613.25,438.42,565.82,532,518.2,625.38c-2.09,4.1-3.34,8.61-5.4,14Z"/><path class="cls-1" d="M2475,567.87c-2.41,1.8-4.57,4.59-7.26,5.25-73.15,18-120.57,67.58-158.18,128.91-22.07,36-33.8,75.17-33,117.8a95,95,0,0,0,15,49.59c11.38,18,24.14,20.77,42.24,9,27.32-17.71,46.34-43.27,63.31-70.31,38-60.54,61.9-127.28,81.06-195.41,17-60.38,30.93-121.73,43.29-183.24,6-30.16,6-61.62,7.61-92.55.48-9.12-2.7-18.43-4.58-30-10.21,1.13-19.08.56-26.85,3.21-63.31,21.54-104.71,64-121.92,129.3-5.19,19.71-4.67,37.79,11.75,52.63,1.5,1.36,1.64,4.23,3.1,8.32-11.62,6.48-22.72,3.84-33.52-.65-34.31-14.28-49.68-50.72-34.12-87.51,26.14-61.8,73.37-103,135-127.19,15.76-6.18,34.11-7.58,51.31-7.82,33.66-.47,57.24,16.62,70.73,47.27,11.37,25.82,15.59,53.12,16.68,81.19,2.59,66.83-10.24,131.49-28.06,195.22-21.8,78-54.13,151.15-104.08,215.66a303.73,303.73,0,0,1-67,64,164.61,164.61,0,0,1-68.09,27.28c-52.18,8.62-96.82-29.39-101.54-85.41-3.45-41,5.95-79,25.88-114.63,37.91-67.71,92-116.85,165.7-143.11,17.92-6.39,36.28-8.26,54.4-3.15C2474.21,563.63,2474.59,565.75,2475,567.87Z"/><path class="cls-1" d="M2807.94,526.72c9.07-8.56,16.9-16.24,25-23.57,19.84-17.85,36-38.25,44.47-63.93,1.75-5.27,3.73-10.59,4.52-16.05,2.24-15.67-2.57-20.43-18.51-17.65-33.17,5.77-62.89,19.76-84.45,45.64-41.35,49.65-70.85,105.44-79.94,170.55-2.94,21.12.44,41.37,9.1,60.49,9.9,21.83,21.44,28.41,45.46,26.61,31.84-2.4,59.67-16.67,86.66-32,46.64-26.5,86.85-61.64,126-97.88,19.85-18.36,38.45-38.06,58.22-56.51,6.85-6.4,14.92-12.39,23.53-15.79,12-4.76,20.9,4.29,16.94,16.57a48.25,48.25,0,0,1-9.62,16.28c-53,60.58-108,119.2-176.6,162.77-39.53,25.12-82.12,42.09-130.35,39.34-27.5-1.56-53.21-9.05-76.7-23.61-33.26-20.63-48.17-52.49-51.25-89.72-8.69-104.88,29.28-190.48,112.36-254.31,43.47-33.38,123.07-48.56,182.16.24,30.37,25.08,37.28,50.11,19.8,85.94C2918.34,493.85,2895,521.44,2862,540,2841.12,551.66,2825.26,548.15,2807.94,526.72Z"/><path class="cls-2" d="M430.16,356.26c-9.88,12.57-17.33,22.66-25.42,32.21-15.85,18.71-39.86,24.91-62.78,16.45-21.26-7.85-31.15-25.76-33.26-45.94-4.51-43.33,7.63-81.81,41.54-111.32,15.35-13.35,35.68-16.57,48.21-8.53,14.75,9.46,20,27.73,14.46,48.6-3.31,12.47-7.32,24.61-17.89,32.77-5.42,4.18-11.75,8-18.27,9.72-7,1.86-15.79,1.49-16.46,10.4-.81,10.81-.62,22.28,2.25,32.59,2.06,7.41,14.65,8.15,22.8.75a195.72,195.72,0,0,0,28.54-31.67C433,315.08,439.07,283,446.17,251.22c6.9-30.86,15.49-61.35,23.78-91.88,3.82-14.1,8.69-17,21.73-15.24,14,1.92,20.59,7.94,19.61,21.75-1.1,15.72-4.67,31.25-7.06,46.88-6.92,45.34-13.88,90.68-20.58,136.06-.8,5.39-.11,11-.11,21.11,15.12-21,23.13-40.3,29.27-60.47,3.46-11.37,6.57-22.85,10.07-34.21,2.36-7.66,6.67-12.27,18.13-7.92-5.16,20.79-8.6,41.83-15.75,61.52-7.81,21.5-18.06,42.3-29.22,62.31-5.47,9.8-13.06,21.93-27.25,19.57-17.52-2.9-30.9-12.58-35.4-31C431.72,372.82,431.4,365.62,430.16,356.26ZM364.27,315c23.6-15.94,31.3-36,24.36-59.29C373.38,271.89,369.05,291.28,364.27,315Z"/><path class="cls-1" d="M2562.35,716.76c.05-16.62,11.71-27.9,28.72-27.77,14.77.11,27.2,12.17,27.6,26.77a29.1,29.1,0,0,1-27.84,29.5C2575.52,745.78,2562.3,732.56,2562.35,716.76Z"/><path class="cls-2" d="M2155.32,891.37c-4.27,16.17-17.28,21.44-28.93,27.24-27.19,13.77-56.71,20-86.47,25.19-90.62,15.88-182.07,16.87-273.45,13C1703.14,954,1640,946.09,1576.79,940c-68.78-6.62-137.38-14.64-206.15-20.44q-91.47-7.74-183.12-11.66c-29.23-1.23-58.81,1.12-88.1,4-35.45,3.39-71,7.79-106,14.23-23.25,4.28-45.69,13-68.48,19.68-3.57,1.06-7.2,1.88-14.52,3.69,11.6-16.4,21-29.64,30.28-43.05,3.17-4.51,6.39-9.14,8.5-14.18C960.35,865,956,855.4,927.77,847.09c-28.06-8.26-56.41-15.59-89-24.55,42-8,80-17.81,118.63-22.38,89.16-10.48,178.73-19,268.71-14.7,62.68,3,125.24,7.5,187.75,12.95,42.82,3.69,85.58,8.14,128.34,12.77l.06.05a1.12,1.12,0,0,1,.47.06q33.91,3.69,67.66,7.5c21.21,2.4,42.41,5.22,63.56,8.09,32.28,2.87,63,4.68,91.86,5.8h.76c31.57,1.11,61.1,1.28,88.69.82a832.76,832.76,0,0,0,142.06-10.2c101.87-13.41,152.6-34.85,154.76-35.79V788c-4.57,18.8-6.44,34.44-12.36,48.38-5.74,13.59-15.7,25.37-23.84,38C2125.62,888.74,2141,887.92,2155.32,891.37Z"/><path class="cls-2" d="M2155.32,891.37c-4.27,16.17-17.28,21.44-28.93,27.24-27.19,13.77-56.71,20-86.47,25.19-90.62,15.88-182.07,16.87-273.45,13C1703.14,954,1640,946.09,1576.79,940c-68.78-6.62-137.38-14.64-206.15-20.44q-91.47-7.74-183.12-11.66c-29.23-1.23-58.81,1.12-88.1,4-35.45,3.39-71,7.79-106,14.23-23.25,4.28-45.69,13-68.48,19.68-3.57,1.06-7.2,1.88-14.52,3.69,11.6-16.4,21-29.64,30.28-43.05,3.17-4.51,6.39-9.14,8.5-14.18C960.35,865,956,855.4,927.77,847.09c-28.06-8.26-56.41-15.59-89-24.55,42-8,80-17.81,118.63-22.38,89.16-10.48,178.73-19,268.71-14.7,62.68,3,125.24,7.5,187.75,12.95,42.82,3.69,85.58,8.14,128.34,12.77l.06.05a1.12,1.12,0,0,1,.47.06q33.91,3.69,67.66,7.5c21.21,2.4,42.41,5.22,63.56,8.09,32.28,2.87,63,4.68,91.86,5.8h.76c31.57,1.11,61.1,1.28,88.69.82a832.76,832.76,0,0,0,142.06-10.2c101.87-13.41,152.6-34.85,154.76-35.79V788c-4.57,18.8-6.44,34.44-12.36,48.38-5.74,13.59-15.7,25.37-23.84,38C2125.62,888.74,2141,887.92,2155.32,891.37Z"/><path class="cls-3" d="M1089.78,830.32l1.17,11.13c1.43,13.7-4.39,21.86-17.85,23.27l-6.36.67,3.37,32.17L1056.65,899l-9-85.64,19.82-2.08C1081,809.84,1088.35,816.62,1089.78,830.32Zm-24.32,22.83,6.36-.66c4.28-.45,6.4-2.66,5.76-8.77l-1.35-12.85c-.64-6.12-3.17-7.83-7.45-7.38l-6.36.67Z"/><path class="cls-3" d="M1116.72,806.29c13.26-.79,21,6.64,21.78,20.4l2.65,44.7c.81,13.75-6,22-19.23,22.82s-21-6.64-21.79-20.4l-2.64-44.7C1096.67,815.36,1103.45,807.07,1116.72,806.29Zm4.47,75.64c4.3-.25,6.86-2.74,6.5-8.88l-2.75-46.42c-.36-6.14-3.2-8.32-7.5-8.06s-6.86,2.75-6.5,8.88l2.75,46.42C1114.05,880,1116.89,882.19,1121.19,881.93Z"/><path class="cls-3" d="M1162,805.43l1.57,73.79,22.26-.47.26,12.3-35.79.76-1.82-86.09Z"/><path class="cls-3" d="M1205.72,805.11l-.7,73.81,22.26.21-.11,12.3-35.8-.34.82-86.11Z"/><path class="cls-3" d="M1255.21,805.29c13.27.51,20.22,8.65,19.7,22.42l-1.71,44.75c-.53,13.76-8.08,21.35-21.36,20.85s-20.23-8.66-19.7-22.42l1.71-44.75C1234.38,812.37,1241.93,804.79,1255.21,805.29Zm-2.9,75.72c4.3.17,7.1-2.06,7.33-8.21l1.78-46.47c.23-6.14-2.38-8.58-6.68-8.75s-7.1,2.07-7.33,8.22l-1.78,46.46C1245.39,878.41,1248,880.85,1252.31,881Z"/><path class="cls-3" d="M1329.49,896.88l-1.19-15.76-16.57-1.21-3.47,15.42-12.39-.91,20-84.88,19.76,1.44,7.47,86.89Zm-2.18-27.55L1324,825.42l-9.68,43Z"/><path class="cls-3" d="M1375,813.34c13.11,1.19,19.13,9.65,17.88,23.37l-.24,2.69-12.74-1.16.32-3.55c.56-6.13-1.68-8.68-6-9.07s-7,1.71-7.51,7.84c-1.6,17.64,24.43,23.35,22.2,47.85-1.25,13.73-8.83,20.94-22.06,19.73s-19.38-9.67-18.12-23.39l.48-5.27,12.74,1.16-.56,6.13c-.56,6.12,1.93,8.58,6.22,9s7.19-1.57,7.75-7.7c1.6-17.64-24.44-23.35-22.2-47.85C1354.47,819.37,1361.92,812.14,1375,813.34Z"/><path class="cls-3" d="M1424.49,905.77l-.7-15.78-16.52-1.73-4,15.3L1391,902.27l22.65-84.22,19.7,2.06,4.76,87.08Zm-1.33-27.6-2-44-11,42.64Z"/><path class="cls-3" d="M1475.07,824.71c13.44,1.52,19.2,9.72,17.66,23.41l-4.89,43.28c-1.54,13.69-9,20.4-22.43,18.88l-21.27-2.4,9.66-85.56ZM1459,897.18l7.58.85c4.27.48,7.09-1.43,7.78-7.54l5-44.49c.69-6.12-1.63-8.61-5.91-9.09l-7.58-.85Z"/><path class="cls-3" d="M1523.28,829.25c13.2,1.53,19.5,10.19,17.91,23.87L1536,897.61c-1.59,13.68-9.7,20.67-22.9,19.14s-19.5-10.19-17.92-23.87l5.16-44.49C1502,834.71,1510.08,827.72,1523.28,829.25Zm-8.72,75.28c4.27.5,7.23-1.52,7.94-7.63l5.35-46.19c.71-6.11-1.71-8.74-6-9.24s-7.23,1.52-7.94,7.63l-5.35,46.19C1507.86,901.4,1510.28,904,1514.56,904.53Z"/><path class="cls-3" d="M1575.62,877.13c-6.06-3.4-8.35-9.47-7.33-18.64l.18-1.59c1.52-13.7,9-20.42,22.4-18.92l15.41,1.71-1.36,12.23-15.16-1.69c-4.28-.48-7.1,1.44-7.78,7.55l-.58,5.26c-.76,6.85,2,9.39,7.06,10l5.87.65,1.06-9.54,13.45,1.5-1.06,9.54,3.55.39L1610,887.76l-3.54-.39-3.13,28.12c-.46,4.15-.68,7.22.31,10.55l-13.7-1.52a20.52,20.52,0,0,1-.47-6.86c-2.88,4.75-7.34,7-13.33,6.31-9.9-1.1-14.14-8.63-12.74-21.22l1-8.68C1565.29,885.39,1568.69,879.33,1575.62,877.13Zm7.34,35.23c4,.45,7-1.33,7.8-6.69l2.21-19.8-5.14-.57c-6.11-.68-9.13,2-10,9.9l-.89,7.95C1576.25,909.26,1578.68,911.88,1583,912.36Z"/><path class="cls-3" d="M1677.12,866.77l-.3,3.06c-.85,8.81-4.08,14.19-10.36,16.42,7,3.52,9.15,10.28,8.27,19.34l-.67,7c-1.27,13.23-8.94,19.65-22.41,18.36l-21.18-2,8.26-85.71,20.33,2C1673,846.47,1678.39,853.54,1677.12,866.77Zm-32,51.17,7.71.74c4.53.44,7.18-1.41,7.8-7.78l.72-7.47c.76-7.95-1.57-10.65-7.69-11.24l-6-.58Zm3.72-38.58,5.26.51c5,.49,8.3-1.42,9-8.28l.46-4.78c.59-6.12-1.23-9-6-9.47l-6.49-.63Z"/><path class="cls-3" d="M1707.63,925.17l1.07-13.49c.63-8-1.83-11.13-8-11.61l-4.66-.37-2.77,34.95-13.49-1.07,6.79-85.84,20.36,1.61c14,1.1,19.48,8.08,18.43,21.32l-.54,6.75c-.7,8.83-4,14.37-10.2,16.71,6.52,3.36,8.21,10,7.5,19l-1.05,13.25c-.33,4.17-.45,7.24.65,10.54L1708,935.81C1707.46,933.55,1707.08,932.16,1707.63,925.17Zm-10.58-37.74,5.27.42c5,.4,8.27-1.57,8.81-8.43l.67-8.47c.49-6.13-1.39-9-6.17-9.37l-6.5-.51Z"/><path class="cls-3" d="M1753.49,851.54c13.27.75,20.07,9,19.3,22.77L1770.26,919c-.77,13.75-8.46,21.2-21.73,20.46s-20.06-9-19.29-22.78l2.52-44.7C1732.54,858.24,1740.23,850.79,1753.49,851.54Zm-4.26,75.65c4.3.25,7.13-1.94,7.48-8.08l2.61-46.42c.35-6.14-2.22-8.63-6.52-8.87s-7.13,1.94-7.48,8.08l-2.62,46.42C1742.36,924.46,1744.93,927,1749.23,927.19Z"/><path class="cls-3" d="M1809.53,940.9l-1.92-15.68-16.6-.44-2.75,15.55-12.42-.33,16.06-85.71,19.8.53,11.48,86.44Zm-3.45-27.41-5.36-43.71L1793,913.14Z"/><path class="cls-3" d="M1848,854c13.16-.41,20.16,7.25,20.59,21l.09,2.7-12.79.4-.11-3.56c-.19-6.15-2.72-8.41-7-8.27s-6.69,2.54-6.49,8.69c.55,17.71,27.09,20.2,27.86,44.79.43,13.77-6.21,21.86-19.49,22.27s-20.41-7.24-20.84-21l-.17-5.29,12.79-.39.19,6.14c.19,6.15,3,8.28,7.27,8.14s6.94-2.43,6.75-8.58c-.55-17.7-27.09-20.19-27.86-44.79C1828.35,862.51,1834.86,854.43,1848,854Z"/><path class="cls-3" d="M1913.65,853l.38,12.3-14.14.43,2.27,73.78-13.52.41-2.27-73.77-14.14.44-.38-12.3Z"/><path class="cls-3" d="M1952.08,887.48l.65,12.29-18.55,1,1.32,25.18,23.34-1.22.64,12.28-36.85,1.94-4.51-86L1955,851l.65,12.29-23.34,1.22,1.25,24Z"/><path class="cls-3" d="M1996.6,922.81l-1.48-13.45c-.87-8-3.88-10.59-10-9.92l-4.65.51,3.82,34.85-13.45,1.47-9.38-85.6,20.3-2.22c13.94-1.53,20.64,4.3,22.09,17.5l.73,6.73c1,8.81-1.21,14.86-6.9,18.33,7,2.07,10,8.32,10.93,17.24l1.44,13.21c.46,4.16.91,7.2,2.61,10.23l-13.7,1.5C1998,931.07,1997.36,929.78,1996.6,922.81Zm-17.46-35.09,5.26-.58c5-.54,7.83-3.08,7.08-9.93l-.93-8.44c-.67-6.11-3-8.57-7.81-8l-6.48.71Z"/><path class="cls-1" d="M3617.37,655.09c.56-5,1-16.83,3.26-28.25,12.48-62.23,81.57-95.23,138.09-65.66,14.61,7.64,29,16.51,41.52,27.18,35,29.94,76.61,41.58,121,46.66,24.22,2.78,48.68,4.22,72.62,8.55,33.56,6.07,42.05,30.49,19.81,56.79-38.54,45.58-81,87.14-135.24,113.85-47.62,23.45-97,37.23-149.41,15.13C3663.13,801.55,3616.88,738.19,3617.37,655.09Z"/><path class="cls-1" d="M4044,202.66c24.95,25.78,33.57,53.4,41.87,79.45,24.34,76.38,30.42,154.11,12,233.53-15.42,66.46-73.54,113.75-141.26,98.51-29.37-6.6-60.13-8.36-88.49-17.68-21.53-7.08-41.38-21.19-59.79-35.06-9.38-7-16.1-19.7-20.28-31.17-11.88-32.55,3.44-61.45,36.68-70.78,13.09-3.67,27-4.28,40.25-7.47,21.72-5.23,43.82-9.79,64.68-17.53,48.24-17.91,79-53.92,92.67-102.45,9.46-33.54,13.51-68.62,19.71-103.07C4043.22,222.45,4043.09,215.72,4044,202.66Z"/><path class="cls-2" d="M3344.41,866.92c11.59,7.1,23.42,13.84,34.72,21.36,77,51.29,160.3,85.33,253.41,90.94,75.91,4.57,147-13.84,214.4-48.53,82-42.22,148.9-103.11,211.62-169.31,3.89-4.1,7.72-8.25,15.1-16.15,4.62,22.6.12,39.94-5.66,56.68-16.63,48.18-44.41,89.6-83.35,122-117.55,97.87-253.53,136-404.33,114.82-90.51-12.71-166.51-54.29-218.06-133.2-7.42-11.36-13.9-23.35-20.81-35Q3342.94,868.71,3344.41,866.92Z"/><path class="cls-1" d="M3809.74,0c131.47,35.49,215.82,150.27,195.79,289.58-8,55.3-42,91.26-92.82,110.66-31,11.83-64,16.31-97.48,14.27-29.38-1.8-40.64-14.56-30.63-41.82,11.33-30.89,28-59.79,42.21-89.64q16.26-34.26,32.05-68.74c20.8-45.67,11.25-89.78-8.77-132.49-9.75-20.82-22.94-40-34-60.28C3813.23,16.26,3812.54,9.79,3809.74,0Z"/><path class="cls-1" d="M3518.56,325.93c35.68,44.72,53.89,90.07,59.52,138.69,6.6,57,8,114.72,10.16,172.18,1.64,43.51,8.93,85.21,29.67,123.94,1.38,2.57,2.62,5.24,3.77,7.93,20.46,47.78-8.9,89.52-61.49,84.52-51.25-4.86-80.89-39.27-101-83-18.61-40.55-13.8-81.75-.06-122.57s29.08-80.82,41.16-122c17.08-58.21,29.84-117.29,18.35-178.67C3517.81,342.35,3518.56,337.44,3518.56,325.93Z"/><path class="cls-1" d="M3386.43,269.44c18.47,3,37.27,3.94,54.71,9.31,37.54,11.58,58.6,38.59,59.9,77.78.8,24.16-1.93,48.67-5.36,72.69-12.11,84.78-41.23,164.26-78.09,241-6.24,13-14.94,25.12-24.11,36.32-13.74,16.79-31.5,28-53.89,20.51-23.66-7.88-39.87-24.68-44.17-50.08-3.82-22.63-.56-45,8.64-65.94,15-34.07,32.75-66.44,59-93.46,39.4-40.52,69.32-86.64,82.95-142.23,8.37-34.12-10-70.89-40.52-81-17.06-5.63-21.36-3.68-31.06,11.56-4.51,7.09-9.37,15.06-16.14,19.35-13,8.25-29,1.74-36.42-12.85-6.78-13.28-2.42-28.78,12.65-33.57C3351,273.69,3368.75,272.48,3386.43,269.44Z"/><path class="cls-2" d="M3449.58,189.52c22-4.58,27.74-21.79,36.6-36.66,2.84,1.86,6.12,2.82,7.18,4.87,11,21.36,25,45.31,10.13,67-16,23.32-44.87,24.72-71.88,19.77-33.39-6.12-65.32-2.84-98,5.76-19.2,5-40.69,5.43-60.63,3.3-23.64-2.52-35.93-22.15-28.67-43.76,11.55-34.41,33.29-63.06,57.5-91.79,11.95,18.35,22.08,33.91,33.59,51.61,18.53-22.73,9.18-45.14,5.82-71,35.93,13.1,43.85,42.07,56.28,68.48,21.27-13,20.6-33.93,24.46-52.88C3446.74,126.34,3451.37,138.71,3449.58,189.52Z"/><path class="cls-2" d="M3238.63,342.25c8.68-2.46,14.06-5.4,19.35-5.27,50.09,1.18,119.43,55.26,103.1,122.53-6.21,25.59-19.65,46.72-42.44,60.32-30.12,18-66.48,5.85-76.41-25.38-2.47-7.77-2.15-17.29-.26-25.34a63.15,63.15,0,0,1,11.49-23.37c20.85-27,20.17-53.32-.06-80.11C3248.78,359.51,3245.14,352.64,3238.63,342.25Z"/><path class="cls-2" d="M3180.18,355.66c-8.34-53.93,69-92.2,124.06-75.73-.16,2.62-.21,5.38-.49,8.11-3.63,34.74-3.68,34.1-38.86,36.51-24.37,1.67-48,6.71-67.54,23.55C3193.28,351.62,3187.11,352.72,3180.18,355.66Z"/></g></g></svg>