<svg xmlns="http://www.w3.org/2000/svg" viewBox="0 0 3497.86 889.16"><defs><style>.cls-1{fill:#fff;}.cls-2{fill:#f8e30c;}.cls-3{fill:#fce30d;}.cls-4{fill:#1c1c1c;}</style></defs><g id="Capa_2" data-name="Capa 2"><g id="Capa_1-2" data-name="Capa 1"><path class="cls-1" d="M3079.62,557.71c.48-4.29.82-14.33,2.77-24.06,10.64-53,69.45-81.06,117.57-55.89,12.44,6.5,24.72,14.05,35.35,23.14,29.82,25.49,65.22,35.39,103,39.72,20.62,2.37,41.44,3.59,61.83,7.28,28.56,5.16,35.79,26,16.86,48.35-32.81,38.8-68.94,74.18-115.14,96.93-40.54,20-82.61,31.69-127.2,12.87C3118.58,682.4,3079.21,628.46,3079.62,557.71Z"/><path class="cls-1" d="M3442.85,172.53c21.24,21.95,28.58,45.46,35.65,67.64,20.72,65,25.9,131.2,10.2,198.82-13.13,56.58-62.61,96.83-120.26,83.86-25-5.62-51.19-7.11-75.34-15.05-18.33-6-35.22-18-50.9-29.84-8-6-13.7-16.78-17.26-26.55-10.11-27.71,2.93-52.31,31.23-60.25,11.14-3.12,23-3.65,34.26-6.36,18.5-4.45,37.31-8.33,55.07-14.93,41.07-15.24,67.24-45.9,78.89-87.21,8.05-28.56,11.5-58.43,16.78-87.75C3442.16,189.38,3442.06,183.66,3442.85,172.53Z"/><path class="cls-1" d="M2847.24,738.05c9.87,6,19.94,11.77,29.56,18.18,65.53,43.66,136.47,72.65,215.74,77.42,64.62,3.89,125.16-11.78,182.53-41.32,69.81-35.94,126.76-87.78,180.16-144.14,3.31-3.49,6.57-7,12.85-13.74,3.94,19.24.1,34-4.82,48.25-14.15,41-37.8,76.28-71,103.88-100.08,83.32-215.85,115.79-344.23,97.76-77-10.83-141.76-46.22-185.64-113.4-6.32-9.68-11.83-19.88-17.72-29.84Z"/><path class="cls-1" d="M3243.4,0c111.92,30.21,183.73,127.93,166.68,246.53-6.77,47.08-35.76,77.7-79,94.21-26.39,10.07-54.5,13.89-83,12.15-25-1.53-34.6-12.39-26.08-35.61,9.65-26.29,23.86-50.89,35.93-76.31q13.86-29.16,27.29-58.52c17.71-38.88,9.58-76.43-7.46-112.79-8.31-17.73-19.53-34.08-28.93-51.32C3246.36,13.85,3245.78,8.33,3243.4,0Z"/><path class="cls-1" d="M2995.5,277.48c30.38,38.07,45.88,76.68,50.67,118.07,5.62,48.55,6.81,97.67,8.65,146.59,1.4,37,7.61,72.54,25.27,105.51,1.17,2.19,2.22,4.46,3.2,6.75,17.42,40.68-7.57,76.21-52.35,72-43.62-4.14-68.86-33.43-86-70.69-15.84-34.53-11.74-69.6-.05-104.36s24.76-68.8,35-103.82c14.55-49.55,25.4-99.85,15.62-152.11C2994.86,291.46,2995.5,287.28,2995.5,277.48Z"/><path class="cls-1" d="M2883,229.38c15.71,2.56,31.72,3.36,46.57,7.94,32,9.85,49.89,32.84,51,66.21.69,20.57-1.64,41.43-4.56,61.89-10.3,72.17-35.1,139.84-66.48,205.21-5.31,11.06-12.72,21.38-20.52,30.92-11.7,14.3-26.82,23.8-45.88,17.46-20.15-6.71-33.95-21-37.6-42.63-3.26-19.27-.49-38.28,7.35-56.14,12.73-29,27.88-56.56,50.25-79.57,33.55-34.5,59-73.75,70.62-121.09,7.13-29-8.49-60.34-34.49-68.92-14.53-4.79-18.19-3.13-26.44,9.84-3.84,6-8,12.83-13.75,16.48-11.09,7-24.65,1.48-31-10.94-5.78-11.31-2.06-24.5,10.77-28.58C2852.86,233,2868,232,2883,229.38Z"/><path class="cls-1" d="M2936.77,161.34c18.77-3.89,23.62-18.55,31.17-31.2,2.41,1.58,5.21,2.4,6.1,4.14,9.37,18.19,21.26,38.58,8.63,57-13.58,19.86-38.2,21.05-61.19,16.83-28.43-5.21-55.62-2.41-83.46,4.9-16.34,4.3-34.64,4.63-51.61,2.82-20.13-2.14-30.59-18.86-24.42-37.26,9.84-29.29,28.34-53.68,49-78.14l28.6,43.93c15.77-19.34,7.81-38.42,4.95-60.47,30.59,11.15,37.33,35.81,47.91,58.29,18.11-11,17.54-28.88,20.83-45C2934.36,107.56,2938.3,118.09,2936.77,161.34Z"/><path class="cls-1" d="M2757.19,291.37c7.39-2.09,12-4.59,16.47-4.49,42.64,1,101.67,47.05,87.77,104.32-5.28,21.79-16.73,39.78-36.13,51.35-25.64,15.3-56.59,5-65.05-21.6-2.11-6.62-1.83-14.73-.22-21.58a53.71,53.71,0,0,1,9.78-19.89c17.75-23,17.17-45.4,0-68.2C2765.83,306.06,2762.73,300.22,2757.19,291.37Z"/><path class="cls-1" d="M2707.42,302.79c-7.1-45.91,58.72-78.5,105.62-64.47-.13,2.23-.17,4.58-.42,6.9-3.09,29.57-3.13,29-33.07,31.09-20.75,1.42-40.89,5.71-57.5,20.05C2718.57,299.35,2713.32,300.28,2707.42,302.79Z"/><path class="cls-1" d="M1889.27,380.7c-14.4,20.79-23.56,45.57-49.68,59.82-2.48-6.23-5.25-11.32-6.51-16.73-3-12.49-4.23-25.43-8-37.64-10.7-34.58-54.76-55.7-88.54-41.82-35,14.36-56.51,42.84-69.9,76.45-8.42,21-12.21,44.15-16.23,66.65-3.79,21.4-15.38,38.86-25.19,57.25-1.38,2.56-7.16,4.8-9.89,4s-5.73-5.74-5.78-8.91a149.62,149.62,0,0,1,2-28.28c7.93-44.6,16-89.11,24.66-133.55,5.77-29.94-10.62-46.1-40.2-38.08-9.65,2.6-18.6,7.61-28.08,11.07-4,1.46-8.55,1.75-15.58,3.13.65-7.32.81-12.37,1.62-17.29,2-12,5.25-23.85,6.11-35.85,1-14-5.74-21.56-18.88-24.7-15.63-3.7-27.43.21-31.82,13.84-4.52,13.95-6.92,28.89-8.14,43.57-2,23.69-.41,46.67,28.81,56.56-14.45,34.1-27.1,66.94-42.11,98.71-14,29.75-34.27,55.3-62.14,73.77-22.34,14.81-39.3,7.65-44.1-18.84a102.59,102.59,0,0,1,3.25-48.17c17.66-6.51,33.32-9.69,46.18-17.54,30.56-18.72,48.67-64.21,42-99.44-7-36.95-37.06-55.42-72.46-43.05a104.65,104.65,0,0,0-32.84,19.33c-38.37,33-57,77-64.33,125.72-3.74,25.11-15.38,45.9-27.34,67.06-1.63,2.93-5.21,4.8-11.6,10.38,0-15.75-1.34-27.31.25-38.46Q1276,440.22,1288.66,361c7.57-47.49,15.79-94.81,23.93-142.21,2.31-13.47-.7-23.92-13.68-30.56-23.27-11.92-42.6-12.9-51.43,18.56-.73,2.6-2,5.08-2.64,7.73q-14,54-28,108.11c-2,7.53-3.66,15.14-5.73,23.8-5.66-1.91-8.87-2.81-11.93-4.07-32.59-13.51-60.46-6.91-85.08,18.31-32.59,33.41-49.72,74.26-55.54,119.39-3.46,26.69-14.52,48.94-28.24,70.79-2.23,3.58-6,6.19-12.12,12.29-1.22-11.68-3.54-19.65-2.61-27.22,3.63-29.5,7.78-59,12.74-88.29,3.74-22,9.44-43.7,13.27-65.68,1.22-6.91,1.26-15.58-1.92-21.44-9.68-17.86-33.16-21.85-50.25-9.93-2.2,1.51-4.56,2.73-7.4,4.44-3.06-1.71-6.07-3.14-8.79-5-32.11-21.73-62-17-91.67,5.82-25.31,19.37-39.84,45.65-51.23,74.18-7.33,18.31-20.14,31.17-37.07,43.05-13.83-46.43,1-84.92,25.31-120.65-15.75-25.79-42.6-31.65-63.8-13.38A105.84,105.84,0,0,0,732,367.23a142.22,142.22,0,0,0-18.71,74c.44,17.58,2,35.15,3.66,52.69.81,8.95-1.55,14.77-9.6,20.22-10,6.76-18.88,15.46-26.9,24.54-11.56,13-12.25,27.95-4,43.29,12.33,23,35.93,35.48,62.42,33,24.37-2.24,43.29-17.66,50-43.78a201,201,0,0,0,6.06-48.18c0-15.62,7.2-24.78,20.22-33.48,0,15.46-.89,29.41.2,43.17,2.08,25.47,8.79,49.48,28.69,67.42,26.94,24.29,60.26,18.84,78-12.78,5.9-10.45,11.15-21.24,17.25-33,5.9,11.36,10.5,21.65,16.32,31.25,16.76,27.59,67.54,40.65,92,1.47,4.07-6.47,8.67-12.66,12.69-18.47,8.87,11.67,15.79,23.6,25.35,32.79,22.67,21.81,53.67,18.27,71.45-7.28,5-7.16,8.47-15.34,12.66-23,4.72-8.67,7.65-18.52,15.91-25.19,1,6.31,2,11.76,2.76,17.21,3.91,28.44,22.38,43.5,47.73,52.25,13.43,4.64,25.8,2.89,35-8.51s17.78-23.72,26.4-35.76c3.34-4.68,6.15-9.73,10.38-16.44,2.81,6.06,4.6,9.64,6.14,13.3,18.48,43.83,84.92,65.23,127.2,28.08,14.12-12.37,27.67-26.37,37.88-42,31.78-48.42,56.07-100.34,65.18-158.28,1.47-9.24,6.88-7.94,14.89-5.7-2,8-3.74,15.14-5.65,22.18a552.91,552.91,0,0,0-18.51,126.34c-.78,23.07,6.18,44.19,23.07,60.91,23.39,23.15,53.87,21.24,73.56-5.05,6.47-8.62,11.15-18.55,16.77-27.83,2.19-3.62,4.76-7,7.32-10.66,7,11.39,12.08,21.77,19,30.76,12.86,16.69,29.83,27.14,51.35,29.34,25.88,2.6,44.23-10.58,59.16-29.17,21.28-26.49,32-58,38.41-90.82,2.12-10.83,6.64-18.23,15.79-24.42,11.72-7.89,22.67-17,33.33-26.24,14.89-13,21-31.33,27-49.27C1902.54,388.6,1900.14,381.48,1889.27,380.7Zm-472.28.37c4.52-8.59,9.32-18.27,21-20,12.86,35.48-13.22,94-46.51,100.5C1393.43,432.05,1403.81,406.05,1417,381.07ZM704.53,566.41c-5.58-17.09,19.85-18.76,19.85-18.76S710.14,583.5,704.53,566.41ZM960.42,381c-2.68,22.13-3.7,44.84-9.76,66.08A396.84,396.84,0,0,1,905,548.71c-5.37,8.58-5.45,8.54-17.41,13.34-13.55-50.69,30.56-173.66,70-194.21C958.67,372.48,960.91,376.92,960.42,381ZM1130.3,562.22c-8-3.71-6.11-11.07-6.35-17.58-.89-26.16,6.59-50.82,14.08-75.36,9-29.13,20.63-57.25,38-82.51,5.13-7.45,12-13.72,18.8-21.45C1212.9,404.75,1166.8,540.69,1130.3,562.22Zm641.1-11.4c-7,8.26-15.06,14.37-26.29,11.15-10.78-3.09-16-12.12-18.11-22.42-1.46-7.16-1.5-14.77-1.38-22.17.69-35,12.9-67.1,26.69-99.32,10.22,25,21.16,48,48.71,56.06C1800.12,493.53,1783.07,537,1771.4,550.82Zm34.54-103.47c-26.61-7-32.71-45-11.35-70.72C1806.31,391.28,1811.11,421.15,1805.94,447.35Z"/><path class="cls-2" d="M330.47,570.38c-34-2.32-63.27,1.61-91.37,11.85-13.1,4.78-26.33,10-36.62,20.95-4.41,4.68-12.63,5.78-19.14,8.52-9.33-23.37-1.31-49,16.26-60.8,19.87-13.32,42.38-17.27,65.25-18.71,26.22-1.65,52.57-1.87,78.85-1.48,10.3.15,16.47-3.44,21.41-11.83,7.5-12.74,15.34-25.28,23.39-37.67q61.77-95.13,123.74-190.13c25-38.48,52.78-75,84.81-107.86a301,301,0,0,1,48.42-39.76c19.22-12.82,40.53-14.8,61.06-1.18,8.26,5.49,13.13,12.5,13,23.53-.48,33.26-5.85,65.67-13.19,98S692.9,328.58,687,361.09c-7.76,42.46-15.8,84.9-22,127.6-7.58,52.2-14,104.62-10.14,157.62,2.34,32,8.08,63,25.65,90.63a93,93,0,0,1,5.48,10.88c8.18,17.63,3.65,23.84-16.45,25.07-34.88,2.14-57-18.39-75.67-43.21s-29-53.66-32.69-84.16c-1.57-13-6.91-19.89-18.07-23.67-31.88-10.81-63.83-21.41-95.78-32-1.9-.63-4-.47-6-1-25.78-6.82-25.72-6.78-42.15,14.14-30,38.25-58.41,77.93-94.65,110.89-28.87,26.24-60.15,49-99.5,55.55-41,6.78-82.12,8-121-11.11C50.75,742,29.49,714.36,15.14,681.46A177,177,0,0,1,0,608.49c.38-27,6.67-53.63,17.62-78.62,25.48-58.17,65.33-104.2,120.84-135,30.35-16.85,63.42-29.34,99-17.74,17.07,5.56,33,14.89,49.08,23.07a16.79,16.79,0,0,1,7.47,8.95A14.33,14.33,0,0,1,292.82,420c-1.15,1.82-5.9,1.76-9.05,1.8-1.83,0-3.84-1.19-5.5-2.27-22.92-15-47-13-69.45-1.12-20.69,11-39.87,25.1-58.8,39.08-24.76,18.28-42.66,42.52-58.37,69-16,26.9-23.68,56.23-26.5,86.36-2.9,30.88-1.21,61.42,13.74,91,17.25,34.09,61.9,48.91,95.15,34.74C203.37,726,227,706,246.62,681.48c26.16-32.58,51.32-66,76.84-99.06C325.38,579.93,326.68,577,330.47,570.38Zm223.42,22.93c3.19-31.85,5.52-58.64,8.64-85.33,5.09-43.45,8.87-87.17,16.58-130.17,9.63-53.72,22.07-107,41.33-158.34,1.43-3.82,1.32-8.23,2.41-15.75-26.54,28.81-43.77,59.2-59.79,90.21-41,79.32-81.35,158.94-121.9,238.49-1.77,3.48-2.84,7.33-4.59,12Z"/><path class="cls-1" d="M2107.05,483.45c-2,1.53-3.88,3.91-6.17,4.47-62.28,15.29-102.65,57.53-134.66,109.75-18.8,30.64-28.79,64-28.07,100.29a80.91,80.91,0,0,0,12.73,42.21c9.7,15.36,20.56,17.69,36,7.7,23.26-15.07,39.45-36.84,53.89-59.86,32.34-51.53,52.7-108.36,69-166.36,14.46-51.4,26.32-103.64,36.85-156,5.16-25.67,5.09-52.46,6.48-78.79.4-7.76-2.3-15.69-3.9-25.57-8.7,1-16.24.48-22.86,2.73-53.9,18.34-89.15,54.52-103.79,110.08-4.42,16.79-4,32.18,10,44.81,1.28,1.16,1.4,3.6,2.64,7.08-9.89,5.52-19.34,3.28-28.54-.55-29.21-12.15-42.3-43.18-29.05-74.5,22.26-52.61,62.46-87.69,114.94-108.28,13.41-5.26,29-6.46,43.68-6.66,28.65-.4,48.73,14.15,60.22,40.25,9.67,22,13.27,45.22,14.19,69.11,2.21,56.9-8.71,111.94-23.88,166.2-18.57,66.37-46.09,128.68-88.61,183.61a258.5,258.5,0,0,1-57.06,54.45,140,140,0,0,1-58,23.23c-44.42,7.33-82.43-25-86.44-72.72-2.94-34.89,5.06-67.27,22-97.58C1951,544.9,1997,503.07,2059.76,480.71c15.25-5.44,30.88-7,46.31-2.68Q2106.57,480.75,2107.05,483.45Z"/><path class="cls-1" d="M2390.52,448.42c7.72-7.28,14.38-13.83,21.32-20.07,16.89-15.19,30.61-32.56,37.86-54.42,1.48-4.49,3.18-9,3.84-13.67,1.91-13.34-2.18-17.39-15.75-15-28.24,4.92-53.55,16.83-71.9,38.86-35.2,42.27-60.32,89.77-68,145.2a92,92,0,0,0,7.75,51.5c8.42,18.58,18.24,24.19,38.7,22.65,27.1-2,50.8-14.19,73.77-27.24,39.71-22.56,73.94-52.48,107.29-83.33,16.9-15.63,32.73-32.41,49.56-48.11,5.83-5.45,12.7-10.55,20-13.44,10.25-4.05,17.8,3.64,14.42,14.1a40.75,40.75,0,0,1-8.19,13.86c-45.14,51.58-92,101.48-150.34,138.57-33.65,21.39-69.91,35.84-111,33.5-23.42-1.33-45.31-7.7-65.3-20.1-28.32-17.56-41-44.69-43.63-76.39-7.4-89.28,24.92-162.16,95.66-216.5,37-28.42,104.77-41.34,155.08.21,25.85,21.35,31.73,42.66,16.85,73.16-14,28.71-33.89,52.19-62,68C2418.77,469.65,2405.26,466.67,2390.52,448.42Z"/><path class="cls-1" d="M366.21,303.3c-8.41,10.7-14.75,19.29-21.64,27.42-13.49,15.93-33.93,21.21-53.45,14-18.1-6.68-26.52-21.93-28.31-39.1-3.84-36.89,6.5-69.65,35.37-94.77,13.06-11.37,30.37-14.11,41-7.27,12.56,8,17,23.61,12.31,41.38-2.82,10.61-6.24,21-15.23,27.89-4.62,3.57-10,6.82-15.56,8.28-6,1.58-13.44,1.27-14,8.85-.69,9.21-.53,19,1.91,27.75,1.76,6.31,12.48,6.94,19.41.64a166.23,166.23,0,0,0,24.3-27c16.28-23.16,21.45-50.47,27.5-77.53,5.87-26.27,13.18-52.23,20.24-78.22,3.25-12,7.4-14.5,18.5-13,11.9,1.63,17.53,6.76,16.7,18.52-1,13.38-4,26.6-6,39.91-5.9,38.6-11.82,77.2-17.53,115.83-.68,4.58-.09,9.36-.09,18,12.87-17.91,19.69-34.31,24.92-51.49,2.94-9.68,5.59-19.45,8.57-29.12,2-6.53,5.68-10.45,15.43-6.74-4.39,17.69-7.32,35.6-13.4,52.37-6.65,18.3-15.38,36-24.88,53.05-4.65,8.33-11.12,18.66-23.2,16.66-14.91-2.47-26.31-10.72-30.13-26.4C367.54,317.4,367.27,311.27,366.21,303.3Zm-56.1-35.16c20.1-13.56,26.66-30.68,20.75-50.47C317.87,231.47,314.19,248,310.11,268.14Z"/><path class="cls-1" d="M2181.44,610.21c0-14.15,10-23.75,24.45-23.64a23.8,23.8,0,0,1,23.49,22.79,24.76,24.76,0,0,1-23.69,25.11C2192.65,634.91,2181.4,623.66,2181.44,610.21Z"/><path class="cls-3" d="M1834.92,758.86c-3.64,13.77-14.71,18.26-24.64,23.19-23.14,11.72-48.27,17-73.61,21.45-77.15,13.51-155,14.36-232.8,11-53.91-2.34-107.67-9.08-161.48-14.26-58.55-5.64-117-12.47-175.5-17.41q-77.88-6.58-155.9-9.92c-24.89-1-50.07,1-75,3.39-30.17,2.89-60.45,6.63-90.27,12.12-19.8,3.64-38.9,11.07-58.3,16.76-3,.89-6.13,1.59-12.37,3.14,9.88-14,17.91-25.24,25.79-36.66a66.52,66.52,0,0,0,7.23-12.07c9.52-23.19,5.83-31.37-18.21-38.45-23.88-7-48-13.27-75.8-20.9,35.76-6.83,68.07-15.16,101-19C891,672.29,967.2,665,1043.8,668.7c53.37,2.54,106.63,6.38,159.84,11,36.46,3.14,72.86,6.93,109.27,10.87l0,0a1,1,0,0,1,.4.05q28.88,3.13,57.6,6.38c18.06,2,36.11,4.44,54.11,6.89,27.48,2.44,53.62,4,78.2,4.93h.65c26.88,1,52,1.1,75.51.7a707.84,707.84,0,0,0,120.94-8.68c86.72-11.42,129.91-29.67,131.76-30.47v.45c-3.89,16-5.49,29.32-10.53,41.19-4.88,11.57-13.36,21.6-20.29,32.32C1809.64,756.62,1822.7,755.92,1834.92,758.86Z"/><path class="cls-2" d="M1834.92,758.86c-3.64,13.77-14.71,18.26-24.64,23.19-23.14,11.72-48.27,17-73.61,21.45-77.15,13.51-155,14.36-232.8,11-53.91-2.34-107.67-9.08-161.48-14.26-58.55-5.64-117-12.47-175.5-17.41q-77.88-6.58-155.9-9.92c-24.89-1-50.07,1-75,3.39-30.17,2.89-60.45,6.63-90.27,12.12-19.8,3.64-38.9,11.07-58.3,16.76-3,.89-6.13,1.59-12.37,3.14,9.88-14,17.91-25.24,25.79-36.66a66.52,66.52,0,0,0,7.23-12.07c9.52-23.19,5.83-31.37-18.21-38.45-23.88-7-48-13.27-75.8-20.9,35.76-6.83,68.07-15.16,101-19C891,672.29,967.2,665,1043.8,668.7c53.37,2.54,106.63,6.38,159.84,11,36.46,3.14,72.86,6.93,109.27,10.87l0,0a1,1,0,0,1,.4.05q28.88,3.13,57.6,6.38c18.06,2,36.11,4.44,54.11,6.89,27.48,2.44,53.62,4,78.2,4.93h.65c26.88,1,52,1.1,75.51.7a707.84,707.84,0,0,0,120.94-8.68c86.72-11.42,129.91-29.67,131.76-30.47v.45c-3.89,16-5.49,29.32-10.53,41.19-4.88,11.57-13.36,21.6-20.29,32.32C1809.64,756.62,1822.7,755.92,1834.92,758.86Z"/><path class="cls-4" d="M933,706.47l.94,9.48c1.15,11.68-3.84,18.59-15.31,19.72l-5.42.54,2.71,27.41-11.46,1.13-7.21-73,16.88-1.67C925.58,689,931.84,694.8,933,706.47Zm-20.82,19.32,5.42-.54c3.65-.36,5.46-2.22,4.95-7.43l-1.08-11c-.52-5.21-2.66-6.68-6.31-6.32l-5.42.54Z"/><path class="cls-4" d="M956,686.13c11.29-.61,17.83,5.75,18.46,17.46l2,38.07c.64,11.71-5.17,18.74-16.47,19.35s-17.83-5.75-18.46-17.46l-2.05-38.07C938.89,693.76,944.7,686.74,956,686.13Zm3.48,64.42c3.66-.2,5.85-2.31,5.57-7.54l-2.14-39.53c-.28-5.23-2.69-7.09-6.35-6.89s-5.85,2.31-5.57,7.53l2.14,39.54C953.41,748.89,955.82,750.75,959.48,750.55Z"/><path class="cls-4" d="M994.55,685.58l1,62.84,18.95-.32.18,10.47-30.48.51L983,685.78Z"/><path class="cls-4" d="M1031.72,685.48l-.85,62.83,19,.26-.14,10.47-30.47-.41,1-73.31Z"/><path class="cls-4" d="M1073.83,685.79c11.3.47,17.2,7.43,16.71,19.15L1089,743c-.49,11.72-6.94,18.16-18.25,17.69s-17.19-7.43-16.7-19.15l1.59-38.09C1056.07,691.76,1062.53,685.32,1073.83,685.79Zm-2.69,64.46c3.66.15,6-1.74,6.27-7l1.65-39.56c.21-5.23-2-7.31-5.67-7.47s-6.05,1.74-6.26,7l-1.65,39.55C1065.26,748,1067.48,750.1,1071.14,750.25Z"/><path class="cls-4" d="M1136.83,763.94l-1-13.41-14.09-1.06-3,13.11-10.55-.8,17.22-72.22,16.81,1.27,6.18,74Zm-1.8-23.45-2.75-37.38L1124,739.66Z"/><path class="cls-4" d="M1175.72,692.91c11.16,1,16.27,8.24,15.19,19.92l-.22,2.3-10.84-1,.28-3c.49-5.21-1.42-7.39-5.07-7.73s-5.92,1.45-6.4,6.66c-1.4,15,20.76,19.92,18.82,40.78-1.09,11.68-7.55,17.81-18.81,16.76s-16.48-8.27-15.39-19.95l.41-4.48,10.85,1-.49,5.21c-.48,5.22,1.64,7.31,5.29,7.65s6.12-1.33,6.6-6.54c1.4-15-20.76-19.92-18.82-40.77C1158.21,698,1164.56,691.87,1175.72,692.91Z"/><path class="cls-4" d="M1217.72,771.66l-.59-13.44-14.06-1.48-3.37,13-10.52-1.11L1208.54,697l16.77,1.77,4,74.14Zm-1.1-23.5L1215,710.71,1205.58,747Z"/><path class="cls-4" d="M1260.83,702.69c11.44,1.3,16.34,8.28,15,19.94l-4.18,36.84c-1.32,11.65-7.66,17.36-19.11,16.06l-18.11-2,8.27-72.85Zm-13.75,61.68,6.45.73c3.64.42,6-1.21,6.63-6.41l4.3-37.88c.59-5.21-1.38-7.33-5-7.74l-6.46-.73Z"/><path class="cls-4" d="M1301.82,706.56c11.23,1.31,16.6,8.68,15.25,20.33l-4.39,37.87c-1.35,11.65-8.26,17.59-19.49,16.29s-16.6-8.67-15.25-20.32l4.38-37.87C1283.67,711.21,1290.58,705.26,1301.82,706.56Zm-7.43,64.09c3.64.42,6.16-1.29,6.77-6.49l4.55-39.33c.6-5.2-1.46-7.44-5.1-7.86s-6.16,1.29-6.76,6.49l-4.55,39.32C1288.69,768,1290.75,770.23,1294.39,770.65Z"/><path class="cls-4" d="M1346.37,747.31c-5.16-2.89-7.12-8.06-6.26-15.87l.15-1.35c1.29-11.66,7.61-17.39,19.06-16.12l13.12,1.45-1.15,10.41-12.91-1.43c-3.64-.4-6,1.23-6.61,6.43l-.5,4.48c-.64,5.83,1.75,8,6,8.46l5,.55.9-8.12,11.45,1.27-.9,8.12,3,.33-1.15,10.41-3-.33-2.65,23.94c-.39,3.54-.57,6.15.27,9l-11.65-1.29a17.42,17.42,0,0,1-.41-5.84c-2.45,4.05-6.24,6-11.35,5.38-8.43-.93-12-7.33-10.85-18.06l.81-7.39C1337.58,754.34,1340.47,749.18,1346.37,747.31Zm6.27,30c3.43.38,5.92-1.13,6.64-5.69l1.86-16.87-4.37-.48c-5.21-.57-7.77,1.67-8.52,8.44l-.75,6.76C1346.92,774.66,1349,776.89,1352.64,777.29Z"/><path class="cls-4" d="M1432.67,738.36l-.24,2.61c-.72,7.5-3.46,12.08-8.8,14,5.92,3,7.8,8.73,7.07,16.44l-.56,6c-1.07,11.26-7.59,16.74-19.05,15.66l-18-1.71,6.91-73,17.31,1.64C1429.15,721.09,1433.74,727.1,1432.67,738.36ZM1405.5,782l6.57.62c3.86.37,6.11-1.21,6.63-6.63l.6-6.36c.64-6.78-1.35-9.07-6.56-9.56l-5.11-.49Zm3.11-32.84,4.49.42c4.27.4,7.06-1.23,7.61-7.06l.38-4.07c.5-5.21-1.06-7.68-5.12-8.06l-5.53-.52Z"/><path class="cls-4" d="M1458.76,788l.88-11.49c.52-6.79-1.58-9.47-6.81-9.87l-4-.31-2.29,29.77-11.48-.88,5.6-73.11,17.34,1.33c11.9.92,16.6,6.84,15.73,18.12l-.44,5.75c-.58,7.52-3.35,12.24-8.66,14.25,5.56,2.84,7,8.52,6.43,16.14l-.86,11.28c-.27,3.55-.37,6.17.57,9l-11.7-.9C1458.63,795.15,1458.3,794,1458.76,788Zm-9.09-32.11,4.49.34c4.28.33,7-1.35,7.48-7.19l.56-7.21c.4-5.22-1.2-7.65-5.28-8l-5.53-.42Z"/><path class="cls-4" d="M1497.76,725.23c11.29.6,17.11,7.62,16.48,19.33l-2,38.07c-.62,11.71-7.15,18.08-18.44,17.48s-17.11-7.62-16.49-19.34l2-38.07C1479.93,731,1486.46,724.62,1497.76,725.23Zm-3.43,64.42c3.66.19,6.06-1.67,6.34-6.9l2.11-39.53c.27-5.23-1.92-7.34-5.58-7.54s-6.07,1.67-6.35,6.9l-2.1,39.54C1488.47,787.35,1490.67,789.45,1494.33,789.65Z"/><path class="cls-4" d="M1545.74,801.13l-1.69-13.34-14.13-.32-2.29,13.25-10.58-.24,13.39-73,16.85.38,10.08,73.56Zm-3-23.33L1538,740.61l-6.39,36.94Z"/><path class="cls-4" d="M1578.33,726.92c11.2-.34,17.16,6.18,17.52,17.91l.07,2.3-10.89.33-.09-3c-.16-5.24-2.32-7.16-6-7s-5.7,2.16-5.54,7.4c.47,15.07,23.06,17.21,23.7,38.14.36,11.73-5.3,18.61-16.61,19s-17.37-6.17-17.73-17.89l-.13-4.51,10.88-.33.16,5.23c.16,5.24,2.52,7,6.19,6.94s5.91-2.07,5.75-7.3c-.47-15.07-23.06-17.21-23.7-38.15C1561.57,734.14,1567.12,727.26,1578.33,726.92Z"/><path class="cls-4" d="M1634.08,726.05l.33,10.47-12,.39,2,62.8-11.52.37-2-62.8-12,.38-.33-10.46Z"/><path class="cls-4" d="M1666.88,755.23l.6,10.46-15.78.9,1.22,21.44,19.87-1.14.6,10.45-31.37,1.8L1637.83,726l31.36-1.79.6,10.45-19.86,1.14,1.17,20.39Z"/><path class="cls-4" d="M1705.1,785l-1.36-11.44c-.81-6.76-3.4-9-8.6-8.36l-4,.47,3.54,29.64-11.44,1.37-8.69-72.79,17.26-2.07c11.86-1.41,17.61,3.49,19,14.72l.68,5.72c.9,7.49-.91,12.66-5.72,15.66,6,1.71,8.54,7,9.44,14.59l1.34,11.23c.43,3.53.84,6.12,2.31,8.69l-11.65,1.39C1706.36,792,1705.81,790.9,1705.1,785ZM1690,755.25l4.47-.54c4.27-.51,6.64-2.69,5.95-8.51l-.86-7.18c-.62-5.2-2.66-7.28-6.72-6.79l-5.51.66Z"/></g></g></svg>