<svg xmlns="http://www.w3.org/2000/svg" viewBox="0 0 367.14 362.13"><defs><style>.cls-1{fill:#050505;}.cls-2{fill:#ffc100;}.cls-3,.cls-7{fill:#fff;}.cls-4{fill:#dd2405;}.cls-5{fill:#020202;}.cls-6{fill:#ff0;}.cls-7{opacity:0.67;}.cls-8{fill:#ff7400;}</style></defs><g id="Capa_2" data-name="Capa 2"><g id="Capa_1-2" data-name="Capa 1"><path class="cls-1" d="M176.69,347.32A158.35,158.35,0,0,1,64.72,77,158.35,158.35,0,1,1,288.66,300.94,157.3,157.3,0,0,1,176.69,347.32Z"/><circle class="cls-2" cx="174.71" cy="186.82" r="152.7"/><polyline class="cls-3" points="165.22 55.13 163.71 55.68 153.66 59.32 138.73 69.45 129.31 77.7 113.85 99.25 104.94 113.8 101.41 120.34 86.99 151.49 74.12 200.03 74.12 204.93 71.08 207.07 64.39 209.48 52.21 222.5 47.26 233.56 39.61 262.05 36.18 282.69 125.29 273.46 279.28 270.97 276.75 234.33 274.99 209.71 268.72 193.38 261.34 189.9 256.61 189.9 255.73 181.74 249.54 171.09 240.04 162.92 222.82 150.79 216.75 149.31 208.04 151.49 192.66 147.14 183.13 137.78 178.64 125.96 178.36 121.51 186.14 121.94 198.06 123.38 214.12 114.46 215.71 81.48 211.52 62.81 189.79 55.13 170.53 54.83"/><path class="cls-4" d="M134.86,44l13.9-11.93L167.5,24l15.09-2.2L192.1,24l-.54-3.31-2.48-3.92-3.3-2.86-1.15-1.71-8.42-6L173.4,1.09l17.94,1.49,10.51,3.74,7.76,3.19,11.78,6.39,11.82,17.17L236,41.16,237.4,48l1.82-4.51,2.48-11.6-1.11-4.79-1.9-2.56-.2-.3-.32-.25,3.93,1.57,6.7,7,1.65,1.9,1.15,17.92-4.95,13.37L239.48,82.2l6.07,2.34,3.2,3.3,4.83,3.84L251,101.17l-7.9,9-1.21,3.15.31,9.72-2.51,3.46-6.68-.61-7.1-5.22-1.24-2.6-3.9-2.16L216.6,115l-6.94,1.85L204,122l-6.72,1.62-9.35-1.51-6.08-.41-3.36.46,3.1,13.82,8,9.57,11.62,3.81,8.46,2.18h4.46l1.59,2.26,1,8.48,4,7.14,3.39,15.1L219.74,197,212,210.36l-2.63,1.44-6.81-6.42L199,198.9l-2-5.68.65-2.41-.65-2.5V185.5l-.22-1.44-.67.15s-11.53,11.71-19.24,11.49c0,0-2.88-2.79-1.16-5.8s2.6-4.66,2.6-4.66l2-1.78,1.39-2.13,1.42-1.15-3-.48-7.27-.26h-3.08l-2.21-5.16.92-3.46,3.49-2.93.44-4.33,1.18-2.06-2.27-1.58-7.61-10.61-.6-8.43-5.49-1.3-3.12-2.78.52-3.43,3.09-1.7,2.6-1.27L162,129l.89-2.08.82-1.9.17-1.65.08-1.49-.82-2.65L160,116.78s-12.55-11.64-7.1-18.83,1.41-7.84,1.41-7.84l6.44-.16,1-3.39,2.2-2.35,1.48-.87,2.13-.25L168.56,81l2-.25.34-.49,1.86-1.16L177.14,77l11.45-7.1L194.22,67l5.05-2.64,1.93-5.28-18.34-5.9-17.51,2.31s-9-11.69-31.86-8.12"/><path class="cls-3" d="M227.65,100.49a7.88,7.88,0,0,0-4.83,5.18c-1.49,4.28-1,9.3.53,11.65s9.31-2.53,9.31-2.53,3.37-9.13-1-12.38S227.65,100.49,227.65,100.49Z"/><path class="cls-3" d="M178.2,76.33,195,75.67l13.71,5,6.56,3.83s1-7.46,1-7.79-3.23-10.8-3.71-11.15-8.07-5.27-8.07-5.27l-7.25-2"/><path class="cls-5" d="M237.4,48S228.7-1.67,170.14,4.49L170,.25S230.79-6.35,237.4,48Z"/><path class="cls-5" d="M238.17,24s5.72,4-.77,24C237.4,48,251.26,31.18,238.17,24Z"/><path class="cls-5" d="M192.1,24S195,12.47,173.56,2L167.5,3.83S185.5,9.69,192.1,24Z"/><path class="cls-5" d="M192.1,24s-32.85-7.47-57.29,24l-5.5-2.64S156.49,9.91,192.1,24Z"/><path class="cls-5" d="M165.35,55.51s-4-13.54-33.18-11.34V49.4S155.12,46.76,165.35,55.51Z"/><path class="cls-5" d="M129.31,45.38s-2.09,3.69,2.86,4V46.7"/><path class="cls-5" d="M238.17,24s30.37,9.94-2.54,57.47l5,.92S273.06,35.44,238.17,24Z"/><path class="cls-5" d="M235.63,81.48s31,6.66,4.08,28.68l3.41,2S275.37,87.43,235.63,81.48Z"/><path class="cls-5" d="M165.35,55.51S94.53,81.59,76.69,205.42l-5.61,1.65S90.82,72.72,165.35,55.51Z"/><path class="cls-5" d="M217.53,86.88s-32.31-28.18-62.69,10l-3.43-2.92S185.94,52.65,217.53,86.88Z"/><path class="cls-5" d="M214.06,84.34c6.49-32.63-48.71-28.83-48.71-28.83,67.75-4.41,52.18,31.37,52.18,31.37"/><path class="cls-5" d="M34.76,281.7s-3.3-64.39,36.32-74.63c0,0-30,8.26-30.38,74.63l-6,1.32Z"/><path class="cls-5" d="M76.69,205.42s40.62-4,48.54,58.45c0,0,3.73-62.91-48.54-63.84"/><path class="cls-5" d="M71.08,207.07s19.09-6.22,36.4,12l-1.84-5.31L95.85,208l-9.91-3.41-7.15-1.21-4.74-.66"/><path class="cls-5" d="M121.57,235.36s19.68-11.45,24.3,26.69c0,0,1.64-37.92-25.43-30.1"/><path class="cls-5" d="M154.84,96.84s-6.82,9.68,7.71,22.4c0,0-19.17-13.32-11.14-25.32"/><path class="cls-5" d="M162.55,119.24s3.14,8.75-5.89,12.87C156.66,132.11,172.12,128.32,162.55,119.24Z"/><path class="cls-5" d="M153.27,103.71A16.47,16.47,0,0,1,158,93.07h-2.38l-1.58,1.84-1.76,1.93v4.24"/><path class="cls-5" d="M192.21,99.55s4.46,1.69,3.78,9.29"/><path class="cls-5" d="M222.82,105.67s3.45-7.24,7.58-3.45,4.24,14-4.05,14.23l0,2s8.45.2,8.34-8.81S226.84,94.89,222.82,105.67Z"/><path class="cls-5" d="M226.35,116.45v2c-4.88-.18-4.91-5.78-4.17-9.31a.18.18,0,0,1,0-.05s0-.08,0-.12,0-.12,0-.19c.24-1,1.1-3.55,3.27-3.64h.17c.87.09,1.81.84,2.7,3C230.39,112.89,226.35,116.45,226.35,116.45Z"/><path class="cls-5" d="M226.35,105.31s3,1.13,2.56,6.19"/><path class="cls-5" d="M242.35,124.76l.77-12.57-3.41-2,2.51,15.1a1.67,1.67,0,0,0,.08-.2C242.31,125,242.33,124.86,242.35,124.76Z"/><path class="cls-5" d="M209.66,152.59c28,33.84-2.7,61.75-2.7,61.75,39-27.91,7.16-62.85,7.16-62.85"/><path class="cls-5" d="M207,214.34l4.11-3.18s-12.86-6.4-14-27.7C197.05,183.46,192.93,198.32,207,214.34Z"/><path class="cls-5" d="M197.05,183.46S184.92,194,176.2,194.19v4A34.67,34.67,0,0,0,197.05,183.46Z"/><path class="cls-5" d="M215.71,151.49s38.64,12.82,41,38.41c0,0,1.79-27-38.93-41.55"/><path class="cls-5" d="M256.66,189.9s-13,1-8.67,19.9a24.4,24.4,0,0,1,0,10.14c-1.21,5.25-3.71,13.14-8.55,19l-1.9,3s-.58,4.46,2.06,1.15,11.94-17.94,10.84-30.15S246,199.81,256.66,189.9Z"/><path class="cls-5" d="M241.3,237.62s-4.79-24.11-7.59-32.69l-.33,5.11,4.21,31.87"/><path class="cls-5" d="M233.71,204.93S220.33,250,220.5,262.05l-6-.56s6-38.24,19.17-56.56"/><path class="cls-5" d="M183.13,179.44s-5.72,6.72-6.93,14.75v4S167,190.81,183.13,179.44Z"/><path class="cls-5" d="M160.57,141.8a39.82,39.82,0,0,0,15.19,22.79s-10.41-12-9.47-23.78c0,0-16.34-2.92-9.63-8.7C156.66,132.11,147.69,138.11,160.57,141.8Z"/><polygon class="cls-6" points="178.49 122.11 184.35 121.62 192.99 121.87 199.49 122.94 204.99 120.85 210.44 117.33 215.17 115.18 220.79 115.9 223.77 117.59 226.55 122.22 230.19 135.6 232.06 142.09 229.48 143.62 221.55 143.35 218.25 142.75 218.53 145.03 212.58 150.68 199.38 150.02 189.03 144.27 182.63 136.46 179.56 128.66 178.49 122.11"/><path class="cls-5" d="M175.76,164.59s-9.69,4.73-9.47,12.54,16.84,2.31,16.84,2.31S156.82,183.08,175.76,164.59Z"/><path class="cls-5" d="M172.37,161.5a100.12,100.12,0,0,0-5.48,12.78l3.35-3.59,5.52-6.1"/><path class="cls-3" d="M208,169.05s8,17.77,0,35.55C208,204.6,229.83,179.12,208,169.05Z"/><path class="cls-5" d="M170.65,165s-4.59,6.48-4.32,12.58"/><path class="cls-5" d="M276.47,164s-8,.55-6.72,7.73-2.61-1.06-2.61-1.64.71-5.65.71-5.65l4.66-1.89"/><path class="cls-5" d="M256.66,189.9s18-6.77,21,20.14S279.28,271,279.28,271l-7.47-1.82S286.71,186.76,256.66,189.9Z"/><path class="cls-5" d="M178.36,120.34s-4.25,31.48,31.3,32.25v-2.86S182.44,150.12,178.36,120.34Z"/><path class="cls-5" d="M209.66,149.73s5,1.54,8.71-5.62c0,0,2.4,8.92-8.71,8.48"/><path class="cls-5" d="M206.29,149.46s6.21,1.58,10-2.32l.44,2.64-1,1.71h-3.3"/><path class="cls-5" d="M185.51,131.67s19.63,15.19,31.24,10.79a18.3,18.3,0,0,0,13.82.8s-12.22-1-13.32-4.65C217.25,138.61,196.7,139.6,185.51,131.67Z"/><path class="cls-5" d="M223.77,117.59a17.19,17.19,0,0,1,2.58,11.55c-.95,6.61,4,10.35,4.22,11.12s1.72,2.48,0,3,2.09-1.46,2.09-1.46S229.18,121.11,223.77,117.59Z"/><path class="cls-5" d="M223.77,117.59a10.79,10.79,0,0,0-13.12.84c-6.61,5.54-9.14,8.95-23.67,4.66,0,0-1.67-.9-8.34-1a32.84,32.84,0,0,1,18.14-1C206.8,123.42,209,108,223.77,117.59Z"/><path class="cls-5" d="M226.55,121s11.07,6.36,15.36,4C241.91,125,237.16,132.3,226.55,121Z"/><path class="cls-5" d="M241.3,119.72s1.94,7.07-4.37,5.54l4.14,1.83.84-1.5.31-1.51v-1"/><path class="cls-5" d="M238.93,127.94a14.39,14.39,0,0,1-9.45-4.12"/><path class="cls-5" d="M241.21,119.19s1,4.34-.8,5.76-.43.93-.43.93,1.41-.89,1.43-1,.5-2.1.5-2.1l-.09-1.77s1.39,5.7-4.41,4.32l3.73.81.77-1.37.17-1.2.46-1.94s.89,8.91-6.91,5.51l2.26-1.77,2.26.28,1.1-.33.89-1.16"/><path class="cls-5" d="M215.71,67.73S203.1,45.42,163.87,55.51c0,0,38.78-2.52,47.65,13.36"/><path class="cls-5" d="M162,129.91s-8.79,4.33-4.32,8.06-1.27,1.09-1.27,1.09L155.17,138l-1.38-2.4,1.19-2a9.1,9.1,0,0,1,3.69-2.62"/><path class="cls-5" d="M157.62,131.45s3.29-2,4.61-4.58.77,1.24.77,1.24l-1.83,1.6L159,131.29l-.66.82"/><path class="cls-3" d="M198.5,19.67s28.92-2.32,32.63,32.73C231.13,52.4,220.29,29.84,198.5,19.67Z"/><path class="cls-5" d="M232.66,141.8s1,2.84-7.42,2.47l3.46-1.22s3.79.72,1.87-2.79"/><path class="cls-5" d="M181.59,74.23s-22.76,5.57-31,21.17"/><path class="cls-3" d="M187,100.08s-2.6,7-1.22,13,9.29,4.64,9.29,4.64l6.15-4.9,1.86-6.36L201.91,98l-4-4.62-3.3-1.4-3.5,1.27Z"/><path class="cls-5" d="M187,100.08s5.11-10.86,11.23-5.17c6.28,5.84,6.28,21-6,21.35l-.08,3s12.52.3,12.35-13.23S192.93,83.9,187,100.08Z"/><path class="cls-5" d="M192.21,116.27v3c-7.23-.26-7.28-8.66-6.18-14a.17.17,0,0,0,0-.07,1.16,1.16,0,0,0,0-.18c0-.08,0-.18.07-.29.37-1.45,1.63-5.32,4.85-5.46h.24c1.29.14,2.69,1.26,4,4.46C198.19,110.92,192.21,116.27,192.21,116.27Z"/><polygon class="cls-3" points="277.94 219.63 280.31 214.33 282.31 202.96 282.31 185.72 273.4 177.04 268.11 167.54 273.4 163.09 278.44 163.09 284.21 165.48 290.73 171.92 296.02 179.21 300.23 187.52 304.85 183.64 309.22 180.26 312.44 177.04 316.57 172.29 321.27 164.77 329.94 157.27 342.46 150.57 350.61 153.87 350.61 161.68 345.57 168.98 333.99 178.76 331.02 182.82 340.32 184.58 344.31 186.78 345.3 187.64 347.25 190.69 346.98 195.12 345.15 198.87 345.57 200.24 349.28 202.86 351.74 206.84 350.87 210.72 348.61 214.53 346.47 216.32 340.86 217.71 339.77 218.96 343.37 227.26 342.66 237.71 339.27 254.8 328.54 265.6 311.62 270.97 294.36 270.97 283.58 263.06 279.28 257.33 277.94 219.63"/><path class="cls-5" d="M299.6,186.43C284.38,152.53,270,162.55,270,162.55l.83,3.36c13.24-9.65,28.65,20.41,28.94,21C299.73,186.74,299.66,186.59,299.6,186.43Z"/><path class="cls-5" d="M270.86,165.83s-5.21,8.2,14.06,19.89l-5.26,1.1s-22.23-16-9.63-24.34"/><path class="cls-5" d="M318.08,169.65s16-27.63,30.26-20S340.86,173,340.86,173s16.07-14.75,5.72-20.14S318.08,169.65,318.08,169.65Z"/><path class="cls-5" d="M298.14,183.32s13.58-4.65,19.94-13.67c0,0-2.78,8.19-17.85,17.87"/><path class="cls-5" d="M345.15,187.48s-10.64-7.16-23.86,2.42c-10.2,7.4-11.21,10.58-9.78,11.93l.09.07v0a4.89,4.89,0,0,0,1,.9h0a9,9,0,0,0,4,1.36l.25,1.65,0,.14s-.43,0-1.1,0h0a24.51,24.51,0,0,1-3.14-.35c-4.89-.91-10.61-4.09,3-15.16C335.47,174.38,345.15,187.48,345.15,187.48Z"/><path class="cls-5" d="M345.15,187.48s5.51,5.6-2.09,10l2.09,1.28S351.76,193.75,345.15,187.48Z"/><path class="cls-5" d="M345.15,198.71s15.19,7.21,1.32,17.61C346.47,216.32,355.39,210.81,345.15,198.71Z"/><path class="cls-5" d="M304.21,218.79s-18.22,8.42-21.91-9.08l-2,6.28S290,232.5,304.21,218.79Z"/><path class="cls-5" d="M339.87,218.46s-2.81,17.67-24.11,19.49c0,0,12.42,5.36,28.22-9Z"/><path class="cls-5" d="M343.06,226.55s13.32,27.91-20,43.26-43.48-12.05-43.48-12.05,14.09,14.1,25.87,12.16C314,268.51,341.52,266.84,343.06,226.55Z"/><path class="cls-5" d="M322.92,214.67s14.92-19.24,24-13.64l-1.79-2.32-2.09-1.28S328.53,201,322.92,214.67Z"/><path class="cls-5" d="M338.46,201.17s8.45-3.56,11,4.8V203.2l-.77-1.19-3-2.61-2.63-.69h-2.64"/><path class="cls-5" d="M322.92,214.67s14.58,4.32,27.14-5c.12-.08,0,0-.39,2.28l-3.2,4.33S332.6,223.25,322.92,214.67Z"/><path class="cls-5" d="M340.86,173s-8.39,5.42-5.93,9.53-5.52.9-5.52.9S329.3,178,340.86,173Z"/><path class="cls-5" d="M331.73,203.23c-10.24,5.47-19.11,2.38-19.11,2.38s-11.22-6.79-1.48-3.27a2.29,2.29,0,0,0,.28.09c.39.15.79.27,1.18.39h0a9,9,0,0,0,4,1.36,22.77,22.77,0,0,0,5.56,0,44.61,44.61,0,0,0,9-.82l.14,0Z"/><path class="cls-5" d="M279.66,186.9s2.41,17.1-1.22,32.06c0,0,6.81-2.31,6.48-33.24"/><path class="cls-5" d="M334.93,201l-3.19,2.2h0l-.38.08-.14,0L323.93,205l-7.08.82-1.08.13h0l-4.16-1.37-.54-1.1.36-1.06.17-.51a4.89,4.89,0,0,0,1,.9h0a9,9,0,0,0,4,1.36,22.77,22.77,0,0,0,5.56,0c.41,0,.83-.1,1.28-.17h0A26.78,26.78,0,0,0,334.93,201Z"/><path class="cls-7" d="M311.6,201.9v0l-.08-.09Z"/><path class="cls-5" d="M312.62,268.71s-15.42,5-33.07-10.95L292.26,271l10.58,1,11.44,1.08"/><polyline class="cls-5" points="350.06 209.71 347.58 212.15 345.57 214.9 346.47 216.32 349.5 213.64 350.5 211.05 350.5 209.95"/><path class="cls-5" d="M345.15,216.64s5-.72,6.81-6.93"/><path class="cls-5" d="M42.05,362.13a12.88,12.88,0,0,1-11.66-7.47L1.3,291.54c-.11-.26-.22-.51-.32-.77l-.13-.33a12.83,12.83,0,0,1,7.94-16.8,520.41,520.41,0,0,1,164.39-26.52c7.34,0,14.79.16,22.14.47a524.18,524.18,0,0,1,141.3,25.49,12.86,12.86,0,0,1,7.57,17.78L313.76,354a12.88,12.88,0,0,1-15.31,6.71,428.78,428.78,0,0,0-107.08-18.17c-6-.25-12.13-.37-18.14-.37A426.11,426.11,0,0,0,45.89,361.54,12.87,12.87,0,0,1,42.05,362.13Z"/><path class="cls-3" d="M40.18,357.25a8.74,8.74,0,0,1-7.93-5.08L3.16,289.05l-.22-.52-.12-.34a8.73,8.73,0,0,1,5.39-11.42,516.07,516.07,0,0,1,163.1-26.31c7.28,0,14.68.16,22,.46a519.87,519.87,0,0,1,140.18,25.3,8.73,8.73,0,0,1,5.15,12.09l-30.43,63.12A8.73,8.73,0,0,1,297.77,356a433.1,433.1,0,0,0-108.1-18.33c-6.08-.26-12.24-.38-18.31-.38A430,430,0,0,0,42.79,356.85,8.76,8.76,0,0,1,40.18,357.25Z"/><path class="cls-8" d="M330.75,284.52l-30.43,63.12a443,443,0,0,0-260.14.87L11.09,285.39l-.12-.33a512.5,512.5,0,0,1,319.78-.54Z"/><path d="M73.41,333.87A3.6,3.6,0,0,1,69.9,331l-5.28-24.89-5.57,1.18a3.59,3.59,0,0,1-4.26-2.77L52.36,293.1a3.6,3.6,0,0,1,2.77-4.27l30-6.36a3.59,3.59,0,0,1,4.26,2.77l2.43,11.45a3.57,3.57,0,0,1-.5,2.7A3.62,3.62,0,0,1,89,301l-5.54,1.17L88.79,327a3.64,3.64,0,0,1-.51,2.71A3.6,3.6,0,0,1,86,331.28l-11.86,2.51A3.19,3.19,0,0,1,73.41,333.87Z"/><path class="cls-3" d="M77.7,298.39l6,28.41-11.86,2.51-6-28.4-9.08,1.92-2.43-11.44,30-6.37,2.43,11.45Z"/><path d="M113.91,327.52A25,25,0,0,1,94.49,287.1a24.74,24.74,0,0,1,16.93-9.41,25.1,25.1,0,0,1,3.22-.21,23.66,23.66,0,0,1,15,5.36,25,25,0,0,1-12.34,44.46A25.61,25.61,0,0,1,113.91,327.52Zm.29-30.8a6.76,6.76,0,0,0-.76,0,4.92,4.92,0,0,0-3.52,2.09,6.07,6.07,0,0,0,1,8.21,4.88,4.88,0,0,0,3.21,1.21h0a4.43,4.43,0,0,0,.72,0,4.86,4.86,0,0,0,3.54-2.07,6.15,6.15,0,0,0-1-8.25A4.85,4.85,0,0,0,114.2,296.72Z"/><path class="cls-3" d="M110.32,280.29a20.09,20.09,0,0,1,15.52,4.4,21.41,21.41,0,0,1-26.35,33.75,21.39,21.39,0,0,1-3.72-30.07A21.19,21.19,0,0,1,110.32,280.29Zm1.14,11.95a8.47,8.47,0,0,0-6,3.52,9.65,9.65,0,0,0,1.66,13.14,8.75,8.75,0,0,0,12.62-1.56,9.74,9.74,0,0,0-1.65-13.18A8.5,8.5,0,0,0,111.46,292.24Z"/><path d="M159.45,324a22,22,0,0,1-16.13-6.9A25.48,25.48,0,0,1,136,299.59a24.32,24.32,0,0,1,6.31-17.84,23.36,23.36,0,0,1,17.05-7.7H160a25.91,25.91,0,0,1,7.22,1.15,3.6,3.6,0,0,1,2.57,3.33l.41,12.11a3.53,3.53,0,0,1-.53,2l1,0h.12a3.61,3.61,0,0,1,2.72,1.24,18.88,18.88,0,0,1,4.93,11.86,16.66,16.66,0,0,1-5.08,12.84,18.78,18.78,0,0,1-13,5.47Zm-3.79-26.14a7.54,7.54,0,0,0-.07,1.45,10.07,10.07,0,0,0,.17,1.54Z"/><path class="cls-3" d="M157.67,295.63l11.55-.4a15.36,15.36,0,0,1,4.06,9.63,13.15,13.15,0,0,1-4,10.17,15.17,15.17,0,0,1-10.61,4.42,18.41,18.41,0,0,1-14.3-5.81A21.86,21.86,0,0,1,138,298.51a20.77,20.77,0,0,1,5.38-15.3,19.79,19.79,0,0,1,14.51-6.53,21.71,21.71,0,0,1,6.73,1l.41,12.11a12.37,12.37,0,0,0-5.27-1.16,9.49,9.49,0,0,0-6.87,2.89,9.27,9.27,0,0,0-2.47,7,9.41,9.41,0,0,0,2.74,6.78,9.11,9.11,0,0,0,6.86,2.3c1.81-.06,2.7-.62,2.66-1.67q0-1.2-1.83-1.14l-2.89.1Z"/><path d="M193.69,324.3l-1.14,0c-5.63-.25-10-2.21-13-5.83s-4.22-8.31-4-14.27l1.16-26a3.59,3.59,0,0,1,3.59-3.43h0a8.83,8.83,0,0,1-.89-4.36,9,9,0,0,1,8.89-8.55h.43a8.82,8.82,0,0,1,6.23,2.91,7.79,7.79,0,0,1,.64.78c.23-.25.47-.49.72-.73a8.81,8.81,0,0,1,6-2.34h.44a9,9,0,0,1,8.53,9.33,8.86,8.86,0,0,1-1.28,4.26,3.61,3.61,0,0,1,3.28,3.74l-1.17,26.39c-.25,5.62-2.21,10.14-5.82,13.46A18.19,18.19,0,0,1,193.69,324.3Z"/><path class="cls-3" d="M208.27,278.68l-1.18,26.39c-.2,4.65-1.76,8.3-4.65,11s-6.65,3.89-11.27,3.68-8-1.71-10.36-4.52-3.35-6.75-3.13-11.82l1.16-26,12.11.54-1.16,26c-.11,2.48.72,3.77,2.49,3.84s2.62-1.12,2.73-3.61l1.15-26Zm-21.15-14.21a5.18,5.18,0,0,1,3.73,1.74,5.37,5.37,0,0,1-.33,7.57,5.36,5.36,0,0,1-9-4.21,5.35,5.35,0,0,1,5.57-5.1Zm14,.63a5.35,5.35,0,0,1,5.1,5.57,5.22,5.22,0,0,1-1.74,3.74,5.36,5.36,0,1,1-3.36-9.31Z"/><path d="M226.77,326l-.38,0-12-1.27a3.59,3.59,0,0,1-3.2-3.95l4.26-40.52A3.59,3.59,0,0,1,219,277l.37,0,12.05,1.27a3.59,3.59,0,0,1,3.2,4l-4.26,40.52a3.59,3.59,0,0,1-3.57,3.22Z"/><path class="cls-3" d="M229.49,280.89l-4.26,40.52-12.06-1.27,4.26-40.51Z"/><path d="M240.42,328.67a20.14,20.14,0,0,1-3.07-.24,17.19,17.19,0,0,1-7-2.79,3.59,3.59,0,0,1-1.54-3.53l1.8-11.65a3.62,3.62,0,0,1,2.33-2.83,3.51,3.51,0,0,1,1.23-.22,3.56,3.56,0,0,1,2.37.9,5,5,0,0,0,.82.6c-.13-.42-.33-1-.62-1.78a22.69,22.69,0,0,1-1.41-11.68,17.17,17.17,0,0,1,7-11.51,16.92,16.92,0,0,1,10.25-3.5,18.68,18.68,0,0,1,2.77.22,18.48,18.48,0,0,1,5.87,2,3.57,3.57,0,0,1,1.87,3.73l-1.77,11.47a3.62,3.62,0,0,1-1.94,2.66,3.67,3.67,0,0,1-1.62.38,3.49,3.49,0,0,1-1.66-.41l-.52-.25a7.26,7.26,0,0,0,.36,1.17l.66,1.73A20.46,20.46,0,0,1,258,313.64a17.06,17.06,0,0,1-7.18,11.67A17.6,17.6,0,0,1,240.42,328.67Z"/><path class="cls-3" d="M258,284.83l-1.78,11.47a6.93,6.93,0,0,0-1.94-.75,3.19,3.19,0,0,0-2.48.64,3.43,3.43,0,0,0-1.35,2.27,6.71,6.71,0,0,0,.59,3.23l.66,1.74a16.77,16.77,0,0,1,1.19,8.7,13.49,13.49,0,0,1-5.71,9.29,14.23,14.23,0,0,1-10.82,2.49,13.63,13.63,0,0,1-5.52-2.21l1.81-11.65a5.92,5.92,0,0,0,2.87,1.56,3.89,3.89,0,0,0,2.75-.5,2.88,2.88,0,0,0,1.39-2.09c.09-.59-.27-2-1.08-4.12a19.19,19.19,0,0,1-1.22-9.86,13.68,13.68,0,0,1,5.58-9.18,13.29,13.29,0,0,1,10.32-2.61A15.06,15.06,0,0,1,258,284.83Z"/><path d="M265.6,333a19.72,19.72,0,0,1-4.07-.44,17.2,17.2,0,0,1-6.81-3.16,3.6,3.6,0,0,1-1.35-3.62l2.44-11.53a3.62,3.62,0,0,1,2.48-2.7,3.74,3.74,0,0,1,1-.15,3.59,3.59,0,0,1,2.52,1,4.55,4.55,0,0,0,.78.64c-.11-.42-.27-1-.52-1.81a22.7,22.7,0,0,1-.77-11.73A17.23,17.23,0,0,1,269,288.44a17,17,0,0,1,9.49-2.95,18,18,0,0,1,3.69.39,18.64,18.64,0,0,1,5.75,2.28,3.58,3.58,0,0,1,1.67,3.82l-2.41,11.36a3.58,3.58,0,0,1-2.07,2.55,3.64,3.64,0,0,1-3.29-.2,4,4,0,0,0-.49-.28,6.3,6.3,0,0,0,.29,1.18l.56,1.77A20.4,20.4,0,0,1,283,319a17.06,17.06,0,0,1-7.81,11.26A17.66,17.66,0,0,1,265.6,333Z"/><path class="cls-3" d="M284.49,290.28l-2.41,11.35a6.52,6.52,0,0,0-1.89-.85,3.17,3.17,0,0,0-2.52.5,3.42,3.42,0,0,0-1.47,2.19,6.71,6.71,0,0,0,.41,3.26l.57,1.77a16.8,16.8,0,0,1,.71,8.75,13.53,13.53,0,0,1-6.22,9,14.22,14.22,0,0,1-10.94,1.89,13.51,13.51,0,0,1-5.38-2.52l2.44-11.53a6,6,0,0,0,2.78,1.72,3.89,3.89,0,0,0,2.77-.35,2.85,2.85,0,0,0,1.51-2,11.77,11.77,0,0,0-.85-4.18,19.17,19.17,0,0,1-.68-9.9,13.63,13.63,0,0,1,6.07-8.86,13.26,13.26,0,0,1,10.45-2A14.77,14.77,0,0,1,284.49,290.28Z"/><path class="cls-3" d="M367.14,274.28a6.87,6.87,0,1,1-6.8-6.69A6.72,6.72,0,0,1,367.14,274.28Zm-12,0a5.21,5.21,0,0,0,5.22,5.34,5.12,5.12,0,0,0,5.09-5.3,5.16,5.16,0,1,0-10.31,0Zm4.12,3.46h-1.55v-6.68a16.79,16.79,0,0,1,2.57-.21,3.6,3.6,0,0,1,2.28.53,1.69,1.69,0,0,1,.69,1.43,1.73,1.73,0,0,1-1.38,1.59v.08c.65.2,1,.73,1.18,1.63a5.47,5.47,0,0,0,.49,1.63h-1.63a4.93,4.93,0,0,1-.53-1.63c-.13-.69-.53-1-1.39-1h-.73Zm0-3.75H360c.86,0,1.55-.28,1.55-1s-.45-1-1.43-1a3.13,3.13,0,0,0-.85.09Z"/><polygon class="cls-3" points="179.7 88.81 177.22 89.45 169.13 91.28 164.39 96.55 162.36 103.07 163.69 103.71 168.1 103.11 177.97 97.91 180.4 90.23 179.7 88.81"/><path class="cls-5" d="M179.39,88.86S163.76,92,163.87,103.71h-2.2S161.78,87.87,179.39,88.86Z"/><path class="cls-5" d="M163.87,103.67s15.63-3.18,15.52-14.86h2.2S181.48,104.66,163.87,103.67Z"/><path class="cls-5" d="M256.66,189.9s-10.18,6.72-4.89,20.87l-2.48,1-1-10.77.81-6.32,2-2.33"/><path class="cls-5" d="M251.77,210.77s5,10.65-10.47,30l2.1-5.65,3.7-7.7,2.25-8.44.11-5.87-.36-3.38"/><path class="cls-5" d="M192.35,113.92l-24-7.09s-4.06.58-1.86,3.5c1.11,1.48,24.66,6.1,25.59,5.39A1.37,1.37,0,0,0,192.35,113.92Z"/><path class="cls-5" d="M192.51,113.5,165,112.89s-1.73,3,1.55,3.41c1.83.26,25.4-.08,26.13-1A1.37,1.37,0,0,0,192.51,113.5Z"/><path class="cls-5" d="M230.84,115.42l8.7-1.91a1.59,1.59,0,0,1,.45,2.34c-.47.79-8.88,1.22-9.16.69A1.36,1.36,0,0,1,230.84,115.42Z"/><path class="cls-5" d="M230.81,115.14l9.55,2.42s.42,2-.74,1.94c-.65,0-8.78-2.64-9-3.27A1.23,1.23,0,0,1,230.81,115.14Z"/></g></g></svg>