<?xml version="1.0" encoding="utf-8"?>
<!-- Generator: Adobe Illustrator 26.0.1, SVG Export Plug-In . SVG Version: 6.00 Build 0)  -->
<svg version="1.1" id="Capa_1" xmlns="http://www.w3.org/2000/svg" xmlns:xlink="http://www.w3.org/1999/xlink" x="0px" y="0px"
	 viewBox="0 0 1890.3 1891.6" style="enable-background:new 0 0 1890.3 1891.6;" xml:space="preserve">
<style type="text/css">
	.st0{fill:#FFFFFF;stroke:#000000;stroke-miterlimit:10;}
	.st1{fill:#2B2B2B;}
	.st2{fill:#E30713;}
</style>
<circle class="st0" cx="945.8" cy="945.8" r="945.8"/>
<g id="Capa_2_00000168834143545609748730000016699894806760083841_">
	<g id="Capa_1-2">
		<path class="st1" d="M900,1180.3c0.9-8.5,1.6-28.4,5.5-47.7c21.1-105.1,137.8-160.8,233.2-110.9c24.7,12.9,49,27.9,70.1,45.9
			c59.2,50.6,129.4,70.2,204.2,78.8c40.9,4.7,82.2,7.1,122.7,14.4c56.7,10.3,71,51.5,33.5,95.9c-65.1,77-136.8,147.2-228.4,192.3
			c-80.4,39.6-163.9,62.9-252.4,25.5C977.3,1427.7,899.2,1320.7,900,1180.3z"/>
		<path class="st1" d="M1620.6,416.2c42.1,43.5,56.7,90.2,70.7,134.2c41.1,129,51.4,260.3,20.2,394.5
			c-26,112.2-124.2,192.1-238.6,166.4c-49.6-11.2-101.6-14.1-149.5-29.8c-36.4-12-69.9-35.8-101-59.2
			c-15.9-11.9-27.2-33.3-34.2-52.7c-20.1-55,5.8-103.8,62-119.5c22.1-6.2,45.6-7.2,68-12.6c36.7-8.8,74-16.5,109.2-29.6
			c81.5-30.2,133.4-91.1,156.5-173c16-56.7,22.8-115.9,33.3-174.1C1619.2,449.6,1619.1,438.2,1620.6,416.2z"/>
		<path class="st2" d="M439,1538.1c19.6,12,39.5,23.4,58.6,36.1c130,86.6,270.7,144.1,428,153.6c128.2,7.7,248.3-23.3,362.1-82
			c138.5-71.3,251.5-174.2,357.4-286c6.5-6.9,13.1-14,25.5-27.3c7.8,38.2,0.2,67.5-9.6,95.7c-28.1,81.4-75,151.3-140.8,206.1
			c-198.5,165.3-428.2,229.7-682.9,194c-152.9-21.4-281.2-91.7-368.4-225c-12.5-19.2-23.5-39.4-35.1-59.2L439,1538.1z"/>
		<path class="st1" d="M1224.9,73.9c222,59.9,364.5,253.8,330.7,489.1c-13.4,93.4-70.9,154.2-156.8,186.9
			c-52.4,20-108.1,27.6-164.6,24.1c-49.6-3-68.6-24.6-51.7-70.6c19.1-52.2,47.3-101,71.3-151.4c18.3-38.5,36.3-77.2,54.1-116.1
			c35.1-77.1,19-151.6-14.8-223.8c-16.5-35.2-38.7-67.6-57.4-101.8C1230.8,101.3,1229.6,90.4,1224.9,73.9z"/>
		<path class="st1" d="M733.1,624.4c60.3,75.5,91,152.1,100.5,234.2c11.2,96.3,13.5,193.8,17.2,290.8
			c2.8,73.5,15.1,143.9,50.1,209.3c2.3,4.4,4.4,8.9,6.4,13.4c34.5,80.7-15,151.2-103.9,142.8c-86.5-8.2-136.6-66.3-170.5-140.3
			c-31.4-68.5-23.3-138.1-0.1-207c23.1-68.7,49.1-136.5,69.5-206c28.9-98.3,50.4-198.1,31-301.8
			C731.8,652.1,733.1,643.8,733.1,624.4z"/>
		<path class="st1" d="M510,529c31.2,5.1,62.9,6.6,92.4,15.7c63.4,19.6,99,65.2,101.2,131.4c1.4,40.8-3.3,82.2-9.1,122.8
			C674,942,624.8,1076.3,562.6,1205.9c-10.5,22-25.2,42.4-40.7,61.4c-23.2,28.3-53.2,47.2-91,34.6c-40-13.3-67.3-41.7-74.6-84.6
			c-6.5-38.2-0.9-76,14.6-111.4c25.3-57.5,55.3-112.2,99.7-157.9c66.5-68.4,117.1-146.3,140.1-240.2
			c14.1-57.6-16.9-119.7-68.4-136.7c-28.8-9.5-36.1-6.2-52.5,19.5c-7.6,12-15.9,25.4-27.3,32.6c-22,13.9-48.9,2.9-61.5-21.7
			c-11.5-22.4-4.1-48.6,21.4-56.7C450.1,536.1,480.1,534.1,510,529z"/>
		<path class="st2" d="M616.6,394c37.2-7.7,46.9-36.8,61.8-61.9c4.8,3.1,10.3,4.8,12.1,8.2c18.6,36.1,42.2,76.5,17.1,113.1
			c-27,39.4-75.8,41.8-121.4,33.4c-56.4-10.3-110.3-4.8-165.5,9.7c-32.4,8.5-68.7,9.2-102.4,5.6c-39.9-4.3-60.7-37.4-48.4-73.9
			c19.5-58.1,56.2-106.5,97.1-155l56.7,87.2c31.3-38.4,15.5-76.2,9.8-120c60.7,22.1,74.1,71.1,95.1,115.6
			c35.9-21.8,34.8-57.3,41.3-89.3C611.8,287.3,619.6,308.1,616.6,394z"/>
		<path class="st2" d="M260.3,651.9c14.7-4.2,23.7-9.1,32.7-8.9c84.6,2,201.7,93.3,174.1,207c-10.5,43.2-33.2,78.9-71.7,101.9
			c-50.9,30.4-112.3,9.9-129.1-42.9c-4.2-13.1-3.6-29.2-0.4-42.8c3.3-14,10.6-28,19.4-39.5c35.2-45.6,34.1-90.1-0.1-135.3
			C277.5,681.1,271.3,669.5,260.3,651.9z"/>
		<path class="st2" d="M161.6,674.6c-14.1-91.1,116.4-155.7,209.5-127.9c-0.3,4.4-0.3,9.1-0.8,13.7c-6.1,58.7-6.2,57.6-65.6,61.7
			c-41.2,2.8-81.1,11.3-114.1,39.8C183.7,667.7,173.3,669.6,161.6,674.6z"/>
	</g>
</g>
</svg>
