<?xml version="1.0" encoding="utf-8"?>
<!-- Generator: Adobe Illustrator 26.0.1, SVG Export Plug-In . SVG Version: 6.00 Build 0)  -->
<svg version="1.1" id="Capa_1" xmlns="http://www.w3.org/2000/svg" xmlns:xlink="http://www.w3.org/1999/xlink" x="0px" y="0px"
	 viewBox="0 0 962.7 1082.2" style="enable-background:new 0 0 962.7 1082.2;" xml:space="preserve">
<style type="text/css">
	.st0{opacity:0.1;fill:none;}
	.st1{opacity:0.1;}
	.st2{fill:#FFFFFF;}
</style>
<rect x="-1074.8" y="-102.9" class="st0" width="1920" height="1080"/>
<g class="st1">
	<path class="st2" d="M453.6,678.8c0.6-5.2,1-17.5,3.4-29.3c12.9-64.5,84.5-98.7,143.1-68c15.1,7.9,30.1,17.1,43,28.2
		c36.3,31,79.4,43.1,125.3,48.3c25.1,2.9,50.4,4.4,75.2,8.9c34.8,6.3,43.6,31.6,20.5,58.8c-39.9,47.2-83.9,90.3-140.1,118
		c-49.3,24.3-100.5,38.6-154.8,15.7C501.1,830.5,453.1,764.9,453.6,678.8z"/>
	<path class="st2" d="M895.7,210c25.8,26.7,34.8,55.3,43.4,82.3c25.2,79.1,31.5,159.7,12.4,242c-16,68.9-76.2,117.8-146.4,102.1
		c-30.4-6.8-62.3-8.7-91.7-18.3c-22.3-7.3-42.9-22-62-36.3c-9.7-7.3-16.7-20.4-21-32.3c-12.3-33.7,3.6-63.7,38-73.3
		c13.6-3.8,28-4.4,41.7-7.7c22.5-5.4,45.4-10.2,67-18.2c50-18.6,81.8-55.9,96-106.1c9.8-34.8,14-71.1,20.4-106.8
		C894.9,230.5,894.7,223.5,895.7,210z"/>
	<path class="st2" d="M170.8,898.2c12,7.4,24.3,14.3,36,22.1c79.8,53.1,166.1,88.4,262.6,94.2c78.7,4.7,152.3-14.3,222.2-50.3
		c85-43.7,154.3-106.8,219.3-175.4c4-4.2,8-8.5,15.6-16.7c4.8,23.4,0.1,41.4-5.9,58.7c-17.2,49.9-46,92.8-86.4,126.4
		c-121.8,101.4-262.7,140.9-418.9,119c-93.8-13.2-172.5-56.3-225.9-138c-7.7-11.8-14.4-24.2-21.6-36.3L170.8,898.2z"/>
	<path class="st2" d="M653,0c136.2,36.8,223.6,155.7,202.9,300c-8.2,57.3-43.5,94.6-96.2,114.7c-32.1,12.3-66.3,16.9-101,14.8
		c-30.4-1.9-42.1-15.1-31.7-43.3c11.7-32,29-62,43.7-92.9c11.2-23.7,22.3-47.4,33.2-71.2c21.6-47.3,11.7-93-9.1-137.3
		c-10.1-21.6-23.8-41.5-35.2-62.5C656.6,16.8,655.9,10.1,653,0z"/>
	<path class="st2" d="M351.2,337.7c37,46.3,55.8,93.3,61.7,143.7c6.8,59.1,8.3,118.9,10.5,178.4c1.7,45.1,9.3,88.3,30.8,128.4
		c1.4,2.7,2.7,5.4,3.9,8.2c21.2,49.5-9.2,92.8-63.7,87.6c-53.1-5-83.8-40.7-104.6-86c-19.3-42-14.3-84.7-0.1-127
		c14.2-42.1,30.1-83.7,42.6-126.3c17.7-60.3,30.9-121.5,19-185.1C350.5,354.7,351.2,349.6,351.2,337.7z"/>
	<path class="st2" d="M214.4,279.2c19.1,3.1,38.6,4.1,56.7,9.6c38.9,12,60.7,40,62.1,80.6c0.8,25-2,50.4-5.6,75.3
		c-12.5,87.8-42.7,170.2-80.9,249.8c-6.5,13.5-15.5,26-25,37.6c-14.2,17.4-32.6,29-55.8,21.2c-24.5-8.2-41.3-25.6-45.8-51.9
		c-4-23.5-0.6-46.6,9-68.3c15.5-35.3,33.9-68.8,61.2-96.8c40.8-42,71.8-89.8,86-147.4c8.7-35.4-10.3-73.5-42-83.9
		c-17.7-5.8-22.1-3.8-32.2,12c-4.8,7.3-9.8,15.6-16.8,20c-13.5,8.5-30,1.8-37.7-13.3c-7-13.8-2.5-29.8,13.1-34.8
		C177.7,283.6,196,282.3,214.4,279.2z"/>
	<path class="st2" d="M279.8,196.4c22.8-4.7,28.7-22.6,37.9-38c2.9,1.9,6.3,2.9,7.4,5c11.4,22.1,25.9,47,10.5,69.4
		c-16.5,24.2-46.5,25.6-74.5,20.5c-34.6-6.4-67.7-3-101.6,6c-19.9,5.2-42.2,5.6-62.8,3.4c-24.5-2.6-37.2-23-29.7-45.4
		c12-35.6,34.5-65.3,59.6-95.1l34.8,53.5c19.2-23.6,9.5-46.8,6-73.6c37.2,13.6,45.4,43.6,58.3,71c22-13.4,21.3-35.1,25.3-54.8
		C276.8,130.9,281.6,143.7,279.8,196.4z"/>
	<path class="st2" d="M61.2,354.6c9-2.5,14.6-5.6,20-5.5c51.9,1.2,123.7,57.2,106.8,127c-6.4,26.5-20.4,48.4-44,62.5
		c-31.2,18.6-68.9,6.1-79.2-26.3c-2.6-8-2.2-17.9-0.3-26.3c2.2-8.8,6.3-17.1,11.9-24.2c21.6-28,20.9-55.2-0.1-83
		C71.7,372.5,68,365.4,61.2,354.6z"/>
	<path class="st2" d="M0.7,368.5C-8,312.6,72.1,273,129.2,290.1c-0.2,2.7-0.2,5.6-0.5,8.4c-3.8,36-3.8,35.3-40.3,37.8
		c-25.2,1.7-49.8,7-70,24.4C14.2,364.3,7.8,365.5,0.7,368.5z"/>
</g>
</svg>
