<?xml version="1.0" encoding="utf-8"?>
<!-- Generator: Adobe Illustrator 26.0.1, SVG Export Plug-In . SVG Version: 6.00 Build 0)  -->
<svg version="1.1" id="Capa_1" xmlns="http://www.w3.org/2000/svg" xmlns:xlink="http://www.w3.org/1999/xlink" x="0px" y="0px"
	 viewBox="0 0 505.8 527.6" style="enable-background:new 0 0 505.8 527.6;" xml:space="preserve">
<style type="text/css">
	.st0{opacity:7.000000e-02;}
	.st1{fill:#050505;}
	.st2{fill:#FFC100;}
	.st3{fill:#FFFFFF;}
	.st4{fill:#DD2405;}
	.st5{fill:#020202;}
	.st6{fill:#FFFF00;}
	.st7{opacity:0.67;fill:#FFFFFF;enable-background:new    ;}
	.st8{fill:#FF7400;}
</style>
<g id="Capa_2_00000014593632487629786980000001277574821213571728_" class="st0">
	<g id="Capa_1-2">
		<path class="st1" d="M243.4,478.5c-120.5,0-218.2-97.7-218.2-218.1c0-57.9,23-113.4,63.9-154.3c85.2-85.2,223.3-85.2,308.5,0
			s85.2,223.3,0,308.5C356.9,455.7,301.3,478.7,243.4,478.5z"/>
		<circle class="st2" cx="240.7" cy="257.4" r="210.4"/>
		<polyline class="st3" points="227.6,76 225.6,76.7 211.7,81.7 191.1,95.7 178.1,107.1 156.9,136.8 144.6,156.8 139.7,165.8 
			119.9,208.7 102.1,275.6 102.1,282.3 97.9,285.3 88.7,288.6 71.9,306.5 65.1,321.8 54.6,361 49.8,389.5 172.6,376.8 384.8,373.3 
			381.3,322.9 378.9,288.9 370.2,266.4 360.1,261.6 353.5,261.6 352.3,250.4 343.8,235.7 330.7,224.5 307,207.8 298.6,205.7 
			286.6,208.7 265.4,202.7 252.3,189.8 246.1,173.6 245.7,167.4 256.5,168 272.9,170 295,157.7 297.2,112.3 291.4,86.5 261.5,76 
			234.9,75.5 		"/>
		<path class="st4" d="M185.8,60.6L205,44.2l25.8-11.1l20.8-3l13.1,3l-0.8-4.6l-3.4-5.4l-4.5-4l-1.6-2.4l-11.6-8.3l-3.9-7l24.7,2
			L278,8.6l10.7,4.4l16.2,8.8l16.3,23.7l3.8,11.2l2,9.4l2.5-6.2l3.4-16l-1.5-6.6l-2.6-3.5l-0.3-0.4l-0.5-0.3l5.4,2.2l9.2,9.6
			l2.3,2.6l1.6,24.7l-6.8,18.4l-9.8,22.7l8.4,3.2l4.4,4.6l6.7,5.3l-3.5,13.1L335,151.8l-1.7,4.3l0.4,13.4l-3.5,4.8l-9.2-0.9
			l-9.8-7.2l-1.7-3.6l-5.4-3l-5.8-1.2l-9.6,2.5l-7.8,7l-9.2,2.2l-12.9-2.1l-8.4-0.6l-4.6,0.6l4.3,19l11,13.2l16,5.2l11.6,3h6.2
			l2.2,3.1l1.4,11.7l5.5,9.8l4.7,20.8l-6,17.3L292,289.5l-3.6,2l-9.4-8.8l-4.9-9l-2.8-7.8l0.9-3.3l-0.9-3.5v-3.9l-0.3-2l-0.9,0.2
			c0,0-15.9,16.1-26.5,15.8c0,0-4-3.8-1.6-8s3.6-6.4,3.6-6.4l2.7-2.4l1.9-3l2-1.6l-4.1-0.7l-10-0.4h-4.3l-3-7.1l1.3-4.8l4.8-4l0.6-6
			l1.6-2.8l-3.2-2.1l-10.5-14.6l-0.8-11.6l-7.6-1.8l-4.3-3.8l0.7-4.7l4.3-2.3l3.6-1.8l1.7-1.9l1.2-2.9l1.1-2.6l0.2-2.3l0.1-2.1
			l-1.1-3.7l-4.3-3.4c0,0-17.3-16.1-9.8-25.9s1.9-10.8,1.9-10.8l8.9-0.2l1.3-4.7l3-3.2l2-1.2l2.9-0.3l1.5-3l2.7-0.3l0.5-0.7l2.6-1.6
			l6.1-2.8l15.8-9.8l7.8-4l7-3.6l2.7-7.3l-25.2-8l-24.1,3.2c0,0-12.4-16.1-43.9-11.2"/>
		<path class="st3" d="M313.6,138.4c0,0-4.6,1.2-6.7,7.1s-1.4,12.8,0.7,16s12.8-3.5,12.8-3.5s4.6-12.6-1.4-17.1
			S313.6,138.4,313.6,138.4z"/>
		<path class="st3" d="M245.5,105.2l23.1-0.9l18.9,6.9l9,5.3c0,0,1.5-10.3,1.5-10.7s-4.5-14.9-5.1-15.4s-11.1-7.3-11.1-7.3l-10-2.8"
			/>
		<path class="st5" d="M327.1,66.2c0,0-12-68.5-92.6-60l-0.2-5.8C234.3,0.3,318-8.8,327.1,66.2z"/>
		<path class="st5" d="M328.1,33.1c0,0,7.9,5.5-1.1,33.1C327.1,66.2,346.2,43,328.1,33.1z"/>
		<path class="st5" d="M264.7,33.1c0,0,4-15.9-25.6-30.4l-8.3,2.6C230.8,5.3,255.6,13.4,264.7,33.1z"/>
		<path class="st5" d="M264.7,33.1c0,0-45.3-10.3-78.9,33.1l-7.6-3.6C178.2,62.5,215.6,13.6,264.7,33.1z"/>
		<path class="st5" d="M227.8,76.5c0,0-5.5-18.7-45.7-15.6v7.2C182.1,68.1,213.7,64.4,227.8,76.5z"/>
		<path class="st5" d="M178.1,62.5c0,0-2.9,5.1,3.9,5.5v-3.7"/>
		<path class="st5" d="M328.1,33.1c0,0,41.9,13.7-3.5,79.2l6.8,1.3C331.5,113.5,376.2,48.8,328.1,33.1z"/>
		<path class="st5" d="M324.6,112.3c0,0,42.7,9.2,5.6,39.5l4.7,2.8C335,154.6,379.4,120.4,324.6,112.3z"/>
		<path class="st5" d="M227.8,76.5c0,0-97.6,35.9-122.2,206.5l-7.7,2.3C97.9,285.3,125.1,100.2,227.8,76.5z"/>
		<path class="st5" d="M299.7,119.7c0,0-44.5-38.8-86.4,13.7l-4.7-4C208.6,129.4,256.2,72.5,299.7,119.7z"/>
		<path class="st5" d="M294.9,116.2c9-45-67.1-39.7-67.1-39.7c93.3-6.1,71.9,43.2,71.9,43.2"/>
		<path class="st5" d="M47.9,388.1c0,0-4.5-88.7,50-102.8c0,0-41.4,11.4-41.8,102.8l-8.3,1.8L47.9,388.1z"/>
		<path class="st5" d="M105.7,283c0,0,56-5.5,66.9,80.5c0,0,5.1-86.7-66.9-88"/>
		<path class="st5" d="M97.9,285.3c0,0,26.3-8.6,50.2,16.6l-2.5-7.3l-13.5-8l-13.7-4.7l-9.8-1.7l-6.5-0.9"/>
		<path class="st5" d="M167.5,324.3c0,0,27.1-15.8,33.5,36.7c0,0,2.2-52.2-35-41.5"/>
		<path class="st5" d="M213.3,133.4c0,0-9.4,13.3,10.6,30.9c0,0-26.4-18.4-15.3-34.9"/>
		<path class="st5" d="M224,164.3c0,0,4.3,12.1-8.1,17.7C215.8,182,237.1,176.8,224,164.3z"/>
		<path class="st5" d="M211.2,142.9c0.3-5.5,2.7-10.7,6.6-14.7h-3.3l-2.2,2.5l-2.4,2.6v5.8"/>
		<path class="st5" d="M264.8,137.2c0,0,6.2,2.3,5.2,12.8"/>
		<path class="st5" d="M307,145.6c0,0,4.8-10,10.5-4.8s5.8,19.3-5.6,19.6l-0.1,2.7c0,0,11.6,0.3,11.5-12.1S312.5,130.7,307,145.6z"
			/>
		<path class="st5" d="M311.9,160.4v2.7c-6.7-0.2-6.8-8-5.8-12.8c0,0,0,0,0-0.1s0-0.1,0-0.2c0-0.1,0-0.2,0.1-0.3
			c0.3-1.3,1.5-4.9,4.5-5h0.3c1.2,0.1,2.5,1.1,3.7,4.1C317.4,155.5,311.9,160.4,311.9,160.4z"/>
		<path class="st5" d="M311.9,145.1c0,0,4.1,1.6,3.5,8.5"/>
		<path class="st5" d="M333.9,171.9l1.1-17.3l-4.7-2.8l3.5,20.8c0-0.1,0.1-0.2,0.1-0.3C333.9,172.2,333.9,172,333.9,171.9z"/>
		<path class="st5" d="M288.9,210.2c38.5,46.6-3.7,85.1-3.7,85.1c53.7-38.4,9.9-86.6,9.9-86.6"/>
		<path class="st5" d="M285.1,295.3l5.7-4.4c0,0-17.7-8.8-19.3-38.2C271.5,252.8,265.8,273.2,285.1,295.3z"/>
		<path class="st5" d="M271.5,252.8c0,0-16.7,14.6-28.7,14.8v5.4C254.6,270.2,264.8,262.9,271.5,252.8z"/>
		<path class="st5" d="M297.2,208.7c0,0,53.2,17.7,56.4,52.9c0,0,2.5-37.2-53.6-57.2"/>
		<path class="st5" d="M353.6,261.6c0,0-17.9,1.4-11.9,27.4c1,4.6,1,9.4,0.1,14c-1.7,7.2-5.1,18.1-11.8,26.2l-2.6,4.1
			c0,0-0.8,6.1,2.8,1.6s16.5-24.7,14.9-41.5S338.9,275.3,353.6,261.6z"/>
		<path class="st5" d="M332.5,327.4c0,0-6.6-33.2-10.5-45l-0.5,7l5.8,43.9"/>
		<path class="st5" d="M322,282.3c0,0-18.4,62.1-18.2,78.7l-8.2-0.8C295.6,360.3,303.8,307.6,322,282.3"/>
		<path class="st5" d="M252.3,247.2c0,0-7.9,9.2-9.6,20.3v5.5C242.8,273,230.1,262.9,252.3,247.2z"/>
		<path class="st5" d="M221.2,195.4c3,12.6,10.5,23.7,20.9,31.4c0,0-14.3-16.5-13-32.8c0,0-22.5-4-13.3-12
			C215.8,182,203.5,190.3,221.2,195.4z"/>
		<polygon class="st6" points="245.9,168.2 254,167.6 265.9,167.9 274.8,169.4 282.4,166.5 289.9,161.6 296.5,158.7 304.2,159.7 
			308.3,162 312.1,168.4 317.1,186.8 319.7,195.8 316.2,197.9 305.2,197.5 300.7,196.7 301.1,199.8 292.9,207.6 274.7,206.7 
			260.4,198.8 251.6,188 247.4,177.3 		"/>
		<path class="st5" d="M242.1,226.8c0,0-13.4,6.5-13,17.3s23.2,3.2,23.2,3.2S216.1,252.2,242.1,226.8z"/>
		<path class="st5" d="M237.5,222.5c-2.9,5.7-5.4,11.6-7.6,17.6l4.6-4.9l7.6-8.4"/>
		<path class="st3" d="M286.6,232.9c0,0,11,24.5,0,49C286.6,281.9,316.7,246.8,286.6,232.9z"/>
		<path class="st5" d="M235.1,227.4c0,0-6.3,8.9-6,17.3"/>
		<path class="st5" d="M380.9,226c0,0-11,0.8-9.3,10.6s-3.6-1.5-3.6-2.3s1-7.8,1-7.8l6.4-2.6"/>
		<path class="st5" d="M353.6,261.6c0,0,24.8-9.3,28.9,27.8s2.3,83.9,2.3,83.9l-10.3-2.5C374.5,370.8,395,257.3,353.6,261.6z"/>
		<path class="st5" d="M245.7,165.8c0,0-5.9,43.4,43.1,44.4v-3.9C288.9,206.3,251.4,206.8,245.7,165.8z"/>
		<path class="st5" d="M288.9,206.3c0,0,6.9,2.1,12-7.7c0,0,3.3,12.3-12,11.7"/>
		<path class="st5" d="M284.2,205.9c0,0,8.6,2.2,13.8-3.2l0.6,3.6l-1.4,2.4h-4.5"/>
		<path class="st5" d="M255.6,181.4c0,0,27,20.9,43,14.9c5.9,2.8,12.8,3.2,19,1.1c0,0-16.8-1.4-18.3-6.4
			C299.3,191,271,192.3,255.6,181.4z"/>
		<path class="st5" d="M308.3,162c3,4.7,4.3,10.4,3.6,15.9c-1.3,9.1,5.5,14.2,5.8,15.3s2.4,3.4,0,4.1s2.9-2,2.9-2
			S315.8,166.9,308.3,162z"/>
		<path class="st5" d="M308.3,162c0,0-9-6.5-18.1,1.2s-12.6,12.3-32.6,6.4c0,0-2.3-1.2-11.5-1.4c8-2.8,16.7-3.3,25-1.4
			C284.9,170,288,148.8,308.3,162z"/>
		<path class="st5" d="M312.1,166.8c0,0,15.2,8.8,21.2,5.5C333.3,172.3,326.8,182.3,312.1,166.8z"/>
		<path class="st5" d="M332.5,165c0,0,2.7,9.7-6,7.6l5.7,2.5l1.1-2.1l0.4-2.1v-1.4"/>
		<path class="st5" d="M329.2,176.3c-4.9-0.2-9.5-2.2-13-5.7"/>
		<path class="st5" d="M332.3,164.2c0,0,1.4,6-1.1,7.9s-0.6,1.3-0.6,1.3s1.9-1.2,2-1.3s0.7-2.9,0.7-2.9l-0.1-2.4c0,0,1.9,7.9-6.1,6
			l5.1,1.1l1.1-1.9l0.2-1.6l0.6-2.7c0,0,1.2,12.3-9.5,7.6l3.1-2.4l3.1,0.4l1.5-0.4l1.2-1.6"/>
		<path class="st5" d="M297.2,93.3c0,0-17.4-30.7-71.4-16.8c0,0,53.4-3.5,65.7,18.4"/>
		<path class="st5" d="M223.2,179c0,0-12.1,6-6,11.1s-1.7,1.5-1.7,1.5l-1.7-1.5l-1.9-3.3l1.6-2.7c1.4-1.6,3.1-2.8,5.1-3.6"/>
		<path class="st5" d="M217.2,181.1c0,0,4.5-2.7,6.3-6.3s1.1,1.7,1.1,1.7l-2.5,2.2l-3,2.2l-0.9,1.1"/>
		<path class="st3" d="M273.5,27.1c0,0,39.8-3.2,45,45.1C318.4,72.2,303.5,41.1,273.5,27.1z"/>
		<path class="st5" d="M320.5,195.4c0,0,1.3,3.9-10.2,3.4l4.8-1.7c0,0,5.2,1,2.6-3.9"/>
		<path class="st5" d="M250.2,102.3c0,0-31.4,7.7-42.8,29.2"/>
		<path class="st3" d="M257.6,137.9c0,0-3.6,9.6-1.7,17.9s12.8,6.4,12.8,6.4l8.5-6.7l2.6-8.8l-1.6-11.7l-5.6-6.4l-4.5-1.9l-4.8,1.8
			L257.6,137.9z"/>
		<path class="st5" d="M257.6,137.9c0,0,7-15,15.5-7.1c8.6,8,8.6,29-8.3,29.4l-0.1,4.1c0,0,17.2,0.4,17-18.2
			S265.8,115.6,257.6,137.9z"/>
		<path class="st5" d="M264.8,160.2v4.1c-10-0.4-10-11.9-8.5-19.3v-0.1l0.1-0.3c0-0.1,0.1-0.2,0.1-0.4c0.5-2,2.2-7.3,6.7-7.5h0.3
			c1.8,0.2,3.7,1.7,5.5,6.1C273,152.8,264.8,160.2,264.8,160.2z"/>
		<polygon class="st3" points="382.9,302.6 386.2,295.3 389,279.6 389,255.9 376.7,243.9 369.4,230.8 376.7,224.7 383.6,224.7 
			391.6,228 400.6,236.9 407.8,246.9 413.6,258.4 420,253 426,248.4 430.5,243.9 436.2,237.4 442.6,227 454.6,216.7 471.8,207.4 
			483.1,212 483.1,222.8 476.1,232.8 460.2,246.3 456.1,251.9 468.9,254.3 474.4,257.3 475.7,258.5 478.4,262.7 478,268.8 
			475.5,274 476.1,275.9 481.2,279.5 484.6,285 483.4,290.3 480.3,295.6 477.4,298 469.6,300 468.1,301.7 473.1,313.1 472.1,327.5 
			467.4,351.1 452.6,365.9 429.3,373.3 405.6,373.3 390.7,362.4 384.8,354.5 		"/>
		<path class="st5" d="M412.8,256.9C391.8,210.2,372,224,372,224l1.1,4.6c18.2-13.3,39.5,28.1,39.9,28.9
			C413,257.3,412.9,257.1,412.8,256.9z"/>
		<path class="st5" d="M373.2,228.5c0,0-7.2,11.3,19.4,27.4l-7.2,1.5c0,0-30.6-22.1-13.3-33.5"/>
		<path class="st5" d="M438.2,233.7c0,0,22-38.1,41.7-27.6s-10.3,32.2-10.3,32.2s22.1-20.3,7.9-27.8S438.2,233.7,438.2,233.7z"/>
		<path class="st5" d="M410.8,252.6c0,0,18.7-6.4,27.5-18.8c0,0-3.8,11.3-24.6,24.6"/>
		<path class="st5" d="M475.5,258.3c0,0-14.7-9.9-32.9,3.3c-14.1,10.2-15.5,14.6-13.5,16.4l0.1,0.1l0,0c0.4,0.5,0.9,0.9,1.4,1.2l0,0
			c1.7,1,3.5,1.7,5.5,1.9l0.3,2.3v0.2c0,0-0.6,0-1.5,0l0,0c-1.5-0.1-2.9-0.2-4.3-0.5c-6.7-1.3-14.6-5.6,4.2-20.9
			C462.2,240.2,475.5,258.3,475.5,258.3z"/>
		<path class="st5" d="M475.5,258.3c0,0,7.6,7.7-2.9,13.7l2.9,1.8C475.5,273.8,484.6,267,475.5,258.3z"/>
		<path class="st5" d="M475.5,273.8c0,0,20.9,9.9,1.8,24.3C477.4,298,489.6,290.5,475.5,273.8z"/>
		<path class="st5" d="M419.1,301.5c0,0-25.1,11.6-30.1-12.5l-2.8,8.6C386.2,297.6,399.6,320.3,419.1,301.5z"/>
		<path class="st5" d="M468.3,301c0,0-3.9,24.3-33.2,26.8c0,0,17.1,7.4,38.9-12.4L468.3,301z"/>
		<path class="st5" d="M472.7,312.1c0,0,18.4,38.4-27.6,59.6s-59.9-16.6-59.9-16.6s19.4,19.4,35.6,16.8
			C432.6,369.9,470.5,367.6,472.7,312.1z"/>
		<path class="st5" d="M444.9,295.8c0,0,20.6-26.5,33.1-18.8l-2.5-3.2l-2.9-1.8C472.7,272,452.6,277,444.9,295.8z"/>
		<path class="st5" d="M466.3,277.2c0,0,11.6-4.9,15.2,6.6V280l-1.1-1.6l-4.2-3.6l-3.6-1H469"/>
		<path class="st5" d="M444.9,295.8c0,0,20.1,6,37.4-6.8c0.2-0.1,0,0-0.5,3.1l-4.4,6C477.4,298,458.2,307.6,444.9,295.8z"/>
		<path class="st5" d="M469.6,238.3c0,0-11.6,7.5-8.2,13.1c3.4,5.7-7.6,1.2-7.6,1.2S453.7,245.2,469.6,238.3z"/>
		<path class="st5" d="M457,280c-14.1,7.5-26.3,3.3-26.3,3.3s-15.5-9.4-2-4.5c0.1,0.1,0.3,0.1,0.4,0.1c0.5,0.2,1.1,0.4,1.6,0.5l0,0
			c1.7,1,3.5,1.7,5.5,1.9c2.5,0.3,5.1,0.3,7.7,0c4.2,0.1,8.4-0.3,12.5-1.1h0.2L457,280z"/>
		<path class="st5" d="M385.3,257.5c0,0,3.3,23.6-1.7,44.2c0,0,9.4-3.2,8.9-45.8"/>
		<path class="st5" d="M461.5,277l-4.4,3l0,0l-0.5,0.1h-0.2l-10,2.3l-9.8,1.1l-1.5,0.2l0,0l-5.7-1.9l-0.7-1.5l0.5-1.5l0.2-0.7
			c0.4,0.5,0.9,0.9,1.4,1.2l0,0c1.7,1,3.5,1.7,5.5,1.9c2.5,0.3,5.1,0.3,7.7,0c0.6-0.1,1.1-0.1,1.8-0.2l0,0
			C451.2,280.9,456.6,279.5,461.5,277z"/>
		<path class="st7" d="M429.3,278.2L429.3,278.2l-0.1-0.1L429.3,278.2z"/>
		<path class="st5" d="M430.7,370.2c0,0-21.2,6.9-45.6-15.1l17.5,18.2l14.6,1.4l15.8,1.5"/>
		<polyline class="st5" points="482.3,288.9 478.9,292.3 476.1,296.1 477.4,298 481.5,294.3 482.9,290.8 482.9,289.3 		"/>
		<path class="st5" d="M475.5,298.5c0,0,6.9-1,9.4-9.5"/>
		<path class="st5" d="M57.9,498.9c-6.9,0-13.2-4-16.1-10.3l-40.1-87c-0.2-0.4-0.3-0.7-0.4-1l-0.2-0.5c-3.5-9.1,1.1-19.4,10.2-22.9
			c0.2-0.1,0.5-0.2,0.7-0.3c73-24.3,149.5-36.6,226.5-36.5c10.1,0,20.4,0.2,30.5,0.6c66.2,2.7,131.7,14.5,194.7,35.1
			c9.3,3,14.3,13,11.3,22.3c-0.2,0.7-0.5,1.5-0.9,2.2l-41.9,87c-3.8,7.9-12.7,11.8-21.1,9.3c-47.9-14.6-97.5-23-147.5-25
			c-8.3-0.4-16.7-0.5-25-0.5c-59.5-0.1-118.6,8.9-175.4,26.6C61.5,498.7,59.7,498.9,57.9,498.9z"/>
		<path class="st3" d="M85.4,513.4c-0.2,0.9-0.7,1.8-1.4,2.4c-0.9,0.8-2,1.4-3.2,1.7l-3.1,0.9l2,6.9l-2.8,0.8l-4.9-17l5.9-1.7
			c1.1-0.4,2.3-0.5,3.5-0.3c1,0.2,1.8,0.6,2.6,1.2c0.7,0.7,1.2,1.5,1.4,2.4C85.6,511.6,85.6,512.5,85.4,513.4z M82.2,513.8
			c0.4-0.7,0.5-1.5,0.2-2.3c-0.5-1.9-1.9-2.5-4-1.9l-3.1,0.9l1.6,5.6l3.1-0.9C80.9,515.1,81.7,514.6,82.2,513.8L82.2,513.8z"/>
		<path class="st3" d="M94.4,520.2c-1.5-0.4-2.9-1.2-4-2.3c-1.1-1.2-1.9-2.6-2.3-4.2c-0.4-1.6-0.4-3.2,0-4.8
			c0.4-1.5,1.3-2.9,2.4-3.9c2.4-2.2,5.7-3,8.8-2.2c1.5,0.4,2.9,1.2,4,2.3c2.3,2.4,3.1,5.8,2.3,9c-0.4,1.5-1.2,2.9-2.4,3.9
			C100.9,520.1,97.6,521,94.4,520.2z M101.4,516.2c0.8-0.8,1.3-1.7,1.5-2.8c0.2-1.2,0.2-2.4-0.1-3.5c-0.3-1.2-0.8-2.2-1.6-3.1
			c-0.7-0.8-1.6-1.4-2.7-1.7c-2.2-0.5-4.4,0-6.1,1.5c-0.8,0.7-1.3,1.7-1.5,2.7c-0.3,1.2-0.2,2.4,0.1,3.5c0.3,1.2,0.8,2.2,1.6,3.2
			c0.7,0.8,1.6,1.4,2.7,1.7C97.4,518.3,99.7,517.7,101.4,516.2z"/>
		<path class="st3" d="M112.9,514.3l5.8-1.3l0.5,2.3l-8.7,2l-3.9-17.3l2.8-0.6L112.9,514.3z"/>
		<path class="st3" d="M123.9,511.9l5.9-1.2l0.5,2.3l-8.7,1.8l-3.5-17.4l2.8-0.6L123.9,511.9z"/>
		<path class="st3" d="M135.8,511c-1.5-0.5-2.8-1.4-3.8-2.6c-1-1.3-1.7-2.8-2-4.4s-0.2-3.3,0.4-4.8c0.5-1.5,1.5-2.8,2.7-3.7
			c2.5-2,5.9-2.6,9-1.6c1.5,0.5,2.8,1.4,3.8,2.6c2.1,2.6,2.7,6.1,1.6,9.2c-0.5,1.5-1.5,2.8-2.7,3.8s-2.7,1.7-4.3,1.9
			C138.9,511.6,137.3,511.5,135.8,511z M143,507.5c0.8-0.7,1.4-1.6,1.7-2.6c0.3-1.1,0.4-2.4,0.2-3.5c-0.2-1.2-0.6-2.3-1.4-3.2
			c-0.6-0.8-1.5-1.5-2.5-1.9s-2.1-0.5-3.2-0.2c-1.1,0.2-2.1,0.6-3,1.3c-0.8,0.7-1.4,1.6-1.7,2.6c-0.6,2.3-0.2,4.8,1.2,6.8
			c0.6,0.9,1.5,1.5,2.5,1.9s2.1,0.5,3.2,0.3C141.1,508.7,142.1,508.2,143,507.5L143,507.5z"/>
		<path class="st3" d="M168.6,503.3l-7.4,0.9l-0.8,3.8l-3,0.4l4.1-18.4l3.3-0.4l8.5,16.8l-3,0.4L168.6,503.3z M167.5,501.1l-3.9-7.8
			l-1.8,8.5L167.5,501.1z"/>
		<path class="st3" d="M178.6,505.4c-0.9-0.3-1.8-0.8-2.4-1.5c-0.6-0.7-1-1.6-1.1-2.6l3.1-0.3c0.1,0.7,0.5,1.4,1.1,1.8
			c0.7,0.5,1.5,0.6,2.3,0.5c0.8,0,1.7-0.4,2.3-1c0.5-0.5,0.7-1.2,0.7-1.9c0-0.5-0.3-1-0.7-1.4c-0.4-0.3-0.9-0.6-1.4-0.7
			c-0.7-0.2-1.5-0.3-2.2-0.5c-1-0.1-1.9-0.4-2.9-0.6c-0.8-0.2-1.5-0.7-2-1.3c-0.6-0.7-1-1.6-1-2.6c-0.1-0.9,0.1-1.9,0.5-2.7
			c0.5-0.8,1.2-1.5,2-2c1-0.5,2-0.8,3.1-0.9c1.5-0.2,3,0.1,4.3,0.9c1.2,0.7,2,2,2.2,3.3l-3.2,0.3c-0.1-0.6-0.5-1.2-1.1-1.6
			c-0.7-0.4-1.5-0.6-2.3-0.5c-0.7,0-1.5,0.3-2,0.8s-0.7,1.2-0.6,1.9c0,0.5,0.3,1,0.6,1.3c0.4,0.3,0.8,0.6,1.3,0.7
			c0.7,0.2,1.4,0.3,2.1,0.5c1,0.2,2,0.4,2.9,0.7c0.8,0.3,1.5,0.7,2,1.3c0.6,0.7,1,1.6,1,2.6c0.1,0.9-0.1,1.8-0.5,2.6
			c-0.4,0.9-1.1,1.6-1.9,2.1c-1,0.6-2.1,0.9-3.2,1C180.7,505.8,179.6,505.7,178.6,505.4z"/>
		<path class="st3" d="M201.6,500.3l-7.4,0.5l-1,3.7l-3,0.2l5.1-18.1l3.4-0.2l7.5,17.3l-3,0.2L201.6,500.3z M200.6,498l-3.4-8
			l-2.4,8.4L200.6,498z"/>
		<path class="st3" d="M218.9,486.5c1.4,0.6,2.6,1.7,3.4,3c0.9,1.4,1.3,3,1.3,4.7c0.1,1.6-0.2,3.3-1,4.7c-0.7,1.3-1.8,2.4-3.2,3.2
			c-1.5,0.8-3.2,1.2-4.9,1.2l-5.8,0.2l-0.6-17.7l5.8-0.2C215.6,485.5,217.3,485.8,218.9,486.5z M219.2,499.1
			c1.1-1.3,1.6-3.1,1.5-4.8c0-1.8-0.6-3.5-1.8-4.8c-1.3-1.2-3.1-1.7-4.8-1.5l-2.9,0.1l0.5,13l2.9-0.1
			C216.2,501,217.9,500.4,219.2,499.1z"/>
		<path class="st3" d="M230.2,501.9c-1.4-0.8-2.5-1.9-3.3-3.2c-1.6-2.9-1.6-6.4,0-9.3c0.8-1.4,1.9-2.5,3.3-3.2
			c2.8-1.5,6.3-1.5,9.1,0c1.4,0.8,2.5,1.9,3.3,3.2c0.8,1.4,1.2,3,1.2,4.7c0,1.6-0.4,3.2-1.2,4.7c-0.8,1.4-1.9,2.5-3.3,3.2
			C236.5,503.5,233.1,503.5,230.2,501.9L230.2,501.9z M237.9,499.8c0.9-0.5,1.7-1.3,2.1-2.3c0.5-1.1,0.8-2.3,0.8-3.5
			s-0.2-2.4-0.8-3.4c-0.5-0.9-1.2-1.7-2.2-2.3c-1-0.5-2-0.8-3.1-0.8s-2.2,0.3-3.1,0.8c-0.9,0.5-1.7,1.3-2.1,2.3
			c-0.5,1.1-0.8,2.2-0.8,3.4c0,1.2,0.2,2.4,0.8,3.5c0.5,1,1.2,1.7,2.2,2.3c1,0.5,2,0.8,3.1,0.8C235.9,500.6,236.9,500.3,237.9,499.8
			z"/>
		<path class="st3" d="M266.7,503.7l-2.1-2.3c-0.8,0.8-1.8,1.4-2.9,1.8s-2.2,0.5-3.4,0.5c-1.1,0-2.3-0.3-3.3-0.8
			c-0.9-0.4-1.6-1.1-2.1-2s-0.7-1.9-0.7-2.9c0-1.2,0.5-2.3,1.2-3.2c0.8-1,2-1.7,3.2-2.1c-0.4-0.5-0.8-1.1-1-1.7s-0.3-1.1-0.2-1.7
			c0-0.7,0.3-1.5,0.7-2.1c0.5-0.6,1.1-1.1,1.8-1.4c0.8-0.3,1.7-0.5,2.6-0.4c0.9,0,1.8,0.2,2.5,0.7c0.7,0.4,1.2,1,1.5,1.6
			c0.3,0.7,0.4,1.5,0.3,2.2l-2.9-0.1c0.1-0.5-0.1-1.1-0.4-1.5s-0.8-0.6-1.3-0.6s-1,0.1-1.4,0.4c-0.3,0.3-0.6,0.7-0.6,1.2
			s0.1,1,0.3,1.4c0.4,0.6,0.8,1.2,1.3,1.8l4.5,4.9l1.9-2.9l3.1,0.1l-2.5,3.8l-0.7,1l4.1,4.5L266.7,503.7z M262.8,499.4l-4.5-4.9
			c-2,0.7-3.1,1.9-3.2,3.5c-0.1,0.8,0.3,1.6,0.9,2.2c0.7,0.6,1.5,1,2.5,1C260.1,501.3,261.7,500.6,262.8,499.4L262.8,499.4z"/>
		<path class="st3" d="M291.4,497.9c1.1,1.6,1,3.7-0.2,5.3c-0.6,0.7-1.3,1.2-2.2,1.5c-1,0.3-2.1,0.5-3.1,0.4l-7.1-0.6l1.5-17.6
			l6.7,0.6c1.1,0.1,2.1,0.4,3,0.9c0.8,0.4,1.4,1,1.8,1.8c0.4,0.7,0.5,1.5,0.5,2.4s-0.4,1.8-1,2.5c-0.6,0.6-1.4,1.1-2.3,1.3
			C290,496.5,290.8,497.1,291.4,497.9z M288.2,502.2c0.6-0.4,1-1.2,1-1.9c0.1-0.8-0.2-1.6-0.7-2.1c-0.6-0.6-1.4-1-2.3-1l-3.8-0.3
			l-0.5,5.5l3.9,0.3C286.7,502.8,287.5,502.6,288.2,502.2z M282.6,494.5l3.6,0.3c0.8,0.1,1.6,0,2.3-0.5c0.6-0.4,1-1.1,1-1.8
			c0.1-0.7-0.1-1.4-0.6-1.9c-0.6-0.5-1.4-0.9-2.2-0.9l-3.6-0.3L282.6,494.5z"/>
		<path class="st3" d="M303.9,507l-3.2-7.5l-2.2-0.2l-0.8,7l-2.9-0.3l2-17.6l6.1,0.7c1.2,0.1,2.3,0.5,3.3,1.1
			c0.8,0.5,1.5,1.3,1.9,2.1c0.4,0.9,0.5,1.8,0.4,2.7c-0.1,1.1-0.6,2.2-1.4,3c-0.9,0.9-2,1.5-3.3,1.6l3.5,7.8L303.9,507z
			 M298.7,496.9l3.2,0.4c0.9,0.2,1.8,0,2.5-0.5c0.6-0.5,1-1.3,1.1-2.1c0.1-0.8-0.1-1.6-0.6-2.2c-0.6-0.6-1.5-1-2.4-1.1l-3.2-0.4
			L298.7,496.9z"/>
		<path class="st3" d="M314.2,507.3c-1.2-1-2.2-2.2-2.8-3.7c-1.2-3.1-0.7-6.6,1.4-9.2c1-1.2,2.3-2.2,3.7-2.7
			c1.5-0.6,3.1-0.7,4.7-0.5s3.1,0.8,4.4,1.8c1.2,0.9,2.2,2.2,2.8,3.7c1.2,3.1,0.6,6.6-1.4,9.2c-1,1.2-2.2,2.2-3.7,2.7
			C320.2,509.7,316.8,509.2,314.2,507.3L314.2,507.3z M322.1,506.3c1-0.4,1.9-1.1,2.5-2c1.3-2,1.7-4.5,1-6.8c-0.3-1-1-1.9-1.8-2.5
			c-0.9-0.7-1.9-1.1-3-1.2c-1.1-0.2-2.2-0.1-3.2,0.3s-1.8,1.1-2.5,1.9c-0.7,1-1.1,2.1-1.3,3.3c-0.2,1.2-0.1,2.4,0.3,3.5
			c0.3,1,1,1.9,1.8,2.6C317.7,506.7,320,507.1,322.1,506.3L322.1,506.3z"/>
		<path class="st3" d="M341.3,509.1l-7.3-1.3l-1.9,3.3l-3-0.5l9.4-16.3l3.3,0.6l3.1,18.6l-3-0.5L341.3,509.1z M340.9,506.6l-1.3-8.6
			l-4.3,7.6L340.9,506.6z"/>
		<path class="st3" d="M350.2,514.1c-0.8-0.6-1.4-1.3-1.8-2.2c-0.4-0.9-0.5-1.9-0.2-2.8l3,0.6c-0.1,0.7,0.1,1.4,0.5,2
			c0.5,0.6,1.2,1.1,2,1.2c0.8,0.2,1.7,0.1,2.4-0.2c0.6-0.3,1.1-0.9,1.2-1.6c0.1-0.5,0.1-1.1-0.2-1.5c-0.3-0.4-0.6-0.8-1.1-1.1
			c-0.6-0.4-1.3-0.8-2-1.1c-0.9-0.4-1.7-0.9-2.6-1.5c-0.6-0.5-1.1-1.1-1.5-1.8c-0.4-0.9-0.4-1.8-0.2-2.8c0.2-0.9,0.6-1.8,1.3-2.5
			c0.7-0.6,1.5-1.1,2.5-1.3c1.1-0.2,2.2-0.2,3.2,0.1c1.5,0.3,2.8,1,3.9,2.1c0.9,1.1,1.3,2.5,1,3.8l-3.1-0.7c0.1-0.7-0.1-1.3-0.5-1.8
			c-0.5-0.6-1.2-1-2-1.1c-0.7-0.2-1.5-0.1-2.1,0.2c-0.6,0.3-1.1,0.9-1.2,1.6c-0.1,0.5,0,1,0.2,1.4c0.3,0.4,0.6,0.8,1.1,1.1
			c0.6,0.4,1.3,0.8,1.9,1.1c0.9,0.5,1.8,1,2.6,1.5c0.7,0.5,1.2,1.1,1.5,1.9c0.4,0.9,0.5,1.9,0.2,2.8c-0.2,0.9-0.6,1.7-1.2,2.3
			c-0.7,0.7-1.5,1.2-2.5,1.4c-1.1,0.3-2.2,0.3-3.4,0C352.1,515.1,351.1,514.7,350.2,514.1z"/>
		<path class="st3" d="M377.7,502.7l-0.6,2.3l-4.6-1.1l-3.6,14.9l-2.8-0.7l3.6-14.9l-4.6-1.1l0.5-2.3L377.7,502.7z"/>
		<path class="st3" d="M383.1,506.5l-1.3,5l5.9,1.6l-0.6,2.3l-5.9-1.6l-1.4,5.2l6.6,1.8l-0.6,2.3l-9.5-2.5l4.6-17.1l9.5,2.5
			l-0.6,2.3L383.1,506.5z"/>
		<path class="st3" d="M397.9,526.6l-1.9-7.9l-2.1-0.6l-2,6.8l-2.8-0.8l5-17l5.9,1.7c1.2,0.3,2.2,0.9,3.1,1.7
			c0.7,0.6,1.2,1.5,1.5,2.4c0.2,0.9,0.2,1.9-0.1,2.8c-0.3,1.1-1,2-1.9,2.7c-1,0.8-2.3,1.1-3.5,1l2.1,8.3L397.9,526.6z M394.5,515.9
			l3.1,0.9c0.8,0.3,1.8,0.3,2.6-0.1c0.7-0.4,1.2-1.1,1.4-1.9c0.3-0.8,0.2-1.6-0.2-2.3c-0.5-0.7-1.3-1.3-2.2-1.4l-3.1-0.9
			L394.5,515.9z"/>
		<path class="st3" d="M55.4,492.2c-4.7,0-9-2.7-10.9-7l-40.1-87c-0.1-0.2-0.2-0.5-0.3-0.7L3.9,397c-2.4-6.2,0.7-13.1,6.8-15.5
			c0.2-0.1,0.4-0.1,0.6-0.2c72.5-24,148.3-36.3,224.7-36.2c10,0,20.2,0.2,30.3,0.6c65.7,2.7,130.7,14.4,193.1,34.9
			c6.3,2,9.8,8.8,7.7,15.1c-0.2,0.5-0.4,1-0.6,1.5l-41.9,87c-2,4.1-6.2,6.8-10.8,6.8c-1.2,0-2.4-0.2-3.5-0.5
			c-48.4-14.7-98.4-23.2-148.9-25.3c-8.4-0.4-16.9-0.5-25.2-0.5c-60.1,0-119.8,9.1-177.1,27C57.8,492,56.6,492.2,55.4,492.2z"/>
		<path class="st8" d="M455.7,392l-41.9,87c-116.9-35.5-241.8-35.1-358.4,1.2l-40.1-87l-0.2-0.5C158.1,345.5,312.5,345.2,455.7,392z
			"/>
		<path d="M101.1,460c-2.3,0-4.3-1.7-4.8-3.9L89,421.8l-7.7,1.6c-0.3,0.1-0.7,0.1-1,0.1c-2.3,0-4.4-1.6-4.8-3.9l-3.3-15.8
			c-0.5-2.7,1.2-5.3,3.8-5.9l41.3-8.8c0.3-0.1,0.7-0.1,1-0.1c2.3,0,4.4,1.6,4.8,3.9l3.3,15.8c0.5,2.7-1.2,5.3-3.8,5.9l-7.6,1.6
			l7.3,34.3c0.5,2.7-1.2,5.3-3.8,5.9l-16.3,3.5C101.8,460,101.5,460,101.1,460z"/>
		<path class="st3" d="M107.1,411.1l8.3,39.1L99,453.7l-8.3-39.1l-12.5,2.7l-3.3-15.8l41.3-8.8l3.3,15.8L107.1,411.1z"/>
		<path d="M156.9,451.2c-19-0.2-34.3-15.8-34.1-34.8c0.1-7.6,2.7-14.9,7.3-20.9c5.7-7.3,14.1-12,23.3-13c1.5-0.2,3-0.3,4.4-0.3
			c7.5,0,14.8,2.6,20.6,7.4c15,11.7,17.6,33.3,5.9,48.3c-5.6,7.2-13.9,11.9-22.9,13C160,451.1,158.5,451.2,156.9,451.2z
			 M157.3,408.8c-0.3,0-0.7,0-1,0.1c-2,0.2-3.7,1.3-4.9,2.9c-2.6,3.6-2,8.5,1.4,11.3c1.2,1.1,2.8,1.7,4.4,1.7l0,0
			c2.3,0,4.5-1.1,5.9-2.9c2.5-3.6,1.9-8.5-1.4-11.4C160.6,409.4,159,408.8,157.3,408.8z"/>
		<path class="st3" d="M152,386.2c7.7-1,15.4,1.2,21.4,6.1c12.8,10,15.1,28.6,5.1,41.4s-28.6,15.1-41.4,5.1
			c-12.9-10-15.2-28.5-5.2-41.4c0,0,0-0.1,0.1-0.1C136.8,391,144.1,387,152,386.2z M153.6,402.6c-3.3,0.4-6.3,2.1-8.2,4.8
			c-4.2,5.7-3.2,13.6,2.3,18.1c5.1,4.2,12.7,3.5,16.9-1.5c0.2-0.2,0.3-0.4,0.5-0.6c4.1-5.7,3.1-13.6-2.3-18.2
			C160.2,403.1,156.9,402.2,153.6,402.6z"/>
		<path d="M219.7,446.4c-8.4,0.1-16.5-3.4-22.2-9.5c-6.4-6.4-10-15.1-10.1-24.1c-0.3-9.6,2.6-17.9,8.7-24.6
			c6-6.7,14.5-10.5,23.5-10.6h0.9c3.4,0,6.8,0.6,10,1.6c2,0.6,3.5,2.5,3.6,4.6l0.6,16.7c0,1-0.2,1.9-0.7,2.8h1.3h0.2
			c1.4,0,2.8,0.6,3.8,1.7c4.1,4.5,6.5,10.3,6.8,16.3c0.3,6.6-2.2,13.1-7,17.7c-4.8,4.8-11.2,7.5-18,7.5L219.7,446.4z M214.5,410.4
			c-0.1,0.7-0.1,1.3-0.1,2s0.1,1.4,0.2,2.1L214.5,410.4z"/>
		<path class="st3" d="M217.2,407.3l15.9-0.5c3.4,3.6,5.3,8.3,5.6,13.3c0.3,5.2-1.8,10.4-5.6,14c-3.9,3.9-9.1,6-14.6,6.1
			c-7.4,0.3-14.6-2.6-19.7-8c-5.5-5.6-8.6-13-8.7-20.9c-0.3-8.3,2.2-15.4,7.4-21.1c5.1-5.7,12.4-8.9,20-9c3.1,0,6.3,0.4,9.3,1.4
			l0.6,16.7c-2.3-1.1-4.7-1.6-7.2-1.6c-3.6,0-7,1.4-9.5,4c-2.4,2.6-3.7,6.1-3.4,9.6c0.1,4,1.4,7.1,3.8,9.3s5.5,3.3,9.4,3.2
			c2.5-0.1,3.7-0.8,3.7-2.3c0-1.1-0.9-1.6-2.5-1.6l-4,0.1L217.2,407.3z"/>
		<path d="M266.9,446.8h-1.6c-7.8-0.4-13.8-3-17.9-8c-4-4.8-5.8-11.4-5.4-19.6l1.6-35.8c0.1-2.7,2.3-4.7,5-4.7l0,0
			c-0.9-1.9-1.3-3.9-1.2-6c0.3-6.6,5.7-11.7,12.3-11.8h0.6c3.3,0.1,6.4,1.6,8.6,4c0.3,0.3,0.6,0.7,0.9,1.1c0.3-0.4,0.6-0.7,1-1
			c2.3-2.1,5.2-3.2,8.3-3.2h0.6c6.8,0.3,12.1,6.1,11.8,12.9c-0.1,2.1-0.7,4.1-1.8,5.9c1.2,0.1,2.4,0.7,3.2,1.6
			c0.9,1,1.4,2.2,1.3,3.6l-1.6,36.4c-0.4,7.7-3,14-8,18.5C279.8,444.6,273.9,446.8,266.9,446.8z"/>
		<path class="st3" d="M286.9,384l-1.6,36.4c-0.3,6.4-2.4,11.4-6.4,15.1s-9.2,5.4-15.5,5.1s-11.1-2.4-14.3-6.2
			c-3.2-3.9-4.6-9.3-4.3-16.3l1.6-35.8l16.7,0.7l-1.6,35.8c-0.1,3.4,1,5.2,3.4,5.3s3.6-1.5,3.8-5l1.6-35.8L286.9,384z M257.8,364.4
			c4.1,0.2,7.2,3.6,7.1,7.7c-0.2,4.1-3.6,7.2-7.7,7.1c-4.1-0.2-7.2-3.6-7.1-7.7c0.1-2,0.9-3.8,2.4-5.1
			C253.9,365,255.8,364.3,257.8,364.4L257.8,364.4z M277.2,365.3c4.1,0.2,7.2,3.7,7,7.7c-0.2,4.1-3.7,7.2-7.7,7
			c-4.1-0.2-7.2-3.7-7-7.7c0.1-1.9,0.9-3.8,2.4-5.1C273.2,365.8,275.2,365.1,277.2,365.3L277.2,365.3z"/>
		<path d="M312.4,449.1c-0.2,0-0.3,0-0.5,0l-16.6-1.8c-2.7-0.3-4.7-2.7-4.4-5.4l5.9-55.8c0.3-2.5,2.4-4.4,4.9-4.4c0.2,0,0.3,0,0.5,0
			l16.6,1.7c2.7,0.3,4.7,2.7,4.4,5.5l-5.9,55.8C317.1,447.2,315,449.1,312.4,449.1L312.4,449.1z"/>
		<path class="st3" d="M316.2,387l-5.9,55.8l-16.6-1.7l5.9-55.8L316.2,387z"/>
		<path d="M331.2,452.8c-1.4,0-2.8-0.1-4.2-0.3c-3.4-0.6-6.7-1.9-9.6-3.8c-1.6-1.1-2.4-3-2.1-4.9l2.5-16c0.4-2.7,3-4.6,5.7-4.1
			c0.9,0.1,1.7,0.5,2.4,1.1c0.3,0.3,0.7,0.6,1.1,0.8c-0.2-0.6-0.5-1.4-0.9-2.5c-2-5.1-2.7-10.6-1.9-16.1c0.9-6.4,4.4-12.1,9.6-15.9
			c4.1-3.1,9-4.8,14.1-4.8c1.3,0,2.6,0.1,3.8,0.3c2.8,0.4,5.6,1.4,8.1,2.7c1.9,1,2.9,3,2.6,5.1l-2.5,15.8c-0.2,1.6-1.2,2.9-2.7,3.7
			c-0.7,0.3-1.5,0.5-2.2,0.5c-0.8,0-1.6-0.2-2.3-0.6c-0.3-0.1-0.5-0.3-0.7-0.3c0.1,0.5,0.3,1.1,0.5,1.6l0.9,2.4
			c1.9,4.6,2.6,9.6,1.9,14.5c-0.9,6.5-4.5,12.3-9.9,16.1C341.4,451.2,336.4,452.8,331.2,452.8z"/>
		<path class="st3" d="M355.5,392.4l-2.5,15.8c-0.8-0.5-1.7-0.8-2.7-1c-1.2-0.2-2.5,0.1-3.4,0.9c-1,0.7-1.7,1.9-1.9,3.1
			c-0.1,1.5,0.2,3.1,0.8,4.5l0.9,2.4c1.6,3.8,2.2,7.9,1.6,12c-0.7,5.2-3.6,9.8-7.9,12.8c-4.3,3.1-9.7,4.4-14.9,3.4
			c-2.7-0.4-5.3-1.5-7.6-3l2.5-16c1.1,1.1,2.5,1.8,4,2.1c1.3,0.2,2.7,0,3.8-0.7c1.1-0.6,1.8-1.7,1.9-2.9c0.1-0.8-0.4-2.7-1.5-5.7
			c-1.8-4.3-2.4-9-1.8-13.7c0.7-5.1,3.5-9.7,7.7-12.6c4-3.1,9.2-4.4,14.2-3.6C351.2,390.6,353.4,391.3,355.5,392.4z"/>
		<path d="M365.9,458.8c-1.9,0-3.8-0.2-5.6-0.6c-3.4-0.7-6.6-2.2-9.4-4.4c-1.5-1.2-2.3-3.1-1.9-5l3.4-15.9c0.6-2.7,3.3-4.4,6-3.8
			c0.9,0.2,1.7,0.6,2.3,1.3c0.3,0.3,0.7,0.6,1.1,0.9c-0.1-0.6-0.4-1.4-0.7-2.5c-1.8-5.2-2.1-10.8-1-16.2
			c2.4-11.1,12.2-19.2,23.6-19.4c1.7,0,3.4,0.2,5.1,0.5c2.8,0.6,5.5,1.7,7.9,3.1c1.8,1.1,2.7,3.2,2.3,5.3l-3.3,15.6
			c-0.6,2.7-3.2,4.4-5.9,3.8c-0.5-0.1-1-0.3-1.5-0.6c-0.3-0.2-0.5-0.3-0.7-0.4c0.1,0.6,0.2,1.1,0.4,1.6l0.8,2.4
			c1.6,4.7,2,9.7,1.1,14.6c-1.3,6.5-5.2,12.1-10.8,15.6C375.1,457.5,370.6,458.8,365.9,458.8z"/>
		<path class="st3" d="M392,399.9l-3.3,15.6c-0.8-0.5-1.7-0.9-2.6-1.2c-1.2-0.3-2.5,0-3.5,0.7s-1.8,1.8-2,3c-0.2,1.5,0,3.1,0.6,4.5
			l0.8,2.4c1.4,3.9,1.7,8,1,12.1c-1,5.1-4.1,9.6-8.6,12.4c-4.5,2.9-9.9,3.8-15.1,2.6c-2.7-0.6-5.2-1.8-7.4-3.5l3.4-15.9
			c1,1.1,2.4,2,3.8,2.4c1.3,0.3,2.6,0.1,3.8-0.5c1.1-0.6,1.8-1.6,2.1-2.8c0.2-0.8-0.2-2.7-1.2-5.8c-1.5-4.4-1.8-9.1-0.9-13.6
			c1-5,4-9.4,8.4-12.2c4.2-2.9,9.4-3.9,14.4-2.8C387.9,397.9,390,398.7,392,399.9z"/>
		<path class="st3" d="M505.8,377.9c0.1,5.2-4,9.6-9.2,9.7s-9.6-4-9.7-9.2s4-9.6,9.2-9.7c0.1,0,0.2,0,0.3,0
			C501.6,368.6,505.8,372.7,505.8,377.9C505.8,377.8,505.8,377.9,505.8,377.9z M489.3,377.9c-0.1,4,3,7.3,7,7.4c0.1,0,0.1,0,0.2,0
			c3.9,0,7-3.2,7-7.1c0-0.1,0-0.1,0-0.2c0.2-3.9-2.9-7.2-6.8-7.4c-3.9-0.2-7.2,2.9-7.4,6.8C489.2,377.5,489.2,377.7,489.3,377.9
			L489.3,377.9z M494.9,382.6h-2.1v-9.2c1.2-0.2,2.4-0.3,3.5-0.3c1.1-0.1,2.2,0.1,3.1,0.7c0.6,0.5,1,1.2,1,2c-0.1,1.1-0.8,2-1.9,2.2
			v0.1c0.9,0.3,1.4,1,1.6,2.2c0.1,0.8,0.3,1.5,0.7,2.2h-2.2c-0.4-0.7-0.6-1.5-0.7-2.2c-0.2-1-0.7-1.4-1.9-1.4h-1L494.9,382.6z
			 M495,377.5h1c1.2,0,2.1-0.4,2.1-1.4s-0.6-1.4-2-1.4c-0.4,0-0.8,0-1.2,0.1L495,377.5z"/>
		<polygon class="st3" points="247.6,122.4 244.2,123.2 233,125.8 226.5,133 223.7,142 225.5,142.9 231.6,142.1 245.2,134.9 
			248.6,124.3 		"/>
		<path class="st5" d="M247.1,122.4c0,0-21.5,4.4-21.4,20.5h-3C222.8,142.9,222.9,121.1,247.1,122.4z"/>
		<path class="st5" d="M225.8,142.8c0,0,21.5-4.4,21.4-20.5h3C250.2,122.4,250,144.2,225.8,142.8z"/>
		<path class="st5" d="M353.6,261.6c0,0-14,9.2-6.7,28.8l-3.4,1.4l-1.4-14.8l1.1-8.7l2.7-3.2"/>
		<path class="st5" d="M346.9,290.4c0,0,6.9,14.7-14.4,41.3l2.9-7.8l5.1-10.6l3.1-11.6l0.1-8.1l-0.5-4.6"/>
		<path class="st5" d="M265,157l-33-9.8c0,0-5.6,0.8-2.6,4.8c1.5,2,34,8.4,35.3,7.4C265.4,158.8,265.5,157.8,265,157z"/>
		<path class="st5" d="M265.2,156.4l-37.9-0.9c0,0-2.4,4.1,2.1,4.7c2.5,0.4,35-0.1,36-1.4C266.1,158.1,265.9,157,265.2,156.4z"/>
		<path class="st5" d="M318,159l12-2.6c1,0.6,1.4,2,0.7,3c0,0.1-0.1,0.1-0.1,0.2c-0.6,1.1-12.2,1.7-12.6,1
			C317.8,160.1,317.8,159.5,318,159z"/>
		<path class="st5" d="M318,158.6l13.1,3.4c0,0,0.6,2.7-1,2.7c-0.9,0-12.1-3.6-12.4-4.5C317.6,159.6,317.7,159.1,318,158.6z"/>
	</g>
</g>
</svg>
