<?xml version="1.0" encoding="utf-8"?>
<!-- Generator: Adobe Illustrator 26.0.1, SVG Export Plug-In . SVG Version: 6.00 Build 0)  -->
<svg version="1.1" id="Capa_1" xmlns="http://www.w3.org/2000/svg" xmlns:xlink="http://www.w3.org/1999/xlink" x="0px" y="0px"
	 viewBox="0 0 505.8 383.6" style="enable-background:new 0 0 505.8 383.6;" xml:space="preserve">
<style type="text/css">
	.st0{opacity:8.000000e-02;}
	.st1{fill:#050505;}
	.st2{fill:#FFC100;}
	.st3{fill:#FFFFFF;}
	.st4{fill:#DD2405;}
	.st5{fill:#020202;}
	.st6{fill:#FFFF00;}
	.st7{fill:#070707;}
	.st8{fill:#FF7400;}
</style>
<g id="Capa_2_00000081615629797614045910000012091854643766931372_" class="st0">
	<g id="Capa_1-2_00000013150701898511224140000012994798818555874740_">
		<path class="st1" d="M241.9,359.4c-89.4,0-161.9-72.5-161.9-161.8c0-42.9,17.1-84.1,47.4-114.5c63.8-62.6,166.3-61.5,228.9,2.3
			C418,148.3,418,249,356.4,312C326.1,342.4,284.9,359.5,241.9,359.4z"/>
		<circle class="st2" cx="239.9" cy="195.3" r="156.1"/>
		<polygon class="st3" points="230.2,60.7 228.7,61.3 218.4,65 203.1,75.4 193.5,83.8 177.7,105.8 168.6,120.7 165,127.4 
			150.2,159.2 137.1,208.8 137.1,213.8 134,216 127.1,218.5 114.7,231.8 109.6,243.1 101.8,272.2 98.3,293.3 189.4,283.9 
			346.8,281.4 344.2,243.9 342.4,218.7 336,202 328.5,198.5 323.6,198.5 322.7,190.1 316.4,179.3 306.7,170.9 289.1,158.5 
			282.9,157 274,159.2 258.3,154.8 248.5,145.2 243.9,133.1 243.6,128.6 251.6,129 263.8,130.5 280.2,121.4 281.8,87.7 277.5,68.6 
			255.3,60.7 235.6,60.4 		"/>
		<path class="st4" d="M199.2,49.4l14.1-12.2l19.2-8.2l15.4-2.3l9.7,2.3l-0.5-3.4l-2.5-4l-3.4-2.9l-1.2-1.8l-8.6-6.1l-2.9-5.2
			L256.9,7l10.7,3.8l8,3.3l12,6.5l12.1,17.6l2.8,8.3l1.5,7l1.9-4.6l2.5-11.9l-1.1-4.9l-1.9-2.7l-0.2-0.3l-0.3-0.3l4,1.6l6.8,7.2
			l1.7,1.9l1.2,18.3l-5.1,13.7l-7.3,16.8l6.2,2.4l3.3,3.4l4.9,3.9l-2.7,9.7l-8.1,9.2l-1.2,3.2l0.3,9.9l-2.6,3.5l-6.8-0.6l-7.3-5.3
			l-1.3-2.7l-4-2.2l-4.3-0.9l-7.1,1.9l-5.8,5.2l-6.9,1.7l-9.6-1.5l-6.2-0.4l-3.4,0.5l3.2,14.1l8.2,9.8l11.9,3.9l8.6,2.2h4.6l1.6,2.3
			l1.1,8.7l4.1,7.3l3.5,15.4l-4.5,12.8l-7.9,13.6l-2.7,1.5l-7-6.6l-3.6-6.6l-2-5.8l0.7-2.5l-0.7-2.6v-2.9l-0.2-1.5l-0.7,0.2
			c0,0-11.8,12-19.7,11.7c0,0-2.9-2.8-1.2-5.9c1.8-3.1,2.7-4.8,2.7-4.8l2-1.8l1.4-2.2l1.5-1.2l-3.1-0.5l-7.4-0.3h-3.1l-2.3-5.3
			l0.9-3.5l3.5-3l0.5-4.4l1.2-2.1l-2.3-1.7l-7.8-10.9l-0.6-8.6l-5.6-1.3l-3.2-2.8l0.5-3.5l3.2-1.8l2.7-1.3l1.3-1.4l0.9-2.1l0.9-1.9
			l0.2-1.7l0.1-1.5l-0.9-2.7l-3.2-2.5c0,0-12.8-11.9-7.3-19.2c5.6-7.3,1.4-8,1.4-8l6.6-0.2l1-3.5l2.3-2.4l1.5-0.9l2.2-0.3l1.1-2.2
			l2-0.3l0.3-0.5l1.9-1.2l4.5-2.1l11.7-7.3l5.8-2.9l5.2-2.7l2-5.4l-18.7-6l-17.9,2.3c0,0-9.2-11.9-32.6-8.3L199.2,49.4z"/>
		<path class="st3" d="M294,107.1c0,0-3.4,0.9-4.9,5.3s-1.1,9.5,0.5,11.9c1.6,2.4,9.5-2.6,9.5-2.6s3.5-9.4-1-12.7
			C293.8,105.7,294,107.1,294,107.1z"/>
		<path class="st3" d="M243.5,82.4l17.1-0.7l14,5.1l6.7,3.9c0,0,1.1-7.6,1.1-8c0-0.3-3.3-11-3.8-11.4c-0.5-0.3-8.2-5.4-8.2-5.4
			l-7.4-2"/>
		<path class="st5" d="M304,53.5c0,0-8.9-50.8-68.7-44.5l-0.1-4.3C235.1,4.6,297.2-2.1,304,53.5z"/>
		<path class="st5" d="M304.8,28.9c0,0,5.9,4.1-0.8,24.6C304,53.5,318.2,36.2,304.8,28.9z"/>
		<path class="st5" d="M257.7,28.9c0,0,3-11.8-19-22.6l-6.2,1.9C232.5,8.3,250.9,14.3,257.7,28.9z"/>
		<path class="st5" d="M257.7,28.9c0,0-33.6-7.6-58.6,24.6l-5.6-2.7C193.5,50.8,221.3,14.5,257.7,28.9z"/>
		<path class="st5" d="M230.3,61.1c0,0-4.1-13.8-33.9-11.6v5.3C196.4,54.8,219.9,52.2,230.3,61.1z"/>
		<path class="st5" d="M193.5,50.8c0,0-2.1,3.8,2.9,4.1v-2.8"/>
		<path class="st5" d="M304.8,28.9c0,0,31.1,10.2-2.6,58.8l5.1,0.9C307.2,88.6,340.4,40.6,304.8,28.9z"/>
		<path class="st5" d="M302.2,87.7c0,0,31.7,6.8,4.2,29.3l3.5,2.1C309.8,119.1,342.8,93.7,302.2,87.7z"/>
		<path class="st5" d="M230.3,61.1c0,0-72.4,26.7-90.6,153.2L134,216C134,216,154.1,78.7,230.3,61.1z"/>
		<path class="st5" d="M283.7,93.2c0,0-33-28.8-64.1,10.2l-3.5-3C216.1,100.4,251.3,58.2,283.7,93.2z"/>
		<path class="st5" d="M280.1,90.6c6.6-33.4-49.8-29.5-49.8-29.5c69.3-4.5,53.3,32.1,53.3,32.1"/>
		<path class="st5" d="M96.8,292.3c0,0-3.4-65.8,37.1-76.3c0,0-30.7,8.4-31,76.3l-6.2,1.4L96.8,292.3z"/>
		<path class="st5" d="M139.7,214.4c0,0,41.5-4,49.6,59.7c0,0,3.8-64.3-49.6-65.3V214.4z"/>
		<path class="st5" d="M134,216c0,0,19.5-6.4,37.2,12.3l-1.9-5.4l-10-6l-10.1-3.5l-7.3-1.2l-4.8-0.7L134,216z"/>
		<path class="st5" d="M185.6,245c0,0,20.1-11.7,24.8,27.3c0,0,1.7-38.8-26-30.8L185.6,245z"/>
		<path class="st5" d="M219.6,103.4c0,0-7,9.9,7.9,22.9c0,0-19.6-13.6-11.4-25.9L219.6,103.4z"/>
		<path class="st5" d="M227.5,126.3c0,0,3.2,8.9-6,13.2C221.5,139.4,237.3,135.5,227.5,126.3z"/>
		<path class="st5" d="M218,110.4c0.2-4.1,2-8,4.9-10.9h-2.4l-1.6,1.9l-1.8,2v4.3L218,110.4z"/>
		<path class="st5" d="M257.8,106.1c0,0,4.6,1.8,3.9,9.5L257.8,106.1z"/>
		<path class="st5" d="M289.1,112.4c0,0,3.5-7.4,7.8-3.5c4.2,3.9,4.3,14.3-4.1,14.5l-0.1,2c0,0,8.6,0.2,8.5-9
			S293.2,101.4,289.1,112.4z"/>
		<path class="st5" d="M292.7,123.4v2c-5-0.2-5-5.9-4.3-9.5l0,0v-0.1c0-0.1,0-0.1,0-0.2c0.3-1,1.1-3.6,3.3-3.7h0.2
			c0.9,0.1,1.9,0.9,2.8,3C296.8,119.8,292.7,123.4,292.7,123.4z"/>
		<path class="st5" d="M292.7,112c0,0,3.1,1.2,2.6,6.3L292.7,112z"/>
		<path class="st5" d="M309,131.9l0.8-12.8l-3.5-2.1l2.6,15.4c0-0.1,0-0.1,0.1-0.2C309,132.1,309,132,309,131.9z"/>
		<path class="st5" d="M275.6,160.3c28.6,34.6-2.8,63.1-2.8,63.1c39.8-28.5,7.3-64.2,7.3-64.2L275.6,160.3z"/>
		<path class="st5" d="M272.9,223.5l4.2-3.2c0,0-13.1-6.5-14.3-28.3C262.7,191.9,258.5,207.1,272.9,223.5z"/>
		<path class="st5" d="M262.7,191.9c0,0-12.4,10.8-21.3,11v4.1C250.2,204.8,257.8,199.4,262.7,191.9z"/>
		<path class="st5" d="M281.8,159.2c0,0,39.5,13.1,41.9,39.3c0,0,1.8-27.6-39.8-42.5L281.8,159.2z"/>
		<path class="st5" d="M323.7,198.5c0,0-13.3,1-8.8,20.3c0.7,3.4,0.8,6.9,0.1,10.4c-1.2,5.4-3.8,13.4-8.7,19.4l-1.9,3
			c0,0-0.6,4.6,2.1,1.2c2.7-3.4,12.2-18.3,11.1-30.8S312.8,208.6,323.7,198.5z"/>
		<path class="st5" d="M308,247.3c0,0-4.9-24.6-7.8-33.4l-0.3,5.2l4.3,32.6L308,247.3z"/>
		<path class="st5" d="M300.2,213.8c0,0-13.7,46.1-13.5,58.4l-6.1-0.6C280.6,271.7,286.7,232.6,300.2,213.8z"/>
		<path class="st5" d="M248.5,187.8c0,0-5.9,6.9-7.1,15.1v4.1C241.4,206.9,232,199.4,248.5,187.8z"/>
		<path class="st5" d="M225.4,149.3c2.3,9.4,7.8,17.6,15.5,23.3c0,0-10.6-12.3-9.7-24.3c0,0-16.7-3-9.8-8.9
			C221.5,139.4,212.3,145.6,225.4,149.3z"/>
		<polygon class="st6" points="243.8,129.2 249.8,128.7 258.6,128.9 265.2,130 270.9,127.9 276.4,124.3 281.3,122.1 287,122.8 
			290.1,124.6 292.9,129.3 296.6,143 298.5,149.6 295.9,151.2 287.8,150.9 284.4,150.3 284.7,152.6 278.6,158.4 265.1,157.7 
			254.5,151.8 248,143.9 244.9,135.9 		"/>
		<path class="st5" d="M241,172.6c0,0-9.9,4.8-9.7,12.8c0.2,8,17.2,2.4,17.2,2.4S221.6,191.5,241,172.6z"/>
		<path class="st5" d="M237.5,169.5c-2.2,4.2-4,8.6-5.6,13.1l3.4-3.7l5.6-6.2L237.5,169.5z"/>
		<path class="st3" d="M274,177.2c0,0,8.2,18.2,0,36.3C274,213.5,296.3,187.5,274,177.2z"/>
		<path class="st5" d="M235.8,173.1c0,0-4.7,6.6-4.4,12.9L235.8,173.1z"/>
		<path class="st5" d="M343.9,172c0,0-8.2,0.6-6.9,7.9c1.3,7.3-2.7-1.1-2.7-1.7c0-0.6,0.7-5.8,0.7-5.8l4.8-1.9L343.9,172z"/>
		<path class="st5" d="M323.7,198.5c0,0,18.4-6.9,21.4,20.6s1.7,62.3,1.7,62.3l-7.6-1.9C339.2,279.5,354.4,195.3,323.7,198.5z"/>
		<path class="st5" d="M243.6,127.4c0,0-4.3,32.2,32,33v-2.9C275.6,157.4,247.8,157.8,243.6,127.4z"/>
		<path class="st5" d="M275.6,157.4c0,0,5.1,1.6,8.9-5.7c0,0,2.5,9.1-8.9,8.7V157.4z"/>
		<path class="st5" d="M272.2,157.2c0,0,6.3,1.6,10.2-2.4l0.5,2.7l-1.1,1.8h-3.4L272.2,157.2z"/>
		<path class="st5" d="M250.9,139c0,0,20.1,15.5,31.9,11c4.4,2.1,9.5,2.4,14.1,0.8c0,0-12.5-1-13.6-4.8
			C283.4,146.1,262.4,147.1,250.9,139z"/>
		<path class="st5" d="M290.1,124.6c2.3,3.5,3.2,7.7,2.7,11.8c-1,6.8,4.1,10.6,4.3,11.4c0.2,0.8,1.8,2.5,0,3.1
			c-1.8,0.5,2.1-1.5,2.1-1.5S295.6,128.2,290.1,124.6z"/>
		<path class="st5" d="M290.1,124.6c-4.2-2.8-9.7-2.4-13.4,0.9c-6.7,5.7-9.3,9.2-24.2,4.8c0,0-1.7-0.9-8.5-1c6-2.1,12.4-2.4,18.6-1
			C272.7,130.5,275,114.8,290.1,124.6z"/>
		<path class="st5" d="M292.9,128.1c0,0,11.3,6.5,15.7,4.1C308.6,132.2,303.7,139.6,292.9,128.1z"/>
		<path class="st5" d="M308,126.8c0,0,2,7.2-4.5,5.7l4.2,1.9l0.9-1.5l0.3-1.5v-1.1L308,126.8z"/>
		<path class="st5" d="M305.6,135.2c-3.6-0.2-7.1-1.7-9.7-4.2L305.6,135.2z"/>
		<path class="st5" d="M307.9,126.2c0,0,1,4.4-0.8,5.9c-1.9,1.5-0.4,1-0.4,1s1.4-0.9,1.5-1s0.5-2.1,0.5-2.1l-0.1-1.8
			c0,0,1.4,5.8-4.5,4.4l3.8,0.8l0.8-1.4l0.2-1.2l0.5-2c0,0,0.9,9.1-7.1,5.6l2.3-1.8l2.3,0.3l1.1-0.4l0.9-1.2L307.9,126.2z"/>
		<path class="st5" d="M281.8,73.6c0,0-12.9-22.8-53-12.5c0,0,39.6-2.6,48.7,13.7"/>
		<path class="st5" d="M226.9,137.2c0,0-9,4.4-4.4,8.2c4.6,3.8-1.3,1.1-1.3,1.1l-1.2-1.1l-1.4-2.5l1.2-2c1-1.2,2.3-2.1,3.8-2.7
			L226.9,137.2z"/>
		<path class="st5" d="M222.4,138.7c0,0,3.4-2,4.7-4.7c1.4-2.7,0.8,1.3,0.8,1.3l-1.9,1.6l-2.2,1.6l-0.7,0.8L222.4,138.7z"/>
		<path class="st3" d="M264.2,24.5c0,0,29.5-2.4,33.3,33.5C297.6,57.9,286.5,34.9,264.2,24.5z"/>
		<path class="st5" d="M299.1,149.3c0,0,1,2.9-7.6,2.5l3.5-1.2c0,0,3.9,0.7,1.9-2.9L299.1,149.3z"/>
		<path class="st5" d="M246.9,80.2c0,0-23.3,5.7-31.7,21.6"/>
		<path class="st3" d="M252.4,106.7c0,0-2.7,7.1-1.3,13.3c1.4,6.1,9.5,4.7,9.5,4.7l6.3-5l1.9-6.5l-1.2-8.7l-4.1-4.7l-3.4-1.5
			l-3.5,1.3L252.4,106.7z"/>
		<path class="st5" d="M252.4,106.7c0,0,5.2-11.1,11.5-5.3c6.4,6,6.4,21.5-6.1,21.8l-0.1,3c0,0,12.8,0.3,12.6-13.5
			C270.2,98.9,258.5,90.1,252.4,106.7z"/>
		<path class="st5" d="M257.8,123.2v3c-7.4-0.3-7.4-8.8-6.3-14.3c0,0,0,0,0-0.1c0-0.1,0-0.1,0-0.2l0.1-0.3c0.4-1.5,1.7-5.4,5-5.6
			h0.2c1.3,0.1,2.7,1.3,4.1,4.6C263.9,117.8,257.8,123.2,257.8,123.2z"/>
		<polygon class="st3" points="345.4,228.9 347.8,223.5 349.9,211.8 349.9,194.2 340.8,185.3 335.4,175.6 340.8,171.1 345.9,171.1 
			351.8,173.5 358.5,180.1 363.9,187.6 368.2,196.1 372.9,192.1 377.4,188.6 380.7,185.3 384.9,180.5 389.7,172.8 398.6,165.1 
			411.4,158.3 419.7,161.7 419.7,169.6 414.6,177.1 402.7,187.1 399.7,191.2 409.2,193 413.3,195.3 414.3,196.2 416.3,199.3 
			416,203.8 414.1,207.7 414.6,209 418.4,211.7 420.9,215.8 420,219.8 417.7,223.7 415.5,225.5 409.7,226.9 408.6,228.2 
			412.3,236.7 411.6,247.4 408.1,264.8 397.2,275.9 379.8,281.4 362.2,281.4 351.2,273.3 346.8,267.4 		"/>
		<path class="st5" d="M367.6,194.9c-15.6-34.7-30.2-24.4-30.2-24.4l0.8,3.4c13.5-9.9,29.3,20.9,29.6,21.4L367.6,194.9z"/>
		<path class="st5" d="M338.2,173.9c0,0-5.3,8.4,14.4,20.3l-5.4,1.1c0,0-22.7-16.4-9.8-24.9L338.2,173.9z"/>
		<path class="st5" d="M366.1,191.7c0,0,13.9-4.8,20.4-14c0,0-2.8,8.4-18.2,18.3L366.1,191.7z"/>
		<path class="st5" d="M414.1,196c0,0-10.9-7.3-24.4,2.5c-10.4,7.6-11.5,10.8-10,12.2l0.1,0.1l0,0c0.3,0.3,0.6,0.6,1,0.9l0,0
			c1.2,0.8,2.6,1.3,4.1,1.4l0.3,1.7v0.1c0,0-0.4,0-1.1,0l0,0c-1.1,0-2.1-0.2-3.2-0.4c-5-0.9-10.8-4.2,3.1-15.5
			C404.2,182.6,414.1,196,414.1,196z"/>
		<path class="st5" d="M372.3,228c0,0-18.6,8.6-22.4-9.3l-2,6.4C347.8,225.1,357.8,242,372.3,228z"/>
		<path class="st5" d="M412,235.9c0,0,13.6,28.5-20.5,44.2s-44.4-12.3-44.4-12.3s14.4,14.4,26.4,12.4
			C382.3,278.8,410.4,277.1,412,235.9z"/>
		<path class="st5" d="M400.4,212.1c-10.5,5.6-19.5,2.4-19.5,2.4s-11.5-6.9-1.5-3.3l0.3,0.1c0.4,0.2,0.8,0.3,1.2,0.4l0,0
			c1.2,0.8,2.6,1.3,4.1,1.4c1.9,0.2,3.8,0.2,5.7,0c3.1,0,6.2-0.3,9.2-0.9h0.1L400.4,212.1z"/>
		<path class="st5" d="M347.2,195.4c0,0,2.5,17.5-1.3,32.8c0,0,7-2.4,6.6-34L347.2,195.4z"/>
		<path class="st5" d="M380.9,279c0,0-15.8,5.1-33.8-11.2l13,13.5l10.8,1l11.7,1.1L380.9,279z"/>
		<polygon class="st3" points="245,95.2 242.5,95.8 234.2,97.7 229.4,103.1 227.3,109.7 228.6,110.4 233.1,109.8 243.2,104.5 
			245.7,96.6 		"/>
		<path class="st5" d="M244.7,95.2c0,0-16,3.3-15.9,15.2h-2.2C226.6,110.4,226.7,94.2,244.7,95.2z"/>
		<path class="st5" d="M228.8,110.3c0,0,16-3.3,15.9-15.2h2.2C246.9,95.2,246.8,111.3,228.8,110.3z"/>
		<path class="st5" d="M323.7,198.5c0,0-10.4,6.9-5,21.3l-2.5,1.1l-1-11l0.8-6.5l2-2.4L323.7,198.5z"/>
		<path class="st5" d="M318.7,219.8c0,0,5.1,10.9-10.7,30.7l2.1-5.8l3.8-7.9l2.3-8.6l0.1-6l-0.4-3.4L318.7,219.8z"/>
		<path class="st5" d="M257.9,120.8l-24.5-7.3c0,0-4.1,0.6-1.9,3.5c1.1,1.5,25.2,6.2,26.2,5.5C258.2,122.2,258.3,121.4,257.9,120.8z
			"/>
		<path class="st5" d="M258.1,120.4l-28.1-0.6c0,0-1.8,3,1.6,3.5c1.9,0.3,26-0.1,26.7-1C258.7,121.7,258.6,120.9,258.1,120.4z"/>
		<path class="st5" d="M297.3,122.4l8.9-1.9c0.8,0.5,1,1.4,0.6,2.2c0,0.1-0.1,0.1-0.1,0.2c-0.5,0.8-9.1,1.3-9.4,0.7
			C297.1,123.1,297.1,122.7,297.3,122.4z"/>
		<path class="st5" d="M297.3,122.1l9.7,2.5c0,0,0.4,2-0.8,2c-0.7,0-9-2.7-9.2-3.3C297,122.8,297.1,122.4,297.3,122.1z"/>
		<path class="st3" d="M145.2,372.4c0.9,1.1,1.1,2.6,0.4,3.8c-0.3,0.6-0.8,1-1.4,1.3c-0.7,0.3-1.4,0.5-2.2,0.5l-5.2,0.2l-0.6-12.9
			l4.9-0.2c0.8-0.1,1.6,0.1,2.3,0.3c0.6,0.2,1.1,0.6,1.5,1.1c0.3,0.5,0.5,1.1,0.6,1.7c0.1,0.7-0.1,1.3-0.5,1.9
			c-0.4,0.5-0.9,0.9-1.5,1.2C144.1,371.5,144.8,371.8,145.2,372.4z M138.6,370.7l2.7-0.1c0.6,0,1.1-0.2,1.6-0.5
			c0.4-0.3,0.6-0.9,0.5-1.4c0-0.5-0.2-1-0.6-1.3c-0.5-0.3-1.1-0.5-1.6-0.4l-2.7,0.1L138.6,370.7z M143.4,375.7
			c0.4-0.4,0.6-0.9,0.5-1.5c0-0.6-0.3-1.1-0.7-1.5c-0.5-0.4-1.1-0.5-1.8-0.5l-2.8,0.1l0.2,4l2.9-0.1
			C142.3,376.3,142.9,376.1,143.4,375.7z"/>
		<path class="st3" d="M158.9,377.4l-3.2-5l-1.6,0.1l0.2,5.2l-2.1,0.1l-0.5-12.9l4.4-0.2c0.9-0.1,1.7,0.1,2.5,0.4
			c0.7,0.3,1.2,0.7,1.6,1.3c0.4,0.6,0.6,1.2,0.6,1.9c0,0.8-0.2,1.6-0.6,2.3c-0.5,0.7-1.3,1.3-2.2,1.5l3.4,5.2L158.9,377.4z
			 M154.1,370.7l2.3-0.1c0.7,0,1.3-0.2,1.8-0.7c0.4-0.4,0.6-1,0.5-1.6c0-0.6-0.2-1.1-0.6-1.5c-0.5-0.4-1.2-0.6-1.8-0.5l-2.3,0.1
			L154.1,370.7z"/>
		<path class="st3" d="M170.1,376.3c-1-0.5-1.9-1.3-2.5-2.3c-0.6-1-1-2.2-1-3.4c-0.1-1.2,0.2-2.4,0.8-3.4c0.5-1,1.4-1.8,2.3-2.4
			c2-1.2,4.5-1.3,6.6-0.2c1,0.5,1.9,1.3,2.4,2.3c1.2,2.1,1.3,4.6,0.2,6.8c-0.5,1-1.3,1.8-2.3,2.4c-1,0.6-2.1,0.9-3.3,0.9
			C172.3,377.1,171.2,376.8,170.1,376.3z M175.7,374.5c0.7-0.4,1.2-1,1.5-1.7c0.4-0.8,0.5-1.7,0.5-2.5c0-0.9-0.2-1.7-0.6-2.5
			c-0.4-0.7-0.9-1.2-1.6-1.6c-1.4-0.7-3.2-0.7-4.6,0.1c-0.7,0.4-1.2,1-1.5,1.7c-0.7,1.6-0.7,3.4,0.1,5c0.4,0.7,0.9,1.3,1.6,1.6
			C172.6,375.5,174.3,375.4,175.7,374.5L175.7,374.5z"/>
		<path class="st3" d="M193.5,373.8l-5.4,0.1l-0.9,2.7l-2.2,0l4.3-13l2.5-0.1l4.9,12.8l-2.2,0L193.5,373.8z M192.9,372.1l-2.2-5.9
			l-2,6L192.9,372.1z"/>
		<path class="st3" d="M204.3,375.9c-0.6-0.3-1.2-0.7-1.6-1.3c-0.4-0.6-0.6-1.2-0.6-1.9h2.3c0,0.5,0.3,1,0.7,1.4
			c0.5,0.4,1.1,0.6,1.7,0.5c0.6,0,1.2-0.2,1.7-0.5c0.4-0.3,0.6-0.8,0.6-1.4c0-0.4-0.1-0.8-0.4-1.1c-0.3-0.3-0.6-0.5-1-0.6
			c-0.5-0.2-1-0.3-1.6-0.5c-0.7-0.2-1.4-0.4-2.1-0.6c-0.5-0.2-1-0.6-1.4-1c-0.4-0.6-0.6-1.2-0.6-1.9c0-0.7,0.2-1.4,0.5-2
			c0.4-0.6,0.9-1,1.5-1.3c0.7-0.3,1.5-0.5,2.3-0.5c1.1-0.1,2.2,0.2,3.1,0.9c0.8,0.6,1.3,1.5,1.4,2.6h-2.3c0-0.5-0.3-0.9-0.7-1.2
			c-0.5-0.3-1-0.5-1.6-0.5c-0.5,0-1.1,0.2-1.5,0.5c-0.4,0.3-0.6,0.8-0.6,1.3c0,0.4,0.1,0.7,0.4,1c0.3,0.3,0.6,0.5,0.9,0.6
			c0.4,0.1,0.9,0.3,1.5,0.5c0.7,0.2,1.4,0.4,2.1,0.7c0.5,0.2,1,0.6,1.4,1.1c0.4,0.6,0.6,1.3,0.6,2c0,0.7-0.2,1.3-0.5,1.9
			c-0.4,0.6-0.9,1.1-1.5,1.4c-0.7,0.4-1.6,0.6-2.4,0.6C205.9,376.4,205.1,376.2,204.3,375.9z"/>
		<path class="st3" d="M225.6,363.2v1.7l-3.4,0v11.1h-2.1l0-11.1h-3.4v-1.7L225.6,363.2z"/>
		<path class="st3" d="M233.6,364.8v3.8h4.4v1.7h-4.4v4h5v1.8h-7.1v-13h7.1v1.8L233.6,364.8z"/>
		<path class="st3" d="M251.6,376.1l-2.9-5.2H247v5.2h-2.1l0.1-12.9h4.4c0.9,0,1.7,0.2,2.5,0.5c0.6,0.3,1.2,0.8,1.5,1.4
			c1.1,1.8,0.5,4.1-1.3,5.2c-0.4,0.2-0.8,0.4-1.2,0.5l3.2,5.4L251.6,376.1z M247,369.2h2.3c0.6,0,1.3-0.2,1.8-0.6
			c0.4-0.4,0.6-1,0.6-1.6c0-0.6-0.2-1.1-0.6-1.6c-0.5-0.4-1.1-0.6-1.8-0.6H247L247,369.2z"/>
		<path class="st3" d="M278.8,376.4l-1.6-1.6c-0.6,0.6-1.3,1-2,1.3c-0.8,0.3-1.6,0.4-2.5,0.4c-0.8,0-1.7-0.2-2.4-0.5
			c-0.7-0.3-1.2-0.8-1.6-1.4c-0.4-0.6-0.6-1.4-0.5-2.1c0-0.9,0.3-1.7,0.8-2.4c0.6-0.7,1.4-1.3,2.3-1.6c-0.3-0.4-0.6-0.8-0.7-1.2
			c-0.1-0.4-0.2-0.8-0.2-1.3c0-0.5,0.2-1.1,0.5-1.5c0.3-0.5,0.8-0.8,1.3-1c0.6-0.3,1.2-0.4,1.9-0.4c0.6,0,1.3,0.1,1.9,0.4
			c0.5,0.3,0.9,0.7,1.1,1.2c0.3,0.5,0.4,1.1,0.3,1.6h-2.1c0-0.4-0.1-0.8-0.3-1.1c-0.2-0.3-0.6-0.4-1-0.4c-0.4,0-0.7,0.1-1,0.3
			c-0.3,0.2-0.4,0.5-0.4,0.9c0,0.3,0.1,0.7,0.3,1c0.3,0.5,0.6,0.9,1,1.3l3.3,3.4l1.4-2.1l2.3,0l-1.7,2.8l-0.5,0.8l3.1,3.2
			L278.8,376.4z M275.8,373.4l-3.3-3.5c-1.5,0.6-2.2,1.4-2.2,2.6c0,0.6,0.2,1.2,0.7,1.6c0.5,0.4,1.1,0.7,1.8,0.7
			C273.9,374.8,275,374.3,275.8,373.4L275.8,373.4z"/>
		<path class="st3" d="M302.9,374.3l-5.4-0.2l-1,2.6l-2.2-0.1l5-12.8l2.4,0.1l4.3,13l-2.2-0.1L302.9,374.3z M302.4,372.6l-1.9-6
			l-2.3,6L302.4,372.6z"/>
		<path class="st3" d="M313.7,377c-0.6-0.3-1.2-0.8-1.6-1.3c-0.4-0.6-0.6-1.3-0.5-2l2.3,0.1c0,0.5,0.2,1,0.6,1.4
			c0.4,0.4,1,0.6,1.6,0.6c0.6,0.1,1.3-0.1,1.8-0.5c0.4-0.3,0.6-0.8,0.7-1.3c0-0.4-0.1-0.8-0.3-1.1c-0.2-0.3-0.5-0.5-0.9-0.7
			c-0.4-0.2-0.9-0.3-1.5-0.5c-0.7-0.2-1.4-0.4-2-0.7c-0.5-0.3-1-0.6-1.3-1.1c-0.4-0.6-0.6-1.3-0.5-2c0-0.7,0.2-1.4,0.6-1.9
			c0.4-0.6,1-1,1.6-1.2c0.7-0.3,1.5-0.4,2.3-0.4c1.1,0,2.2,0.4,3,1c0.8,0.6,1.2,1.6,1.2,2.6l-2.3-0.1c-0.1-0.5-0.3-0.9-0.7-1.2
			c-0.4-0.4-1-0.6-1.6-0.6c-0.5,0-1.1,0.1-1.5,0.4c-0.4,0.3-0.6,0.8-0.6,1.3c0,0.4,0.1,0.7,0.3,1c0.2,0.3,0.5,0.5,0.9,0.6
			c0.5,0.2,1,0.4,1.5,0.5c0.7,0.2,1.4,0.5,2.1,0.8c0.5,0.3,1,0.6,1.3,1.1c0.4,0.6,0.6,1.3,0.5,2c0,0.7-0.2,1.3-0.6,1.8
			c-0.4,0.6-0.9,1.1-1.6,1.3c-0.8,0.3-1.6,0.5-2.4,0.4C315.2,377.5,314.4,377.3,313.7,377z"/>
		<path class="st3" d="M334.5,375.5l-5.4-0.2l-1,2.6l-2.2-0.1L331,365l2.4,0.1l4.1,13.1l-2.2,0L334.5,375.5z M333.9,373.7l-1.8-6.1
			l-2.4,5.9L333.9,373.7z"/>
		<path class="st3" d="M351.6,366.8c1,0.5,1.8,1.4,2.3,2.4c0.5,1.1,0.8,2.3,0.7,3.5c0,1.2-0.4,2.4-1,3.4c-0.6,0.9-1.5,1.7-2.5,2.1
			c-1.2,0.5-2.4,0.7-3.6,0.6l-4.2-0.2l0.6-12.9l4.2,0.2C349.3,365.9,350.5,366.2,351.6,366.8z M351,375.9c0.9-0.9,1.4-2.1,1.4-3.4
			c0.1-1.3-0.2-2.5-1-3.5c-0.9-0.9-2.1-1.5-3.4-1.4l-2.1-0.1l-0.5,9.4l2.1,0.1C348.8,377.2,350.1,376.8,351,375.9z"/>
		<path class="st3" d="M362.6,378.8c-1-0.6-1.7-1.5-2.3-2.5c-0.5-1.1-0.8-2.3-0.7-3.4c0-1.2,0.4-2.3,1.1-3.3c0.6-1,1.5-1.7,2.5-2.2
			c2.1-1,4.6-0.9,6.6,0.4c1,0.6,1.7,1.5,2.2,2.5c0.5,1.1,0.8,2.3,0.7,3.4c0,1.2-0.4,2.3-1.1,3.3c-0.6,1-1.5,1.7-2.5,2.2
			C367.1,380.2,364.6,380,362.6,378.8L362.6,378.8z M368.3,377.5c0.7-0.4,1.3-0.9,1.7-1.6c0.4-0.8,0.7-1.6,0.7-2.5
			c0.1-0.9-0.1-1.7-0.4-2.5c-0.3-0.7-0.8-1.3-1.5-1.8c-0.7-0.4-1.4-0.7-2.2-0.7c-0.8-0.1-1.6,0.1-2.3,0.4c-0.7,0.3-1.3,0.9-1.7,1.6
			c-0.4,0.8-0.7,1.6-0.7,2.5c-0.1,0.9,0.1,1.7,0.4,2.5c0.3,0.7,0.8,1.3,1.5,1.8c0.7,0.4,1.4,0.7,2.2,0.7
			C366.8,378,367.6,377.9,368.3,377.5z"/>
		<path class="st7" d="M477.6,364.9c-0.4,0-0.8,0-1.3-0.1c-79.4-8.4-159.2-12.6-239-12.6c-69.7,0-139.8,3.2-208.4,9.6
			c-0.4,0-0.7,0.1-1.1,0.1c-5.8,0-10.7-4.2-11.7-9.9L4.1,280.3c-1.1-6.5,3.3-12.6,9.8-13.7c0.3,0,0.6-0.1,0.9-0.1
			c73.7-7,148.8-10.6,223.2-10.6c55.7,0,112,2,167.4,5.9c28.4,2,57.2,4.6,85.6,7.7c6.5,0.7,11.2,6.6,10.5,13.1
			c0,0.2-0.1,0.5-0.1,0.7L489.3,355C488.4,360.7,483.4,365,477.6,364.9z"/>
		<path class="st3" d="M476.4,360.4c-0.3,0-0.6,0-0.9,0c-79.5-8.4-159.5-12.6-239.4-12.6c-69.8,0-140.1,3.2-208.7,9.6
			c-0.3,0-0.5,0-0.8,0c-4,0-7.4-2.9-8-6.8l-12-71.7c-0.7-4.5,2.3-8.7,6.7-9.4c0.2,0,0.4-0.1,0.6-0.1c73.6-7,148.6-10.5,222.9-10.5
			c55.6,0,111.9,2,167.2,5.9c28.4,2,57.2,4.6,85.5,7.6c4.5,0.5,7.7,4.6,7.2,9c0,0.1,0,0.3-0.1,0.4l-12.1,71.7
			C483.8,357.5,480.4,360.4,476.4,360.4z"/>
		<path class="st8" d="M403.2,272.9c-129.5-9.2-259.5-7.6-388.7,4.6l12.1,71.8c149.7-13.8,300.3-12.8,449.7,3l12.1-71.7
			C460.2,277.5,431.8,274.9,403.2,272.9z"/>
		<polygon points="52.6,309.7 43.2,310.4 41.8,292.6 78.9,289.7 80.3,307.6 70.9,308.3 73.1,337.8 54.9,339.2 		"/>
		<path d="M101.6,336.9c-13.7,0-24.7-11.2-24.7-24.8c0-6.1,2.3-12,6.4-16.5c4.4-5,10.7-7.9,17.4-8.2c0.5,0,1,0,1.6,0
			c6,0,11.7,2.2,16.1,6.3c10.2,9.1,11.1,24.7,2,34.9c-4.4,4.9-10.6,7.9-17.1,8.3C102.7,336.9,102.2,336.9,101.6,336.9z M101.8,305.5
			h-0.4c-1.7,0.1-3.2,0.8-4.2,2.1c-1.1,1.3-1.7,3.1-1.6,4.8c0.1,1.8,0.8,3.4,2.1,4.6c1.1,1.1,2.5,1.7,4,1.6l0,0h0.4
			c1.7-0.1,3.2-0.8,4.2-2.1c2.3-2.8,2.1-6.9-0.5-9.4C104.8,306.1,103.3,305.5,101.8,305.5z"/>
		<path d="M147.3,334.7c-6,0-11.7-2.4-15.8-6.7c-4.6-4.6-7.3-10.8-7.4-17.4c-0.4-6.5,1.8-12.9,6.2-17.7c4.3-4.8,10.4-7.6,16.8-7.7
			h0.8c2.4,0,4.8,0.4,7.1,1.1l2.1,0.6l0.7,17.2l2.5-0.1l0.9,1.1c2.9,3.2,4.7,7.3,4.9,11.6c0.3,4.7-1.5,9.3-4.9,12.6
			c-3.4,3.4-8,5.4-12.8,5.5C147.9,334.7,147.6,334.7,147.3,334.7z M144,305.7c-1,1.3-1.5,3-1.3,4.6c0,1.7,0.6,3.4,1.7,4.7L144,305.7
			z M149.3,303.2c-1.5,0-2.9,0.4-4.1,1.3l8.3-0.3h-0.1c-1.2-0.6-2.5-0.9-3.9-0.9L149.3,303.2z"/>
		<path d="M181.5,333.6c-5.2,0-9.4-1.6-12.5-4.8s-4.7-7.9-4.8-13.8l-0.7-29.5l4.1-0.1c-2.9-3.7-2.3-9,1.4-11.9
			c1.4-1.1,3.2-1.8,5-1.8h0.2c2.2,0,4.3,0.8,5.8,2.3c0.5,0.4,0.9,0.9,1.2,1.4c0.3-0.5,0.7-1,1.1-1.5c1.5-1.6,3.7-2.6,5.9-2.7h0.2
			c4.7,0,8.4,3.8,8.4,8.5c0,1.8-0.6,3.5-1.6,4.9l4.1-0.1l0.7,29.9c0.1,5.5-1.5,10.1-4.8,13.6c-3.3,3.5-7.8,5.3-13.3,5.5L181.5,333.6
			z M181.5,284.5c-0.1,0.2-0.3,0.4-0.4,0.6h0.8C181.8,284.9,181.6,284.7,181.5,284.5L181.5,284.5z"/>
		
			<rect x="201.7" y="284.6" transform="matrix(0.9999 -1.169344e-02 1.169344e-02 0.9999 -3.5907 2.4869)" width="18.3" height="47.5"/>
		<path d="M229.3,332.9c-2.5,0-4.9-0.6-7.1-1.6l-1.7-0.8v-19.3l4.6,2.9c0.4,0.3,1,0.6,1.5,0.7c0.3,0,0.5,0,0.8-0.2l0,0
			c-0.4-0.9-0.8-1.8-1.3-2.6c-2-3.4-3.1-7.2-3.2-11.2c-0.1-4.6,1.8-9,5-12.2c3.1-3.3,7.5-5.2,12.1-5.2c2,0,4.1,0.3,6,1l2,0.7v18.1
			l-3.9-1.3c-0.4-0.1-0.7-0.2-1.1-0.3c-0.1,0-0.1,0-0.3,0.1c-0.1,0.1-0.2,0.3-0.2,0.4c0.1,0.6,0.4,1.2,0.7,1.7l0.9,1.6
			c1.9,3,2.9,6.5,3,10c0.1,4.7-1.8,9.2-5.2,12.4C238.6,331.1,234,333,229.3,332.9L229.3,332.9z"/>
		<path d="M254.9,333c-2.5,0-4.9-0.6-7.1-1.7l-1.7-0.8l0.2-19.3l4.5,3c0.4,0.4,1,0.6,1.5,0.7l0,0c0.3,0,0.5,0,0.8-0.2l0,0
			c-0.4-0.9-0.8-1.8-1.3-2.7c-2-3.4-3-7.3-3-11.2c0-4.6,1.9-9,5.2-12.2c3.1-3.2,7.5-5.1,12-5h0.2c2,0,4.1,0.4,6,1.1l2,0.7l-0.2,18.1
			L270,302c-0.4-0.1-0.7-0.2-1.1-0.3c-0.1,0-0.2,0.1-0.3,0.1c-0.1,0.1-0.2,0.3-0.2,0.4c0.1,0.6,0.3,1.2,0.7,1.7l0.9,1.6
			c1.8,3.1,2.8,6.5,2.9,10.1c0,4.7-1.9,9.2-5.3,12.4c-3.3,3.2-7.8,5-12.4,4.9L254.9,333z"/>
		<path d="M288.4,332.3l0.8-28.8c0-2.5,0.4-5,1.2-7.5c0.8-2.1,2-4.1,3.5-5.8c1.9-2,4.1-3.5,6.7-4.5c2.4-1,4.9-1.4,7.4-1.4h0.6
			c4.8,0,9.3,2,12.5,5.5c3.3,3.4,5.1,8.1,4.8,12.8c0,4.5-1.8,8.8-5.1,11.9c-2.8,2.7-6.9,4-12,4H308l-0.9,0l-0.4,14.3L288.4,332.3z"
			/>
		<path d="M347.6,335.5c-0.4,0-0.9,0-1.3,0c-13.7-0.6-24.2-12.1-23.6-25.8c0.3-6.6,3.2-12.9,8.2-17.3c4.6-4.2,10.6-6.5,16.8-6.4h1.4
			c6.5,0.2,12.6,3.2,16.9,8.1c9.2,10.1,8.5,25.8-1.6,35C359.7,333.2,353.7,335.4,347.6,335.5L347.6,335.5z M347.4,304.1
			c-1.5,0-3,0.6-4.1,1.7c-1.3,1.2-2,2.9-2.1,4.6c-0.1,1.8,0.5,3.5,1.6,4.8c1,1.3,2.6,2,4.2,2.1h0.3c1.5,0,3-0.6,4.1-1.7
			c2.6-2.6,2.8-6.6,0.4-9.4c-1.1-1.3-2.6-2-4.3-2.1H347.4z"/>
		<path d="M387.2,336.7c-5.3-0.3-9.5-2.2-12.4-5.6c-2.9-3.4-4.1-7.8-3.8-13.3l1.8-29.6l18.3,1.1l-1.7,27.6c-0.1,0.6,0,1.1,0,1.7
			c0.5,0.1,1,0.2,1.5,0.2l3.6,0.2l-1.1,17.9L387.2,336.7z"/>
		<path d="M407.9,338.1c-5.3-0.4-9.4-2.3-12.3-5.7s-4.1-7.9-3.7-13.3l2.1-29.6l18.2,1.3l-1.9,27.6c-0.1,0.6-0.1,1.1,0,1.7
			c0.5,0.1,1,0.2,1.5,0.2l3.6,0.3l-1.3,17.9L407.9,338.1z"/>
		<path d="M436.6,341.3c-0.8,0-1.6,0-2.4-0.1c-13.6-1.1-23.8-13.1-22.6-26.7c0.5-6.6,3.7-12.7,8.8-17c4.4-3.8,10.1-5.8,15.9-5.8
			c0.8,0,1.6,0,2.5,0.1c6.5,0.5,12.5,3.7,16.6,8.7c8.7,10.5,7.4,26-3,34.9C448,339.3,442.4,341.4,436.6,341.3z M436.4,309.9
			c-1.4,0-2.8,0.5-3.9,1.5c-1.3,1.1-2.1,2.8-2.2,4.5c-0.2,1.7,0.3,3.5,1.5,4.8c1,1.3,2.5,2.1,4.2,2.3c0.2,0,0.4,0,0.6,0l0,0
			c1.4,0,2.8-0.5,3.9-1.5c2.7-2.5,3-6.5,0.8-9.4c-1-1.3-2.5-2.1-4.2-2.2L436.4,309.9z"/>
		<path class="st3" d="M66.4,304.4l2.3,29.5l-12.3,1L54,305.4l-9.4,0.7l-0.9-11.9l31.2-2.4l0.9,11.9L66.4,304.4z"/>
		<path class="st3" d="M99.6,289.2c5.7-0.4,11.3,1.6,15.5,5.5c8.9,8.2,9.4,22,1.2,30.8c-8,8.6-21.4,9.4-30.3,1.7
			c-9-8-9.8-21.8-1.8-30.8c0,0,0,0,0.1-0.1C88.1,292.1,93.7,289.5,99.6,289.2z M99.9,301.5c-2.5,0.1-4.7,1.3-6.3,3.2
			c-3.4,4-3,9.9,0.8,13.5c3.6,3.4,9.2,3.2,12.6-0.4c0.1-0.1,0.2-0.2,0.3-0.4c3.3-4,3-9.9-0.8-13.5
			C104.8,302.2,102.4,301.3,99.9,301.5z"/>
		<path class="st3" d="M145.7,306.3l11.8-0.5c2.5,2.7,4,6.1,4.2,9.8c0.2,3.9-1.2,7.7-4,10.4c-2.9,2.9-6.7,4.5-10.8,4.6
			c-5.5,0.3-10.8-1.9-14.6-5.8c-4.1-4.1-6.4-9.6-6.5-15.4c-0.4-5.7,1.5-11.4,5.4-15.6c3.8-4.2,9.1-6.7,14.8-6.7c2.3,0,4.6,0.3,6.9,1
			l0.5,12.4c-1.7-0.8-3.5-1.2-5.4-1.2c-2.6,0-5.2,1.1-7,3c-1.8,1.9-2.7,4.5-2.5,7.1c0,2.6,1,5.1,2.8,6.9c1.9,1.7,4.5,2.5,7,2.3
			c1.8-0.1,2.7-0.7,2.7-1.8c0-0.8-0.7-1.2-1.9-1.1l-3,0.1L145.7,306.3z"/>
		<path class="st3" d="M195.3,286.6l0.7,26.9c0.1,4.7-1.2,8.6-4,11.5c-2.8,2.9-6.5,4.4-11.2,4.5c-4.7,0.1-8.3-1.2-10.9-3.9
			c-2.6-2.7-3.9-6.6-4-11.8l-0.6-26.5l12.4-0.3l0.6,26.5c0.1,2.5,1,3.8,2.8,3.7c1.8,0,2.6-1.3,2.5-3.9l-0.6-26.5L195.3,286.6z
			 M172.8,273.6c1.5-0.1,2.9,0.5,3.9,1.5c2.2,2.1,2.3,5.5,0.2,7.7c-2.1,2.2-5.5,2.3-7.7,0.2l0,0c-1.1-1-1.7-2.4-1.7-3.8
			C167.4,276.2,169.7,273.7,172.8,273.6L172.8,273.6z M187.1,273.3c3-0.1,5.5,2.3,5.5,5.3s-2.3,5.5-5.3,5.5s-5.5-2.3-5.5-5.3
			c0-1.4,0.5-2.8,1.5-3.9C184.2,273.9,185.6,273.3,187.1,273.3z"/>
		<path class="st3" d="M215.5,286.3l0.5,41.5l-12.4,0.1l-0.5-41.5L215.5,286.3z"/>
		<path class="st3" d="M243.7,286.1v11.8c-0.7-0.3-1.4-0.4-2.1-0.5c-0.9,0-1.8,0.4-2.4,1c-0.6,0.7-1,1.6-1,2.5
			c0.1,1.1,0.5,2.2,1.1,3.2l0.9,1.6c1.6,2.6,2.5,5.5,2.6,8.6c0.1,3.9-1.5,7.6-4.3,10.3c-2.8,2.8-6.6,4.3-10.5,4.2
			c-2,0-4.1-0.5-5.9-1.4v-12c0.9,0.7,2,1,3.1,1.1c1,0,1.9-0.3,2.7-0.9c0.7-0.6,1.1-1.4,1.1-2.3c0-0.6-0.6-1.9-1.8-4
			c-1.8-2.9-2.7-6.3-2.8-9.7c-0.1-3.8,1.4-7.5,4.2-10.1c2.6-2.7,6.2-4.3,10-4.3C240.3,285.2,242,285.5,243.7,286.1z"/>
		<path class="st3" d="M269.8,286.3l-0.1,11.8c-0.7-0.3-1.4-0.4-2.1-0.5c-0.9,0-1.8,0.3-2.4,1c-0.7,0.7-1,1.6-1,2.5
			c0.1,1.1,0.5,2.2,1.1,3.2l0.9,1.7c1.6,2.6,2.4,5.6,2.5,8.6c0,3.9-1.6,7.6-4.4,10.2c-2.8,2.7-6.6,4.2-10.6,4.1
			c-2,0-4.1-0.5-5.9-1.4l0.1-12c0.9,0.7,2,1.1,3.1,1.2c1,0,1.9-0.3,2.7-0.9c0.7-0.6,1.1-1.4,1.1-2.3c0-0.6-0.6-1.9-1.7-4
			c-1.7-3-2.6-6.3-2.7-9.7c0-3.8,1.5-7.4,4.3-10.1c2.6-2.7,6.3-4.2,10-4.2C266.5,285.4,268.2,285.7,269.8,286.3z"/>
		<path class="st3" d="M304.9,314.4l0.3-10.9c2.5,0.1,3.8-0.8,3.8-2.7c0.1-1.8-0.9-2.7-2.8-2.7c-1.9-0.1-2.9,1.1-3,3.5l-0.8,27.1
			l-12.4-0.4l0.8-25.9c0-2.2,0.3-4.4,1-6.6c0.6-1.8,1.6-3.4,2.9-4.7c1.6-1.6,3.5-2.9,5.6-3.7c2.2-0.9,4.5-1.3,6.8-1.2
			c4,0,7.8,1.7,10.5,4.6c2.8,2.9,4.2,6.7,4,10.7c0,3.7-1.5,7.3-4.2,9.8c-2.4,2.3-6,3.3-10.7,3.2L304.9,314.4z"/>
		<path class="st3" d="M347.5,287.8c5.7,0.2,11.1,2.8,14.8,7.1c8.1,8.9,7.4,22.7-1.6,30.8c-8.9,8.1-22.7,7.4-30.8-1.6
			c-3.8-4.3-5.9-9.9-5.6-15.6c0.2-5.8,2.8-11.3,7.1-15.2C335.8,289.4,341.6,287.4,347.5,287.8z M346.5,300c-2.5-0.1-4.9,0.8-6.6,2.5
			c-3.8,3.6-4,9.5-0.6,13.5c3.2,3.7,8.8,4.2,12.6,1c0.1-0.1,0.3-0.2,0.4-0.4c3.7-3.6,4-9.5,0.6-13.5
			C351.3,301.2,349,300.1,346.5,300z"/>
		<path class="st3" d="M374.3,290.2l12.4,0.8l-1.5,24.6c-0.1,1.9,0.1,3.2,0.7,3.9c0.6,0.7,1.8,1.1,3.6,1.2h0.6l-0.7,12l-3.3-0.2
			c-4.5-0.3-7.9-1.8-10.3-4.6c-2.4-2.8-3.4-6.5-3.1-11.2L374.3,290.2z"/>
		<path class="st3" d="M395.4,291.6l12.4,0.9l-1.8,24.6c-0.1,1.9,0.1,3.2,0.7,3.9s1.8,1.1,3.6,1.2l0.6,0l-0.9,12l-3.3-0.2
			c-4.5-0.3-7.9-1.9-10.2-4.7c-2.3-2.8-3.3-6.5-3-11.2L395.4,291.6z"/>
		<path class="st3" d="M437.3,293.7c5.7,0.4,11,3.2,14.5,7.7c7.7,9.2,6.5,23-2.8,30.7s-23,6.5-30.7-2.8c-3.7-4.4-5.5-10.1-5-15.8
			c0.4-5.8,3.2-11.2,7.7-14.9C425.6,294.9,431.4,293.1,437.3,293.7z M435.9,305.9c-2.4-0.2-4.9,0.6-6.7,2.2
			c-3.9,3.5-4.4,9.4-1.1,13.5c3.1,3.9,8.7,4.5,12.5,1.4c0.1-0.1,0.3-0.2,0.4-0.3c3.9-3.5,4.4-9.4,1.1-13.5
			C440.6,307.3,438.4,306,435.9,305.9L435.9,305.9z"/>
	</g>
</g>
</svg>
