<?xml version="1.0" encoding="utf-8"?>
<!-- Generator: Adobe Illustrator 26.0.1, SVG Export Plug-In . SVG Version: 6.00 Build 0)  -->
<svg version="1.1" id="Capa_1" xmlns="http://www.w3.org/2000/svg" xmlns:xlink="http://www.w3.org/1999/xlink" x="0px" y="0px"
	 viewBox="0 0 1549.3 736.9" style="enable-background:new 0 0 1549.3 736.9;" xml:space="preserve">
<style type="text/css">
	.st0{fill:#FFFFFF;}
	.st1{fill:#FFC100;}
	.st2{fill:#FF0000;}
</style>
<path class="st0" d="M150.1,10.8c0,2.1-0.5,4.1-1.6,5.8c-0.8,1.6-3.4,5.9-7.8,12.8c-3.3,5.2-8.3,13.4-15,24.4c3.7,1.4,5.4,3.8,5,7.2
	c1.8,3.6,2.7,5.7,2.7,6.3c0.1,1.9-0.9,3.7-2.6,4.6c-1.6,0.9-3.4,1.8-5.1,2.5c-0.2,0.1-0.9,0.6-2.2,1.4c-0.8,0.6-1.7,1.1-2.6,1.3
	c-0.3,0-0.4-0.2-0.4-0.8c1.4-1.2,2.7-2.4,3.9-3.7c2.6-2.6,3.9-5.1,3.9-7.7c0-2.7-1.8-4.7-5.4-6c-6.7,12.2-11,22.5-12.9,30.9
	c-0.5,1.9-0.7,3.9-0.6,5.8c0.2,2.6,1.2,3.9,3,3.9c3.3,0,6.8-2.7,10.5-8.1c0.2-0.4,0.6-0.8,1.1-1c0.1,0.2,0.2,0.5,0.3,0.8
	c-0.3,1.1-0.8,2.2-1.3,3.3c-0.9,2-1.7,4-2.6,6.2c-1.4,2.7-2.9,4-4.5,4c-2.2,0-5.5-1.7-9.8-5c-1.5-1.1-2.4-3-2.7-5.6
	c-0.6-7.3,2.9-19.6,10.7-36.8c-1.1-0.1-2.2-0.2-3.3-0.2c-5.8,0-11.7,0.6-17.4,1.8c-6.6,8.9-13.3,17.8-20,26.7
	c-9.1,12-17.2,21-24.2,27c-9.6,8.2-18.7,12.3-27.1,12.3c-5.1,0.1-10.1-1.2-14.5-3.7c-5-3.1-7.5-7.2-7.5-12.2c0-0.7,0.3-1,0.9-1
	c0.6,0,0.9,0.4,0.9,1.2c0,5.7,4.2,8.5,12.6,8.6c2.1,0,4.2-0.1,6.3-0.3c10-1.4,19.9-6.7,29.7-16c2.9-2.6,10.5-11.2,22.8-25.9
	c3.7-4.4,8.1-9.4,13.2-15c-9.2,2.7-18.3,5.4-27.5,8.1c-12.5,3.7-21.4,5.6-26.7,5.6c-2.6,0.1-5.1-1.3-6.5-3.6
	c-1.3-2.3-1.9-4.9-1.8-7.5c0-3.6,4.6-7.1,13.8-10.8c7.9-3,14.2-4.5,18.8-4.5c1.2,0,1.8,0.2,1.8,0.6c0,0.3-0.1,0.5-0.3,0.8
	C39,55.8,29.4,60.1,29.4,62.4c0,1.3,1.9,2,5.7,1.9c7,0,16.5-1.4,28.7-4.2c16.6-3.8,26.2-5.9,28.8-6.3l6.6-7.3
	c13-14.3,23-25.1,30-32.5c1.7-2.1,4.4-5.3,7.9-9.6c0.1,0.1,2.8,0.5,8,1.3C148.2,6.2,149.8,7.9,150.1,10.8z M131.2,21.2
	c0-0.4-0.1-0.6-0.3-0.6c-2.5,0-13.3,10.8-32.4,32.4c4.4-0.6,8.8-0.9,13.2-0.9h4.7c1.6-3.4,6.1-12.4,13.5-27
	C130.9,23.1,131.4,21.9,131.2,21.2z"/>
<path class="st0" d="M166.5,61.2c0.2,0.2,0.1,0.6-0.1,0.8c-0.1,0-0.1,0.1-0.2,0.1c-0.3,0.3-0.7,0.3-1.2,0h-1.5
	c-4,0.2-8,1.3-11.5,3.2c-4.9,2.3-7.2,4.7-6.8,7.2c0.2,1.4,1.2,2.7,3.1,4c2.2,1.5,4.2,3.2,6,5.1c1.7,1.8,2.8,4.2,2.9,6.8
	c0,3.3-1.6,6.1-4.8,8.2c-2.7,2-6,3-9.3,3c-6.5,0-9.8-2.4-9.8-7.2c0-1,0.2-1.9,0.4-2.8c0.6-2,1.4-3,2.4-3c0.2,0,0.3,0.2,0.3,0.6
	c-0.3,1.5,0.3,3,1.6,3.8c1.3,1,2.8,1.5,4.4,1.5c2,0,4-0.8,5.5-2.2c1.5-1.2,2.4-3,2.5-5c0-1.1-0.3-2.1-1-3c-2.7-2.4-5.2-5.1-7.4-8.1
	l-0.1,0.3c-1.3,2.1-3.1,4.8-5.2,8.2c-1.8,2.5-5,6.7-9.5,12.4c-0.5,0.7-1.2,1.1-2,1.2c-0.6,0-0.9-0.3-0.9-1.1c0-0.4,0.2-0.9,0.4-1.2
	c3.8-4.7,7.5-9.6,11-14.6c2.9-4.2,4.7-7.5,5.4-9.8c-0.1-4.5,2.2-8.3,6.9-11.4c3.9-2.8,8.6-4.1,13.4-3.8
	C162.2,54.6,163.9,56.8,166.5,61.2z"/>
<path class="st0" d="M210,76.8c-1,2-2.3,4-3.6,5.8c-8.1,11.9-13.9,17.5-17.2,16.8c-4.2-0.9-6.3-3-6.3-6.4c0-0.7,0.1-1.4,0.1-2.1
	c0.7-2.6,1.5-5.1,2.4-7.7c-2.7,3.7-5.6,7.3-8.7,10.7c-4.6,4.9-7.7,7.3-9.3,7.3c-2.3,0-4.3-1.3-5.4-3.2c-1.1-1.7-1.6-3.6-1.6-5.6
	c0-6.8,3.8-14,11.4-21.5s14.6-11.3,21-11.2c2.2,0,4.4,1.5,6.8,4.7c0.7,0.8,1.1,1.8,1.1,2.8c0,0.7-0.4,1.3-1.1,1.7
	c-0.7-1.1-1.9-1.8-3.1-2.1c-3.2-0.7-8.5,2-15.8,8.2c-7.3,6.1-12,12-14.1,17.6c-0.5,1.2-0.8,2.6-0.9,3.9c0,1.8,1.1,1.9,3.3,0.3
	c4.9-3.8,9.4-8,13.3-12.8c4.7-5.4,7.4-9.5,8.2-12.3c0.6-0.8,1.7-1.2,3.4-1.2c1.4,0,2.8,0.4,4.1,1c1.4,0.7,1.9,1.4,1.5,2.2
	c-5.1,7.6-8.2,13.6-9.3,17.8c-0.2,0.5-0.3,1.1-0.3,1.7c0,1.1,0.4,1.6,1.4,1.7c1.1-0.1,2.1-0.6,2.9-1.4c1-0.9,5.7-6.6,14-17
	c0.8-1,1.4-1.5,1.8-1.5C210.5,74.8,210.6,75.5,210,76.8z"/>
<path class="st0" d="M311.2,4.3c0,0.7-0.4,1-1.2,1c-0.3,0-0.6-0.1-0.9-0.3c-2.5-1.6-5.4-2.4-8.4-2.4c-7.6,0-17.4,6.8-29.5,20.4
	c-10.1,11.5-18.9,24.1-26.2,37.5c-7.5,13.7-11.2,24.2-11.2,31.5c0,3.9,1.1,5.8,3.3,5.8c1.6-0.1,3.1-0.9,4.2-2.1
	c4-3.4,8.8-8.9,14.2-16.7c1.5-2,2.5-3,3-3c0.2,0,0.3,0.2,0.3,0.4c0,1.8-2,5.4-6,10.8c-2.5,3.4-5.2,6.6-8.1,9.6
	c-2.6,2.6-5.3,3.9-8.2,3.9c-2.4,0-4.7-1.1-6.2-2.9c-1.7-2.2-2.6-5-2.5-7.9c0-2.1,0.2-4.1,0.6-6.2c-7.2,11.3-13.3,17-18.1,17
	c-2.5-0.1-4.8-1.2-6.4-3.1c-2-2.1-2.9-4-2.9-5.7c0-6.7,3.8-13.9,11.4-21.4c7.6-7.5,14.6-11.2,21-11.1c1.2,0,2.3,0.4,3.1,1.2
	c8.5-17.9,17.4-32.3,26.7-43.2c9.8-11.5,21.6-17.3,35.5-17.3c2.3,0.1,4.6,0.5,6.9,1C309.3,2.3,311.2,3.2,311.2,4.3z M233.7,66.9
	c-1.6,0.4-3.1,1-4.5,1.8c-4.9,2.8-9.2,6.3-13,10.5c-4.6,4.8-7.7,9.2-9.2,13.3c-0.3,0.7-0.4,1.5-0.5,2.2c0,2.1,0.8,3.2,2.4,3.2
	c3.7,0,10.8-7.3,21.3-21.9C231.1,73.2,232.3,70.2,233.7,66.9z"/>
<path class="st0" d="M281.8,61.3c2.7,0.8,4,2.5,4,4.9c0,3-1.6,5.8-4.8,8.4c-1.2,1-5.3,3.7-12.3,8c-5,3-7.8,5.4-8.5,7.3
	c-0.3,0.7-0.7,1-1.2,0.9c-0.4-0.2-0.5-0.7-0.3-1.3c1.2-3.4,4.2-6.9,9.1-10.7c6.3-4.8,10-7.7,10.9-8.8c1-1.1,1.7-2.4,1.8-3.9
	c0.2-0.9-0.5-1.8-1.4-2c-0.2,0-0.4,0-0.6,0c-1.4,0.1-2.8,0.6-3.9,1.5c-9.7,6.5-15.8,14.7-18.4,24.5c-0.3,1.1-0.4,2.2-0.5,3.3
	c0,3.4,1.7,5.1,5.2,5.1c2.5-0.1,4.9-0.8,7-2.1c3.2-2,6-4.5,8.2-7.5c2.3-2.9,3.9-4.3,4.8-4.3c0.2,0,0.3,0.2,0.3,0.4
	c0,1.3-1.5,3.8-4.5,7.4c-5.4,6.6-11.3,9.5-17.7,8.8c-5.7-0.6-9-3.8-9.9-9.7c-0.9-5.9,1.8-12.8,8-20.8c6.2-8,12.1-11.9,17.9-11.8
	C275.5,59.5,277.7,60.2,281.8,61.3z"/>
<path class="st0" d="M316.5,82.7c-5,7.3-7.7,11.2-8.2,11.8c-3.9,4.7-7.5,7-10.8,7c-2.6,0-4.4-0.8-5.5-2.6c-1.1-1.8-1.5-3.8-1.1-5.8
	c0.5-3.3,2.8-7.7,6.8-13.1c1.6-2.1,2.4-3.4,2.4-4c0.1-0.4-0.2-0.7-0.6-0.8c-0.1,0-0.1,0-0.2,0c-1.6,1.2-3.6,1.9-5.7,1.8
	c-2.3,0-3.7-0.9-4.2-2.7c-1.3,2.1-3.1,4.8-5.4,8.2c-1.7,2.5-4.8,6.6-9.3,12.3c-0.5,0.7-1.2,1.1-2,1.2c-0.6,0-0.9-0.4-0.9-1.1
	c0-0.4,0.2-0.9,0.5-1.2c3.8-4.7,7.5-9.6,11-14.6c3.1-4.8,5.5-9.9,7.4-15.3c1.3-3.2,2.3-6.6,3-10c4.7,1.9,7,4.3,7,7.2
	c0,3.2-2.9,6.9-8.7,11.3c0.6,1.1,1.7,1.9,3,1.9c1.8,0,4.2-1.4,7.2-4.3c1.2-1.8,3.1-2.9,5.2-2.9c2.8,0,4.2,1.2,4.2,3.4
	c0,0.5-0.2,1.1-0.5,1.5c-9.3,12.8-14,21.1-14,24.9c0,0.8,0.3,1.2,0.9,1.2c1.4-0.1,2.7-0.8,3.6-1.8c3.1-2.8,7.8-8.5,14.2-17.2
	c1.4-2,2.4-3,2.9-3c0.2,0,0.3,0.2,0.3,0.4C319,78,318.2,80,316.5,82.7z"/>
<path class="st0" d="M349.5,64.5c1.3,2.1,2,4.5,2,7c0,8.3-4.2,16.2-12.8,23.6c-5.3,4.7-10.2,6.9-14.7,6.8c-3-0.1-5.7-1.5-7.6-3.8
	c-2.1-2.5-3.1-5.6-3-8.8c0.1-3.4,0.8-6.7,2.2-9.8c2.4-5.5,6.1-10.4,10.6-14.3c4.9-4.4,9.5-6.5,13.8-6.5c0.6,0,1.6,0.6,3,1.9
	c1.1,1.1,2.4,1.8,3.9,2.2C347.8,62.6,348.7,63.2,349.5,64.5z M343.2,65.4c-1.9,0.1-3.8,0.8-5.2,1.9c-3,2.1-6.6,5.9-10.8,11.6
	c-4.9,6.6-7.4,11.7-7.4,15.2c0,3.2,1.8,4.8,5.2,4.8c4.7,0,9.8-3.5,15.3-10.3c5.2-6.6,7.8-12.4,7.8-17.4
	C348.1,67.3,346.5,65.4,343.2,65.4z"/>
<path class="st0" d="M488.5,126.8c0.1-0.2,0.3-0.3,0.5-0.3c0.7,0,0.4,1-0.8,2.9c-0.6,1.1-1.4,2.1-2.2,3c-1.2,1.5-2.6,2.8-4.2,3.8
	c-2.5,1.6-5.4,2.6-8.4,2.7c-1.2,0.1-2.3-0.2-3.3-0.9c-7.4,0-14-3.1-20-9.4c-6.2-6.6-11.1-16.1-14.9-28.5c-7.2,3.2-14.9,4.9-22.8,4.9
	c-5.7,0.1-11.3-1.8-15.8-5.5c-4.5-3.6-6.5-8-6-13c0.2-1.7,0.5-3.4,1-5c-2.2,0.3-4.5,0.4-6.8,0.4c-5.3,0-8-2.3-8-7.1
	c0-3.4,1.9-6.2,5.5-8.6c0.3-0.3,0.8-0.4,1.2-0.4c0.4,0,0.5,0.2,0.3,0.6c-0.2,0.5-0.6,0.9-1,1.2c-2.1,1.1-3.4,3.2-3.5,5.6
	c0,1.5,0.6,2.9,1.6,3.9c1.1,1.1,2.5,1.7,4,1.7c2.6,0,5.2-0.1,7.8-0.4c4.5-10.7,16.8-22.6,36.9-35.8c2.4-19.4,8.9-29.2,19.5-29.4
	c0.9,0,1.4,0.3,1.4,0.8c0,0.5-0.6,0.8-1.8,0.9c-6.4,0.2-10.1,7.8-11,22.7l7.8-5c7.9-5.2,11.9-8.6,11.9-10.4c0-1.2-1.5-1.8-4.4-1.8
	c-1.3,0-2-0.4-2-1c0-0.4,0.5-0.6,1.4-0.6c6.3,0,9.4,1.3,9.3,3.9c-0.1,2.6-0.8,4.6-2.1,5.9c-1,0.9-4.4,3.3-10.2,7.1
	c-4.6,3-8.6,5.7-12,8.1c0,6.2,0.3,13,1,20.3c9-3.2,15.6-4.8,19.8-4.8c5.2,0,7.6,2,7.2,6c-1.3,11.5-8.5,21.4-21.5,29.8
	c7,27.2,15.7,40.8,26.1,40.8c3.9-0.1,7.6-1.3,10.8-3.6C483.6,130.3,486,128.6,488.5,126.8z M433.8,94.5c-1.5-5.6-2.6-11.3-3.5-17.1
	c-0.3-2.2-0.5-4.7-0.7-7.5c-3.9,1.5-8.9,3.4-15,5.6c-3.8,1.3-7,2.3-9.6,3c-2.5,4.8-3.8,9.1-3.8,13c0,6.9,3.6,10.3,10.6,10.3
	C417.8,101.8,425.1,99.4,433.8,94.5z M429.3,67.3c-0.3-5.7-0.3-11.5,0-17.2c-9.8,8.1-17.3,16.5-22.5,25.2
	C411.4,74,418.9,71.3,429.3,67.3z M461.2,65.4c0.2-2.1-0.8-3.2-3-3.2c-3.8,0-10.2,1.5-19.2,4.3c0.4,4.1,0.9,7.5,1.4,10.2
	c0.7,4.1,1.5,8.1,2.4,11.8C454.4,80.2,460.5,72.5,461.2,65.4L461.2,65.4z"/>
<path class="st0" d="M588.1,27c1.7,2.4,2.6,5.3,2.7,8.2c0,5.8-3.9,10.6-11.8,14.5c-6,3.1-12.6,4.9-19.3,5.4l-8.2,1.2
	c-4.6,0.7-6.9,1.2-6.9,1.5c0.2,8.2,1.4,16.4,3.6,24.3c3.2,12.2,7.3,18.3,12.5,18.3c2.4,0,5-1.6,7.8-4.7c1.3-1.4,5-6.2,11-14.4
	c1.8-2.5,3-3.8,3.8-3.8c0.2,0,0.3,0.2,0.3,0.6c0,2.3-3.5,8.4-10.7,18.2c-5.3,7.2-10.8,10.7-16.5,10.3c-9.7-0.4-17.5-16.1-23.4-47
	c0.4-0.2,0.8-0.4,1.2-0.6c-0.2-0.2-0.3-0.4-0.3-0.6c0-0.9,1.7-1.6,5-2.2c11.1-1.9,19.4-4,24.9-6.3c8.2-3.2,15.1-9,19.7-16.5
	c1.1-1.7,1.8-3.7,1.8-5.7c0-5.7-6.6-9-19.7-10c-1.3,1-2.5,2.1-3.6,3.3c-28.4,29.1-42.6,50.2-42.6,63.4c0,4.6,1.7,6.9,5.1,6.9v1.2
	c-0.6,0.3-1.3,0.5-2,0.4c-2.3,0-4.3-1.4-6.2-4.2c-1.5-2.2-2.3-4.8-2.4-7.5c0-7.4,4.5-18.2,13.7-32.4c7.2-11.2,15.3-21.7,24.3-31.5
	c-7.4,0.1-17.1,0.9-29,2.2c-8.8,1-17.5,3.3-25.6,6.8c-8.6,3.8-12.9,7.4-12.9,10.8c0,1.3,1,2,2.9,2c0.5,0.4,0.7,0.8,0.5,1
	c-0.2,0.2-0.8,0.2-1.6,0.2c-1.8-0.2-4-1.5-6.5-4c-2.6-2.5-3.8-4.6-3.7-6.4c0-3.8,4.4-7.2,13-10.3c7.7-2.9,17.1-5,28.2-6.3
	c13.2-1.5,26.5-1.9,39.8-1l0.5-0.4c-0.5-0.6-0.9-1.3-0.9-2.1c0-1.6,1.3-3.4,4-5.5c2-1.5,4-2.9,6.2-4.3c2.1,0.1,4.1,0.6,6,1.5
	c2.6,1.2,3.9,2.5,3.9,4c0,0.6-0.1,1.1-0.3,1.7c-0.5,1.4-2.6,3.7-6.3,6.9c4.6,0.9,9.1,2.4,13.2,4.6c2.8,1.6,4.4,3.4,4.7,5.3
	C587.6,25,587.8,26,588.1,27z"/>
<path class="st0" d="M610.9,61.3c2.7,0.8,4,2.5,4,4.9c0,3-1.6,5.8-4.8,8.4c-1.2,1-5.3,3.7-12.3,8c-5,3-7.8,5.4-8.5,7.3
	c-0.3,0.7-0.7,1-1.2,0.9c-0.4-0.2-0.5-0.7-0.3-1.3c1.2-3.4,4.2-6.9,9.1-10.7c6.3-4.8,10-7.7,10.9-8.8c1-1.1,1.7-2.4,1.8-3.9
	c0.2-0.9-0.5-1.8-1.4-2c-0.2,0-0.4,0-0.6,0c-1.4,0.1-2.8,0.6-3.9,1.5c-9.8,6.5-15.9,14.7-18.4,24.4c-0.3,1.1-0.4,2.2-0.5,3.3
	c0,3.4,1.8,5.1,5.2,5.1c2.5-0.1,4.9-0.8,7-2.1c3.2-2,6-4.5,8.2-7.5c2.3-2.9,3.9-4.3,4.8-4.3c0.2,0,0.3,0.2,0.3,0.4
	c0,1.3-1.5,3.8-4.5,7.4c-5.4,6.6-11.3,9.5-17.7,8.8c-5.7-0.6-9-3.8-9.9-9.7c-0.9-5.9,1.8-12.8,8-20.8c6.2-8,12.1-11.9,17.8-11.8
	C604.6,59.5,606.8,60.2,610.9,61.3z"/>
<path class="st0" d="M643,61.2c0.2,0.2,0.1,0.6-0.1,0.8c-0.1,0-0.1,0.1-0.2,0.1c-0.3,0.3-0.7,0.3-1.2,0H640c-4,0.2-8,1.2-11.5,3.2
	c-4.9,2.3-7.1,4.7-6.8,7.2c0.2,1.4,1.2,2.7,3.2,4c2.2,1.5,4.2,3.2,6,5.1c1.7,1.8,2.8,4.2,2.8,6.8c0,3.3-1.6,6.1-4.8,8.2
	c-2.7,2-6,3-9.3,3c-6.5,0-9.8-2.4-9.8-7.2c0-1,0.2-1.9,0.5-2.8c0.6-2,1.4-3,2.4-3c0.2,0,0.3,0.2,0.3,0.6c-0.3,1.5,0.3,3,1.6,3.8
	c1.3,1,2.8,1.5,4.4,1.6c2,0,4-0.8,5.5-2.2c1.5-1.2,2.4-3,2.5-5c0-1.1-0.3-2.1-1-3c-2.7-2.4-5.2-5.1-7.3-8.1l-0.2,0.3
	c-1.3,2.1-3.1,4.8-5.2,8.2c-1.8,2.5-5,6.6-9.5,12.3c-0.5,0.7-1.2,1.1-2,1.2c-0.6,0-0.9-0.4-0.9-1.1c0-0.4,0.2-0.9,0.5-1.2
	c3.8-4.7,7.5-9.6,11-14.6c2.9-4.2,4.7-7.5,5.4-9.8c-0.1-4.5,2.2-8.3,6.9-11.4c3.9-2.8,8.6-4.1,13.3-3.8
	C638.7,54.5,640.4,56.8,643,61.2z"/>
<path class="st0" d="M694.9,50c1.7,0,2.5,0.3,2.5,1c0,0.6-0.4,1.2-1.3,1.7c-0.8,0.5-1.7,0.8-2.6,0.8c-7.3,0-15.7,0.4-25,1
	c-2.9,0.9-7,6.1-12.1,15.6c-4.6,8.4-7.5,14.7-8.5,18.8c-0.4,1.5-0.6,3-0.6,4.5c0,2.5,0.8,3.8,2.5,3.8c1.3-0.1,2.6-0.6,3.6-1.5
	c4.3-3.7,9.1-9.2,14.4-16.5c1.4-2,2.3-3,2.8-3c0.2,0,0.3,0.2,0.3,0.4c0,1.3-0.9,3.3-2.7,6c-3.5,5.2-7.3,10.3-11.4,15.2
	c-2.2,2.4-5.3,3.8-8.5,3.9c-5.5,0-8.3-3.4-8.4-10.2c-0.1-4.2,1.9-10.7,6-19.3c2.9-6.4,6.4-12.7,10.2-18.6h-6.3
	c-1.5,0-2.2-0.5-2.2-1.6c0-1.3,0.7-2,2-2h8.8c1.7-2.5,3.2-5.2,4.6-7.9c2.2-4.1,3.3-6.4,3.3-6.8c0-0.4-0.2-0.9-0.5-1.1
	c-0.4-0.2-0.7-0.5-1-0.8c-0.3-0.2-0.4-0.5-0.5-0.9c0-1.1,0.7-1.6,2-1.5c1.1,0.1,3.3,1,6.8,2.7c1.8,0.9,3.6,1.8,5.4,2.5
	c-2.5,3.7-5.6,8.3-9.3,13.8L694.9,50L694.9,50z"/>
<path class="st0" d="M712.5,76.8c-1,2-2.2,4-3.6,5.8c-8.1,11.9-13.9,17.5-17.2,16.8c-4.2-0.9-6.3-3-6.3-6.4c0-0.7,0.1-1.4,0.2-2.1
	c0.7-2.6,1.5-5.1,2.4-7.7c-2.7,3.7-5.6,7.3-8.7,10.7c-4.6,4.9-7.7,7.3-9.3,7.3c-2.3,0-4.3-1.3-5.4-3.3c-1.1-1.7-1.6-3.6-1.7-5.6
	c0-6.8,3.8-14,11.4-21.5c7.6-7.5,14.6-11.3,21-11.2c2.2,0,4.5,1.5,6.8,4.7c0.7,0.8,1,1.8,1,2.8c0,0.7-0.4,1.3-1,1.7
	c-0.7-1.1-1.9-1.8-3.2-2.1c-3.2-0.7-8.5,2-15.8,8.2c-7.3,6.1-12,12-14.1,17.6c-0.5,1.2-0.8,2.6-0.9,3.9c0,1.8,1.1,1.9,3.3,0.3
	c4.9-3.8,9.4-8,13.3-12.8c4.7-5.4,7.4-9.5,8.2-12.3c0.6-0.8,1.8-1.2,3.5-1.2c1.4,0,2.8,0.4,4,1c1.4,0.7,1.9,1.4,1.5,2.2
	c-5.1,7.6-8.2,13.6-9.3,17.8c-0.2,0.5-0.3,1.1-0.3,1.7c0,1.1,0.5,1.6,1.3,1.7c1.1-0.1,2.1-0.6,2.8-1.4c1-0.9,5.7-6.6,14-17
	c0.8-1,1.4-1.5,1.8-1.5C713,74.9,713.1,75.5,712.5,76.8z"/>
<path class="st0" d="M753.6,76.5c1.6-1.9,2.6-2.8,2.8-2.8c0.1,0,0.1,0,0.2,0.1c0,0,0,0,0,0c0,1.5-1.5,4.5-4.7,9
	c-1.3,2.1-3.5,5.2-6.6,9.3c-4,4.8-7,7.2-9.2,7.2c-3,0-5.3-0.8-6.8-2.2c-1.5-1.4-2.2-3.4-1.9-5.4c0.1-1.4,1.4-5.3,3.9-11.7
	c-2.9,3.7-5.8,7.4-8.7,11c-4.9,6.1-8.3,9.2-10.3,9.2c-5.4,0-7.7-2-7-6c0.4-2.5,2.4-7.8,5.8-15.8c-0.4-0.7-0.4-1.6,0-2.2
	c6.2-9.2,10.3-13.8,12.2-13.8s4.2,1.4,6.9,4.2c-3.9,4.9-6.7,8.7-8.5,11.2c-2.7,3.6-4.9,7.5-6.6,11.7c-0.4,1-0.7,2.1-0.8,3.2
	c0,1.8,1.3,1.3,4-1.3c4.1-4.5,7.9-9.2,11.5-14.1c5.9-8,9.2-12.5,10-13.3c0.9-1.2,2.2-2,3.8-2.1c1.9,0,4,1.4,6.3,4.1
	c-9.6,12.3-14.4,21.5-14.4,27.6c0,1.6,0.4,2.4,1.2,2.4c0.6,0,1.5-0.5,2.8-1.7c2.6-2.6,5.1-5.4,7.3-8.4
	C749.1,82.7,751.4,79.6,753.6,76.5z"/>
<path class="st0" d="M784.6,82.7c-5,7.3-7.7,11.2-8.2,11.8c-3.9,4.7-7.5,7-10.8,7c-2.6,0-4.4-0.8-5.5-2.6c-1-1.7-1.4-3.8-1.1-5.8
	c0.5-3.3,2.8-7.7,6.8-13.1c1.6-2.1,2.4-3.4,2.4-4c0.1-0.4-0.2-0.7-0.6-0.8c-0.1,0-0.1,0-0.2,0c-1.6,1.2-3.6,1.9-5.7,1.8
	c-2.3,0-3.7-0.9-4.2-2.7c-1.3,2.1-3.1,4.9-5.4,8.2c-1.7,2.5-4.8,6.6-9.3,12.3c-0.5,0.7-1.2,1.1-2,1.2c-0.6,0-0.9-0.3-0.9-1.1
	c0-0.4,0.2-0.9,0.5-1.2c3.8-4.7,7.5-9.6,11-14.6c3.1-4.8,5.5-9.9,7.3-15.3c1.3-3.2,2.3-6.6,3-10c4.7,1.9,7.1,4.3,7,7.2
	c0,3.2-2.9,6.9-8.7,11.3c0.6,1.1,1.7,1.9,3,1.9c1.8,0,4.2-1.4,7.2-4.3c1.2-1.8,3.1-2.9,5.2-2.9c2.8,0,4.2,1.1,4.2,3.4
	c0,0.5-0.2,1.1-0.5,1.5c-9.3,12.8-14,21.1-14,24.9c0,0.8,0.3,1.2,0.9,1.2c1.4-0.1,2.7-0.8,3.6-1.8c3.1-2.8,7.8-8.5,14.2-17.2
	c1.4-2,2.3-3,2.8-3c0.2,0,0.3,0.2,0.3,0.4C787.2,78,786.3,80,784.6,82.7z"/>
<path class="st0" d="M828.9,76.8c-1,2-2.2,4-3.6,5.8c-8.2,11.9-13.9,17.5-17.2,16.8c-4.2-0.9-6.3-3-6.3-6.4c0-0.7,0.1-1.4,0.2-2.1
	c0.7-2.6,1.4-5.1,2.4-7.7c-2.7,3.7-5.6,7.3-8.7,10.7c-4.6,4.9-7.7,7.3-9.3,7.3c-2.3,0-4.3-1.3-5.4-3.3c-1.1-1.7-1.6-3.6-1.7-5.6
	c0-6.8,3.8-14,11.4-21.5c7.6-7.5,14.6-11.3,21-11.2c2.2,0,4.4,1.5,6.8,4.7c0.7,0.8,1,1.8,1,2.8c0,0.7-0.4,1.3-1,1.7
	c-0.7-1.1-1.9-1.8-3.2-2.1c-3.2-0.7-8.4,2-15.8,8.2c-7.3,6.1-12,12-14.1,17.6c-0.5,1.2-0.8,2.6-0.9,3.9c0,1.8,1.1,1.9,3.3,0.3
	c4.9-3.8,9.4-8,13.4-12.7c4.7-5.4,7.5-9.5,8.2-12.3c0.6-0.8,1.8-1.2,3.5-1.2c1.4,0,2.8,0.4,4,1c1.4,0.7,1.9,1.4,1.5,2.2
	c-5.1,7.6-8.2,13.6-9.3,17.8c-0.2,0.5-0.3,1.1-0.3,1.7c0,1.1,0.4,1.6,1.3,1.7c1.1-0.1,2.2-0.6,2.9-1.5c1-0.9,5.6-6.6,14-17
	c0.8-1,1.4-1.5,1.8-1.5C829.4,74.9,829.5,75.5,828.9,76.8z"/>
<path class="st0" d="M864.7,85c-6.7,10.5-12.1,15.9-16.4,16.2c-5.6,0.4-8.4-2.3-8.3-8.1c0-5.1,2-11.2,6-18.4c1.6-3,2.4-4.9,2.4-5.7
	c0-0.3-0.1-0.4-0.3-0.4c-1.7,0-6.2,4.8-13.7,14.6c-4.5,5.9-7.2,10.8-8.1,14.8c-0.2,0.9-1,1.3-2.2,1.3c-1.3,0-2.6-0.5-3.5-1.5
	c-1.2-1.2-1.8-2.9-1.5-4.7c0.1-0.6,3.8-8.7,11-24.2c-0.9-0.5-1.3-1.7-0.8-2.7c0.4-0.8,1.8-3.5,4.3-8c1.6-1.3,4-2,7-2
	c3,0,3.5,1.6,1.5,4.8c-8.1,13.7-12.2,21.4-12.2,23.1c0,0.3,0.9-0.9,2.8-3.4c5.9-7.8,12.5-15.1,19.7-21.8c1.7,0.5,3.5,0.8,5.2,1
	c2.3,0.3,3.4,1.2,3.5,2.8c0,3.2-2.7,8-8,14.5c-5.3,6.5-8,12.4-8,17.6c0,2,0.6,3,1.8,3c0.9-0.1,1.8-0.4,2.5-0.9
	c3.6-2.2,7.6-6.3,12-12.3c0.9-1.2,1.7-1.8,2.4-1.8c0.5,0,0.8,0.3,0.8,0.9C864.9,84.3,864.8,84.7,864.7,85z"/>
<path class="st0" d="M915.7,50c1.7,0,2.5,0.3,2.5,1s-0.4,1.2-1.3,1.7c-0.8,0.5-1.7,0.8-2.6,0.8c-7.3,0-15.7,0.4-25,1
	c-2.9,0.9-7,6.1-12.2,15.6c-4.6,8.4-7.5,14.7-8.5,18.8c-0.4,1.5-0.6,3-0.6,4.5c0,2.5,0.8,3.8,2.5,3.8c1.3-0.1,2.6-0.6,3.6-1.5
	c4.3-3.7,9.1-9.2,14.4-16.5c1.4-2,2.3-3,2.8-3c0.2,0,0.3,0.2,0.3,0.4c0,1.3-0.9,3.3-2.7,6c-3.5,5.2-7.3,10.3-11.4,15.2
	c-2.2,2.4-5.3,3.8-8.5,3.9c-5.5,0-8.3-3.4-8.4-10.2c-0.1-4.2,1.9-10.7,6-19.3c2.9-6.4,6.4-12.7,10.2-18.6h-6.3
	c-1.5,0-2.2-0.5-2.2-1.6c0-1.3,0.6-2,2-2h8.8c1.7-2.5,3.3-5.2,4.7-7.9c2.2-4.1,3.3-6.3,3.3-6.8c0-0.4-0.2-0.9-0.5-1.1
	c-0.4-0.2-0.7-0.5-1-0.8c-0.3-0.2-0.4-0.5-0.5-0.9c0-1.1,0.6-1.6,2-1.5c1.1,0.1,3.3,1,6.8,2.7c1.8,0.9,3.6,1.8,5.4,2.5
	c-2.5,3.7-5.6,8.3-9.3,13.8L915.7,50L915.7,50z"/>
<path class="st0" d="M918.9,61.3c2.7,0.8,4,2.5,4,4.9c0,3-1.6,5.8-4.8,8.4c-1.2,1-5.3,3.7-12.3,8c-5,3-7.9,5.4-8.5,7.3
	c-0.3,0.7-0.7,1-1.2,0.9c-0.4-0.2-0.5-0.7-0.3-1.3c1.2-3.4,4.2-6.9,9.1-10.7c6.3-4.8,10-7.7,10.9-8.8c1-1.1,1.7-2.4,1.8-3.9
	c0.2-0.9-0.5-1.8-1.4-2c-0.2,0-0.4,0-0.6,0c-1.4,0.1-2.8,0.6-3.9,1.5c-9.7,6.5-15.8,14.7-18.3,24.5c-0.3,1.1-0.4,2.2-0.5,3.3
	c0,3.4,1.8,5.1,5.2,5.1c2.5-0.1,4.9-0.8,7-2.1c3.2-2,6-4.5,8.2-7.5c2.3-2.9,3.9-4.3,4.8-4.3c0.2,0,0.3,0.2,0.3,0.4
	c0,1.3-1.5,3.8-4.5,7.4c-5.4,6.6-11.3,9.5-17.7,8.8c-5.7-0.6-9-3.8-9.9-9.7c-0.9-5.9,1.7-12.8,8-20.8c6.2-8,12.2-11.9,17.8-11.8
	C912.5,59.5,914.8,60.2,918.9,61.3z"/>
<path class="st0" d="M57.3,152.4v21.3h34.4v19.8H57.3v23.1h38.9v20.5H31.6V131.8h64.5v20.6H57.3z"/>
<path class="st0" d="M177.3,237.1l-21.4-32.2L137,237.1h-29.1l33.7-53.6l-34.5-51.8H137l21.1,31.8l18.6-31.8h29.1l-33.4,53.1
	l34.8,52.2L177.3,237.1z"/>
<path class="st0" d="M295,255.1L281.5,237c-3.9,0.8-7.8,1.2-11.7,1.2c-9.5,0.1-18.9-2.3-27.2-6.9c-8.2-4.5-14.9-11.2-19.6-19.3
	c-9.7-17.3-9.7-38.3,0-55.6c4.7-8.1,11.5-14.7,19.6-19.2c17-9.2,37.5-9.2,54.5,0c8.1,4.5,14.9,11.1,19.5,19.2
	c4.8,8.4,7.3,18,7.1,27.8c0.1,8.5-1.8,17-5.5,24.7c-3.5,7.3-8.8,13.6-15.2,18.5l23.1,27.8H295z M249.5,206.4
	c5,5.6,11.8,8.3,20.3,8.3c8.4,0,15.1-2.8,20.2-8.4c5-5.6,7.6-13,7.6-22.2c0-9.3-2.5-16.8-7.6-22.3c-5.1-5.5-11.8-8.3-20.2-8.3
	c-8.5,0-15.3,2.8-20.3,8.2c-5.1,5.5-7.6,12.9-7.5,22.3C242,193.4,244.5,200.9,249.5,206.4L249.5,206.4z"/>
<path class="st0" d="M363.5,131.8v63c0,6.3,1.5,11.1,4.6,14.6c3.1,3.4,7.6,5.1,13.6,5.1s10.6-1.7,13.8-5.1c3.2-3.4,4.8-8.3,4.8-14.6
	v-63H426v62.8c0,9.4-2,17.4-6,23.9c-3.8,6.4-9.4,11.5-16.1,14.7c-7,3.4-14.8,5.1-22.6,5c-7.7,0.1-15.4-1.6-22.3-4.9
	c-6.5-3.2-11.9-8.4-15.5-14.7c-3.8-6.5-5.7-14.5-5.7-23.9v-62.9H363.5z"/>
<path class="st0" d="M469.6,131.8v105.3H444V131.8H469.6z"/>
<path class="st0" d="M505.6,234.4c-5.8-2.3-10.9-6.1-14.6-11.1c-3.7-5.1-5.8-11.3-5.8-17.7h27.3c0.4,3.9,1.8,6.9,4,8.9
	c2.5,2.1,5.7,3.2,9,3.1c3.8,0,6.8-0.9,9-2.6c2.2-1.8,3.4-4.5,3.3-7.3c0.1-2.4-0.9-4.8-2.6-6.4c-1.9-1.8-4.1-3.2-6.5-4.2
	c-3.6-1.5-7.2-2.7-10.9-3.8c-5.7-1.7-11.3-3.8-16.6-6.3c-4.4-2.2-8.2-5.4-11.1-9.3c-3.1-4.1-4.6-9.4-4.6-16c0-9.8,3.5-17.5,10.6-23
	c7.1-5.5,16.3-8.3,27.8-8.3c11.6,0,20.9,2.8,28,8.3s10.9,13.3,11.4,23.2h-27.7c-0.1-3.1-1.4-6-3.8-8c-2.5-2-5.6-3.1-8.8-2.9
	c-2.7-0.1-5.4,0.7-7.5,2.5c-1.9,1.7-2.8,4-2.8,7.1c0,3.4,1.6,6.1,4.8,8c3.2,1.9,8.2,4,15,6.1c5.7,1.8,11.2,4,16.6,6.6
	c4.3,2.2,8.1,5.3,11,9.1c3.1,4,4.7,9.1,4.7,15.4c0.1,5.8-1.5,11.4-4.6,16.4c-3.2,5.1-7.8,9.1-13.3,11.7c-5.8,2.9-12.7,4.4-20.5,4.4
	C519.2,238.4,512.2,237,505.6,234.4z"/>
<path class="st0" d="M606.1,131.8v105.3h-25.7V131.8H606.1z"/>
<path class="st0" d="M700.5,131.8v20.6h-27.9v84.8h-25.6v-84.8H619v-20.6H700.5z"/>
<path class="st0" d="M736,231.2c-8.2-4.5-15-11.2-19.7-19.2c-9.7-17.3-9.7-38.3,0-55.6c4.7-8.1,11.5-14.7,19.7-19.2
	c17-9.2,37.5-9.2,54.5,0c8.1,4.5,14.9,11.1,19.5,19.2c9.5,17.3,9.5,38.3-0.1,55.6c-4.6,8.1-11.4,14.7-19.5,19.3
	C773.4,240.5,753,240.5,736,231.2z M783.4,206.4c5-5.6,7.6-13,7.6-22.2c0-9.3-2.5-16.8-7.6-22.3s-11.8-8.3-20.2-8.3
	c-8.5,0-15.3,2.8-20.3,8.2s-7.6,12.9-7.6,22.4c0,9.3,2.5,16.7,7.6,22.3c5.1,5.5,11.8,8.3,20.3,8.3
	C771.6,214.8,778.3,211.9,783.4,206.4L783.4,206.4z"/>
<path class="st0" d="M848.7,234.4c-5.8-2.3-10.9-6.1-14.6-11.1c-3.7-5.1-5.8-11.3-5.8-17.7h27.3c0.4,3.9,1.7,6.9,4,8.9
	c2.5,2.1,5.7,3.2,9,3.1c3.8,0,6.8-0.9,9-2.6c2.2-1.8,3.4-4.5,3.3-7.3c0.1-2.4-0.9-4.8-2.6-6.4c-1.9-1.8-4.1-3.2-6.5-4.2
	c-3.5-1.4-7.1-2.7-10.8-3.7c-5.7-1.7-11.3-3.8-16.7-6.3c-4.4-2.2-8.2-5.4-11.1-9.3c-3.1-4.1-4.7-9.4-4.7-16c0-9.8,3.5-17.5,10.7-23
	c7.1-5.5,16.4-8.3,27.8-8.4c11.6,0,20.9,2.8,28,8.3s10.9,13.3,11.4,23.2h-27.7c-0.1-3.1-1.4-6-3.8-8c-2.5-2-5.6-3.1-8.8-2.9
	c-2.7-0.1-5.4,0.7-7.5,2.5c-1.9,1.7-2.8,4-2.8,7.1c0,3.4,1.6,6.1,4.8,8c3.2,1.9,8.2,4,15,6.1c5.7,1.8,11.2,4,16.6,6.6
	c4.3,2.2,8.1,5.3,11,9.1c3.1,4,4.7,9.1,4.7,15.4c0.1,5.8-1.5,11.4-4.6,16.4c-3.2,5.1-7.8,9.1-13.3,11.7c-5.8,2.9-12.7,4.4-20.5,4.4
	C862.3,238.3,855.3,237,848.7,234.4z"/>
<path class="st0" d="M1031.4,182.4c-3,5.3-7.5,9.5-12.9,12.2c-5.8,3.1-13,4.6-21.6,4.6H981v37.8h-25.7V131.8h41.5
	c8.4,0,15.5,1.4,21.3,4.4c5.4,2.6,10,6.8,13,12c3,5.4,4.5,11.4,4.3,17.6C1035.6,171.5,1034.2,177.3,1031.4,182.4z M1005.9,175.4
	c2.4-2.3,3.6-5.6,3.6-9.8c0-4.2-1.2-7.5-3.6-9.8c-2.4-2.3-6-3.4-11-3.4H981v26.4h14C999.9,178.9,1003.5,177.8,1005.9,175.4
	L1005.9,175.4z"/>
<path class="st0" d="M1074.6,217.3h33.6v19.8h-59.2V131.8h25.7V217.3z"/>
<path class="st0" d="M1186,218.5h-39.3l-6.3,18.6h-26.8l38.1-105.3h29.7l38.1,105.3h-27.2L1186,218.5z M1179.4,198.7l-13-38.6
	l-12.9,38.6H1179.4z"/>
<path class="st0" d="M1306.8,131.8v20.6h-27.9v84.8h-25.7v-84.8h-27.9v-20.6H1306.8z"/>
<path class="st0" d="M1342.3,231.2c-8.2-4.5-15-11.2-19.7-19.2c-9.7-17.3-9.7-38.3,0-55.6c4.7-8.1,11.5-14.7,19.7-19.2
	c17-9.2,37.5-9.2,54.4,0c8.1,4.5,14.9,11.1,19.5,19.2c9.5,17.3,9.5,38.3-0.1,55.6c-4.6,8.1-11.4,14.7-19.5,19.3
	C1379.7,240.5,1359.2,240.5,1342.3,231.2L1342.3,231.2z M1389.7,206.4c5.1-5.6,7.6-13,7.6-22.2c0-9.3-2.5-16.8-7.6-22.3
	s-11.8-8.3-20.2-8.3c-8.5,0-15.3,2.8-20.3,8.2s-7.6,12.9-7.6,22.4c0,9.3,2.5,16.7,7.6,22.3c5.1,5.5,11.8,8.3,20.3,8.3
	C1377.9,214.8,1384.6,211.9,1389.7,206.4z"/>
<path class="st0" d="M1455,234.4c-5.8-2.3-10.9-6.1-14.6-11.1c-3.7-5.1-5.8-11.3-5.8-17.7h27.3c0.4,3.9,1.7,6.9,4,8.9
	c2.5,2.1,5.7,3.2,9,3.1c3.8,0,6.8-0.9,9-2.6c2.2-1.8,3.4-4.5,3.3-7.3c0.1-2.4-0.9-4.8-2.6-6.4c-1.9-1.8-4.1-3.2-6.4-4.2
	c-3.6-1.5-7.2-2.7-10.9-3.8c-5.7-1.7-11.3-3.8-16.7-6.3c-4.4-2.2-8.2-5.4-11.1-9.3c-3.1-4.1-4.7-9.4-4.7-16c0-9.8,3.5-17.5,10.7-23
	c7.1-5.5,16.3-8.3,27.8-8.3c11.6,0,20.9,2.8,28,8.3s10.9,13.3,11.4,23.2H1485c-0.1-3.1-1.4-6-3.8-8c-2.5-2-5.6-3.1-8.8-2.9
	c-2.7-0.1-5.4,0.7-7.5,2.5c-1.9,1.7-2.8,4-2.8,7.1c0,3.4,1.6,6.1,4.8,8c3.2,1.9,8.2,4,15,6.1c5.7,1.8,11.2,4,16.6,6.6
	c4.3,2.2,8.1,5.3,11,9.1c3.1,4,4.7,9.2,4.7,15.4c0.1,5.8-1.5,11.4-4.6,16.4c-3.2,5.1-7.8,9.1-13.3,11.7c-5.8,2.9-12.7,4.4-20.6,4.4
	C1468.6,238.4,1461.6,237,1455,234.4z"/>
<path class="st1" d="M106.8,359.2H62.3l-7.1,21.1H24.8L67.9,261h33.6l43.2,119.2H114L106.8,359.2z M99.3,336.7l-14.8-43.7
	l-14.6,43.7H99.3z"/>
<path class="st1" d="M186.8,357.8h38.1v22.4h-67.1V261h29.1V357.8z"/>
<path class="st1" d="M313.1,359.2h-44.5l-7.1,21.1H231L274.2,261h33.6L351,380.2h-30.8L313.1,359.2z M305.6,336.7l-14.8-43.7
	l-14.6,43.7H305.6z"/>
<path class="st1" d="M402.8,288.9c4.9-9.1,12.3-16.5,21.3-21.6c9.5-5.2,20.2-7.9,31-7.7c14.2,0,26.3,3.7,36.4,11.2
	s16.8,17.7,20.2,30.6h-31.9c-2.1-4.7-5.7-8.7-10.1-11.4c-4.5-2.6-9.6-4-14.9-3.9c-8.9,0-16.2,3.1-21.8,9.4s-8.3,14.6-8.3,25
	c0,10.4,2.8,18.8,8.3,25s12.8,9.3,21.8,9.3c5.2,0.1,10.4-1.3,14.9-3.9c4.4-2.7,8-6.7,10.1-11.4h31.9c-3.4,12.9-10.1,23.1-20.2,30.5
	c-10.1,7.4-22.2,11.1-36.4,11.1c-10.8,0.2-21.5-2.5-31-7.7c-9-5-16.4-12.5-21.3-21.5c-5.1-9.2-7.6-19.7-7.6-31.4
	S397.7,298.1,402.8,288.9z"/>
<path class="st1" d="M603.8,359.2h-44.5l-7.1,21.1h-30.4L564.8,261h33.6l43.2,119.3h-30.7L603.8,359.2z M596.3,336.7l-14.8-43.7
	l-14.6,43.7H596.3z"/>
<path class="st1" d="M715.5,380.2l-24.8-45h-7v45h-29V261h48.8c9.4,0,17.4,1.6,24,4.9c6.2,2.9,11.4,7.6,14.9,13.5
	c3.3,5.8,5,12.4,4.9,19.1c0.1,7.6-2.3,15.1-6.7,21.2c-4.5,6.2-11.1,10.7-19.8,13.3l27.5,47.2L715.5,380.2z M683.8,314.7h18
	c5.3,0,9.3-1.3,12-3.9c2.7-2.6,4-6.3,4-11c0-4.5-1.3-8.1-4-10.7c-2.7-2.6-6.7-3.9-12-3.9h-18V314.7z"/>
<path class="st1" d="M851.3,261v23.3h-31.6v96h-29v-96h-31.6V261H851.3z"/>
<path class="st1" d="M940.2,359.2h-44.5l-7.1,21.1h-30.4L901.2,261h33.6L978,380.3h-30.8L940.2,359.2z M932.7,336.7l-14.8-43.7
	l-14.6,43.7H932.7z"/>
<path class="st1" d="M992.2,377.1c-3.1-2.8-4.9-6.9-4.8-11.1c-0.1-4.3,1.7-8.5,4.8-11.4c3.2-3,7.4-4.6,12.5-4.6
	c4.6-0.2,9,1.5,12.3,4.6c3.2,2.9,4.9,7.1,4.8,11.4c0.1,4.2-1.7,8.3-4.8,11.1c-3.4,3.1-7.8,4.7-12.3,4.5
	C999.6,381.6,995.5,380.1,992.2,377.1z"/>
<path class="st1" d="M121.3,537.8h1328.5c55,0,99.5,44.6,99.5,99.5l0,0c0,55-44.6,99.5-99.5,99.5H121.3c-55,0-99.5-44.6-99.5-99.5
	l0,0C21.8,582.4,66.4,537.8,121.3,537.8z"/>
<ellipse transform="matrix(0.9993 -3.837651e-02 3.837651e-02 0.9993 -24.413 5.32)" class="st2" cx="126.4" cy="638.6" rx="56.8" ry="56.8"/>
<path class="st0" d="M157.7,636.8v1.2h-4.2v-1.8l-0.6-5v-1.7c-0.2-1-0.6-2-1.1-2.9l0,0l-1.7-3.1l-1.2-1.8v-0.4
	c-1.9-2.7-4.3-5-7.1-6.9c-0.5-0.4-1.1-0.7-1.7-1c-1-0.7-2-1.2-3.1-1.7l0,0c-1.5-0.7-3.1-1.2-4.8-1.7c-2.1-0.5-4.2-0.8-6.3-0.8l0,0
	v-3.5c0-0.6,0-0.6,0.6-0.6h2.3c0.2-0.2,0.5-0.2,0.7,0c0,0,0,0,0,0h0.1c2.2,0.3,4.5,0.9,6.6,1.6c6,2.3,11.2,6.2,15.2,11.2l0,0
	l0.6,0.9c0.6,0.8,1.2,1.7,1.7,2.7c1.3,2.2,2.2,4.5,2.9,6.9c0.2,0.4,0.2,0.8,0,1.2c0.4,1.6,0.6,3.2,0.8,4.8v2.6L157.7,636.8z"/>
<path class="st0" d="M90.4,619v-0.5c0-0.1-0.1-0.3-0.1-0.4c0-0.2,0-0.5,0-0.7c0-0.4,1.9-2.7,4.8-5.6l1.5-1.2
	c0.7-0.4,1.4-0.7,2.2-0.9h5.2c2.3,0.8,4.2,2.5,5.2,4.8c0.4,0.9,0.7,1.8,0.8,2.7c0.6,2,1.2,4.3,1.7,6.4c0.4,2,0.2,4.2-0.8,6
	c-0.4,0.5-0.9,1.1-1.2,1.7l-2.3,2c-0.3,0.4-0.3,0.9,0,1.3l0.9,2.5c1.2,3.2,2.9,6.1,5,8.8c0.3,0.4,0.7,0.8,1.1,1.2
	c2.5,2.7,5.5,5,8.8,6.7l3.2,1.4c0.8,0.4,1.9,0.6,2.7,1c0.3,0.2,0.6,0.2,0.9,0l2.3-2.3c1.6-1.7,3.9-2.6,6.2-2.5c1,0.1,2,0.3,2.9,0.6
	l5.3,1.6h0.6c2.7,0.9,4.8,3.2,5.4,6c0.1,0.4,0.1,0.8,0,1.2v3.3c-0.4,1.4-1.2,2.7-2.3,3.8l-2.8,3.3c-0.3,0.5-0.8,0.9-1.4,1.1
	c-0.7,0.4-1.5,0.6-2.3,0.6H140c-1.4,0.2-2.8,0.2-4.1,0c-1.5,0.1-3.1-0.2-4.4-0.9c-2.7-0.6-5.3-1.4-7.8-2.5h-0.8l-1.5-0.6l-3.7-1.8
	c-1.7-0.9-3.3-1.9-4.8-3.1l-4-3.2l-4-3.7l-3.1-3.7l-0.8-1.1l-0.4-0.6c-0.4-0.6-2.1-3.1-3.2-4.8l-1.9-3.5l-0.6-1.2
	c-0.5-1.2-1-2.5-1.4-3.8c-0.6-1.6-1.1-3.3-1.5-4.9v-1.2c0.2-0.7,0.2-1.4,0-2.1l-0.2-0.5c-0.6-1.4-1-2.9-1.3-4.4
	C90.1,623.3,90.8,621.1,90.4,619z"/>
<path class="st0" d="M124,621.7v-4h3.2c0.4-0.2,0.8-0.2,1.2,0c1.4,0.4,2.8,0.9,4.1,1.5c5.9,2.7,10.1,8,11.6,14.3l0,0
	c0.2,0.2,0.2,0.6,0,0.9l0,0v2.8c0,1.1,0,0.9-0.6,0.6h-3.2v-3.1c0.2-0.7,0.2-1.3,0-2c-0.8-2.7-2.3-5-4.4-6.9c-1.9-1.8-4.1-3.2-6.6-4
	c-0.6-0.1-1.2-0.1-1.8,0h-2.8L124,621.7z"/>
<path class="st0" d="M124.7,634.3c0,0-0.6,0-0.6-0.8V630c1.1,0,2.2,0.2,3.3,0.6h1.5c0.7,0.5,1.3,1.1,1.9,1.8l1.1,1.7
	c0.4,0.8,0.6,1.8,0.6,2.7v0.6h-3.4c-0.6,0-0.6,0-0.6-0.6c-0.3-1.7-1.5-3.1-3.2-3.5l0,0L124.7,634.3z"/>
<circle class="st2" cx="859.8" cy="637.6" r="56.8"/>
<path class="st0" d="M875.9,609.5c-3.2-2.9-7.2-4.9-11.5-5.5c-1.2,0.1-2.5,0.1-3.7,0h-6c-1.8,0-3.7,0.3-5.5,0.8
	c-10.6,3.8-17.7,13.9-17.8,25.2c-0.1,5.3,1.2,10.6,3.6,15.2c4.4,9.2,10.6,17.5,18.2,24.4c1,1.1,2.4,1.9,3.9,2.1h2.1
	c1.1-0.2,2.2-0.7,3-1.4c2.3-2,4.3-4.1,6.4-6c4.2-4.5,7.8-9.4,10.8-14.8c3.4-5.5,5.4-11.8,5.8-18.2c0.4-8.4-3.1-16.5-9.6-21.9
	L875.9,609.5z M858.4,643.4c-7.3-0.1-13.2-6.1-13-13.4c0.1-7.3,6.1-13.2,13.4-13c7.3,0.1,13.1,6.1,13,13.3
	c0.1,7.2-5.7,13.1-12.9,13.1c0,0-0.1,0-0.1,0H858.4z"/>
<path d="M224.6,597.6c2.7-2.3,6.4-3.4,10.9-3.4c2.7-0.1,5.4,0.5,7.9,1.6c2,0.9,3.8,2.4,4.9,4.3c1.1,1.9,1.7,4,1.7,6.2
	c0.1,2.4-0.6,4.7-2,6.7c-1.2,1.7-2.9,3-4.9,3.7v0.3c2.3,0.7,4.3,2.1,5.7,4c1.4,2.2,2.1,4.8,2,7.4c0,2.4-0.6,4.7-1.7,6.7
	c-1.2,2-3,3.6-5.1,4.6c-2.5,1.2-5.3,1.7-8.1,1.7c-4.7,0-8.6-1.2-11.6-3.6c-3-2.4-4.6-5.9-4.7-10.6h8.6c0,1.9,0.8,3.7,2.1,4.9
	c1.5,1.3,3.5,2,5.4,1.9c1.8,0.1,3.6-0.5,4.9-1.8c1.2-1.2,1.8-2.9,1.7-4.6c0-2.5-0.8-4.3-2.4-5.4c-1.6-1.1-4.1-1.6-7.4-1.6h-1.8v-7.2
	h1.8c6,0,8.9-2,8.9-6c0.1-1.6-0.5-3.1-1.6-4.2c-1.3-1.1-2.9-1.6-4.6-1.5c-1.7-0.1-3.3,0.5-4.6,1.6c-1.1,1.1-1.7,2.5-1.9,4.1h-8.6
	C220.3,603.1,221.8,599.9,224.6,597.6z"/>
<path d="M260.5,631.2c4-3.3,7.2-6.1,9.6-8.4c2.3-2.1,4.3-4.4,6-7c1.5-2.1,2.3-4.6,2.4-7.2c0.1-1.8-0.4-3.6-1.5-5
	c-1.2-1.3-2.9-2-4.7-1.8c-1.9-0.1-3.7,0.7-4.8,2.1c-1.2,1.7-1.8,3.7-1.8,5.8h-8.6c0.2-5,1.7-8.8,4.5-11.5c3-2.6,6.8-4,10.8-3.9
	c4.8,0,8.4,1.3,11,3.8c2.6,2.7,4,6.3,3.8,10c0,3.3-0.9,6.6-2.6,9.4c-1.6,2.8-3.7,5.5-6,7.8c-2.3,2.2-5.2,4.9-8.9,8h18.6v7.3h-31.1
	V634L260.5,631.2z"/>
<path d="M296.6,631.2c4-3.3,7.2-6.1,9.6-8.4c2.3-2.1,4.3-4.4,6-7c1.5-2.1,2.3-4.6,2.4-7.2c0.1-1.8-0.4-3.6-1.5-5
	c-1.2-1.3-2.9-2-4.7-1.8c-1.9-0.1-3.7,0.7-4.8,2.1c-1.2,1.7-1.8,3.7-1.8,5.8h-8.6c0.2-5,1.7-8.8,4.5-11.5c3-2.6,6.8-4,10.8-3.9
	c4.8,0,8.4,1.3,11,3.8c2.6,2.7,4,6.3,3.8,10c0,3.3-0.9,6.6-2.6,9.4c-1.6,2.8-3.7,5.5-6,7.8c-2.3,2.2-5.2,4.9-8.9,8h18.6v7.3h-31.1
	V634L296.6,631.2z"/>
<path d="M331.3,606.7c0-2.2,0.6-4.3,1.7-6.2c1.3-2,3.1-3.5,5.2-4.5c5.5-2.2,11.6-2.2,17,0c2.1,0.9,4,2.5,5.2,4.5
	c1.1,1.9,1.7,4,1.7,6.2c0,2.1-0.5,4.3-1.7,6.1c-1.1,1.7-2.7,3.1-4.5,4.1c2.2,0.9,4.1,2.4,5.4,4.4c1.3,2,2,4.4,2,6.9
	c0.1,2.6-0.7,5.2-2.2,7.5c-1.5,2.2-3.5,3.8-5.9,4.9c-2.7,1.2-5.6,1.7-8.5,1.7c-2.9,0-5.8-0.5-8.5-1.7c-2.4-1-4.4-2.7-5.9-4.9
	c-1.5-2.2-2.2-4.8-2.2-7.5c-0.1-2.4,0.6-4.8,2-6.9c1.3-2,3.2-3.5,5.4-4.4C333.6,615,331.1,611,331.3,606.7z M341,622.5
	c-1.5,1.3-2.4,3.2-2.2,5.2c-0.1,1.9,0.7,3.8,2.2,5.1c1.6,1.4,3.7,2.1,5.9,2c2.1,0.1,4.2-0.6,5.9-2c1.4-1.3,2.2-3.2,2.1-5.1
	c0.1-2-0.7-3.9-2.2-5.2c-1.6-1.3-3.7-1.9-5.8-1.8C344.7,620.6,342.7,621.2,341,622.5z M351.9,603.2c-1.4-1.2-3.2-1.8-5.1-1.7
	c-1.8-0.1-3.6,0.5-5,1.7c-1.3,1.3-2,3-1.9,4.8c-0.1,1.7,0.6,3.4,1.9,4.5c2.9,2.3,7,2.3,9.9,0c1.3-1.2,2-2.8,2-4.6
	C353.8,606.2,353.1,604.4,351.9,603.2L351.9,603.2z"/>
<path d="M374.9,597.6c2.7-2.3,6.4-3.4,10.9-3.4c2.7-0.1,5.4,0.5,7.9,1.6c2,0.9,3.8,2.4,4.9,4.3c1.1,1.9,1.7,4,1.7,6.2
	c0.1,2.4-0.6,4.8-2,6.7c-1.2,1.7-2.9,3-4.9,3.7v0.3c2.3,0.7,4.3,2.1,5.7,4c1.4,2.2,2.1,4.8,2,7.4c0,2.4-0.6,4.7-1.7,6.7
	c-1.2,2-3,3.6-5.1,4.6c-2.5,1.2-5.3,1.7-8.1,1.7c-4.7,0-8.6-1.2-11.6-3.6c-3-2.4-4.6-5.9-4.7-10.6h8.6c0,1.9,0.8,3.6,2.1,4.9
	c1.5,1.3,3.5,2,5.5,1.9c1.8,0.1,3.6-0.5,4.9-1.8c1.2-1.2,1.8-2.9,1.7-4.6c0-2.5-0.8-4.3-2.4-5.4s-4.1-1.6-7.4-1.6H381v-7.2h1.8
	c6,0,8.9-2,8.9-6c0.1-1.6-0.5-3.1-1.6-4.2c-1.3-1.1-2.9-1.6-4.6-1.5c-1.7-0.1-3.3,0.5-4.6,1.6c-1.1,1.1-1.7,2.5-1.9,4.1h-8.6
	C370.7,603.1,372.2,599.9,374.9,597.6z"/>
<path d="M407.7,632.2v-6.9l20.6-29.4h10.2v28.7h5.5v7.7h-5.5v8.9h-8.8v-8.9H407.7z M430.2,605.3l-12.9,19.2h12.9V605.3z"/>
<path d="M454.2,597.6c2.8-2.3,6.4-3.4,10.9-3.4c2.7-0.1,5.4,0.5,7.9,1.6c2,0.9,3.7,2.4,4.9,4.3c1.1,1.9,1.7,4,1.7,6.2
	c0.1,2.4-0.6,4.7-2,6.7c-1.2,1.7-2.9,3-4.9,3.7v0.3c2.3,0.7,4.3,2.1,5.7,4c1.4,2.2,2.2,4.8,2,7.4c0,2.4-0.6,4.7-1.7,6.7
	c-1.2,2-3,3.6-5.1,4.6c-2.5,1.2-5.3,1.7-8.1,1.7c-4.7,0-8.6-1.2-11.6-3.6c-3-2.4-4.5-5.9-4.7-10.6h8.5c0,1.9,0.8,3.6,2.1,4.9
	c1.5,1.3,3.5,2,5.4,1.9c1.8,0.1,3.6-0.5,4.9-1.8c1.2-1.2,1.8-2.9,1.7-4.6c0-2.5-0.8-4.3-2.4-5.4c-1.6-1.1-4.1-1.6-7.4-1.6h-1.8v-7.2
	h1.8c6,0,8.9-2,8.9-6c0.1-1.6-0.5-3.1-1.6-4.2c-1.3-1.1-2.9-1.6-4.6-1.5c-1.7-0.1-3.3,0.5-4.6,1.6c-1.1,1.1-1.7,2.5-1.9,4.1h-8.6
	C450,603.1,451.4,599.9,454.2,597.6z"/>
<path d="M499.8,632.5c1.4,1.1,3.1,1.6,4.8,1.5c2.4,0.1,4.6-1.1,5.7-3.2c1.2-2.2,1.7-5.8,1.7-11c-1,1.4-2.4,2.5-4,3.1
	c-1.8,0.8-3.7,1.1-5.6,1.1c-2.5,0-5-0.5-7.3-1.7c-2.2-1.1-4-2.9-5.1-5c-1.3-2.5-2-5.2-1.9-8c0-4.7,1.4-8.4,4.1-11.1
	s6.5-4.1,11.3-4.1c6,0,10.2,1.9,12.6,5.7s3.7,9.6,3.7,17.2c0.1,4.5-0.4,9-1.4,13.4c-0.7,3.1-2.4,5.9-4.8,7.9
	c-2.3,1.8-5.4,2.7-9.4,2.7c-2.7,0.1-5.5-0.5-7.9-1.8c-2.1-1.1-3.8-2.7-5-4.7c-1.2-2-1.9-4.2-2-6.5h8.2
	C497.7,629.9,498.5,631.4,499.8,632.5z M509.3,614.9c1.3-1.5,2-3.4,1.9-5.4c0.1-2.1-0.6-4.2-2-5.8c-1.4-1.4-3.4-2.1-5.4-2
	c-2-0.1-4,0.7-5.4,2.1c-1.4,1.5-2.1,3.5-2,5.6c-0.1,2,0.6,3.9,1.9,5.4c1.3,1.4,3.2,2.1,5.8,2.1C506.1,617,508,616.3,509.3,614.9
	L509.3,614.9z"/>
<path d="M548.3,602.8c-1.3-1-2.8-1.4-4.4-1.3c-2.6-0.2-5.1,1.2-6.4,3.5c-1.3,2.3-2,6.1-2.1,11.3c1.1-1.7,2.6-3.1,4.4-3.9
	c2-1,4.1-1.4,6.3-1.4c2.5,0,5,0.6,7.2,1.8c2.1,1.2,3.8,3,4.9,5.1c2.4,5.1,2.4,10.9,0,16c-1.2,2.3-3,4.2-5.3,5.5
	c-2.5,1.4-5.4,2.1-8.2,2c-4.4,0-7.8-1-10.3-2.9c-2.6-2-4.4-4.9-5.2-8.1c-1.1-4.2-1.6-8.5-1.5-12.8c0-7.7,1.3-13.5,4-17.4
	c2.7-3.9,6.8-5.9,12.5-5.9c4.4,0,7.8,1.2,10.2,3.6c2.4,2.4,3.9,5.5,4.2,8.9h-8.2C550.2,605.2,549.4,603.8,548.3,602.8z M538.4,620.1
	c-1.6,1.4-2.4,3.5-2.3,5.7c-0.4,4,2.6,7.6,6.7,8c0.5,0,0.9,0,1.4,0c2,0.1,4-0.7,5.4-2.1c1.4-1.5,2.1-3.5,2-5.6
	c0.1-2.1-0.6-4.2-1.9-5.8c-1.5-1.5-3.5-2.3-5.6-2.1C542,618.1,540,618.8,538.4,620.1L538.4,620.1z"/>
<path d="M565.9,603.4v-8.1H581v45.9h-9v-37.7H565.9z"/>
<path class="st2" d="M223.7,656.6c2.3-1.7,5.1-2.6,7.9-2.5c1.9-0.1,3.9,0.4,5.6,1.2c1.5,0.7,2.7,1.8,3.6,3.2
	c0.8,1.4,1.2,2.9,1.2,4.5c0,1.9-0.6,3.7-1.7,5.1c-1.1,1.4-2.7,2.4-4.4,2.8v0.2c1.9,0.4,3.7,1.5,4.9,3c1.3,1.7,1.9,3.8,1.8,5.9
	c0,1.7-0.4,3.4-1.2,4.9c-0.9,1.5-2.2,2.7-3.7,3.4c-1.9,0.9-3.9,1.3-6,1.2c-3,0.1-6-0.8-8.3-2.7c-2.2-1.9-3.5-4.6-3.6-7.5h4.3
	c0.2,1.8,1,3.5,2.4,4.7c1.5,1.3,3.4,1.9,5.4,1.8c1.9,0.1,3.7-0.5,5.1-1.7c1.2-1.2,1.8-2.8,1.8-4.5c0-2.4-0.8-4.1-2.4-5.2
	c-1.6-1.1-4-1.6-7.2-1.6h-1.1v-3.6h1.1c2.3,0.1,4.6-0.4,6.6-1.5c1.5-0.9,2.4-2.6,2.2-4.4c0.1-1.5-0.5-3-1.6-4.1
	c-1.3-1.1-3-1.6-4.7-1.5c-1.7-0.1-3.4,0.5-4.8,1.5c-1.2,1-2,2.5-2.1,4.1h-4.3C220.4,660.8,221.6,658.3,223.7,656.6z"/>
<path class="st2" d="M247.4,658.8v-4h9v34.6H252v-30.6H247.4z"/>
<path class="st2" d="M266.5,658.9c1.8-3.1,4.9-4.6,9.4-4.6s7.6,1.5,9.3,4.6c1.8,3.1,2.7,7.4,2.7,12.8s-0.9,9.8-2.7,13
	c-1.8,3.1-4.9,4.6-9.3,4.6c-4.4,0-7.6-1.5-9.4-4.6c-1.8-3.1-2.7-7.4-2.7-13S264.8,661.9,266.5,658.9z M283.1,664.7
	c-0.3-1.7-1.1-3.4-2.2-4.7c-1.3-1.2-3.1-1.9-4.9-1.8c-1.8-0.1-3.7,0.5-5,1.8c-1.2,1.3-2,2.9-2.2,4.7c-0.4,2.3-0.6,4.7-0.5,7.1
	c0,2.4,0.1,4.8,0.5,7.2c0.3,1.7,1,3.4,2.2,4.7c1.3,1.3,3.2,1.9,5,1.8c1.8,0.1,3.6-0.5,4.9-1.8c1.2-1.3,2-2.9,2.2-4.7
	c0.4-2.4,0.6-4.8,0.5-7.2C283.7,669.4,283.5,667,283.1,664.7z"/>
<path class="st2" d="M315.2,658.2l-13.3,31.2h-4.4l13.5-30.8h-18.5v-3.7h22.7V658.2z"/>
<path class="st2" d="M323.3,656.6c2.3-1.7,5.1-2.6,8-2.5c1.9,0,3.9,0.4,5.6,1.2c1.5,0.7,2.7,1.8,3.6,3.2c0.8,1.4,1.2,2.9,1.2,4.5
	c0,1.9-0.6,3.7-1.7,5.1c-1.1,1.4-2.7,2.4-4.4,2.8v0.2c1.9,0.4,3.7,1.5,4.9,3c1.3,1.7,1.9,3.8,1.8,5.9c0,1.7-0.4,3.4-1.2,4.9
	c-0.9,1.5-2.2,2.7-3.7,3.4c-1.9,0.9-3.9,1.3-6,1.2c-3,0.1-5.9-0.8-8.3-2.7c-2.2-1.9-3.6-4.6-3.6-7.5h4.2c0.2,1.8,1,3.5,2.3,4.7
	c1.5,1.3,3.4,1.9,5.4,1.8c1.9,0.1,3.7-0.5,5.1-1.7c1.2-1.2,1.8-2.8,1.8-4.5c0-2.4-0.8-4.1-2.4-5.2c-1.6-1.1-4-1.6-7.2-1.6h-1.1v-3.6
	h1.1c2.3,0.1,4.6-0.4,6.6-1.5c1.5-0.9,2.4-2.6,2.2-4.4c0.1-1.5-0.5-3-1.6-4.1c-1.3-1.1-3-1.6-4.7-1.5c-1.7-0.1-3.4,0.5-4.8,1.5
	c-1.2,1-2,2.5-2.2,4.1H320C320.1,660.8,321.3,658.3,323.3,656.6z"/>
<path class="st2" d="M351.5,656.6c2.3-1.7,5.1-2.6,8-2.5c1.9-0.1,3.9,0.4,5.6,1.2c1.5,0.7,2.7,1.8,3.6,3.2c0.8,1.4,1.2,2.9,1.2,4.5
	c0,1.9-0.6,3.7-1.7,5.1c-1.1,1.4-2.7,2.4-4.4,2.8v0.2c1.9,0.4,3.7,1.5,4.9,3c1.3,1.7,1.9,3.8,1.8,5.9c0,1.7-0.4,3.4-1.2,4.9
	c-0.9,1.5-2.2,2.7-3.7,3.4c-1.9,0.9-3.9,1.3-6,1.2c-3,0.1-5.9-0.8-8.3-2.7c-2.2-1.9-3.5-4.6-3.6-7.5h4.2c0.2,1.8,1,3.5,2.4,4.7
	c1.5,1.3,3.4,1.9,5.4,1.8c1.9,0.1,3.7-0.5,5.1-1.7c1.2-1.2,1.8-2.8,1.8-4.5c0-2.4-0.8-4.1-2.4-5.2c-1.6-1.1-4-1.6-7.2-1.6h-1.1v-3.6
	h1.1c2.3,0.1,4.6-0.4,6.6-1.5c1.5-0.9,2.4-2.6,2.2-4.4c0.1-1.5-0.5-3-1.6-4.1c-1.3-1.1-3-1.6-4.7-1.5c-1.7-0.1-3.4,0.5-4.8,1.5
	c-1.2,1-2,2.5-2.1,4.1h-4.3C348.2,660.8,349.5,658.3,351.5,656.6z"/>
<path class="st2" d="M379.7,656.6c2.3-1.7,5.1-2.6,7.9-2.5c1.9-0.1,3.9,0.4,5.6,1.2c1.5,0.7,2.7,1.8,3.6,3.2
	c0.8,1.4,1.2,2.9,1.2,4.5c0,1.9-0.6,3.7-1.7,5.1c-1.1,1.4-2.7,2.4-4.4,2.8v0.2c1.9,0.4,3.7,1.5,4.9,3c1.3,1.7,1.9,3.8,1.8,5.9
	c0,1.7-0.4,3.4-1.2,4.9c-0.9,1.5-2.2,2.7-3.7,3.4c-1.9,0.9-3.9,1.3-6,1.2c-3,0.1-6-0.8-8.3-2.7c-2.2-1.9-3.5-4.6-3.6-7.5h4.2
	c0.2,1.8,1,3.5,2.4,4.7c1.5,1.3,3.4,1.9,5.4,1.8c1.9,0.1,3.7-0.5,5.1-1.7c1.2-1.2,1.8-2.8,1.8-4.5c0-2.4-0.8-4.1-2.4-5.2
	c-1.6-1.1-4-1.6-7.2-1.6h-1.1v-3.6h1.2c2.3,0.1,4.6-0.4,6.6-1.5c1.5-0.9,2.4-2.6,2.2-4.4c0.1-1.5-0.5-3-1.6-4.1
	c-1.3-1.1-3-1.6-4.7-1.5c-1.7-0.1-3.4,0.5-4.8,1.5c-1.2,1-2,2.5-2.1,4.1h-4.3C376.4,660.8,377.7,658.3,379.7,656.6z"/>
<path class="st2" d="M407.3,658.9c1.8-3.1,4.9-4.6,9.4-4.6c4.5,0,7.6,1.5,9.3,4.6c1.8,3.1,2.7,7.4,2.7,12.8s-0.9,9.8-2.7,13
	c-1.8,3.1-4.9,4.6-9.3,4.6c-4.4,0-7.6-1.5-9.4-4.6c-1.8-3.1-2.7-7.4-2.7-13S405.5,661.9,407.3,658.9z M423.8,664.7
	c-0.3-1.7-1.1-3.4-2.2-4.7c-1.3-1.3-3.1-1.9-4.9-1.8c-1.8-0.1-3.6,0.5-5,1.8c-1.2,1.3-2,2.9-2.2,4.7c-0.4,2.3-0.6,4.7-0.5,7.1
	c0,2.4,0.2,4.8,0.5,7.2c0.3,1.7,1.1,3.4,2.2,4.7c1.3,1.3,3.1,1.9,5,1.8c1.8,0.1,3.6-0.5,4.9-1.8c1.2-1.3,2-2.9,2.2-4.6
	c0.4-2.4,0.6-4.8,0.5-7.2C424.4,669.4,424.2,667,423.8,664.7z"/>
<path class="st2" d="M437.9,656.6c2.3-1.7,5.1-2.6,7.9-2.5c1.9-0.1,3.9,0.4,5.6,1.2c1.5,0.7,2.7,1.8,3.6,3.2
	c0.8,1.4,1.2,2.9,1.2,4.5c0,1.9-0.6,3.7-1.7,5.1c-1.1,1.4-2.7,2.4-4.4,2.8v0.2c1.9,0.4,3.7,1.5,4.9,3c1.3,1.7,1.9,3.8,1.8,5.9
	c0,1.7-0.4,3.4-1.2,4.9c-0.9,1.5-2.2,2.7-3.7,3.4c-1.9,0.9-3.9,1.3-6,1.2c-3,0.1-6-0.8-8.3-2.7c-2.2-1.9-3.5-4.6-3.6-7.5h4.2
	c0.2,1.8,1,3.5,2.4,4.7c1.5,1.3,3.4,1.9,5.4,1.8c1.9,0.1,3.7-0.5,5.1-1.7c1.2-1.2,1.8-2.8,1.8-4.5c0-2.4-0.8-4.1-2.4-5.2
	c-1.6-1.1-4-1.6-7.2-1.6H442v-3.6h1.1c2.3,0.1,4.6-0.4,6.6-1.5c1.5-0.9,2.4-2.6,2.2-4.4c0.1-1.5-0.5-3-1.6-4.1
	c-1.3-1.1-3-1.6-4.7-1.5c-1.7-0.1-3.4,0.5-4.8,1.5c-1.2,1-2,2.5-2.1,4.1h-4.3C434.6,660.8,435.9,658.3,437.9,656.6z"/>
<path class="st2" d="M470.6,684.3c1.3,1,3,1.6,4.7,1.5c2.4,0.1,4.6-1.1,5.9-3.1c1.3-2.1,1.9-5.6,1.8-10.5c-0.7,1.5-1.9,2.7-3.4,3.4
	c-1.6,0.8-3.4,1.2-5.2,1.2c-2,0-3.9-0.4-5.7-1.3c-1.7-0.9-3.1-2.2-4-3.8c-1-1.9-1.5-4-1.4-6.1c-0.1-3,0.9-6,3-8.2
	c2-2.1,4.8-3.1,8.4-3.1c4.5,0,7.6,1.5,9.4,4.4s2.7,7.2,2.7,13c0.1,3.4-0.3,6.7-1.1,10c-0.5,2.3-1.8,4.4-3.6,6c-2,1.5-4.5,2.2-7,2.1
	c-3.2,0-5.8-0.9-7.6-2.6c-1.8-1.8-2.9-4.2-3.1-6.7h4C468.6,681.8,469.4,683.3,470.6,684.3z M480.4,671.1c1.4-1.4,2.2-3.4,2.1-5.4
	c0.1-2.1-0.6-4.2-2-5.8c-1.5-1.5-3.5-2.3-5.6-2.2c-2-0.1-3.9,0.7-5.3,2.1c-1.4,1.5-2.1,3.5-2,5.5c-0.1,2.1,0.6,4.1,2,5.6
	c1.5,1.5,3.6,2.3,5.7,2.1C477.1,673.2,479,672.5,480.4,671.1z"/>
<path class="st2" d="M524.6,670v3.7h-19.1V670H524.6z"/>
<path class="st2" d="M553.9,677.9c2.2-2,4.1-4.2,5.8-6.5c1.5-1.9,2.3-4.3,2.4-6.7c0.1-1.8-0.4-3.5-1.5-4.9c-1-1.2-2.6-1.8-4.9-1.8
	c-1.9-0.1-3.7,0.6-5,2c-1.3,1.5-1.9,3.4-1.9,5.4h-4.2c0.1-3.6,1.2-6.3,3.3-8.3c4.5-3.8,11.1-3.9,15.7-0.2c2,2,3.1,4.7,2.9,7.5
	c0,2.8-0.9,5.4-2.4,7.7c-1.5,2.4-3.3,4.6-5.4,6.6c-2,1.9-4.6,4.1-7.7,6.6h16.5v3.7h-23v-3.1C548.4,682.6,551.6,680,553.9,677.9z"/>
<path class="st2" d="M575.1,658.9c1.8-3.1,4.9-4.6,9.4-4.6c4.5,0,7.6,1.5,9.3,4.6c1.8,3.1,2.7,7.4,2.7,12.8c0,5.5-0.9,9.8-2.7,13
	c-1.8,3.1-4.9,4.6-9.3,4.6c-4.4,0-7.6-1.5-9.4-4.6c-1.8-3.1-2.7-7.4-2.7-13S573.3,661.9,575.1,658.9z M591.6,664.7
	c-0.3-1.7-1.1-3.4-2.2-4.7c-1.3-1.2-3.1-1.9-4.9-1.8c-1.8-0.1-3.7,0.5-5,1.8c-1.2,1.3-2,2.9-2.2,4.7c-0.4,2.3-0.6,4.7-0.5,7.1
	c0,2.4,0.2,4.8,0.5,7.2c0.3,1.7,1.1,3.4,2.2,4.7c1.3,1.3,3.2,1.9,5,1.8c1.8,0.1,3.6-0.5,4.9-1.8c1.2-1.3,2-2.9,2.2-4.6
	c0.4-2.4,0.6-4.8,0.5-7.2C592.2,669.4,592,667,591.6,664.7L591.6,664.7z"/>
<path class="st2" d="M605.1,658.9c1.8-3.1,4.9-4.6,9.4-4.6s7.6,1.5,9.3,4.6c1.8,3.1,2.7,7.4,2.7,12.8s-0.9,9.8-2.7,13
	c-1.8,3.1-4.9,4.6-9.3,4.6c-4.4,0-7.6-1.5-9.4-4.6c-1.8-3.1-2.7-7.4-2.7-13S603.3,661.9,605.1,658.9z M621.7,664.7
	c-0.3-1.7-1.1-3.4-2.2-4.7c-2.9-2.4-7-2.4-9.9,0c-1.2,1.3-2,2.9-2.2,4.7c-0.4,2.3-0.6,4.7-0.5,7.1c0,2.4,0.2,4.8,0.5,7.2
	c0.3,1.7,1.1,3.4,2.2,4.7c2.9,2.4,7,2.4,9.9,0c1.2-1.3,2-2.9,2.2-4.7c0.4-2.4,0.6-4.8,0.5-7.2C622.2,669.4,622,667,621.7,664.7z"/>
<path class="st2" d="M640.3,684.3c1.3,1,3,1.6,4.7,1.5c2.4,0.1,4.6-1.1,5.9-3.1c1.3-2.1,1.9-5.6,1.8-10.5c-0.7,1.5-1.9,2.7-3.3,3.4
	c-1.6,0.8-3.4,1.2-5.2,1.2c-2,0-3.9-0.4-5.7-1.3c-1.7-0.9-3-2.2-3.9-3.8c-1-1.9-1.5-4-1.4-6.1c-0.1-3,0.9-6,3-8.2
	c2-2.1,4.8-3.1,8.4-3.1c4.5,0,7.6,1.5,9.4,4.4s2.7,7.2,2.7,13c0.1,3.4-0.3,6.7-1.1,10c-0.5,2.3-1.8,4.4-3.6,6c-2,1.5-4.5,2.2-7,2.1
	c-3.2,0-5.8-0.9-7.6-2.6c-1.8-1.8-2.9-4.2-3.1-6.7h4C638.3,681.8,639.1,683.3,640.3,684.3z M650.1,671.1c1.4-1.4,2.2-3.4,2.1-5.4
	c0.1-2.1-0.6-4.2-2-5.8c-1.5-1.5-3.5-2.3-5.7-2.2c-2-0.1-3.9,0.7-5.3,2.1c-1.4,1.5-2.1,3.5-2,5.5c-0.1,2.1,0.6,4.1,2,5.6
	c1.5,1.5,3.6,2.3,5.7,2.1C646.8,673.2,648.7,672.5,650.1,671.1z"/>
<path class="st2" d="M684.7,658.6h-16.8v10.9c0.8-1.1,2-2,3.2-2.5c1.5-0.7,3-1,4.7-1c2.3-0.1,4.5,0.5,6.5,1.7c1.6,1,2.8,2.5,3.6,4.3
	c0.7,1.8,1.1,3.6,1.1,5.5c0,2.1-0.4,4.2-1.3,6.2c-0.8,1.8-2.2,3.3-3.9,4.3c-2,1.1-4.3,1.7-6.6,1.6c-2.9,0.1-5.8-0.8-8.1-2.6
	c-2.1-1.7-3.4-4.2-3.8-6.9h4.3c0.3,1.7,1.3,3.2,2.6,4.3c1.5,1.1,3.3,1.6,5.1,1.5c2.1,0.2,4.2-0.7,5.7-2.3c1.3-1.7,2-3.8,1.9-6
	c0.1-2.1-0.6-4.2-1.9-5.8c-1.5-1.4-3.6-2.2-5.7-2c-1.6,0-3.1,0.4-4.4,1.2c-1.2,0.8-2.2,2-2.8,3.3h-4.1v-19.5h20.8L684.7,658.6z"/>
<path class="st2" d="M691.6,681.7v-3.3l16.8-23.2h5.2v22.8h4.8v3.8h-4.8v7.7h-4.3v-7.7L691.6,681.7z M709.5,659.7l-12.9,18.2h12.9
	V659.7z"/>
<path class="st2" d="M725,668.3c-1-1.4-1.5-3.1-1.4-4.9c0-1.6,0.4-3.3,1.3-4.7c0.9-1.5,2.3-2.6,3.8-3.3c4-1.6,8.4-1.6,12.4,0
	c1.6,0.7,2.9,1.8,3.9,3.3c0.9,1.4,1.3,3,1.3,4.7c0,1.7-0.5,3.4-1.5,4.9c-1,1.4-2.4,2.5-4.1,3.1c1.9,0.5,3.5,1.6,4.7,3.2
	c1.2,1.6,1.8,3.5,1.7,5.5c0,1.9-0.5,3.8-1.5,5.4c-1.1,1.6-2.6,2.8-4.3,3.6c-2,0.9-4.2,1.3-6.4,1.3c-2.2,0-4.4-0.4-6.4-1.3
	c-1.7-0.8-3.2-2-4.3-3.6c-1-1.6-1.6-3.5-1.5-5.4c-0.1-2,0.6-3.9,1.7-5.5c1.2-1.5,2.8-2.7,4.7-3.2C727.5,670.8,726,669.7,725,668.3z
	 M729.1,675c-1.5,1.2-2.4,3-2.2,5c-0.1,1.9,0.7,3.7,2.2,4.9c1.7,1.3,3.7,2,5.9,1.9c2.1,0.1,4.2-0.5,5.8-1.9c1.4-1.2,2.2-3,2.2-4.9
	c0.1-1.9-0.7-3.7-2.2-4.9c-1.7-1.2-3.7-1.8-5.8-1.7C732.8,673.2,730.8,673.8,729.1,675L729.1,675z M740.1,659.5
	c-3.2-2.1-7.3-2.1-10.5,0c-1.3,1.1-2,2.8-1.9,4.5c-0.1,1.7,0.7,3.3,2,4.3c3.1,2.2,7.2,2.2,10.3,0c1.3-1.1,2-2.7,2-4.3
	C742.2,662.3,741.5,660.6,740.1,659.5L740.1,659.5z"/>
<path class="st2" d="M965.4,684.8c-1.6-0.7-3-1.8-4-3.2c-1-1.4-1.5-3.1-1.5-4.8h4.6c0.1,1.5,0.8,2.9,1.9,3.9
	c1.4,1.1,3.1,1.7,4.9,1.6c1.8,0.1,3.5-0.4,4.8-1.5c1.2-1,1.8-2.4,1.8-4c0.1-1.1-0.3-2.2-1-3.1c-0.7-0.8-1.6-1.4-2.6-1.8
	c-1.4-0.5-2.8-1-4.2-1.3c-1.8-0.4-3.6-1-5.3-1.7c-1.3-0.6-2.5-1.5-3.4-2.7c-1-1.4-1.5-3.2-1.4-4.9c0-1.7,0.5-3.4,1.4-4.8
	c0.9-1.4,2.3-2.5,3.8-3.2c1.8-0.8,3.7-1.2,5.7-1.1c2.7-0.1,5.4,0.7,7.6,2.3c1.9,1.5,3.1,3.7,3.3,6.2h-4.7c-0.2-1.3-0.9-2.5-2-3.3
	c-1.3-1-3-1.5-4.6-1.4c-1.6-0.1-3.1,0.4-4.4,1.4c-1.2,1-1.8,2.4-1.7,3.9c-0.1,1.1,0.3,2.1,1,2.9c0.7,0.8,1.6,1.3,2.6,1.7
	c1.4,0.5,2.8,1,4.2,1.3c1.8,0.5,3.5,1.1,5.3,1.8c1.3,0.6,2.5,1.5,3.4,2.7c1,1.4,1.5,3.2,1.4,5c0,1.6-0.4,3.2-1.3,4.5
	c-0.9,1.5-2.2,2.7-3.8,3.5c-1.8,0.9-3.9,1.4-5.9,1.3C969.3,686,967.3,685.6,965.4,684.8z"/>
<path class="st2" d="M1011.6,659.7v25.9h-4.3v-3.8c-0.8,1.3-2,2.4-3.4,3.1c-1.5,0.7-3.2,1.1-4.9,1.1c-1.9,0-3.8-0.4-5.4-1.2
	c-1.6-0.8-2.9-2.2-3.8-3.8c-1-1.9-1.5-4-1.4-6.1v-15.2h4.3v14.6c-0.1,2.1,0.6,4.3,1.9,5.9c1.4,1.4,3.3,2.2,5.3,2.1
	c2,0.1,4-0.7,5.5-2.1c1.4-1.7,2.2-4,2-6.2v-14.2H1011.6z"/>
<path class="st2" d="M1027.1,660.8c1.8-1,3.8-1.5,5.8-1.5c2.2,0,4.4,0.5,6.3,1.7c1.9,1.1,3.4,2.7,4.4,4.7c1.1,2.2,1.7,4.6,1.6,7
	c0,2.4-0.5,4.8-1.6,7c-2,4-6.2,6.6-10.7,6.5c-2.1,0-4.1-0.5-5.9-1.5c-1.6-0.9-2.9-2.2-3.8-3.7v4.8h-4.3v-35h4.3v13.9
	C1024.1,663,1025.5,661.7,1027.1,660.8z M1039.6,667.5c-0.7-1.4-1.8-2.5-3.2-3.3c-1.3-0.8-2.9-1.2-4.4-1.2c-1.5,0-3.1,0.4-4.4,1.2
	c-1.4,0.8-2.5,2-3.2,3.4c-0.8,1.6-1.3,3.3-1.2,5.1c0,1.8,0.4,3.6,1.2,5.1c0.7,1.4,1.9,2.6,3.2,3.4c2.7,1.5,6.1,1.5,8.8,0
	c1.4-0.8,2.5-2,3.2-3.4c0.8-1.6,1.2-3.4,1.2-5.2C1040.8,670.8,1040.4,669.1,1039.6,667.5z"/>
<path class="st2" d="M1050.9,665.6c1-1.9,2.5-3.6,4.4-4.7c1.9-1.1,4.1-1.7,6.3-1.7c2.1-0.1,4.1,0.5,5.9,1.5c1.6,0.9,2.9,2.1,3.7,3.7
	v-4.7h4.4v25.9h-4.4v-4.8c-0.9,1.6-2.2,2.9-3.8,3.8c-1.8,1-3.8,1.5-5.9,1.5c-2.2,0-4.4-0.6-6.2-1.7c-1.9-1.2-3.4-2.8-4.4-4.8
	c-1.1-2.2-1.6-4.6-1.6-7C1049.2,670.2,1049.8,667.8,1050.9,665.6z M1070.1,667.5c-0.7-1.4-1.8-2.5-3.2-3.3c-1.3-0.8-2.9-1.2-4.4-1.2
	c-1.5,0-3.1,0.4-4.4,1.1c-1.3,0.8-2.4,1.9-3.2,3.3c-0.8,1.6-1.2,3.3-1.2,5.1c0,1.8,0.4,3.6,1.2,5.2c0.7,1.4,1.8,2.6,3.2,3.4
	c1.3,0.8,2.9,1.2,4.4,1.2c1.6,0,3.1-0.4,4.4-1.2c1.4-0.8,2.5-2,3.2-3.4C1071.6,674.5,1071.6,670.8,1070.1,667.5z"/>
<path class="st2" d="M1087.3,679.7l-5.3,12.7h-2.9l3.4-12.7H1087.3z"/>
<path class="st2" d="M1124.7,670.1c1,0.8,1.8,1.8,2.4,2.9c0.6,1.2,0.9,2.4,0.9,3.7c0,1.6-0.4,3.2-1.3,4.5c-0.9,1.4-2.2,2.5-3.7,3.2
	c-1.8,0.8-3.8,1.2-5.8,1.2h-12.3v-33h11.8c2-0.1,3.9,0.3,5.7,1.1c1.5,0.6,2.7,1.7,3.6,3c0.8,1.3,1.2,2.8,1.2,4.3
	c0.1,1.8-0.5,3.5-1.6,4.8c-1.1,1.3-2.6,2.3-4.2,2.8C1122.6,668.9,1123.8,669.4,1124.7,670.1z M1109.2,666.9h7.2
	c1.7,0.1,3.3-0.4,4.7-1.4c2.2-2.1,2.2-5.6,0.1-7.7c0,0-0.1-0.1-0.1-0.1c-1.4-1-3.1-1.5-4.8-1.4h-7.1V666.9z M1121.8,680.6
	c1.2-1.1,1.9-2.6,1.8-4.2c0.1-1.7-0.6-3.3-1.9-4.3c-1.4-1.1-3.2-1.7-5.1-1.6h-7.5v11.6h7.6C1118.6,682.2,1120.4,681.7,1121.8,680.6
	L1121.8,680.6z"/>
<path class="st2" d="M1138.6,684.4c-2-1.1-3.6-2.7-4.6-4.7c-1.2-2.2-1.7-4.6-1.7-7.1c0-2.4,0.5-4.9,1.7-7c1.1-2,2.7-3.6,4.7-4.7
	c4.2-2.2,9.2-2.2,13.3,0c2,1.1,3.6,2.7,4.7,4.7c2.3,4.4,2.3,9.7,0,14.1c-1.1,2-2.8,3.6-4.8,4.7c-2.1,1.1-4.4,1.7-6.7,1.7
	C1142.9,686.2,1140.7,685.6,1138.6,684.4z M1149.6,681.2c1.4-0.7,2.5-1.9,3.3-3.3c0.9-1.6,1.3-3.5,1.3-5.3c0.1-1.8-0.4-3.7-1.2-5.3
	c-0.7-1.4-1.9-2.5-3.2-3.2c-2.7-1.4-5.9-1.4-8.6,0c-1.3,0.7-2.4,1.9-3.2,3.2c-0.8,1.6-1.2,3.5-1.2,5.3c-0.1,1.9,0.3,3.7,1.2,5.3
	c0.7,1.4,1.8,2.5,3.1,3.2c1.3,0.7,2.8,1.1,4.3,1.1C1146.7,682.3,1148.2,681.9,1149.6,681.2z"/>
<path class="st2" d="M1180.8,660.8c1.6,0.9,2.9,2.1,3.8,3.7v-4.7h4.3v26.5c0,2.2-0.5,4.4-1.5,6.3c-1,1.8-2.5,3.3-4.3,4.3
	c-2,1.1-4.3,1.6-6.6,1.6c-3,0.1-6-0.8-8.5-2.5c-2.2-1.5-3.7-3.9-4-6.6h4.3c0.5,1.6,1.5,2.9,2.9,3.8c1.6,1,3.5,1.5,5.3,1.5
	c2.2,0.1,4.3-0.7,5.8-2.2c1.6-1.7,2.4-3.9,2.2-6.2v-5.4c-0.9,1.6-2.2,2.9-3.8,3.8c-1.8,1-3.8,1.6-5.9,1.5c-4.5,0.1-8.7-2.5-10.7-6.5
	c-1.1-2.2-1.7-4.6-1.6-7c-0.1-2.4,0.5-4.8,1.6-7c1-1.9,2.5-3.6,4.4-4.7c1.9-1.1,4.1-1.7,6.3-1.7C1177,659.2,1179,659.7,1180.8,660.8
	z M1183.4,667.5c-0.7-1.4-1.8-2.5-3.2-3.3c-1.3-0.8-2.9-1.2-4.4-1.2c-1.5,0-3.1,0.4-4.4,1.1c-1.3,0.8-2.4,1.9-3.2,3.3
	c-0.8,1.6-1.2,3.3-1.2,5.1c0,1.8,0.4,3.6,1.2,5.2c0.7,1.4,1.8,2.6,3.2,3.4c1.3,0.8,2.9,1.2,4.4,1.2c1.6,0,3.1-0.4,4.4-1.2
	c1.4-0.8,2.5-2,3.2-3.4C1185,674.5,1185,670.8,1183.4,667.5z"/>
<path class="st2" d="M1200.9,684.4c-2-1.1-3.6-2.7-4.6-4.7c-1.2-2.2-1.7-4.6-1.7-7.1c0-2.4,0.6-4.9,1.7-7c1.1-2,2.7-3.6,4.7-4.7
	c4.2-2.2,9.2-2.2,13.3,0c2,1.1,3.6,2.7,4.7,4.7c1.2,2.2,1.8,4.6,1.7,7.1c0.1,2.5-0.6,4.9-1.8,7.1c-1.1,2-2.8,3.6-4.8,4.7
	c-2.1,1.1-4.4,1.7-6.7,1.7C1205.2,686.1,1202.9,685.6,1200.9,684.4z M1211.9,681.2c1.4-0.7,2.5-1.9,3.3-3.3c0.9-1.6,1.3-3.5,1.3-5.3
	c0.1-1.8-0.4-3.7-1.2-5.3c-0.7-1.4-1.9-2.5-3.2-3.2c-1.3-0.7-2.8-1.1-4.3-1.1c-1.5,0-3,0.3-4.3,1.1c-1.3,0.7-2.4,1.9-3.2,3.2
	c-0.8,1.6-1.2,3.5-1.2,5.3c-0.1,1.9,0.3,3.7,1.2,5.3c0.7,1.4,1.8,2.5,3.1,3.2c1.3,0.7,2.8,1.1,4.3,1.1
	C1209.1,682.3,1210.6,681.9,1211.9,681.2L1211.9,681.2z"/>
<path class="st2" d="M1231.8,663.3v15.3c-0.1,1,0.2,1.9,0.8,2.7c0.8,0.6,1.8,0.9,2.8,0.8h3.2v3.6h-3.9c-1.9,0.2-3.9-0.4-5.4-1.7
	c-1.2-1.1-1.8-2.9-1.8-5.5v-15.3h-3.4v-3.5h3.4v-6.5h4.3v6.5h6.8v3.5H1231.8z"/>
<path class="st2" d="M1243.7,665.6c1-1.9,2.5-3.6,4.4-4.7c1.9-1.1,4.1-1.7,6.3-1.7c2.1,0,4.1,0.5,5.9,1.5c1.6,0.9,2.9,2.2,3.7,3.7
	v-4.7h4.3v25.9h-4.3v-4.8c-0.9,1.6-2.2,2.9-3.8,3.8c-1.8,1-3.8,1.5-5.9,1.5c-4.5,0.1-8.6-2.5-10.7-6.5c-1.1-2.2-1.7-4.6-1.6-7
	C1242.1,670.2,1242.6,667.8,1243.7,665.6z M1262.9,667.5c-0.7-1.4-1.8-2.5-3.2-3.3c-1.3-0.8-2.9-1.2-4.4-1.2c-1.5,0-3.1,0.4-4.4,1.1
	c-1.3,0.8-2.4,1.9-3.2,3.3c-0.8,1.6-1.2,3.3-1.2,5.1c0,1.8,0.4,3.6,1.2,5.2c0.7,1.4,1.8,2.6,3.2,3.4c1.3,0.8,2.9,1.2,4.4,1.2
	c1.6,0,3.1-0.4,4.4-1.2c1.4-0.8,2.5-2,3.2-3.4C1264.5,674.5,1264.5,670.8,1262.9,667.5z M1260.7,652.4l-10.1,5.4v-3.2l10.1-5.9
	V652.4z"/>
<g>
	<path d="M959.5,607.1c2-3.5,4.7-6.2,8.2-8.2c3.5-1.9,7.3-2.9,11.6-2.9c5,0,9.4,1.3,13.2,3.9c3.8,2.6,6.4,6.1,7.9,10.7H990
		c-1-2.1-2.5-3.7-4.3-4.8c-1.9-1.1-4-1.6-6.5-1.6c-2.6,0-4.9,0.6-7,1.8c-2,1.2-3.6,2.9-4.8,5.2c-1.1,2.2-1.7,4.8-1.7,7.8
		c0,3,0.6,5.6,1.7,7.8c1.1,2.2,2.7,4,4.8,5.2c2,1.2,4.4,1.8,7,1.8c2.4,0,4.6-0.5,6.5-1.6c1.9-1.1,3.3-2.7,4.3-4.9h10.4
		c-1.5,4.6-4.1,8.2-7.9,10.7c-3.8,2.6-8.2,3.8-13.2,3.8c-4.3,0-8.2-1-11.6-2.9c-3.5-1.9-6.2-4.7-8.2-8.1c-2-3.5-3-7.4-3-11.8
		C956.5,614.6,957.5,610.6,959.5,607.1z"/>
	<path d="M1017.1,593.9v47.6h-9v-47.6H1017.1z"/>
	<path d="M1035,593.9v47.6h-9v-47.6H1035z"/>
	<path d="M1043.8,640.4c-1.1-1-1.6-2.3-1.6-3.8s0.5-2.8,1.6-3.8c1.1-1,2.4-1.5,4-1.5c1.6,0,2.9,0.5,3.9,1.5c1,1,1.5,2.3,1.5,3.8
		s-0.5,2.8-1.5,3.8c-1,1-2.3,1.5-3.9,1.5C1046.2,641.9,1044.8,641.4,1043.8,640.4z"/>
	<path d="M1073.7,602.9v-8.3h15.5v46.9h-9.3v-38.6H1073.7z"/>
	<path d="M1102.8,597c2.8-2.3,6.5-3.5,11.1-3.5c3.1,0,5.8,0.5,8,1.6c2.2,1.1,3.9,2.6,5,4.4c1.1,1.9,1.7,4,1.7,6.3
		c0,2.7-0.7,5-2.1,6.8c-1.4,1.9-3.1,3.1-5,3.8v0.3c2.5,0.8,4.4,2.1,5.8,4.1c1.4,2,2.1,4.5,2.1,7.6c0,2.6-0.6,4.9-1.8,6.9
		c-1.2,2-2.9,3.6-5.2,4.7c-2.3,1.1-5,1.7-8.3,1.7c-4.8,0-8.8-1.2-11.8-3.7c-3-2.4-4.7-6-4.8-10.8h8.7c0.1,2.1,0.8,3.8,2.2,5
		c1.3,1.3,3.2,1.9,5.6,1.9c2.2,0,3.9-0.6,5-1.8c1.2-1.2,1.8-2.8,1.8-4.7c0-2.6-0.8-4.4-2.4-5.5c-1.6-1.1-4.2-1.7-7.6-1.7h-1.9v-7.4
		h1.9c6.1,0,9.1-2,9.1-6.1c0-1.8-0.5-3.3-1.6-4.3c-1.1-1-2.7-1.5-4.7-1.5c-2,0-3.6,0.5-4.7,1.6c-1.1,1.1-1.7,2.5-1.9,4.1h-8.8
		C1098.4,602.7,1099.9,599.4,1102.8,597z"/>
	<path d="M1135.5,602.9v-8.3h15.5v46.9h-9.3v-38.6H1135.5z"/>
	<path d="M1215.7,612.6l-2.1,9.9h8.2v8h-9.9l-2.3,10.9h-8.5l2.3-10.9h-11.7l-2.3,10.9h-8.5l2.3-10.9h-9.7v-8h11.4l2.1-9.9h-9.6v-8
		h11.4l2.3-10.7h8.5l-2.3,10.7h11.7l2.2-10.7h8.6l-2.2,10.7h8.2v8H1215.7z M1207.2,612.6h-11.7l-2.1,9.9h11.7L1207.2,612.6z"/>
	<path d="M1263.7,602.4h-20.8v11c0.9-1.1,2.2-2,3.9-2.7c1.7-0.7,3.5-1.1,5.3-1.1c3.4,0,6.2,0.8,8.4,2.2c2.2,1.5,3.8,3.4,4.8,5.8
		c1,2.3,1.5,4.8,1.5,7.5c0,4.9-1.4,8.9-4.2,11.9c-2.8,3-6.8,4.5-12,4.5c-4.9,0-8.8-1.2-11.7-3.7c-2.9-2.4-4.6-5.6-5-9.6h8.7
		c0.4,1.7,1.3,3.1,2.6,4.1c1.3,1,3.1,1.5,5.2,1.5c2.5,0,4.4-0.8,5.7-2.4c1.3-1.6,1.9-3.7,1.9-6.3c0-2.7-0.7-4.7-2-6.1
		c-1.3-1.4-3.2-2.1-5.8-2.1c-1.8,0-3.3,0.5-4.5,1.3c-1.2,0.9-2.1,2.1-2.6,3.6h-8.6v-27.5h29.1V602.4z"/>
	<path d="M1275,606.3c0-2.3,0.6-4.4,1.8-6.3c1.2-1.9,3-3.4,5.3-4.6c2.4-1.1,5.3-1.7,8.7-1.7c3.4,0,6.3,0.6,8.7,1.7
		c2.4,1.1,4.2,2.7,5.3,4.6c1.2,1.9,1.8,4,1.8,6.3c0,2.4-0.6,4.4-1.7,6.2c-1.2,1.8-2.7,3.2-4.6,4.1c2.4,1,4.2,2.5,5.5,4.5
		c1.3,2,2,4.3,2,7c0,2.9-0.7,5.5-2.2,7.6c-1.5,2.2-3.5,3.8-6.1,5c-2.6,1.2-5.5,1.7-8.7,1.7c-3.2,0-6.1-0.6-8.6-1.7
		c-2.6-1.2-4.6-2.8-6-5c-1.5-2.2-2.2-4.7-2.2-7.6c0-2.7,0.7-5,2-7c1.3-2,3.2-3.5,5.5-4.5C1277.2,614.5,1275,611,1275,606.3z
		 M1284.9,622.5c-1.5,1.2-2.3,3-2.3,5.3c0,2.1,0.7,3.9,2.2,5.2s3.5,2,6,2c2.5,0,4.5-0.7,6-2.1c1.5-1.4,2.2-3.1,2.2-5.2
		c0-2.3-0.8-4-2.3-5.3c-1.5-1.3-3.5-1.9-5.9-1.9C1288.4,620.6,1286.4,621.2,1284.9,622.5z M1296,602.7c-1.3-1.2-3-1.7-5.2-1.7
		c-2.1,0-3.8,0.6-5.1,1.7c-1.3,1.2-1.9,2.8-1.9,5c0,1.9,0.7,3.5,2,4.6c1.3,1.2,3,1.7,5,1.7c2.1,0,3.8-0.6,5.1-1.8
		c1.3-1.2,2-2.7,2-4.7C1297.9,605.5,1297.3,603.9,1296,602.7z"/>
	<path d="M1315.8,614c1.4-2.8,3.4-4.9,5.9-6.4c2.5-1.5,5.2-2.2,8.3-2.2c2.3,0,4.5,0.5,6.6,1.5c2.1,1,3.8,2.3,5,4v-16.9h9.1v47.6
		h-9.1v-5.3c-1.1,1.8-2.7,3.2-4.7,4.2c-2,1.1-4.4,1.6-7,1.6c-3,0-5.7-0.8-8.2-2.3c-2.5-1.5-4.4-3.7-5.9-6.5c-1.4-2.8-2.2-6-2.2-9.7
		C1313.7,620,1314.4,616.8,1315.8,614z M1340.4,618.1c-0.9-1.6-2-2.8-3.5-3.6c-1.5-0.8-3-1.3-4.7-1.3s-3.2,0.4-4.6,1.2
		c-1.4,0.8-2.6,2-3.4,3.6c-0.9,1.6-1.3,3.4-1.3,5.6c0,2.1,0.4,4,1.3,5.6c0.9,1.6,2,2.8,3.5,3.7c1.4,0.9,3,1.3,4.6,1.3
		c1.7,0,3.2-0.4,4.7-1.3c1.5-0.8,2.6-2,3.5-3.6c0.9-1.6,1.3-3.4,1.3-5.6C1341.7,621.5,1341.3,619.6,1340.4,618.1z"/>
	<path d="M1387,614.8v7.6h-27.3v-7.6H1387z"/>
	<path d="M1398.9,631.3c4.1-3.4,7.4-6.3,9.8-8.6c2.4-2.3,4.5-4.7,6.1-7.2c1.6-2.5,2.4-4.9,2.4-7.3c0-2.2-0.5-3.9-1.5-5.1
		c-1-1.2-2.6-1.9-4.8-1.9c-2.1,0-3.8,0.7-5,2.2c-1.2,1.4-1.8,3.4-1.8,5.9h-8.7c0.2-5.1,1.7-9,4.6-11.7c2.9-2.7,6.6-4,11-4
		c4.9,0,8.6,1.3,11.3,3.9c2.6,2.6,3.9,6,3.9,10.3c0,3.3-0.9,6.5-2.7,9.6c-1.8,3-3.9,5.7-6.2,7.9c-2.3,2.2-5.3,5-9.1,8.1h19v7.5
		h-31.8v-6.7L1398.9,631.3z"/>
	<path d="M1432.5,632.4v-7.1l21-30.1h10.5v29.3h5.7v7.8h-5.7v9.1h-9v-9.1H1432.5z M1455.6,604.9l-13.2,19.7h13.2V604.9z"/>
</g>
</svg>
