<svg xmlns="http://www.w3.org/2000/svg" viewBox="0 0 1549.35 736.89"><defs><style>.cls-1{fill:#fff;}.cls-2{fill:#ffc100;}.cls-3{fill:red;}</style></defs><g id="Capa_2" data-name="Capa 2"><g id="Capa_1-2" data-name="Capa 1"><path class="cls-1" d="M150.15,10.8a10.68,10.68,0,0,1-1.65,5.85q-1.2,2.4-7.8,12.75-4.95,7.8-15,24.45,5.55,2.1,5,7.2,2.7,5.4,2.7,6.3a4.84,4.84,0,0,1-2.55,4.57,45.88,45.88,0,0,1-5.1,2.48c-.2.1-.93.58-2.18,1.42a6,6,0,0,1-2.62,1.28q-.45,0-.45-.75a49,49,0,0,0,3.9-3.68q3.9-3.83,3.9-7.72,0-4.05-5.4-6-10,18.3-12.9,30.9a21.83,21.83,0,0,0-.6,5.85q.3,3.9,3,3.9,5,0,10.5-8.1a2.54,2.54,0,0,1,1.05-1,5.82,5.82,0,0,1,.3.75,25,25,0,0,1-1.27,3.3c-.86,2-1.73,4-2.63,6.15q-2.1,4-4.5,4-3.3,0-9.75-5-2.25-1.65-2.7-5.55-.9-11,10.65-36.75-1.65-.15-3.3-.15a91.85,91.85,0,0,0-17.4,1.8q-9.9,13.35-20,26.7-13.65,18-24.15,27-14.4,12.3-27.15,12.3A28.41,28.41,0,0,1,7.5,121.35Q0,116.7,0,109.2q0-1,.9-1t.9,1.2q0,8.55,12.6,8.55,3.15,0,6.3-.3,15-2.1,29.7-16,4.35-3.9,22.8-25.95,5.55-6.6,13.2-15-13.8,4-27.45,8.1-18.75,5.55-26.7,5.55a7.18,7.18,0,0,1-6.45-3.6,14.36,14.36,0,0,1-1.8-7.5Q24,57.9,37.8,52.5,49.65,48,56.55,48q1.8,0,1.8.6a1.46,1.46,0,0,1-.3.75Q29.4,59,29.4,62.4q0,2,5.7,1.95,10.5,0,28.65-4.2,24.9-5.7,28.8-6.3l6.6-7.35q19.5-21.45,30-32.55,2.55-3.15,7.95-9.6.15.15,8,1.35Q149.7,6.45,150.15,10.8Zm-18.9,10.35q0-.6-.3-.6-3.75,0-32.4,32.4a104.58,104.58,0,0,1,13.2-.9h4.65q2.4-5.07,13.5-27C130.9,23.14,131.35,21.85,131.25,21.15Z"/><path class="cls-1" d="M166.5,61.23a.56.56,0,0,1-.3.87q-.45.45-1.2,0h-1.5A26.83,26.83,0,0,0,152,65.25q-7.35,3.45-6.75,7.2.3,2.1,3.15,4a35,35,0,0,1,6,5.1,10.3,10.3,0,0,1,2.85,6.75q0,5-4.8,8.25a15.64,15.64,0,0,1-9.3,3q-9.75,0-9.75-7.2a9.92,9.92,0,0,1,.45-2.85q.9-3,2.4-3,.3,0,.3.6a3.53,3.53,0,0,0,1.57,3.75,7.29,7.29,0,0,0,4.43,1.5A8,8,0,0,0,148,90.15a6.63,6.63,0,0,0,2.48-5,4.77,4.77,0,0,0-1-3,48.63,48.63,0,0,1-7.35-8.1l-.15.3q-2,3.15-5.25,8.25Q134,86.4,127.2,95a2.83,2.83,0,0,1-2,1.2q-.9,0-.9-1.05a2,2,0,0,1,.45-1.2q5.7-7.05,11-14.55,4.35-6.3,5.4-9.75-.15-6.75,6.9-11.4a20.26,20.26,0,0,1,13.35-3.75Q162.6,54.6,166.5,61.23Z"/><path class="cls-1" d="M210,76.8a40.43,40.43,0,0,1-3.63,5.85q-12.21,17.85-17.19,16.8-6.33-1.35-6.33-6.45a14.83,14.83,0,0,1,.15-2.1,71.2,71.2,0,0,1,2.4-7.65,133.27,133.27,0,0,1-8.7,10.65q-6.91,7.35-9.3,7.35A6.21,6.21,0,0,1,162,98a10.43,10.43,0,0,1-1.65-5.55q0-10.2,11.4-21.52t21-11.18q3.28,0,6.75,4.65a4.23,4.23,0,0,1,1.05,2.85,1.85,1.85,0,0,1-1.05,1.65,5,5,0,0,0-3.15-2.1q-4.82-1.05-15.75,8.17T166.5,92.55a11.75,11.75,0,0,0-.9,3.9c0,1.8,1.09,1.9,3.3.3A86.35,86.35,0,0,0,182.25,84q7-8.1,8.25-12.3c.6-.8,1.74-1.2,3.45-1.2a9.81,9.81,0,0,1,4.05,1c1.39.66,1.89,1.38,1.5,2.18q-7.65,11.4-9.3,17.85a6,6,0,0,0-.3,1.65q0,1.65,1.35,1.65a4.31,4.31,0,0,0,2.85-1.42q1.49-1.42,14-17,1.19-1.5,1.8-1.5C210.54,74.85,210.6,75.5,210,76.8Z"/><path class="cls-1" d="M311.24,4.35q0,1.05-1.2,1.05a1.61,1.61,0,0,1-.9-.3,16.26,16.26,0,0,0-8.4-2.4q-11.4,0-29.55,20.4a204.59,204.59,0,0,0-26.25,37.5q-11.25,20.55-11.25,31.5,0,5.85,3.3,5.85a6.44,6.44,0,0,0,4.2-2.1q6-5.1,14.25-16.65,2.25-3,3-3,.3,0,.3.45,0,2.7-6,10.8a98.5,98.5,0,0,1-8.1,9.6q-3.9,3.9-8.25,3.9A7.81,7.81,0,0,1,230.17,98a11.78,11.78,0,0,1-2.48-7.87,34.51,34.51,0,0,1,.6-6.15q-10.8,16.95-18.15,17a8.62,8.62,0,0,1-6.37-3.13q-2.93-3.12-2.93-5.66,0-10.12,11.4-21.37t21-11.09a5,5,0,0,1,3.15,1.2q12.75-26.85,26.7-43.2Q277.79.45,298.64.45a33,33,0,0,1,6.9,1.05Q311.24,2.7,311.24,4.35ZM233.69,66.9a21.29,21.29,0,0,0-4.52,1.8,54.2,54.2,0,0,0-13,10.5q-6.94,7.2-9.2,13.35a6.23,6.23,0,0,0-.46,2.25c0,2.1.81,3.15,2.42,3.15q5.58,0,21.27-21.9Q231.58,71.85,233.69,66.9Z"/><path class="cls-1" d="M281.84,61.35q4.05,1.2,4.05,4.95,0,4.5-4.8,8.4-1.8,1.5-12.3,8-7.5,4.5-8.55,7.35-.45,1.05-1.2.9-.6-.3-.3-1.35,1.81-5.1,9.07-10.65,9.51-7.2,10.87-8.85a6.66,6.66,0,0,0,1.81-3.9,1.73,1.73,0,0,0-2-2,7.48,7.48,0,0,0-3.92,1.5Q260,75.45,256.2,90.15a13.26,13.26,0,0,0-.46,3.3q0,5.1,5.25,5.1a14,14,0,0,0,7.05-2.1,29.71,29.71,0,0,0,8.25-7.5q3.45-4.35,4.8-4.35c.2,0,.3.15.3.44q0,1.93-4.5,7.44-8.1,9.83-17.7,8.77-8.55-.9-9.9-9.71t8-20.78q9.3-12,17.85-11.81Q275.69,59.7,281.84,61.35Z"/><path class="cls-1" d="M316.49,82.65Q309,93.6,308.24,94.5q-5.85,7.05-10.8,7-3.9,0-5.47-2.55a8.59,8.59,0,0,1-1.13-5.85q.75-5,6.75-13.05,2.4-3.15,2.4-4a.66.66,0,0,0-.75-.75,8.84,8.84,0,0,1-5.7,1.8q-3.45,0-4.2-2.7-1.95,3.15-5.4,8.25-2.55,3.75-9.3,12.3a2.81,2.81,0,0,1-1.95,1.2q-.9,0-.9-1.05a2,2,0,0,1,.45-1.2q5.7-7.05,10.95-14.55a68.39,68.39,0,0,0,7.35-15.3,61.59,61.59,0,0,0,3-10q7.05,2.84,7,7.15,0,4.77-8.7,11.31a3.5,3.5,0,0,0,3,1.94q2.7,0,7.2-4.26a6.52,6.52,0,0,1,5.25-2.94q4.2,0,4.2,3.45a2.89,2.89,0,0,1-.45,1.5q-13.95,19.2-13.95,24.9,0,1.2.9,1.2a5.58,5.58,0,0,0,3.6-1.8q4.65-4.2,14.25-17.25,2.1-3,2.85-3,.3,0,.3.45Q319,78.6,316.49,82.65Z"/><path class="cls-1" d="M349.49,64.5a12.65,12.65,0,0,1,1.95,7q0,12.45-12.75,23.55-7.95,7.05-14.7,6.75a10.65,10.65,0,0,1-7.65-3.75,13,13,0,0,1-3-8.85,24.15,24.15,0,0,1,2.25-9.75,40.18,40.18,0,0,1,10.65-14.33q7.35-6.53,13.8-6.52c.6,0,1.6.63,3,1.87a8.09,8.09,0,0,0,3.9,2.18Q348.29,62.55,349.49,64.5Zm-6.3.9a9,9,0,0,0-5.25,1.95q-4.5,3.15-10.8,11.55-7.35,9.9-7.35,15.15,0,4.8,5.25,4.8,7.05,0,15.3-10.35,7.8-9.9,7.8-17.4Q348.14,65.4,343.19,65.4Z"/><path class="cls-1" d="M488.54,126.75a.48.48,0,0,1,.45-.3q1,0-.75,2.85a19.05,19.05,0,0,1-2.25,3,16.22,16.22,0,0,1-4.2,3.75,16.51,16.51,0,0,1-8.4,2.7,5.39,5.39,0,0,1-3.3-.9q-11.1,0-19.95-9.45-9.3-9.9-14.85-28.5a56.84,56.84,0,0,1-22.8,4.95,24.31,24.31,0,0,1-15.75-5.47q-6.75-5.47-6-13a27.22,27.22,0,0,1,1.05-5,52.17,52.17,0,0,1-6.75.45q-7.95,0-8-7.05,0-5.1,5.55-8.55a2,2,0,0,1,1.2-.45q.6,0,.3.6a2.27,2.27,0,0,1-1.05,1.2,6.3,6.3,0,0,0-3.45,5.55,5.33,5.33,0,0,0,1.65,3.9,5.51,5.51,0,0,0,4,1.65A66.72,66.72,0,0,0,393,78.3q6.75-16.05,36.9-35.85,3.6-29.1,19.5-29.4,1.35,0,1.35.75t-1.8.9q-9.6.3-10.95,22.65l7.8-5q11.85-7.8,11.85-10.35,0-1.8-4.35-1.8-1.95,0-2-1.05,0-.6,1.35-.6,9.45,0,9.3,3.9t-2.1,5.86q-1.49,1.37-10.18,7.06-6.9,4.53-12,8.14,0,9.27,1,20.34,13.49-4.8,19.77-4.8,7.79,0,7.19,6-2,17.25-21.45,29.85,10.5,40.8,26.1,40.8a19.36,19.36,0,0,0,10.8-3.6Q484.79,129.45,488.54,126.75ZM433.79,94.5a156.39,156.39,0,0,1-3.46-17.1q-.4-3.3-.69-7.51-5.86,2.25-15,5.56-5.72,2-9.62,3-3.76,7.2-3.76,13,0,10.35,10.65,10.35Q420.74,101.85,433.79,94.5Zm-4.5-27.15a165.4,165.4,0,0,1,0-17.25q-14.7,12.15-22.5,25.2Q413.69,73.35,429.29,67.35Zm31.95-1.95q.3-3.15-3-3.15-5.7,0-19.2,4.35.6,6.15,1.35,10.2,1,6.15,2.4,11.85Q460.19,76.05,461.24,65.4Z"/><path class="cls-1" d="M588.14,27a15.72,15.72,0,0,1,2.7,8.24q0,8.69-11.85,14.52a51.47,51.47,0,0,1-19.35,5.4l-8.25,1.2q-6.9,1-6.9,1.49a97.63,97.63,0,0,0,3.6,24.27q4.8,18.27,12.45,18.27,3.6,0,7.8-4.65,1.95-2.1,10.95-14.4,2.7-3.75,3.75-3.75.3,0,.3.6,0,3.45-10.65,18.15-8,10.8-16.5,10.35-14.55-.6-23.4-46.95a6.66,6.66,0,0,1,1.2-.6.86.86,0,0,1-.3-.6q0-1.35,4.95-2.25,16.65-2.85,24.9-6.3a40.59,40.59,0,0,0,19.65-16.5,10.6,10.6,0,0,0,1.8-5.7q0-8.55-19.65-10a34.27,34.27,0,0,0-3.6,3.3q-42.6,43.65-42.6,63.45,0,6.9,5.1,6.9v1.2a4.3,4.3,0,0,1-2,.45q-3.45,0-6.15-4.2a13.82,13.82,0,0,1-2.4-7.5q0-11.1,13.65-32.4a235.51,235.51,0,0,1,24.3-31.5q-11.1.15-29,2.25a90.82,90.82,0,0,0-25.65,6.75q-12.9,5.7-12.9,10.8,0,1.95,2.85,1.95.75.6.45,1.05-.3.3-1.65.15-2.7-.3-6.53-4T475.49,30q0-5.68,13.05-10.31,11.55-4.34,28.2-6.28a218,218,0,0,1,39.75-1l.45-.44a3.24,3.24,0,0,1-.9-2.1q0-2.38,4.05-5.53,3-2.24,6.15-4.33a14.68,14.68,0,0,1,6,1.5c2.6,1.2,3.9,2.54,3.9,4a5.26,5.26,0,0,1-.3,1.65q-.75,2.1-6.3,6.89a47.07,47.07,0,0,1,13.2,4.64q4.2,2.4,4.72,5.32A11.52,11.52,0,0,0,588.14,27Z"/><path class="cls-1" d="M610.94,61.35q4,1.2,4,4.95,0,4.5-4.8,8.4-1.8,1.5-12.3,8-7.5,4.5-8.55,7.35-.45,1.05-1.2.9-.6-.3-.3-1.35,1.81-5.1,9.06-10.65,9.51-7.2,10.88-8.85a6.72,6.72,0,0,0,1.81-3.9,1.73,1.73,0,0,0-2-2,7.48,7.48,0,0,0-3.93,1.5q-14.64,9.75-18.41,24.45a13.69,13.69,0,0,0-.45,3.3q0,5.1,5.25,5.1a14,14,0,0,0,7-2.1,29.71,29.71,0,0,0,8.25-7.5q3.45-4.35,4.8-4.35c.2,0,.3.15.3.44q0,1.93-4.5,7.44-8.1,9.83-17.7,8.77-8.55-.9-9.9-9.71t8-20.78q9.3-12,17.85-11.81Q604.79,59.7,610.94,61.35Z"/><path class="cls-1" d="M643,61.23a.56.56,0,0,1-.3.87q-.45.45-1.2,0H640a26.83,26.83,0,0,0-11.55,3.15q-7.35,3.45-6.75,7.2.3,2.1,3.15,4a35,35,0,0,1,6,5.1,10.3,10.3,0,0,1,2.85,6.75q0,5-4.8,8.25a15.64,15.64,0,0,1-9.3,3q-9.75,0-9.75-7.2a9.92,9.92,0,0,1,.45-2.85q.9-3,2.4-3,.3,0,.3.6a3.53,3.53,0,0,0,1.57,3.75A7.29,7.29,0,0,0,619,92.4a8,8,0,0,0,5.47-2.25,6.63,6.63,0,0,0,2.48-5,4.77,4.77,0,0,0-1-3,48.63,48.63,0,0,1-7.35-8.1l-.15.3q-2,3.15-5.25,8.25-2.7,3.75-9.45,12.3a2.83,2.83,0,0,1-2,1.2q-.9,0-.9-1.05a2,2,0,0,1,.45-1.2q5.7-7.05,10.95-14.55,4.35-6.3,5.4-9.75-.15-6.75,6.9-11.4a20.26,20.26,0,0,1,13.35-3.75Q639.14,54.6,643,61.23Z"/><path class="cls-1" d="M694.94,50q2.55,0,2.55,1c0,.6-.43,1.18-1.28,1.72a4.68,4.68,0,0,1-2.62.83q-11,0-25.05,1.05Q664.18,56,656.39,70.2q-6.9,12.6-8.55,18.75a21.47,21.47,0,0,0-.6,4.5c0,2.5.84,3.75,2.55,3.75a5.64,5.64,0,0,0,3.6-1.5q6.45-5.55,14.4-16.5c1.4-2,2.34-3,2.85-3q.3,0,.3.45,0,1.95-2.7,6a178.62,178.62,0,0,1-11.4,15.15,11.93,11.93,0,0,1-8.55,3.9q-8.25,0-8.4-10.2-.15-6.3,6-19.35a146.5,146.5,0,0,1,10.2-18.6h-6.3c-1.5,0-2.25-.52-2.25-1.57,0-1.35.65-2,2-2h8.85A76.34,76.34,0,0,0,663,42.06q3.3-6.11,3.3-6.85a1.28,1.28,0,0,0-.53-1.11,7.64,7.64,0,0,1-1-.82,1.28,1.28,0,0,1-.45-.89c0-1.09.65-1.59,1.95-1.49q1.65.15,6.75,2.68a53.26,53.26,0,0,0,5.4,2.53q-3.75,5.51-9.3,13.84h25.8Z"/><path class="cls-1" d="M712.48,76.8a40.2,40.2,0,0,1-3.62,5.85q-12.21,17.85-17.19,16.8-6.33-1.35-6.34-6.45a14.85,14.85,0,0,1,.16-2.1,72.88,72.88,0,0,1,2.39-7.65,129,129,0,0,1-8.7,10.65q-6.9,7.35-9.3,7.35a6.23,6.23,0,0,1-5.4-3.3,10.51,10.51,0,0,1-1.65-5.55q0-10.2,11.4-21.52t21-11.18q3.3,0,6.75,4.65a4.19,4.19,0,0,1,1,2.85,1.83,1.83,0,0,1-1,1.65,5,5,0,0,0-3.15-2.1q-4.8-1.05-15.75,8.17T669,92.55a11.75,11.75,0,0,0-.9,3.9q0,2.7,3.3.3A85.9,85.9,0,0,0,684.73,84q7-8.1,8.25-12.3.9-1.2,3.45-1.2a9.74,9.74,0,0,1,4.05,1c1.4.66,1.9,1.38,1.5,2.18q-7.65,11.4-9.3,17.85a6.44,6.44,0,0,0-.3,1.65q0,1.65,1.35,1.65a4.29,4.29,0,0,0,2.85-1.42q1.5-1.42,13.95-17,1.2-1.5,1.8-1.5Q713.38,74.85,712.48,76.8Z"/><path class="cls-1" d="M753.58,76.5q2.4-2.85,2.85-2.85a.13.13,0,0,1,.15.15q0,2.25-4.65,9Q750,86,745.33,92.1q-6,7.2-9.15,7.2-4.5,0-6.82-2.25a6,6,0,0,1-1.88-5.4q.15-2.1,3.9-11.7-4.35,5.55-8.7,11-7.35,9.15-10.35,9.15-8.1,0-7.05-6,.6-3.75,5.85-15.75a2.21,2.21,0,0,1,0-2.25q9.3-13.8,12.15-13.8t6.9,4.2q-5.85,7.35-8.55,11.25A52.43,52.43,0,0,0,715,89.4a10.48,10.48,0,0,0-.75,3.15q0,2.7,4-1.35a151.57,151.57,0,0,0,11.47-14.1q8.85-12,10-13.35a5,5,0,0,1,3.75-2.1q2.85,0,6.3,4.05-14.4,18.45-14.4,27.6,0,2.4,1.2,2.4.9,0,2.85-1.65a77.94,77.94,0,0,0,7.35-8.4Q750.28,81.15,753.58,76.5Z"/><path class="cls-1" d="M784.63,82.65q-7.5,10.95-8.25,11.85-5.85,7.05-10.8,7-3.9,0-5.48-2.55A8.59,8.59,0,0,1,759,93.15q.75-5,6.75-13.05,2.4-3.15,2.4-4a.66.66,0,0,0-.75-.75,8.84,8.84,0,0,1-5.7,1.8q-3.45,0-4.2-2.7-2,3.15-5.4,8.25-2.55,3.75-9.3,12.3a2.83,2.83,0,0,1-1.95,1.2q-.9,0-.9-1.05a2,2,0,0,1,.45-1.2q5.7-7.05,11-14.55a68.39,68.39,0,0,0,7.35-15.3,61.59,61.59,0,0,0,3-10q7.05,2.84,7.05,7.15,0,4.77-8.7,11.31a3.5,3.5,0,0,0,3,1.94q2.7,0,7.2-4.26a6.52,6.52,0,0,1,5.25-2.94q4.2,0,4.2,3.45a2.89,2.89,0,0,1-.45,1.5q-14,19.2-14,24.9,0,1.2.9,1.2a5.58,5.58,0,0,0,3.6-1.8q4.65-4.2,14.25-17.25,2.1-3,2.85-3,.3,0,.3.45Q787.18,78.6,784.63,82.65Z"/><path class="cls-1" d="M828.88,76.8a40.2,40.2,0,0,1-3.62,5.85Q813,100.5,808.06,99.45q-6.33-1.35-6.33-6.45a13.5,13.5,0,0,1,.16-2.1,70.48,70.48,0,0,1,2.39-7.65,129,129,0,0,1-8.7,10.65q-6.9,7.35-9.3,7.35a6.23,6.23,0,0,1-5.4-3.3,10.51,10.51,0,0,1-1.65-5.55q0-10.2,11.4-21.52t21-11.18q3.3,0,6.75,4.65a4.19,4.19,0,0,1,1,2.85,1.83,1.83,0,0,1-1,1.65,5,5,0,0,0-3.15-2.1q-4.8-1.05-15.75,8.17t-14.1,17.63a11.75,11.75,0,0,0-.9,3.9q0,2.7,3.3.3A85.9,85.9,0,0,0,801.13,84q7.05-8.1,8.25-12.3.9-1.2,3.45-1.2a9.74,9.74,0,0,1,4,1c1.4.66,1.9,1.38,1.5,2.18q-7.65,11.4-9.3,17.85a6.44,6.44,0,0,0-.3,1.65q0,1.65,1.35,1.65A4.29,4.29,0,0,0,813,93.38q1.5-1.42,13.95-17,1.2-1.5,1.8-1.5Q829.78,74.85,828.88,76.8Z"/><path class="cls-1" d="M864.73,85q-10,15.76-16.4,16.21-8.36.6-8.35-8.06,0-7.62,6-18.37c1.57-3,2.36-4.88,2.36-5.67q0-.45-.3-.45-2.55,0-13.65,14.55-6.75,8.85-8.1,14.85c-.21.9-1,1.35-2.25,1.35a4.43,4.43,0,0,1-3.45-1.5,5.43,5.43,0,0,1-1.5-4.65q.15-.9,11-24.15a2,2,0,0,1-.75-2.7q.6-1.2,4.35-8,2.4-1.95,7.05-2,4.5,0,1.5,4.8-12.15,20.55-12.15,23.1,0,.45,2.85-3.45a166.68,166.68,0,0,1,19.65-21.75,28.4,28.4,0,0,0,5.25,1q3.45.45,3.45,2.85,0,4.77-7.95,14.49t-8,17.63c0,2,.6,3,1.8,3a5.3,5.3,0,0,0,2.55-.89q5.4-3.27,12-12.33c.9-1.19,1.7-1.78,2.4-1.78.5,0,.75.3.75.89A2.83,2.83,0,0,1,864.73,85Z"/><path class="cls-1" d="M915.73,50c1.69,0,2.55.35,2.55,1s-.43,1.18-1.28,1.72a4.68,4.68,0,0,1-2.62.83q-11,0-25,1.05Q885,56,877.18,70.2,870.27,82.8,868.63,89a20.82,20.82,0,0,0-.6,4.5c0,2.5.84,3.75,2.55,3.75a5.64,5.64,0,0,0,3.6-1.5q6.44-5.55,14.4-16.5,2.08-3,2.85-3c.19,0,.3.15.3.45q0,1.95-2.7,6a183.13,183.13,0,0,1-11.4,15.15,11.93,11.93,0,0,1-8.55,3.9q-8.26,0-8.4-10.2-.16-6.3,6-19.35a145.26,145.26,0,0,1,10.2-18.6h-6.3c-1.5,0-2.25-.52-2.25-1.57,0-1.35.64-2,1.95-2h8.85a78.29,78.29,0,0,0,4.65-7.89c2.19-4.07,3.3-6.35,3.3-6.85a1.28,1.28,0,0,0-.53-1.11,7.64,7.64,0,0,1-1-.82,1.28,1.28,0,0,1-.45-.89c0-1.09.64-1.59,2-1.49q1.63.15,6.75,2.68a52.08,52.08,0,0,0,5.4,2.53q-3.76,5.51-9.3,13.84h25.8Z"/><path class="cls-1" d="M918.87,61.35q4.05,1.2,4,4.95,0,4.5-4.8,8.4-1.8,1.5-12.3,8-7.5,4.5-8.55,7.35-.45,1.05-1.2.9-.6-.3-.3-1.35,1.82-5.1,9.07-10.65,9.51-7.2,10.87-8.85a6.66,6.66,0,0,0,1.81-3.9,1.73,1.73,0,0,0-2-2,7.45,7.45,0,0,0-3.92,1.5Q897,75.45,893.22,90.15a13.69,13.69,0,0,0-.45,3.3q0,5.1,5.25,5.1a14,14,0,0,0,7.05-2.1,29.71,29.71,0,0,0,8.25-7.5q3.45-4.35,4.8-4.35c.2,0,.3.15.3.44q0,1.93-4.5,7.44-8.1,9.83-17.7,8.77-8.55-.9-9.9-9.71t7.95-20.78q9.3-12,17.85-11.81Q912.72,59.7,918.87,61.35Z"/><path class="cls-1" d="M57.3,152.35v21.3H91.65v19.8H57.3v23.1H96.15V237.1H31.65V131.8h64.5v20.55Z"/><path class="cls-1" d="M177.3,237.1l-21.45-32.25L137,237.1h-29.1l33.75-53.55L107.1,131.8H137l21.15,31.8,18.6-31.8h29.1l-33.45,53.1,34.8,52.2Z"/><path class="cls-1" d="M295.05,255.1,281.55,237a59.59,59.59,0,0,1-11.7,1.2,55,55,0,0,1-27.23-6.9A51.59,51.59,0,0,1,223,212a56.73,56.73,0,0,1,0-55.57,51.74,51.74,0,0,1,19.65-19.2,57.16,57.16,0,0,1,54.45,0,50.66,50.66,0,0,1,19.5,19.2,54.35,54.35,0,0,1,7.13,27.75,55.27,55.27,0,0,1-5.48,24.67A50.8,50.8,0,0,1,303,227.35l23.1,27.75Zm-45.53-48.68q7.57,8.33,20.33,8.33,12.6,0,20.17-8.4t7.58-22.2q0-14-7.58-22.27t-20.17-8.33q-12.75,0-20.33,8.25T242,184.15Q242,198.1,249.52,206.42Z"/><path class="cls-1" d="M363.45,131.8v63q0,9.45,4.65,14.55t13.65,5.1q9,0,13.8-5.1t4.8-14.55v-63H426v62.85q0,14.1-6,23.85a38.43,38.43,0,0,1-16.13,14.7,50.69,50.69,0,0,1-22.57,5A49.34,49.34,0,0,1,359,233.27a36.27,36.27,0,0,1-15.52-14.7q-5.7-9.81-5.7-23.92V131.8Z"/><path class="cls-1" d="M469.65,131.8V237.1H444V131.8Z"/><path class="cls-1" d="M505.64,234.4A33.73,33.73,0,0,1,491,223.3a30.33,30.33,0,0,1-5.78-17.7h27.3q.6,5.85,4.05,8.92a13,13,0,0,0,9,3.08c3.8,0,6.8-.87,9-2.63a8.76,8.76,0,0,0,3.3-7.27,8.61,8.61,0,0,0-2.62-6.45,21.18,21.18,0,0,0-6.45-4.2,103.91,103.91,0,0,0-10.88-3.75,118.41,118.41,0,0,1-16.65-6.3,30.76,30.76,0,0,1-11.1-9.3q-4.65-6.15-4.65-16,0-14.7,10.65-23t27.75-8.32q17.4,0,28,8.32t11.4,23.18H535.64a10.86,10.86,0,0,0-3.75-8,13.21,13.21,0,0,0-8.85-2.92,11,11,0,0,0-7.5,2.47q-2.85,2.48-2.85,7.13,0,5.1,4.8,8t15,6.15a138.84,138.84,0,0,1,16.58,6.6,31.54,31.54,0,0,1,11,9.15q4.65,6,4.65,15.45a30.31,30.31,0,0,1-4.57,16.35,32.06,32.06,0,0,1-13.28,11.7q-8.7,4.35-20.55,4.35A54.17,54.17,0,0,1,505.64,234.4Z"/><path class="cls-1" d="M606.14,131.8V237.1H580.49V131.8Z"/><path class="cls-1" d="M700.49,131.8v20.55h-27.9V237.1H646.94V152.35H619V131.8Z"/><path class="cls-1" d="M736,231.25A51.59,51.59,0,0,1,716.32,212a56.66,56.66,0,0,1,0-55.57A51.74,51.74,0,0,1,736,137.2a57.16,57.16,0,0,1,54.45,0,50.66,50.66,0,0,1,19.5,19.2,57.49,57.49,0,0,1-.08,55.57,51.21,51.21,0,0,1-19.5,19.28,57,57,0,0,1-54.37,0Zm47.4-24.9q7.56-8.4,7.57-22.2,0-14-7.57-22.27t-20.18-8.33q-12.75,0-20.32,8.25t-7.58,22.35q0,13.95,7.58,22.27t20.32,8.33Q775.79,214.75,783.37,206.35Z"/><path class="cls-1" d="M848.69,234.4a33.67,33.67,0,0,1-14.62-11.1,30.26,30.26,0,0,1-5.78-17.7h27.3q.6,5.85,4,8.92a13,13,0,0,0,9,3.08c3.8,0,6.8-.87,9-2.63a8.76,8.76,0,0,0,3.3-7.27,8.64,8.64,0,0,0-2.62-6.45,21.3,21.3,0,0,0-6.45-4.2A103.91,103.91,0,0,0,861,193.3a118.41,118.41,0,0,1-16.65-6.3,30.76,30.76,0,0,1-11.1-9.3q-4.65-6.15-4.65-16,0-14.7,10.65-23T867,130.3q17.4,0,28,8.32t11.4,23.18H878.69a10.86,10.86,0,0,0-3.75-8,13.21,13.21,0,0,0-8.85-2.92,11,11,0,0,0-7.5,2.47q-2.85,2.48-2.85,7.13,0,5.1,4.8,8t15,6.15a139.53,139.53,0,0,1,16.58,6.6,31.63,31.63,0,0,1,11,9.15q4.65,6,4.65,15.45a30.4,30.4,0,0,1-4.57,16.35,32.12,32.12,0,0,1-13.28,11.7q-8.7,4.35-20.55,4.35A54.17,54.17,0,0,1,848.69,234.4Z"/><path class="cls-1" d="M1031.39,182.42a30.83,30.83,0,0,1-12.9,12.23q-8.7,4.65-21.6,4.65H981v37.8H955.34V131.8h41.55q12.6,0,21.3,4.35a29.9,29.9,0,0,1,13,12,34.88,34.88,0,0,1,4.35,17.55A33.86,33.86,0,0,1,1031.39,182.42Zm-25.5-7q3.6-3.45,3.6-9.75t-3.6-9.75q-3.6-3.45-10.95-3.45H981v26.4h14Q1002.29,178.9,1005.89,175.45Z"/><path class="cls-1" d="M1074.59,217.3h33.6v19.8h-59.25V131.8h25.65Z"/><path class="cls-1" d="M1186,218.5h-39.3l-6.3,18.6h-26.85l38.1-105.3h29.7l38.1,105.3h-27.15Zm-6.6-19.8-13-38.55-12.9,38.55Z"/><path class="cls-1" d="M1306.78,131.8v20.55h-27.9V237.1h-25.65V152.35h-27.9V131.8Z"/><path class="cls-1" d="M1342.26,231.25A51.59,51.59,0,0,1,1322.61,212a56.66,56.66,0,0,1,0-55.57,51.74,51.74,0,0,1,19.65-19.2,57.16,57.16,0,0,1,54.45,0,50.66,50.66,0,0,1,19.5,19.2,57.49,57.49,0,0,1-.08,55.57,51.21,51.21,0,0,1-19.5,19.28,57,57,0,0,1-54.37,0Zm47.4-24.9q7.58-8.4,7.57-22.2,0-14-7.57-22.27t-20.18-8.33q-12.75,0-20.32,8.25t-7.58,22.35q0,13.95,7.58,22.27t20.32,8.33Q1382.08,214.75,1389.66,206.35Z"/><path class="cls-1" d="M1455,234.4a33.73,33.73,0,0,1-14.62-11.1,30.33,30.33,0,0,1-5.78-17.7h27.3q.6,5.85,4,8.92a13,13,0,0,0,9,3.08c3.8,0,6.8-.87,9-2.63a8.76,8.76,0,0,0,3.3-7.27,8.61,8.61,0,0,0-2.62-6.45,21.18,21.18,0,0,0-6.45-4.2,103.91,103.91,0,0,0-10.88-3.75,118.41,118.41,0,0,1-16.65-6.3,30.76,30.76,0,0,1-11.1-9.3q-4.65-6.15-4.65-16,0-14.7,10.65-23t27.75-8.32q17.4,0,28,8.32t11.4,23.18H1485a10.86,10.86,0,0,0-3.75-8,13.21,13.21,0,0,0-8.85-2.92,11,11,0,0,0-7.5,2.47q-2.85,2.48-2.85,7.13,0,5.1,4.8,8t15,6.15a138.84,138.84,0,0,1,16.58,6.6,31.54,31.54,0,0,1,11,9.15q4.65,6,4.65,15.45a30.31,30.31,0,0,1-4.57,16.35,32.06,32.06,0,0,1-13.28,11.7q-8.7,4.35-20.55,4.35A54.17,54.17,0,0,1,1455,234.4Z"/><path class="cls-2" d="M106.81,359.16H62.3l-7.14,21.07H24.75L67.9,261h33.64L144.7,380.23H114Zm-7.47-22.43L84.55,293.07,69.94,336.73Z"/><path class="cls-2" d="M186.83,357.8h38.06v22.43H157.78V261h29.05Z"/><path class="cls-2" d="M313.07,359.16H268.55l-7.13,21.07H231L274.16,261H307.8L351,380.23H320.2Zm-7.48-22.43-14.78-43.66L276.2,336.73Z"/><path class="cls-2" d="M402.77,288.91a54.7,54.7,0,0,1,21.32-21.58,62,62,0,0,1,31-7.73q21.24,0,36.36,11.21t20.22,30.59H479.74A25.82,25.82,0,0,0,469.63,290a28.51,28.51,0,0,0-14.87-3.91q-13.42,0-21.75,9.35t-8.32,25q0,15.65,8.32,25t21.75,9.34a28.5,28.5,0,0,0,14.87-3.9,25.82,25.82,0,0,0,10.11-11.39h31.94q-5.1,19.37-20.22,30.5T455.1,381.08a62,62,0,0,1-31-7.73,54.86,54.86,0,0,1-21.32-21.49q-7.65-13.77-7.64-31.44T402.77,288.91Z"/><path class="cls-2" d="M603.76,359.16H559.25l-7.14,21.07H521.7L564.85,261h33.64l43.16,119.27H610.9Zm-7.47-22.43L581.5,293.07l-14.61,43.66Z"/><path class="cls-2" d="M715.55,380.23l-24.8-45h-7v45h-29V261h48.76q14.1,0,24,4.93a33.91,33.91,0,0,1,14.87,13.5,37.74,37.74,0,0,1,4.93,19.12,35.42,35.42,0,0,1-6.72,21.23q-6.71,9.35-19.79,13.26l27.53,47.23Zm-31.77-65.58h18q8,0,12-3.91t4-11q0-6.79-4-10.71t-12-3.91h-18Z"/><path class="cls-2" d="M851.3,261v23.27H819.7v96H790.65v-96h-31.6V261Z"/><path class="cls-2" d="M940.16,359.16H895.64l-7.13,21.07H858.1L901.25,261h33.64l43.16,119.27H947.29Zm-7.48-22.43L917.9,293.07l-14.61,43.66Z"/><path class="cls-2" d="M992.23,377.08A14.57,14.57,0,0,1,987.39,366a15.06,15.06,0,0,1,4.84-11.39q4.85-4.57,12.49-4.58a17.24,17.24,0,0,1,12.32,4.58,15.06,15.06,0,0,1,4.84,11.39,14.57,14.57,0,0,1-4.84,11.12,17.36,17.36,0,0,1-12.32,4.51Q997.07,381.59,992.23,377.08Z"/><rect class="cls-2" x="21.82" y="537.83" width="1527.53" height="199.06" rx="99.53"/><circle class="cls-3" cx="126.37" cy="638.57" r="56.78"/><path class="cls-1" d="M157.66,636.8V638h-4.24v-1.85l-.61-4.95v-1.67a14.36,14.36,0,0,0-1.06-2.92h0l-1.68-3.09-1.24-1.85v-.44a29.06,29.06,0,0,0-7.06-6.89,10.78,10.78,0,0,0-1.68-1,14.9,14.9,0,0,0-3.09-1.68h0a34.41,34.41,0,0,0-4.76-1.67,29.5,29.5,0,0,0-6.27-.8h0v-3.53c0-.62,0-.62.62-.62h2.29a.53.53,0,0,1,.75,0l.05,0a41.71,41.71,0,0,1,6.62,1.59,35.37,35.37,0,0,1,15.18,11.21h0l.62.89a26.94,26.94,0,0,1,1.68,2.65,29.15,29.15,0,0,1,2.91,6.88,1.49,1.49,0,0,1,0,1.24,42.56,42.56,0,0,1,.79,4.76v2.56Z"/><path class="cls-1" d="M90.39,619v-.53a2.57,2.57,0,0,1-.07-.4,3.37,3.37,0,0,1,0-.69c0-.42,1.91-2.74,4.84-5.61l1.5-1.24a5.9,5.9,0,0,1,2.21-.88h5.21a8.83,8.83,0,0,1,5.21,4.76,10,10,0,0,1,.79,2.74c.62,2,1.24,4.33,1.68,6.44a8.82,8.82,0,0,1-.8,6,18.41,18.41,0,0,0-1.23,1.67l-2.3,2a1.07,1.07,0,0,0,0,1.33l.88,2.47a35.49,35.49,0,0,0,5,8.83,13.75,13.75,0,0,0,1.06,1.23,32.32,32.32,0,0,0,8.83,6.71l3.17,1.42c.8.44,1.86.61,2.65,1a.78.78,0,0,0,.88,0l2.3-2.29a7.85,7.85,0,0,1,6.18-2.47,11.2,11.2,0,0,1,2.91.62l5.3,1.58h.62a8.12,8.12,0,0,1,5.38,6,5.06,5.06,0,0,1,0,1.23v3.27a8.9,8.9,0,0,1-2.29,3.8l-2.83,3.35a2.76,2.76,0,0,1-1.41,1.06,5.27,5.27,0,0,1-2.3.62H140a16,16,0,0,1-4.15,0,7.92,7.92,0,0,1-4.42-.89,49,49,0,0,1-7.85-2.47h-.8l-1.5-.62-3.71-1.85a36.22,36.22,0,0,1-4.76-3.09l-4-3.18-4-3.7-3.09-3.71-.79-1.06-.44-.62c-.44-.62-2.12-3.09-3.18-4.77l-1.86-3.53-.61-1.23a39.41,39.41,0,0,1-1.42-3.8,47.61,47.61,0,0,1-1.5-4.94v-1.24a4.47,4.47,0,0,0,0-2.12l-.19-.5a32.46,32.46,0,0,1-1.34-4.42A20,20,0,0,1,90.39,619Z"/><path class="cls-1" d="M124,621.7v-4h3.18a1.47,1.47,0,0,1,1.23,0,23.36,23.36,0,0,1,4.15,1.5,21,21,0,0,1,11.57,14.3h0a.62.62,0,0,1,0,.87h0v2.83c0,1.06,0,.88-.62.61h-3.18v-3.08a3.92,3.92,0,0,0,0-2,14.72,14.72,0,0,0-4.41-6.88,16.42,16.42,0,0,0-6.63-4,6.37,6.37,0,0,0-1.85,0h-2.82Z"/><path class="cls-1" d="M124.65,634.32s-.62,0-.62-.79V630a8.09,8.09,0,0,1,3.26.62h1.51a8.77,8.77,0,0,1,1.85,1.85l1.06,1.68a6,6,0,0,1,.62,2.73v.62h-3.45c-.61,0-.61,0-.61-.62a4.33,4.33,0,0,0-3.18-3.53h0Z"/><circle class="cls-3" cx="859.84" cy="637.64" r="56.78"/><path class="cls-1" d="M875.92,609.51A21.7,21.7,0,0,0,864.41,604a16.7,16.7,0,0,1-3.74,0h-6a21.49,21.49,0,0,0-5.47.77A26.94,26.94,0,0,0,831.42,630a31.27,31.27,0,0,0,3.64,15.25,78.47,78.47,0,0,0,18.23,24.37,6.89,6.89,0,0,0,3.93,2.11h2.11a6.17,6.17,0,0,0,3-1.44c2.3-2,4.32-4.13,6.43-6a74.37,74.37,0,0,0,10.84-14.77,39.18,39.18,0,0,0,5.75-18.23,26.56,26.56,0,0,0-9.59-21.87Zm-17.55,33.86a13.24,13.24,0,1,1,13.43-13.14,13,13,0,0,1-12.95,13.14h-.48Z"/><path d="M224.57,597.62q4.11-3.43,10.85-3.43a17.69,17.69,0,0,1,7.86,1.61,11.45,11.45,0,0,1,4.94,4.34,11.67,11.67,0,0,1,1.67,6.19,10.89,10.89,0,0,1-2,6.7,10,10,0,0,1-4.87,3.68V617a10.59,10.59,0,0,1,5.69,4,12.58,12.58,0,0,1,2,7.42,13,13,0,0,1-1.73,6.73,11.71,11.71,0,0,1-5.09,4.63,18.05,18.05,0,0,1-8.08,1.67q-7.11,0-11.58-3.59t-4.72-10.57h8.56a6.8,6.8,0,0,0,2.11,4.94,7.62,7.62,0,0,0,5.44,1.86,6.54,6.54,0,0,0,4.94-1.8,6.37,6.37,0,0,0,1.73-4.62q0-3.78-2.4-5.41t-7.42-1.64h-1.82v-7.23h1.82q8.94,0,8.93-6a5.49,5.49,0,0,0-1.6-4.21,6.48,6.48,0,0,0-4.62-1.51,6.15,6.15,0,0,0-4.56,1.6,6.49,6.49,0,0,0-1.86,4.06h-8.62Q220.45,601.05,224.57,597.62Z"/><path d="M260.46,631.18q6-5,9.62-8.4a39.17,39.17,0,0,0,6-7,13.08,13.08,0,0,0,2.39-7.17,7.73,7.73,0,0,0-1.51-5,5.72,5.72,0,0,0-4.66-1.82,5.85,5.85,0,0,0-4.84,2.11,9.16,9.16,0,0,0-1.76,5.75h-8.56q.25-7.54,4.5-11.45a15.34,15.34,0,0,1,10.79-3.9q7.17,0,11,3.81a13.53,13.53,0,0,1,3.83,10,18.16,18.16,0,0,1-2.64,9.38,37,37,0,0,1-6,7.77q-3.39,3.3-8.87,8h18.56v7.3H257.18V634Z"/><path d="M296.56,631.18q6-5,9.63-8.4a39.17,39.17,0,0,0,6-7,13.08,13.08,0,0,0,2.39-7.17,7.73,7.73,0,0,0-1.51-5,5.72,5.72,0,0,0-4.66-1.82,5.84,5.84,0,0,0-4.84,2.11,9.16,9.16,0,0,0-1.76,5.75h-8.56q.25-7.54,4.5-11.45a15.32,15.32,0,0,1,10.79-3.9q7.17,0,11,3.81a13.53,13.53,0,0,1,3.83,10,18.16,18.16,0,0,1-2.64,9.38,37,37,0,0,1-6,7.77q-3.39,3.3-8.87,8h18.56v7.3H293.29V634Z"/><path d="M331.29,606.71a11.62,11.62,0,0,1,1.73-6.2,12,12,0,0,1,5.22-4.46,22.59,22.59,0,0,1,17.05,0,12,12,0,0,1,5.22,4.46,11.62,11.62,0,0,1,1.73,6.2,10.89,10.89,0,0,1-1.7,6.07,11.62,11.62,0,0,1-4.53,4.06,12.18,12.18,0,0,1,5.41,4.4,12,12,0,0,1,1.95,6.86,12.84,12.84,0,0,1-2.17,7.45,13.91,13.91,0,0,1-5.94,4.88,20.54,20.54,0,0,1-8.5,1.7,20.32,20.32,0,0,1-8.46-1.7,14,14,0,0,1-5.91-4.88,12.84,12.84,0,0,1-2.17-7.45,12.14,12.14,0,0,1,1.95-6.89,11.74,11.74,0,0,1,5.41-4.37A10.73,10.73,0,0,1,331.29,606.71ZM341,622.5a6.37,6.37,0,0,0-2.24,5.22,6.65,6.65,0,0,0,2.17,5.13,8.4,8.4,0,0,0,5.88,2,8.22,8.22,0,0,0,5.86-2,6.71,6.71,0,0,0,2.13-5.1,6.42,6.42,0,0,0-2.2-5.19,8.71,8.71,0,0,0-5.79-1.85A8.84,8.84,0,0,0,341,622.5Zm10.88-19.31a7.2,7.2,0,0,0-5.07-1.7,7.1,7.1,0,0,0-5,1.7,6.24,6.24,0,0,0-1.85,4.84,5.74,5.74,0,0,0,1.92,4.53,8,8,0,0,0,9.9,0,5.79,5.79,0,0,0,1.95-4.56A6.13,6.13,0,0,0,351.83,603.19Z"/><path d="M374.92,597.62q4.11-3.43,10.85-3.43a17.69,17.69,0,0,1,7.86,1.61,11.45,11.45,0,0,1,4.94,4.34,11.67,11.67,0,0,1,1.67,6.19,10.89,10.89,0,0,1-2.05,6.7,10,10,0,0,1-4.87,3.68V617a10.59,10.59,0,0,1,5.69,4,12.58,12.58,0,0,1,2,7.42,13,13,0,0,1-1.73,6.73,11.71,11.71,0,0,1-5.09,4.63,18.08,18.08,0,0,1-8.08,1.67q-7.11,0-11.58-3.59t-4.72-10.57h8.56a6.84,6.84,0,0,0,2.1,4.94,7.67,7.67,0,0,0,5.45,1.86,6.5,6.5,0,0,0,4.93-1.8,6.33,6.33,0,0,0,1.73-4.62c0-2.52-.79-4.32-2.39-5.41s-4.06-1.64-7.42-1.64H381v-7.23h1.82q8.94,0,8.93-6a5.49,5.49,0,0,0-1.6-4.21,6.48,6.48,0,0,0-4.62-1.51,6.13,6.13,0,0,0-4.56,1.6,6.49,6.49,0,0,0-1.86,4.06h-8.62Q370.79,601.05,374.92,597.62Z"/><path d="M407.66,632.19v-6.92l20.57-29.44h10.25v28.68H444v7.68h-5.54v8.93h-8.8v-8.93Zm22.58-26.93-12.89,19.25h12.89Z"/><path d="M454.18,597.62q4.13-3.43,10.85-3.43a17.76,17.76,0,0,1,7.87,1.61,11.42,11.42,0,0,1,4.93,4.34,11.67,11.67,0,0,1,1.67,6.19,10.89,10.89,0,0,1-2,6.7,10,10,0,0,1-4.88,3.68V617a10.59,10.59,0,0,1,5.69,4,12.51,12.51,0,0,1,2.05,7.42,13.09,13.09,0,0,1-1.73,6.73,11.74,11.74,0,0,1-5.1,4.63,18.05,18.05,0,0,1-8.08,1.67q-7.11,0-11.58-3.59c-3-2.39-4.55-5.91-4.71-10.57h8.55a6.88,6.88,0,0,0,2.11,4.94,7.62,7.62,0,0,0,5.44,1.86,6.54,6.54,0,0,0,4.94-1.8,6.37,6.37,0,0,0,1.73-4.62q0-3.78-2.39-5.41t-7.42-1.64h-1.83v-7.23h1.83q8.93,0,8.93-6a5.49,5.49,0,0,0-1.61-4.21,6.48,6.48,0,0,0-4.62-1.51,6.17,6.17,0,0,0-4.56,1.6,6.49,6.49,0,0,0-1.86,4.06h-8.61Q450.05,601.05,454.18,597.62Z"/><path d="M499.79,632.47A7.3,7.3,0,0,0,504.6,634a6,6,0,0,0,5.66-3.24Q512,627.47,512,619.8a9.44,9.44,0,0,1-4,3.14,13.92,13.92,0,0,1-5.63,1.13,15.66,15.66,0,0,1-7.27-1.66,12.33,12.33,0,0,1-5.13-5,16,16,0,0,1-1.88-8q0-7,4.15-11.11t11.32-4.12q8.94,0,12.61,5.73t3.68,17.23a52.63,52.63,0,0,1-1.41,13.4,14.58,14.58,0,0,1-4.84,7.93q-3.44,2.7-9.35,2.7a16.21,16.21,0,0,1-7.92-1.79,12.74,12.74,0,0,1-5-4.72,14.47,14.47,0,0,1-2-6.45h8.18A6.85,6.85,0,0,0,499.79,632.47Zm9.53-17.58a7.59,7.59,0,0,0,1.89-5.41,7.91,7.91,0,0,0-2-5.76,7.14,7.14,0,0,0-5.37-2,7,7,0,0,0-5.38,2.1,7.83,7.83,0,0,0-2,5.57,7.74,7.74,0,0,0,1.91,5.44q1.92,2.12,5.76,2.11A6.74,6.74,0,0,0,509.32,614.89Z"/><path d="M548.29,602.75a6.64,6.64,0,0,0-4.43-1.32,6.87,6.87,0,0,0-6.39,3.49q-2,3.48-2.11,11.35a10.26,10.26,0,0,1,4.41-3.93,14.13,14.13,0,0,1,6.29-1.42,14.51,14.51,0,0,1,7.23,1.77,12.2,12.2,0,0,1,4.91,5.12,19,19,0,0,1,0,16,12.92,12.92,0,0,1-5.26,5.45,16.49,16.49,0,0,1-8.24,2q-6.54,0-10.28-2.9a15,15,0,0,1-5.22-8.08,47.24,47.24,0,0,1-1.48-12.8q0-11.52,4-17.4t12.52-5.88q6.6,0,10.25,3.59a14.21,14.21,0,0,1,4.22,8.93h-8.18A7.23,7.23,0,0,0,548.29,602.75Zm-9.84,17.36a7.07,7.07,0,0,0-2.27,5.66,7.36,7.36,0,0,0,8.05,8,7.06,7.06,0,0,0,5.38-2.08,7.74,7.74,0,0,0,2-5.59,8.33,8.33,0,0,0-1.92-5.79,7.15,7.15,0,0,0-5.63-2.14A8.26,8.26,0,0,0,538.45,620.11Z"/><path d="M565.87,603.38v-8.12H581v45.86h-9V603.38Z"/><path class="cls-3" d="M223.68,656.61a12.19,12.19,0,0,1,7.94-2.49,12.42,12.42,0,0,1,5.62,1.18,8.41,8.41,0,0,1,3.59,3.18,8.6,8.6,0,0,1,1.22,4.54,8,8,0,0,1-1.7,5.12,7.65,7.65,0,0,1-4.42,2.78v.24a8.81,8.81,0,0,1,4.92,3,9,9,0,0,1,1.82,5.89,9.67,9.67,0,0,1-1.24,4.9,8.57,8.57,0,0,1-3.73,3.42,13.26,13.26,0,0,1-6,1.25,12.74,12.74,0,0,1-8.33-2.66,10.29,10.29,0,0,1-3.64-7.53H224a7.24,7.24,0,0,0,2.35,4.68,7.66,7.66,0,0,0,5.36,1.82,6.9,6.9,0,0,0,5.09-1.74,6.13,6.13,0,0,0,1.75-4.53q0-3.58-2.39-5.16c-1.6-1.06-4-1.58-7.23-1.58h-1.1v-3.64h1.15a12.9,12.9,0,0,0,6.65-1.46,4.8,4.8,0,0,0,2.25-4.38,5.27,5.27,0,0,0-1.65-4.06,6.68,6.68,0,0,0-4.71-1.53,7.19,7.19,0,0,0-4.79,1.53,6.19,6.19,0,0,0-2.15,4.11h-4.26A9.37,9.37,0,0,1,223.68,656.61Z"/><path class="cls-3" d="M247.41,658.77v-4h9v34.6H252V658.77Z"/><path class="cls-3" d="M266.55,658.88q2.67-4.61,9.38-4.61t9.33,4.61q2.67,4.62,2.68,12.85t-2.68,13q-2.68,4.63-9.33,4.64t-9.38-4.64q-2.69-4.65-2.68-13T266.55,658.88Zm16.53,5.79a9,9,0,0,0-2.25-4.66,6.48,6.48,0,0,0-4.9-1.77,6.58,6.58,0,0,0-5,1.77,8.92,8.92,0,0,0-2.24,4.66,38.3,38.3,0,0,0-.55,7.06,39.69,39.69,0,0,0,.55,7.23,9,9,0,0,0,2.24,4.69,6.58,6.58,0,0,0,5,1.77,6.48,6.48,0,0,0,4.9-1.77,9.06,9.06,0,0,0,2.25-4.69,39.69,39.69,0,0,0,.55-7.23A38.3,38.3,0,0,0,283.08,664.67Z"/><path class="cls-3" d="M315.21,658.19l-13.3,31.2h-4.4L311,658.62H292.53v-3.73h22.68Z"/><path class="cls-3" d="M323.34,656.61a12.2,12.2,0,0,1,8-2.49,12.45,12.45,0,0,1,5.62,1.18,8.47,8.47,0,0,1,3.59,3.18,8.6,8.6,0,0,1,1.22,4.54,8,8,0,0,1-1.7,5.12,7.64,7.64,0,0,1-4.43,2.78v.24a8.8,8.8,0,0,1,4.93,3,9.09,9.09,0,0,1,1.82,5.89,9.68,9.68,0,0,1-1.25,4.9,8.57,8.57,0,0,1-3.73,3.42,13.23,13.23,0,0,1-6,1.25,12.71,12.71,0,0,1-8.32-2.66,10.25,10.25,0,0,1-3.64-7.53h4.21a7.19,7.19,0,0,0,2.34,4.68,7.66,7.66,0,0,0,5.36,1.82,6.93,6.93,0,0,0,5.1-1.74,6.17,6.17,0,0,0,1.75-4.53q0-3.58-2.4-5.16c-1.59-1.06-4-1.58-7.22-1.58h-1.1v-3.64h1.15a12.93,12.93,0,0,0,6.65-1.46,4.8,4.8,0,0,0,2.25-4.38,5.27,5.27,0,0,0-1.65-4.06,6.72,6.72,0,0,0-4.72-1.53,7.16,7.16,0,0,0-4.78,1.53,6.2,6.2,0,0,0-2.16,4.11H320A9.36,9.36,0,0,1,323.34,656.61Z"/><path class="cls-3" d="M351.52,656.61a12.21,12.21,0,0,1,8-2.49,12.42,12.42,0,0,1,5.62,1.18,8.47,8.47,0,0,1,3.59,3.18A8.6,8.6,0,0,1,369.9,663a8,8,0,0,1-1.7,5.12,7.64,7.64,0,0,1-4.43,2.78v.24a8.8,8.8,0,0,1,4.93,3,9.09,9.09,0,0,1,1.82,5.89,9.67,9.67,0,0,1-1.24,4.9,8.6,8.6,0,0,1-3.74,3.42,13.21,13.21,0,0,1-6,1.25,12.73,12.73,0,0,1-8.32-2.66,10.29,10.29,0,0,1-3.64-7.53h4.21a7.2,7.2,0,0,0,2.35,4.68,7.64,7.64,0,0,0,5.36,1.82,6.9,6.9,0,0,0,5.09-1.74,6.13,6.13,0,0,0,1.75-4.53q0-3.58-2.39-5.16c-1.6-1.06-4-1.58-7.23-1.58h-1.1v-3.64h1.15a12.93,12.93,0,0,0,6.65-1.46,4.8,4.8,0,0,0,2.25-4.38,5.27,5.27,0,0,0-1.65-4.06,6.7,6.7,0,0,0-4.72-1.53,7.18,7.18,0,0,0-4.78,1.53,6.19,6.19,0,0,0-2.15,4.11h-4.26A9.36,9.36,0,0,1,351.52,656.61Z"/><path class="cls-3" d="M379.71,656.61a12.19,12.19,0,0,1,7.94-2.49,12.42,12.42,0,0,1,5.62,1.18,8.41,8.41,0,0,1,3.59,3.18,8.6,8.6,0,0,1,1.22,4.54,8,8,0,0,1-1.7,5.12,7.65,7.65,0,0,1-4.42,2.78v.24a8.81,8.81,0,0,1,4.92,3,9,9,0,0,1,1.82,5.89,9.67,9.67,0,0,1-1.24,4.9,8.63,8.63,0,0,1-3.73,3.42,13.26,13.26,0,0,1-6,1.25,12.74,12.74,0,0,1-8.33-2.66,10.29,10.29,0,0,1-3.64-7.53H380a7.24,7.24,0,0,0,2.35,4.68,7.64,7.64,0,0,0,5.36,1.82,6.9,6.9,0,0,0,5.09-1.74,6.13,6.13,0,0,0,1.75-4.53q0-3.58-2.39-5.16c-1.6-1.06-4-1.58-7.23-1.58h-1.1v-3.64H385a12.93,12.93,0,0,0,6.65-1.46,4.8,4.8,0,0,0,2.25-4.38,5.27,5.27,0,0,0-1.65-4.06,6.68,6.68,0,0,0-4.71-1.53,7.19,7.19,0,0,0-4.79,1.53,6.19,6.19,0,0,0-2.15,4.11h-4.26A9.34,9.34,0,0,1,379.71,656.61Z"/><path class="cls-3" d="M407.27,658.88q2.67-4.61,9.37-4.61t9.34,4.61q2.67,4.62,2.67,12.85t-2.67,13q-2.69,4.63-9.34,4.64t-9.37-4.64q-2.68-4.65-2.68-13T407.27,658.88Zm16.53,5.79a9,9,0,0,0-2.25-4.66,6.49,6.49,0,0,0-4.91-1.77,6.55,6.55,0,0,0-4.95,1.77,9,9,0,0,0-2.25,4.66,39.2,39.2,0,0,0-.55,7.06,40.61,40.61,0,0,0,.55,7.23,9.06,9.06,0,0,0,2.25,4.69,6.55,6.55,0,0,0,4.95,1.77,6.49,6.49,0,0,0,4.91-1.77A9.06,9.06,0,0,0,423.8,679a40.61,40.61,0,0,0,.55-7.23A39.2,39.2,0,0,0,423.8,664.67Z"/><path class="cls-3" d="M437.94,656.61a12.19,12.19,0,0,1,7.94-2.49,12.42,12.42,0,0,1,5.62,1.18,8.41,8.41,0,0,1,3.59,3.18,8.6,8.6,0,0,1,1.22,4.54,8,8,0,0,1-1.7,5.12,7.65,7.65,0,0,1-4.42,2.78v.24a8.81,8.81,0,0,1,4.92,3,9,9,0,0,1,1.82,5.89,9.67,9.67,0,0,1-1.24,4.9,8.63,8.63,0,0,1-3.73,3.42,13.26,13.26,0,0,1-6,1.25,12.74,12.74,0,0,1-8.33-2.66,10.29,10.29,0,0,1-3.64-7.53h4.21a7.24,7.24,0,0,0,2.35,4.68,7.64,7.64,0,0,0,5.36,1.82A6.9,6.9,0,0,0,451,684.2a6.13,6.13,0,0,0,1.75-4.53q0-3.58-2.39-5.16c-1.6-1.06-4-1.58-7.23-1.58h-1.1v-3.64h1.15a12.93,12.93,0,0,0,6.65-1.46,4.8,4.8,0,0,0,2.25-4.38,5.27,5.27,0,0,0-1.65-4.06,6.68,6.68,0,0,0-4.71-1.53,7.19,7.19,0,0,0-4.79,1.53,6.19,6.19,0,0,0-2.15,4.11h-4.26A9.34,9.34,0,0,1,437.94,656.61Z"/><path class="cls-3" d="M470.64,684.32a7,7,0,0,0,4.71,1.48,6.38,6.38,0,0,0,5.86-3.11q1.89-3.11,1.8-10.48a7.2,7.2,0,0,1-3.35,3.37,11,11,0,0,1-5.22,1.22,12.08,12.08,0,0,1-5.71-1.31,9.57,9.57,0,0,1-4-3.85,12.24,12.24,0,0,1-1.44-6.13,11.5,11.5,0,0,1,3-8.25c2-2.09,4.78-3.14,8.42-3.14q6.7,0,9.4,4.36t2.71,13a38.39,38.39,0,0,1-1.08,10,11.21,11.21,0,0,1-3.64,6,10.88,10.88,0,0,1-7,2.06c-3.25,0-5.79-.88-7.6-2.64a10.26,10.26,0,0,1-3.11-6.69h4A6.85,6.85,0,0,0,470.64,684.32Zm9.78-13.19a7.08,7.08,0,0,0,2.06-5.38,8.26,8.26,0,0,0-2-5.79,7.24,7.24,0,0,0-5.64-2.2,7,7,0,0,0-5.34,2.11,7.76,7.76,0,0,0-2,5.55,7.86,7.86,0,0,0,2,5.59,7.37,7.37,0,0,0,5.69,2.11A7.23,7.23,0,0,0,480.42,671.13Z"/><path class="cls-3" d="M524.64,670v3.68h-19.1V670Z"/><path class="cls-3" d="M553.87,677.88a38.11,38.11,0,0,0,5.81-6.55,11.85,11.85,0,0,0,2.37-6.73,7.4,7.4,0,0,0-1.5-4.9q-1.51-1.8-4.86-1.8a6.38,6.38,0,0,0-5.05,2,8.46,8.46,0,0,0-1.94,5.43h-4.21c.13-3.57,1.21-6.33,3.26-8.28a12.34,12.34,0,0,1,15.71-.19,9.82,9.82,0,0,1,2.9,7.51,14.32,14.32,0,0,1-2.37,7.73,34,34,0,0,1-5.38,6.6q-3,2.85-7.71,6.63h16.46V689h-23v-3.11Q550.42,681,553.87,677.88Z"/><path class="cls-3" d="M575.07,658.88q2.67-4.61,9.38-4.61t9.33,4.61q2.67,4.62,2.68,12.85t-2.68,13q-2.68,4.63-9.33,4.64t-9.38-4.64q-2.69-4.65-2.68-13T575.07,658.88Zm16.53,5.79a9,9,0,0,0-2.25-4.66,6.48,6.48,0,0,0-4.9-1.77,6.56,6.56,0,0,0-5,1.77,9,9,0,0,0-2.25,4.66,39.2,39.2,0,0,0-.55,7.06,40.61,40.61,0,0,0,.55,7.23,9.06,9.06,0,0,0,2.25,4.69,6.56,6.56,0,0,0,5,1.77,6.48,6.48,0,0,0,4.9-1.77A9.06,9.06,0,0,0,591.6,679a40.61,40.61,0,0,0,.55-7.23A39.2,39.2,0,0,0,591.6,664.67Z"/><path class="cls-3" d="M605.12,658.88q2.67-4.61,9.37-4.61t9.33,4.61q2.68,4.62,2.68,12.85t-2.68,13q-2.67,4.63-9.33,4.64t-9.37-4.64q-2.68-4.65-2.68-13T605.12,658.88Zm16.53,5.79A9,9,0,0,0,619.4,660a7.75,7.75,0,0,0-9.86,0,9,9,0,0,0-2.25,4.66,39.2,39.2,0,0,0-.55,7.06,40.61,40.61,0,0,0,.55,7.23,9.06,9.06,0,0,0,2.25,4.69,7.75,7.75,0,0,0,9.86,0,9.06,9.06,0,0,0,2.25-4.69,40.61,40.61,0,0,0,.55-7.23A39.2,39.2,0,0,0,621.65,664.67Z"/><path class="cls-3" d="M640.31,684.32A7,7,0,0,0,645,685.8a6.38,6.38,0,0,0,5.86-3.11q1.89-3.11,1.8-10.48a7.2,7.2,0,0,1-3.35,3.37,11.1,11.1,0,0,1-5.22,1.22,12.12,12.12,0,0,1-5.72-1.31,9.55,9.55,0,0,1-3.94-3.85,12.24,12.24,0,0,1-1.44-6.13,11.5,11.5,0,0,1,3-8.25q3-3.13,8.42-3.14,6.69,0,9.4,4.36t2.7,13a38.88,38.88,0,0,1-1.07,10,11.21,11.21,0,0,1-3.64,6,10.9,10.9,0,0,1-7,2.06q-4.87,0-7.61-2.64a10.31,10.31,0,0,1-3.11-6.69h4A6.86,6.86,0,0,0,640.31,684.32Zm9.78-13.19a7.12,7.12,0,0,0,2.06-5.38,8.26,8.26,0,0,0-2-5.79,7.25,7.25,0,0,0-5.65-2.2,7,7,0,0,0-5.33,2.11,7.72,7.72,0,0,0-2,5.55,7.9,7.9,0,0,0,2,5.59,7.4,7.4,0,0,0,5.7,2.11A7.23,7.23,0,0,0,650.09,671.13Z"/><path class="cls-3" d="M684.69,658.57h-16.8v10.91a8,8,0,0,1,3.25-2.51,11.17,11.17,0,0,1,4.65-1,11.45,11.45,0,0,1,6.45,1.65,9.31,9.31,0,0,1,3.57,4.26,14.31,14.31,0,0,1,1.08,5.53,14.14,14.14,0,0,1-1.3,6.17,9.74,9.74,0,0,1-3.94,4.3,12.62,12.62,0,0,1-6.58,1.58,12.35,12.35,0,0,1-8.14-2.58,10.8,10.8,0,0,1-3.78-6.89h4.26a7.16,7.16,0,0,0,2.63,4.26,8.14,8.14,0,0,0,5.08,1.53,7,7,0,0,0,5.69-2.27,9.06,9.06,0,0,0,1.91-6,8.09,8.09,0,0,0-1.91-5.76,7.39,7.39,0,0,0-5.65-2,8,8,0,0,0-4.42,1.22,7,7,0,0,0-2.75,3.33h-4.12V654.75h20.82Z"/><path class="cls-3" d="M691.62,681.68v-3.3l16.8-23.25h5.21V677.9h4.79v3.78h-4.79v7.71h-4.3v-7.71Zm17.9-22L696.65,677.9h12.87Z"/><path class="cls-3" d="M725,668.33a8.21,8.21,0,0,1-1.43-4.88,8.67,8.67,0,0,1,1.29-4.66,8.8,8.8,0,0,1,3.85-3.3,16.34,16.34,0,0,1,12.39,0,9,9,0,0,1,3.88,3.3,8.51,8.51,0,0,1,1.31,4.66,8.16,8.16,0,0,1-1.48,4.86,8.71,8.71,0,0,1-4.07,3.09,9.11,9.11,0,0,1,4.72,3.18,8.74,8.74,0,0,1,1.74,5.48,9.65,9.65,0,0,1-1.53,5.43,10,10,0,0,1-4.33,3.59,15.5,15.5,0,0,1-6.43,1.26,15.18,15.18,0,0,1-6.39-1.26,10,10,0,0,1-4.28-3.59,9.65,9.65,0,0,1-1.53-5.43,8.93,8.93,0,0,1,1.72-5.51,8.68,8.68,0,0,1,4.69-3.15A8.9,8.9,0,0,1,725,668.33Zm4.12,6.63a5.74,5.74,0,0,0-2.25,4.95,6.13,6.13,0,0,0,2.18,4.93,8.66,8.66,0,0,0,5.86,1.87,8.56,8.56,0,0,0,5.83-1.87,6.18,6.18,0,0,0,2.16-4.93,5.84,5.84,0,0,0-2.2-4.9,9.25,9.25,0,0,0-5.79-1.7A9.54,9.54,0,0,0,729.09,675Zm11-15.48a9.48,9.48,0,0,0-10.48,0,5.59,5.59,0,0,0-1.91,4.55,5.27,5.27,0,0,0,2,4.3,9,9,0,0,0,10.34,0,5.36,5.36,0,0,0,2-4.33A5.51,5.51,0,0,0,740.14,659.48Z"/><path d="M961.53,604.74a22.82,22.82,0,0,1,8.71-8.7,24.66,24.66,0,0,1,12.37-3.12,24.26,24.26,0,0,1,14,4.12,21.5,21.5,0,0,1,8.43,11.37h-11a11.46,11.46,0,0,0-4.63-5.14,13.56,13.56,0,0,0-6.88-1.71,14.19,14.19,0,0,0-7.44,2A13.29,13.29,0,0,0,970,609a20,20,0,0,0,0,16.68,13.25,13.25,0,0,0,5.07,5.55,14.11,14.11,0,0,0,7.44,2,13.28,13.28,0,0,0,6.88-1.75,11.64,11.64,0,0,0,4.63-5.17h11a21.42,21.42,0,0,1-8.39,11.41,26.28,26.28,0,0,1-26.45,1,22.88,22.88,0,0,1-8.71-8.67,26.67,26.67,0,0,1,0-25.26Z"/><path d="M1022.9,590.66v50.71h-9.59V590.66Z"/><path d="M1042,590.66v50.71h-9.59V590.66Z"/><path d="M1051.37,640.24a5.63,5.63,0,0,1,0-8,6,6,0,0,1,4.29-1.61,5.75,5.75,0,0,1,4.18,1.61,5.72,5.72,0,0,1,0,8,5.71,5.71,0,0,1-4.18,1.61A5.92,5.92,0,0,1,1051.37,640.24Z"/><path d="M1083.27,600.26v-8.84h16.52v50h-9.87V600.26Z"/><path d="M1114.21,594q4.49-3.74,11.82-3.74a19.24,19.24,0,0,1,8.57,1.75,12.22,12.22,0,0,1,7.19,11.48,11.9,11.9,0,0,1-2.22,7.3,11,11,0,0,1-5.31,4v.28a11.52,11.52,0,0,1,6.2,4.38,13.76,13.76,0,0,1,2.23,8.09,14.19,14.19,0,0,1-1.89,7.33,12.85,12.85,0,0,1-5.55,5,19.66,19.66,0,0,1-8.81,1.82q-7.74,0-12.61-3.91t-5.13-11.51H1118a7.45,7.45,0,0,0,2.29,5.38,8.37,8.37,0,0,0,5.93,2,7.11,7.11,0,0,0,5.38-2,7,7,0,0,0,1.88-5q0-4.11-2.6-5.9c-1.74-1.18-4.43-1.78-8.09-1.78h-2v-7.88h2q9.74,0,9.73-6.51a6,6,0,0,0-1.74-4.59,7.08,7.08,0,0,0-5-1.64,6.75,6.75,0,0,0-5,1.74,7.09,7.09,0,0,0-2,4.42h-9.39Q1109.72,597.73,1114.21,594Z"/><path d="M1209.84,610.6l-2.26,10.56h8.7v8.56h-10.55l-2.47,11.65h-9.11l2.47-11.65h-12.48l-2.46,11.65h-9l2.47-11.65h-10.35v-8.56H1177l2.26-10.56h-10.28V602h12.13l2.4-11.38h9L1190.11,602h12.47l2.4-11.38h9.11l-2.4,11.38h8.77v8.56Zm-9.11,0h-12.47L1186,621.16h12.48Z"/><path d="M1261,599.71h-22.2v11.72a10.38,10.38,0,0,1,4.11-2.92,14.52,14.52,0,0,1,5.69-1.13,15.55,15.55,0,0,1,9,2.4,13.92,13.92,0,0,1,5.07,6.13,20.41,20.41,0,0,1,1.57,8q0,7.88-4.48,12.68t-12.78,4.79q-7.82,0-12.48-3.9a14.69,14.69,0,0,1-5.27-10.21h9.32a7.34,7.34,0,0,0,2.77,4.38,8.84,8.84,0,0,0,5.52,1.65,7.4,7.4,0,0,0,6.1-2.54,10.35,10.35,0,0,0,2-6.72c0-2.83-.69-5-2.09-6.47a8,8,0,0,0-6.13-2.23,7.78,7.78,0,0,0-4.8,1.44,7.86,7.86,0,0,0-2.74,3.84H1230V591.28h31Z"/><path d="M1273,603.89a12.54,12.54,0,0,1,1.89-6.75,13,13,0,0,1,5.69-4.87,24.72,24.72,0,0,1,18.57,0,13.15,13.15,0,0,1,5.69,4.87,12.62,12.62,0,0,1,1.88,6.75,11.86,11.86,0,0,1-1.85,6.61,12.6,12.6,0,0,1-4.93,4.42,13.42,13.42,0,0,1,5.89,4.8,13.09,13.09,0,0,1,2.12,7.47,14,14,0,0,1-2.36,8.12,15.19,15.19,0,0,1-6.48,5.31,22.34,22.34,0,0,1-9.25,1.85,22.08,22.08,0,0,1-9.21-1.85,15.22,15.22,0,0,1-6.45-5.31,14.11,14.11,0,0,1-2.36-8.12,13.29,13.29,0,0,1,2.12-7.51,12.86,12.86,0,0,1,5.9-4.76Q1273,611.37,1273,603.89Zm10.52,17.2a6.92,6.92,0,0,0-2.43,5.69,7.23,7.23,0,0,0,2.36,5.58,9.16,9.16,0,0,0,6.41,2.16,9,9,0,0,0,6.38-2.19,7.3,7.3,0,0,0,2.33-5.55,7,7,0,0,0-2.4-5.66,9.5,9.5,0,0,0-6.31-2A9.68,9.68,0,0,0,1283.54,621.09Zm11.86-21a7.89,7.89,0,0,0-5.52-1.85,7.79,7.79,0,0,0-5.45,1.85,6.81,6.81,0,0,0-2,5.28,6.27,6.27,0,0,0,2.09,4.93,8.75,8.75,0,0,0,10.8,0,6.35,6.35,0,0,0,2.12-5A6.69,6.69,0,0,0,1295.4,600.05Z"/><path d="M1316.5,612a16.59,16.59,0,0,1,15.12-9.25,16.17,16.17,0,0,1,7.05,1.61,14.23,14.23,0,0,1,5.35,4.28v-18h9.73v50.71H1344v-5.62a13.09,13.09,0,0,1-5,4.53,15.71,15.71,0,0,1-7.47,1.71,16.23,16.23,0,0,1-8.77-2.47,17.17,17.17,0,0,1-6.28-6.95,22.34,22.34,0,0,1-2.29-10.32A22,22,0,0,1,1316.5,612Zm26.22,4.35a9.75,9.75,0,0,0-3.7-3.83,9.93,9.93,0,0,0-5-1.34,9.69,9.69,0,0,0-4.93,1.3,9.84,9.84,0,0,0-3.67,3.81,11.94,11.94,0,0,0-1.4,5.92,12.37,12.37,0,0,0,1.4,6,10.14,10.14,0,0,0,3.7,3.94,9.45,9.45,0,0,0,4.9,1.37,9.93,9.93,0,0,0,5-1.34,9.75,9.75,0,0,0,3.7-3.83,13.82,13.82,0,0,0,0-12Z"/><path d="M1365.06,630.55q6.57-5.49,10.48-9.15a42.52,42.52,0,0,0,6.51-7.64,14.23,14.23,0,0,0,2.61-7.82,8.34,8.34,0,0,0-1.65-5.48,6.23,6.23,0,0,0-5.07-2,6.4,6.4,0,0,0-5.28,2.3,10.05,10.05,0,0,0-1.92,6.27h-9.32q.28-8.22,4.9-12.47a16.73,16.73,0,0,1,11.76-4.25q7.82,0,12,4.15t4.18,10.93a19.77,19.77,0,0,1-2.88,10.21,40.47,40.47,0,0,1-6.58,8.46q-3.69,3.6-9.66,8.67h20.22v8h-33.86v-7.13Z"/><path d="M1401,631.64V624.1L1423.37,592h11.17v31.25h6v8.36h-6v9.73H1425v-9.73Zm24.61-29.33-14,21h14Z"/><path class="cls-3" d="M965.42,684.84a9.84,9.84,0,0,1-4-3.22,8.25,8.25,0,0,1-1.52-4.76h4.6a6,6,0,0,0,1.91,3.9,6.88,6.88,0,0,0,4.9,1.59,7.13,7.13,0,0,0,4.85-1.54,5,5,0,0,0,1.78-3.95,4.52,4.52,0,0,0-1-3.08,6.64,6.64,0,0,0-2.61-1.8,39.7,39.7,0,0,0-4.21-1.32A36.91,36.91,0,0,1,964.8,669a8.37,8.37,0,0,1-3.36-2.67,7.88,7.88,0,0,1-1.4-4.9,8.45,8.45,0,0,1,1.38-4.78,8.94,8.94,0,0,1,3.85-3.22,13.57,13.57,0,0,1,5.71-1.14,12,12,0,0,1,7.6,2.32,8.57,8.57,0,0,1,3.33,6.16h-4.73a5.09,5.09,0,0,0-2-3.34,7.07,7.07,0,0,0-4.64-1.44,6.72,6.72,0,0,0-4.4,1.39,4.77,4.77,0,0,0-1.7,3.91,4.19,4.19,0,0,0,1,2.93A6.54,6.54,0,0,0,968,665.9a42.26,42.26,0,0,0,4.19,1.35,40.28,40.28,0,0,1,5.26,1.77,8.84,8.84,0,0,1,3.4,2.7,7.85,7.85,0,0,1,1.42,4.95,8.68,8.68,0,0,1-1.27,4.54,9.46,9.46,0,0,1-3.79,3.46,12.55,12.55,0,0,1-5.92,1.33A14.13,14.13,0,0,1,965.42,684.84Z"/><path class="cls-3" d="M1011.59,659.72v25.94h-4.3v-3.83a8.35,8.35,0,0,1-3.44,3.1A10.58,10.58,0,0,1,999,686a11.57,11.57,0,0,1-5.44-1.25,9.1,9.1,0,0,1-3.81-3.77,12.36,12.36,0,0,1-1.4-6.1v-15.2h4.26v14.63a8.27,8.27,0,0,0,1.94,5.89,6.92,6.92,0,0,0,5.3,2.06,7.1,7.1,0,0,0,5.45-2.13,8.78,8.78,0,0,0,2-6.2V659.72Z"/><path class="cls-3" d="M1027.07,660.76a11.6,11.6,0,0,1,5.83-1.46,12.13,12.13,0,0,1,6.29,1.65,11.73,11.73,0,0,1,4.4,4.67,14.47,14.47,0,0,1,1.61,7,14.78,14.78,0,0,1-1.61,7,11.76,11.76,0,0,1-10.69,6.49,11.56,11.56,0,0,1-5.9-1.47,9.93,9.93,0,0,1-3.81-3.74v4.78h-4.31v-35h4.31v13.92A10.32,10.32,0,0,1,1027.07,660.76Zm12.55,6.73a8.26,8.26,0,0,0-3.2-3.32A8.89,8.89,0,0,0,1032,663a8.54,8.54,0,0,0-4.38,1.16,8.42,8.42,0,0,0-3.22,3.36,10.33,10.33,0,0,0-1.21,5.09,10.46,10.46,0,0,0,1.21,5.13,8.42,8.42,0,0,0,3.22,3.36,8.92,8.92,0,0,0,8.8,0,8.31,8.31,0,0,0,3.2-3.36,10.77,10.77,0,0,0,1.18-5.18A10.51,10.51,0,0,0,1039.62,667.49Z"/><path class="cls-3" d="M1050.88,665.62a11.73,11.73,0,0,1,4.43-4.67,12.19,12.19,0,0,1,6.27-1.65,11.57,11.57,0,0,1,5.92,1.46,9.78,9.78,0,0,1,3.74,3.7v-4.74h4.36v25.94h-4.36v-4.82a10.19,10.19,0,0,1-3.81,3.76,11.43,11.43,0,0,1-5.89,1.49,11.8,11.8,0,0,1-6.25-1.7,12,12,0,0,1-4.41-4.79,14.89,14.89,0,0,1-1.6-7A14.59,14.59,0,0,1,1050.88,665.62Zm19.18,1.91a8.35,8.35,0,0,0-3.2-3.33,8.64,8.64,0,0,0-4.42-1.16,8.83,8.83,0,0,0-4.41,1.13,8.33,8.33,0,0,0-3.17,3.32,10.51,10.51,0,0,0-1.18,5.11,10.77,10.77,0,0,0,1.18,5.18,8.37,8.37,0,0,0,3.17,3.36,8.55,8.55,0,0,0,4.41,1.16,8.64,8.64,0,0,0,4.42-1.16,8.31,8.31,0,0,0,3.2-3.36,11.72,11.72,0,0,0,0-10.25Z"/><path class="cls-3" d="M1087.34,679.7,1082,692.43h-2.88l3.45-12.73Z"/><path class="cls-3" d="M1124.71,670.14a8.71,8.71,0,0,1,2.37,2.93,8.32,8.32,0,0,1,.87,3.74,8.17,8.17,0,0,1-1.28,4.52,8.67,8.67,0,0,1-3.71,3.17,13.2,13.2,0,0,1-5.75,1.16H1104.9v-33h11.83a13.43,13.43,0,0,1,5.73,1.11,8.11,8.11,0,0,1,3.55,3,7.85,7.85,0,0,1,1.18,4.26,7.33,7.33,0,0,1-1.58,4.85,8.92,8.92,0,0,1-4.19,2.77A7,7,0,0,1,1124.71,670.14Zm-15.5-3.22h7.24a7,7,0,0,0,4.68-1.42,5.48,5.48,0,0,0,0-7.86,7.11,7.11,0,0,0-4.78-1.42h-7.14Zm12.63,13.68a5.21,5.21,0,0,0,1.8-4.21,5.38,5.38,0,0,0-1.89-4.34,7.67,7.67,0,0,0-5.07-1.58h-7.47v11.64h7.62A7.53,7.53,0,0,0,1121.84,680.6Z"/><path class="cls-3" d="M1138.63,684.43a11.69,11.69,0,0,1-4.64-4.71,14.41,14.41,0,0,1-1.68-7.07,14,14,0,0,1,1.72-7,12,12,0,0,1,4.71-4.69,14.48,14.48,0,0,1,13.35,0,11.92,11.92,0,0,1,4.71,4.66,15.14,15.14,0,0,1,0,14.13,12.3,12.3,0,0,1-4.81,4.71,13.72,13.72,0,0,1-6.72,1.66A13.21,13.21,0,0,1,1138.63,684.43Zm10.95-3.22a8.18,8.18,0,0,0,3.29-3.26,10.42,10.42,0,0,0,1.26-5.3,10.66,10.66,0,0,0-1.23-5.31,8.1,8.1,0,0,0-3.22-3.24,9.33,9.33,0,0,0-8.64,0,7.82,7.82,0,0,0-3.15,3.24,11,11,0,0,0-1.18,5.31,11.22,11.22,0,0,0,1.16,5.35,7.65,7.65,0,0,0,3.1,3.24,8.68,8.68,0,0,0,4.26,1.06A9,9,0,0,0,1149.58,681.21Z"/><path class="cls-3" d="M1180.8,660.76a9.72,9.72,0,0,1,3.77,3.7v-4.74h4.35v26.51a12.93,12.93,0,0,1-1.51,6.32,10.81,10.81,0,0,1-4.33,4.33,13.35,13.35,0,0,1-6.56,1.57A14.36,14.36,0,0,1,1168,696a9.43,9.43,0,0,1-4-6.58h4.26a6.75,6.75,0,0,0,2.93,3.81,9.64,9.64,0,0,0,5.35,1.45,7.91,7.91,0,0,0,5.8-2.23,8.4,8.4,0,0,0,2.25-6.25v-5.44a10.42,10.42,0,0,1-3.79,3.79,11.13,11.13,0,0,1-5.87,1.51,11.79,11.79,0,0,1-10.7-6.49,14.9,14.9,0,0,1-1.61-7,14.59,14.59,0,0,1,1.61-7,11.67,11.67,0,0,1,4.43-4.67,12.19,12.19,0,0,1,6.27-1.65A11.59,11.59,0,0,1,1180.8,660.76Zm2.58,6.77a8.26,8.26,0,0,0-3.19-3.33,8.65,8.65,0,0,0-4.43-1.16,8.79,8.79,0,0,0-4.4,1.13,8.26,8.26,0,0,0-3.17,3.32,10.51,10.51,0,0,0-1.18,5.11,10.77,10.77,0,0,0,1.18,5.18,8.31,8.31,0,0,0,3.17,3.36,8.51,8.51,0,0,0,4.4,1.16,8.65,8.65,0,0,0,4.43-1.16,8.22,8.22,0,0,0,3.19-3.36,11.63,11.63,0,0,0,0-10.25Z"/><path class="cls-3" d="M1200.92,684.43a11.75,11.75,0,0,1-4.64-4.71,14.41,14.41,0,0,1-1.68-7.07,14,14,0,0,1,1.73-7,11.87,11.87,0,0,1,4.71-4.69,14.48,14.48,0,0,1,13.35,0,11.92,11.92,0,0,1,4.71,4.66,14,14,0,0,1,1.73,7.06,13.73,13.73,0,0,1-1.78,7.07,12.21,12.21,0,0,1-4.8,4.71,13.72,13.72,0,0,1-6.72,1.66A13.27,13.27,0,0,1,1200.92,684.43Zm11-3.22a8.18,8.18,0,0,0,3.29-3.26,10.42,10.42,0,0,0,1.26-5.3,10.66,10.66,0,0,0-1.23-5.31,8.16,8.16,0,0,0-3.22-3.24,9,9,0,0,0-4.31-1.06,8.93,8.93,0,0,0-4.33,1.06,7.82,7.82,0,0,0-3.15,3.24,11,11,0,0,0-1.18,5.31,11.22,11.22,0,0,0,1.16,5.35,7.65,7.65,0,0,0,3.1,3.24,8.68,8.68,0,0,0,4.26,1.06A9.06,9.06,0,0,0,1211.88,681.21Z"/><path class="cls-3" d="M1231.76,663.27v15.29a3.62,3.62,0,0,0,.81,2.68,4,4,0,0,0,2.79.78h3.17v3.64h-3.88a7.71,7.71,0,0,1-5.39-1.65c-1.2-1.11-1.8-2.92-1.8-5.45V663.27h-3.36v-3.55h3.36v-6.53h4.3v6.53h6.77v3.55Z"/><path class="cls-3" d="M1243.74,665.62a11.67,11.67,0,0,1,4.43-4.67,12.16,12.16,0,0,1,6.27-1.65,11.63,11.63,0,0,1,5.92,1.46,9.85,9.85,0,0,1,3.74,3.7v-4.74h4.35v25.94h-4.35v-4.82a10.34,10.34,0,0,1-3.81,3.76,11.47,11.47,0,0,1-5.9,1.49,11.7,11.7,0,0,1-10.65-6.49,14.9,14.9,0,0,1-1.61-7A14.59,14.59,0,0,1,1243.74,665.62Zm19.17,1.91a8.33,8.33,0,0,0-3.19-3.33,8.65,8.65,0,0,0-4.43-1.16,8.76,8.76,0,0,0-4.4,1.13,8.26,8.26,0,0,0-3.17,3.32,10.51,10.51,0,0,0-1.19,5.11,10.77,10.77,0,0,0,1.19,5.18,8.31,8.31,0,0,0,3.17,3.36,8.49,8.49,0,0,0,4.4,1.16,8.65,8.65,0,0,0,4.43-1.16,8.29,8.29,0,0,0,3.19-3.36,11.63,11.63,0,0,0,0-10.25Zm-2.17-15.14-10.09,5.39v-3.22l10.09-5.91Z"/></g></g></svg>