<?xml version="1.0" encoding="utf-8"?>
<!-- Generator: Adobe Illustrator 26.0.1, SVG Export Plug-In . SVG Version: 6.00 Build 0)  -->
<svg version="1.1" id="Capa_1" xmlns="http://www.w3.org/2000/svg" xmlns:xlink="http://www.w3.org/1999/xlink" x="0px" y="0px"
	 viewBox="0 0 587.2 336.1" style="enable-background:new 0 0 587.2 336.1;" xml:space="preserve">
<style type="text/css">
	.st0{fill:#E30713;}
	.st1{fill:#232323;}
	.st2{fill:#FCED00;}
	.st3{fill:#FFFFFF;}
</style>
<g id="Capa_2_00000075878933354171499040000001129392007454712489_">
	<g id="Capa_1-2">
		<path class="st0" d="M539.8,332.5H42.7c-23.1,0-41.8-18.7-41.8-41.8l0,0c0-23.1,18.7-41.8,41.8-41.8h497.1
			c23.1,0,41.8,18.7,41.8,41.8l0,0C581.6,313.7,562.9,332.5,539.8,332.5z"/>
		<path class="st1" d="M7.7,53.6V0h23v7.7H16.1v14.2h11.6v7.7H16.1V46h14.6v7.7h-23V53.6z"/>
		<path class="st1" d="M35.5,53.6V0h8.1v53.6H35.5z"/>
		<path class="st1" d="M60.6,42.4v-1.2h7.8v1.5c0,3.1,1.2,4.8,3.6,4.8s3.5-1.4,3.5-4.2c0-0.9-0.3-1.8-0.9-2.5
			c-1.1-1.6-2.1-2.1-4.8-3.7c-1.1-0.6-2.2-1.3-3.2-2c-0.7-0.5-1.6-1.2-2.7-2.2c-2.1-2.1-3-4.8-3-8.2c0-6.7,3.9-10.8,11-10.8
			c6.7,0,11,4.4,11,11.4V26h-7.7v-1c0-2.8-1.1-4.2-3.2-4.2s-3.1,1.2-3.1,3.7c0,2.8,2,4.5,6,6.7c2.8,1.5,3.9,2.2,5.8,4.1
			c2.1,1.9,2.9,4.5,2.9,7.8c0,7-3.9,11.3-11.2,11.3C65,54.4,60.6,50,60.6,42.4z"/>
		<path class="st1" d="M88.4,9.7V0.8h8.1v8.9H88.4z M88.4,53.6v-39h8.1v39.1L88.4,53.6L88.4,53.6z"/>
		<path class="st1" d="M102.8,53.6V0h8.1v53.6H102.8z"/>
		<path class="st1" d="M140.5,35.9h-15.9v6.6c0,3.1,1.4,4.8,4.1,4.8s4.1-1.6,4.1-4.8V41h7.8v0.7c0,8.2-4.3,12.7-12,12.7
			s-12-4.5-12-12.7V26.5c0-8.2,4.3-12.7,12-12.7s12,4.5,12,12.7v9.4H140.5z M124.5,29.4h8v-3.7c0-3.1-1.3-4.8-4-4.8s-4,1.6-4,4.8
			V29.4z"/>
		<path class="st1" d="M169.6,25.2v28.4h-8.1V26.1c0-3.4-1.1-5.1-3.4-5.1c-2.8,0-4.1,2.1-4.1,6.3v26.4h-8.1V14.6h7l0.2,4.5
			c1.5-3.5,4.1-5.3,7.8-5.3C166.7,13.8,169.6,17.6,169.6,25.2z"/>
		<path class="st1" d="M174.9,26.4c0-8,4.2-12.6,11.9-12.6s11.6,4.7,11.6,12.6v2.4h-7.8v-3.1c0-3.1-1.2-4.6-3.8-4.6
			s-3.8,1.5-3.8,4.6v17c0,3.1,1.2,4.6,3.8,4.6s3.8-1.5,3.8-4.6v-3.9h7.8v3.1c0,7.9-3.9,12.6-11.6,12.6c-7.7,0-11.9-4.5-11.9-12.6
			V26.4z"/>
		<path class="st1" d="M203.4,9.7V0.8h8.1v8.9H203.4z M203.4,53.6v-39h8.1v39.1L203.4,53.6L203.4,53.6z"/>
		<path class="st1" d="M217,26.5c0-8.2,4.3-12.7,12-12.7s12,4.5,12,12.7v15.2c0,8.2-4.3,12.7-12,12.7s-12-4.5-12-12.7V26.5z
			 M232.8,25.7c0-3.1-1.3-4.8-3.8-4.8s-3.8,1.6-3.8,4.8v16.7c0,3.1,1.3,4.8,3.8,4.8s3.8-1.6,3.8-4.8V25.7z"/>
		<path class="st1" d="M282,35.9h-16v6.6c0,3.1,1.4,4.8,4.1,4.8s4.1-1.6,4.1-4.8V41h7.8v0.7c0,8.2-4.3,12.7-12,12.7s-12-4.5-12-12.7
			V26.5c0-8.2,4.3-12.7,12-12.7s12,4.5,12,12.7V35.9z M266,29.4h8v-3.7c0-3.1-1.3-4.8-4-4.8s-4,1.6-4,4.8V29.4z"/>
		<path class="st1" d="M285.8,42.4v-1.2h7.8v1.5c0,3.1,1.2,4.8,3.6,4.8s3.5-1.4,3.5-4.2c0-0.9-0.3-1.8-0.9-2.5
			c-1.1-1.6-2.1-2.1-4.8-3.7c-1.1-0.6-2.2-1.3-3.2-2c-0.7-0.5-1.6-1.2-2.7-2.2c-2.1-2.1-3-4.8-3-8.2c0-6.7,3.9-10.8,11-10.8
			c6.7,0,11,4.4,11,11.4V26h-7.7v-1c0-2.8-1.1-4.2-3.2-4.2s-3.1,1.2-3.1,3.7c0,2.8,2,4.5,6,6.7c2.8,1.5,3.9,2.2,5.8,4.1
			c2.1,1.9,2.9,4.5,2.9,7.8c0,7-3.9,11.3-11.2,11.3C290.2,54.4,285.8,50,285.8,42.4z"/>
		<path class="st1" d="M349.1,35.9h-15.9v6.6c0,3.1,1.4,4.8,4.1,4.8s4.1-1.6,4.1-4.8V41h7.8v0.7c0,8.2-4.3,12.7-12,12.7
			s-12-4.5-12-12.7V26.5c0-8.2,4.3-12.7,12-12.7s12,4.5,12,12.7v9.4H349.1z M333.1,29.4h8v-3.7c0-3.1-1.3-4.8-4-4.8s-4,1.6-4,4.8
			V29.4z"/>
		<path class="st1" d="M354.4,53.6V0h8.1v53.6H354.4z"/>
		<path class="st1" d="M379.6,42.4v-1.2h7.8v1.5c0,3.1,1.2,4.8,3.6,4.8s3.5-1.4,3.5-4.2c0-0.9-0.3-1.8-0.9-2.5
			c-1.1-1.6-2.1-2.1-4.8-3.7c-1.1-0.6-2.2-1.3-3.2-2c-0.7-0.5-1.6-1.2-2.7-2.2c-2.1-2.1-3-4.8-3-8.2c0-6.7,3.9-10.8,11-10.8
			c6.7,0,11,4.4,11,11.4V26h-7.7v-1c0-2.8-1.1-4.2-3.2-4.2s-3.1,1.2-3.1,3.7c0,2.8,2,4.5,6,6.7c2.8,1.5,3.9,2.2,5.8,4.1
			c2.1,1.9,2.9,4.5,2.9,7.8c0,7-3.9,11.3-11.2,11.3C383.9,54.4,379.6,50,379.6,42.4z"/>
		<path class="st1" d="M406.5,26.5c0-8.2,4.3-12.7,12-12.7s12,4.5,12,12.7v15.2c0,8.2-4.3,12.7-12,12.7s-12-4.5-12-12.7V26.5z
			 M422.3,25.7c0-3.1-1.3-4.8-3.8-4.8s-3.8,1.6-3.8,4.8v16.7c0,3.1,1.3,4.8,3.8,4.8s3.8-1.6,3.8-4.8V25.7z"/>
		<path class="st1" d="M459.7,25.2v28.4h-8.1V26.1c0-3.4-1.1-5.1-3.4-5.1c-2.8,0-4.1,2.1-4.1,6.3v26.4H436V14.6h7l0.2,4.5
			c1.5-3.5,4.1-5.3,7.8-5.3C456.8,13.8,459.7,17.6,459.7,25.2z"/>
		<path class="st1" d="M465.8,9.7V0.8h8.1v8.9H465.8z M465.8,53.6v-39h8.1v39.1L465.8,53.6L465.8,53.6z"/>
		<path class="st1" d="M497,53.6c-0.3-0.6-0.5-2.1-0.7-4.6c-1.5,3.6-4.1,5.4-7.9,5.4c-5.9,0-8.8-3.8-8.8-11.4V25.2
			c0-7.6,2.9-11.4,8.8-11.4c2.8-0.1,5.4,1.3,7,3.6V0h8.1v42.4c0,5,0.3,8.7,0.9,11.3H497V53.6z M495.4,40.9V27.3
			c0-4.2-1.4-6.3-4.2-6.3c-2.3,0-3.4,1.6-3.4,4.8v16.7c0,3.1,1.1,4.8,3.4,4.8C494,47.2,495.4,45.1,495.4,40.9z"/>
		<path class="st1" d="M509,26.5c0-8.2,4.3-12.7,12-12.7s12,4.5,12,12.7v15.2c0,8.2-4.3,12.7-12,12.7s-12-4.5-12-12.7V26.5z
			 M524.8,25.7c0-3.1-1.3-4.8-3.8-4.8s-3.8,1.6-3.8,4.8v16.7c0,3.1,1.3,4.8,3.8,4.8s3.8-1.6,3.8-4.8V25.7z"/>
		<path class="st0" d="M27.8,140c-3.8,0-7.5-0.6-11.1-1.8c-6-2-11-6.3-14-12c-1.6-3.3-2.5-6.8-2.5-10.5c0-2.6,0.5-5.3,1.4-7.8
			c1-3.1,3.2-5.8,6.1-7.3c1.2-0.5,2.5-0.8,3.9-0.8c1.7,0,3.4,0.5,4.8,1.5c0.4,0.2,0.6,0.6,0.6,1.1s-0.3,1-0.8,1.1
			c-0.8,0.9-1.5,1.9-1.9,3c-1.3,3-2,6.3-2,9.5c0,2.7,0.6,5.4,1.8,7.8c1.7,3,4,5.1,7,6.3c1.9,0.8,4,1.2,6.1,1.1
			c4.6,0,8.7-1.6,12.4-4.9c2.4-2.3,4.5-4.9,6.2-7.7c3.1-5.2,5.6-10.7,7.3-16.5c2.4-8.5,3.5-17.4,3.5-26.2c0-4.4-0.5-8.8-1.6-13.1
			c-0.5-1.9-1.2-3.8-2.1-5.5c-1.2-2.3-2.9-4.3-5-5.9s-4.7-2.5-7.4-2.5c-3,0-5.9,1-8.3,2.8c-3.7,2.6-6.2,6.4-7.7,11.5
			c-1.3,4.2-1.9,9.1-1.9,14.5c0,2,0.1,3.6,0.2,4.7c0,0.3-0.1,0.6-0.4,0.8c-0.2,0.2-0.5,0.3-0.8,0.3s-0.6,0-0.9,0.1
			c-1.7,0-3.4-0.5-4.8-1.4c-1.6-1.2-2.9-2.9-3.5-4.8c-0.7-2-1.1-4-1.1-6.1c0-2.7,0.4-5.5,1.3-8.1c0.9-3.3,2.3-6.4,4.1-9.3
			c1.9-3.2,4.4-5.9,7.3-8.1c4.4-3.4,9.7-5.2,15.2-5.1c3.1,0,6.1,0.4,9,1.3c10.1,2.9,16.6,9.9,19.7,20.8c1.3,4.8,1.9,9.8,1.9,14.8
			c-0.1,7-1,13.9-2.5,20.7c-1.3,5.7-3.1,11.4-5.4,16.7c-2.6,5.8-6.3,11.1-10.9,15.5c-4.4,4.1-9.7,7.1-15.5,8.6
			C33,139.7,30.4,140,27.8,140z M32.6,123.4c-0.5,0-0.9-0.1-1.4-0.2l-3.5-0.5c-1.9-0.3-3.6-1.6-4.3-3.4c-0.2-0.6-0.3-1.2-0.3-1.9
			c0-0.9,0.1-1.8,0.4-2.7l0.8-3.9c3.5-16.1,6.2-29.7,8.2-41c0.5-2.8,0.9-5.5,1.3-8.3c0.2-1.1,0.3-2.2,0.3-3.3c0-0.6,0.2-1.2,0.5-1.7
			c0.4-0.6,1.2-1,1.9-1l0.6,0.1l3,0.7c1.5,0.3,2.9,1.1,4.1,2.2c1.3,1.3,2,3.1,2.1,5c0,0.6-0.4,3.1-1.3,7.4l-6.4,33.9
			c-1.9,9.9-2.9,15.3-3,16.2c-0.1,0.7-0.5,1.2-1,1.7C33.9,123.1,33.3,123.4,32.6,123.4z"/>
		<path class="st0" d="M96.1,125.9c-4.5,0-8.8-1.1-12.8-3.1c-2-1.1-3.8-2.7-5.1-4.7c-1.3-1.9-2.2-4-2.7-6.2s-0.8-4.5-0.8-6.8
			c0-4.2,0.7-8.3,2-12.3c1.3-4.1,3.2-7.9,5.8-11.4c2.4-3.3,5.7-5.8,9.4-7.4c1.7-0.7,3.6-1.1,5.4-1.1c1.9,0,3.7,0.5,5.3,1.4
			c1.3,0.8,2.2,2,2.8,3.3c0.6,1.4,0.9,2.8,0.9,4.3c0,2.1-0.5,4.2-1.3,6.2s-2,3.8-3.6,5.3c-3.8,4-8.3,7.3-13.3,9.6
			c-0.1,1.1-0.2,2.4-0.2,3.7c0,4.1,0.8,7.2,2.4,9.4c0.8,0.9,1.8,1.5,2.9,1.8s2.3,0.4,3.5,0.4c1.7,0,3.4-0.2,5-0.5
			c1.7-0.4,3.3-0.8,5-1.4c0.4-0.3,0.7-0.5,1.1-0.6l1.1-0.5c3.9-2.1,7-5.5,8.8-9.5c1.3-2.6,1.9-4.8,1.9-6.8c0-1.2-0.4-2.3-1.1-3.3
			c-0.5-0.5-0.8-1.2-0.8-1.9c0-1.1,0.6-2,1.8-2.7c1.1-0.6,2.4-0.9,3.7-0.9c1.6,0,3.2,0.7,4.3,1.9c1.3,1.5,1.9,3.4,1.9,5.7
			c0,3.1-0.9,6.1-2.7,9.2s-4.1,5.9-6.7,8.4C112.7,122.5,104.8,125.9,96.1,125.9z M88.9,97.3c3-1.8,5.8-3.9,8.3-6.4s3.7-4.9,3.7-7.3
			c0-0.8-0.2-1.7-0.4-2.5c-0.3-0.9-0.8-1.4-1.6-1.4c-1.1,0-2.6,1.3-4.3,3.8C91.8,87.7,89.9,92.4,88.9,97.3z"/>
		<path class="st0" d="M193,124.3c-2.5,0.1-5-0.8-6.9-2.4c-2.7-2.4-4-5.7-4-9.9v-0.7c-0.7,1.4-1.5,2.7-2.3,4
			c-1.2,2.1-2.5,4.1-4.1,5.9c-1,1-2.2,1.8-3.6,2.3c-1.4,0.5-2.8,0.8-4.2,0.8l-1.4-0.1c-2-0.2-3.9-1.1-5.5-2.4c-2.7-2.4-4-5.7-4-10
			c0-2.4,0.2-4.8,0.5-7.2c0.5-4.4,1.3-8.7,2.4-13c0.5-2,1-4.1,1.6-6.1c1-3.9,1.6-6.4,1.8-7.7c0-0.2,0-0.3,0.1-0.4l0.1-1.2
			c0-0.8-0.1-1.6-0.2-2.3c0-1.3,1.1-2.4,2.4-2.4c0.3,0,0.7,0.1,1,0.2c0.5,0.1,0.9,0.2,1.3,0.3c1.8,0.3,3.5,1.1,5,2.2
			c1.3,1.3,2,3,2,4.8c0,1-0.2,2-0.4,2.9l-0.1,0.5c-0.2,1-0.5,2-0.7,2.9l-1.3,5.4c-1,4.1-1.9,8.3-2.8,12.5l-0.2,1.3
			c-0.5,2.2-0.8,4.4-0.8,6.7l0.1,1.9c0.4,1.8,1.1,2.7,2.2,2.7c0.8,0,1.6-0.4,2.5-1.1c2-1.7,4.2-5.2,6.7-10.4l2.6-5.2l1.4-3.1
			c0.6-3,1.8-7.9,3.5-14.6c0.5-1.7,0.8-3.5,1-5.3l-0.1-1.4l-0.2-1c0-0.6,0.3-1.2,0.8-1.7s1.1-0.7,1.7-0.7l0.9,0.2l1.4,0.4
			c1.8,0.3,3.5,1,4.9,2.2c1.4,1.5,2.1,3.2,2.1,5c0,0.9-0.2,1.9-0.4,2.8l-2.1,8.8c-1,4.1-1.9,8.3-2.8,12.5c-0.3,1.2-0.5,2.4-0.7,3.6
			l-0.1,0.9c-0.2,1.2-0.3,2.4-0.3,3.7c0,0.6,0,1.1,0.1,1.7c0.3,1.8,1.1,2.7,2.3,2.7c1.1,0,2.4-0.8,3.7-2.3l0.3-0.3v-0.1
			c0.2-0.2,0.4-0.5,0.6-0.8c1.7-2.6,3.3-5.2,4.5-8l4.5-9.1c0.3-0.6,0.8-1,1.4-1.1l0.5-0.1c0.3,0,0.7,0.1,1,0.2l0.2,0.1
			c0.5,0.2,1,0.7,1.1,1.2l0.2,0.9c0,0.2,0,0.5-0.1,0.7c0,0.1-0.1,0.3-0.2,0.4c-0.1,0.1-0.1,0.1-0.1,0.2c-2.5,6.1-5.4,12-8.8,17.7
			c-2.4,4.5-5,7.2-7.7,8.2C195.9,124.1,194.4,124.3,193,124.3z"/>
		<path class="st0" d="M213.1,124.6c-1.4,0-2.8-0.1-4.2-0.3c-1.2-0.2-2.2-0.9-2.8-1.9c-0.4-0.7-0.6-1.5-0.6-2.3
			c0-0.7,0.1-1.5,0.2-2.2c1.5-9.1,3-18,4.3-26.7l2.9-18c0.1-0.7,0.3-1.2,0.7-1.5c0.5-0.3,1-0.4,1.6-0.4c2.6,0.1,4.8,0.7,6.6,1.9
			c1.8,1.1,2.7,2.8,2.7,5c0,0.7-0.1,1.3-0.2,2c-0.1,0.6-1,6-2.6,16.1c1.2-3.4,2.6-6.7,4.1-10c1.5-3.2,3.4-6.2,5.6-9
			c1-1.2,2.2-2.3,3.5-3.2c1.3-0.8,2.8-1.3,4.3-1.2c2.4,0,4.5,1,6.4,3.1c1.4,1.8,2.1,4.3,2,7.4c-0.3,5-1,9.9-2,14.7
			c-0.7,3.5-1.3,7-1.7,10.7c-0.1,1-0.2,2.1-0.2,3.2s0.1,2.1,0.3,3.2c0.1,0.5,0.3,0.9,0.5,1.3c0.3,0.4,0.7,0.6,1.1,0.6
			c0.5,0,1-0.2,1.4-0.6c1.6-1.3,3-2.9,4-4.8c2.7-4.3,4.9-8.9,6.4-13.8c0.6-2.5,1.7-3.8,3.2-3.8c1.3,0.1,2.1,1,2.2,2.4
			c0,1-0.2,2-0.7,2.8c-1.2,3.3-2.6,6.4-4,9.6c-1.5,3.1-3.3,6.1-5.4,8.9c-3.3,4.4-6.8,6.5-10.6,6.5c-3.4,0-6.5-1.8-8.3-4.7
			c-0.8-1.3-1.3-2.7-1.6-4.2c-0.2-1.5-0.3-3-0.3-4.5c0-2.6,0.2-5.2,0.6-7.8c0.4-2.6,0.8-5.2,1.4-7.8c0.7-3.3,1.2-6.6,1.6-9.9
			c0-0.4,0.1-0.7,0.1-0.9s0-0.6,0-1c0-0.3,0-0.5-0.1-0.7c0-0.2-0.1-0.3-0.2-0.5c-0.1-0.1-0.1-0.2-0.2-0.3c-0.1,0-0.1-0.1-0.2-0.1
			l-0.1-0.1c-1.1,0.2-2,1.1-2.7,2.7c-5.3,10.4-9.3,21.3-11.9,32.6c-0.3,1.4-0.7,2.8-1.3,4C218.1,123.4,216.1,124.6,213.1,124.6z"/>
		<path class="st0" d="M264.7,124.6c-2.4,0-4.5-0.9-6.4-2.8c-2.5-3.1-3.7-7.5-3.7-13.4c0-3.2,0.3-6.4,0.9-9.5
			c0.6-3.2,1.3-6.3,2.3-9.3c2.8-9.4,7.4-14.8,13.6-16.2c0.8-0.1,1.7-0.2,2.5-0.2c3.1,0,6.5,1,10,3v-0.9l-0.1-0.5l-0.1-0.2
			c0-0.2-0.1-0.3-0.1-0.5c0-0.6,0.3-1.3,0.7-1.7c0.5-0.5,1.1-0.7,1.7-0.7c0.2,0,1.5,0.3,3.9,0.9c1.5,0.4,2.9,1.2,3.9,2.4
			c1,1.2,1.5,2.7,1.5,4.2c0,1.3-0.2,2.5-0.7,3.7l-1.5,6.3c-1,4.2-2,8.6-3.1,13.3c-0.7,3.1-1.2,6.3-1.4,9.5c0,0.9,0.2,1.8,0.5,2.7
			c0.3,0.9,1,1.4,1.9,1.4l1.1-0.1c3.4-0.6,6.3-2.7,8.8-6.4c2.5-3.5,3.8-6.9,3.8-10.2c0-1.2-0.3-2.4-1-3.4c-0.5-0.5-0.8-1.3-0.8-2
			c0-1.1,0.6-1.9,1.8-2.6c1.1-0.6,2.3-1,3.5-1c2.2,0.1,3.8,0.9,4.8,2.5c1,1.5,1.5,3.4,1.5,5.2c0,2.8-0.7,5.5-2.1,7.9
			c-1.3,2.5-2.9,4.8-4.7,6.9c-2.1,2.5-4.5,4.7-7.2,6.7c-2.6,2-5.6,3.4-8.7,4.3c-1.3,0.4-2.6,0.6-3.9,0.6c-2.6,0-4.8-0.7-6.7-2.2
			c-2.8-2.3-4.3-5.8-4.3-10.3v-1.2c-1.4,3.6-3.3,6.9-5.6,10C269.8,123.2,267.4,124.6,264.7,124.6z M268,115.7
			c0.3-0.1,0.5-0.2,0.7-0.5c0.2-0.2,0.3-0.4,0.5-0.7c0.1-0.2,0.2-0.4,0.3-0.5c1.5-2,2.7-4.1,3.5-6.4l0.4-0.9l1.4-4.3
			c1-2.8,2.1-6,3.3-9.6c1.2-3.6,2.3-6.8,3.1-9.6c0.2-1.1,0.7-1.9,1.5-2.3l-0.3-0.1c-0.8-0.5-1.8-0.9-2.8-0.9c-1.2,0-2.3,0.4-3.2,1.1
			c-1,0.8-1.9,1.7-2.6,2.7s-1.3,2.1-1.9,3.2c-3.4,7.2-5.2,15.1-5.3,23.7l0.1,2.4c0,0.1,0,0.3,0,0.5s0,0.5,0.1,0.9
			c0,0.3,0.1,0.7,0.3,1c0.1,0.3,0.4,0.4,0.6,0.4L268,115.7z"/>
		<path class="st0" d="M365.2,124.8c-3.7,0-7.3-0.8-10.6-2.3c-0.4,1.2-1.7,1.8-3.8,1.8H350c-1.1,0-2.2-0.1-3.3-0.4
			c-1.1-0.3-2-0.9-2.7-1.7c-0.7-0.9-1.1-2.2-1.1-3.8c0-0.9,0.1-1.7,0.2-2.6c1.4-9.3,2.9-18.7,4.7-27.9c1.3-6.7,2.5-13.3,3.6-20
			s2-13.4,2.7-20.1c0.1-2.2,0.7-3.4,2-3.8c0.2-0.1,0.4-0.1,0.6-0.1c0.5,0,1,0.1,1.4,0.3l0.3,0.1c1.3,0.4,2.5,1,3.7,1.6
			c2.4,1.3,3.6,3.4,3.6,6.3c0,1.2-0.1,2.3-0.3,3.5c-1.3,7.7-2.6,15.3-3.8,23c1.3-1.6,2.9-2.9,4.7-3.9c1.7-1,3.7-1.5,5.7-1.5
			c0.9,0,1.7,0.1,2.5,0.3c2.9,0.9,5.3,2.9,6.7,5.5c1.4,2.6,2.3,5.5,2.6,8.4c0.2,1.6,0.3,3.2,0.3,4.8c0,4.5-0.8,9.1-2.3,13.4
			s-3.7,8.4-6.6,11.9c7.8-4.2,13.9-11.1,17.2-19.3v-0.1c0.4-1.3,1.1-2.4,2-3.3c0.5-0.4,1-0.7,1.7-0.7c1.1,0,1.7,0.9,1.7,2.7
			c0,0.7-0.1,1.3-0.3,1.9c-1.5,4.4-3.7,8.5-6.5,12.3c-2.7,3.7-6.1,6.9-10,9.4C376,123.2,370.7,124.8,365.2,124.8z M358.8,117.7
			c0.9,0,1.8-0.3,2.6-0.8c2.8-1.9,4.9-4.6,6.3-7.7c2.2-4.9,3.6-10.1,4-15.4l0.1-0.7c0.1-1,0.2-2.7,0.3-5.3c0-5.5-1.1-8.3-3.2-8.3
			c-0.8,0-1.6,0.4-2.1,1.1c-3.1,2.9-5.4,6.6-6.7,10.7c-1.3,4.1-2.2,8.3-2.7,12.6c-0.4,2.8-0.8,5.5-1.1,8.3l-0.1,0.4
			c-0.1,0.5-0.1,1-0.1,1.5c0,1.6,0.6,2.8,1.8,3.4C358.1,117.7,358.5,117.7,358.8,117.7z"/>
		<path class="st0" d="M425.9,124.3c-2.5,0.1-5-0.8-6.9-2.4c-2.7-2.4-4-5.7-4-9.9v-0.7c-0.7,1.4-1.5,2.7-2.3,4
			c-1.2,2.1-2.5,4.1-4.1,5.9c-1,1-2.2,1.8-3.6,2.3s-2.8,0.8-4.2,0.8l-1.4-0.1c-2-0.2-3.9-1.1-5.5-2.4c-2.7-2.4-4-5.7-4-10
			c0-2.4,0.2-4.8,0.5-7.2c0.5-4.4,1.3-8.7,2.4-13c0.5-2,1-4.1,1.6-6.1c1-3.9,1.6-6.4,1.8-7.7c0-0.2,0-0.3,0.1-0.4l0.1-1.2
			c0-0.8-0.1-1.6-0.2-2.3c0-1.3,1.1-2.4,2.4-2.4c0.3,0,0.7,0.1,1,0.2c0.5,0.1,0.9,0.2,1.3,0.3c1.8,0.3,3.5,1.1,5,2.2
			c1.3,1.3,2,3,2,4.8c0,1-0.2,2-0.4,2.9l-0.1,0.5c-0.2,1-0.5,2-0.7,2.9l-1.3,5.4c-1,4.1-1.9,8.3-2.8,12.5l-0.2,1.3
			c-0.5,2.2-0.8,4.4-0.8,6.7l0.1,1.9c0.4,1.8,1.1,2.7,2.2,2.7c0.8,0,1.6-0.4,2.5-1.1c2-1.7,4.3-5.2,6.7-10.4l2.5-5.2L417,96
			c0.6-3,1.8-7.9,3.5-14.6c0.5-1.7,0.8-3.5,1-5.3l-0.1-1.4l-0.2-1c0-0.6,0.3-1.2,0.8-1.7s1.1-0.7,1.7-0.7l0.9,0.2l1.4,0.4
			c1.8,0.3,3.5,1,4.9,2.2c1.4,1.5,2.1,3.2,2.1,5c0,0.9-0.2,1.9-0.4,2.8l-2.1,8.8c-1,4.1-1.9,8.3-2.8,12.5c-0.3,1.2-0.5,2.4-0.7,3.6
			l-0.1,0.9c-0.2,1.2-0.3,2.4-0.3,3.7c0,0.6,0,1.1,0.1,1.7c0.3,1.8,1.1,2.7,2.3,2.7s2.4-0.8,3.7-2.3l0.3-0.3v-0.1
			c0.2-0.2,0.4-0.5,0.6-0.8c1.7-2.6,3.3-5.2,4.5-8l4.4-9.1c0.3-0.6,0.8-1,1.4-1.1l0.5-0.1c0.3,0,0.7,0.1,1,0.2l0.2,0.1
			c0.5,0.2,1,0.7,1.1,1.2l0.2,0.9c0,0.2,0,0.5-0.1,0.7c0,0.1-0.1,0.3-0.2,0.4s-0.1,0.1-0.1,0.2c-2.5,6.1-5.4,12-8.7,17.7
			c-2.4,4.5-5,7.2-7.7,8.2C428.8,124.1,427.4,124.3,425.9,124.3z"/>
		<path class="st0" d="M455.1,124.3c-4.2,0-8.3-1.8-11-5c-3.7-4-5.5-9-5.5-15.1c0-4.2,0.8-8.3,2.2-12.2c1.4-4.6,3.6-8.8,6.7-12.5
			s7.5-6.1,12.3-6.8c0.6-0.1,1.1-0.1,1.7-0.1c2.1,0,3.8,0.5,5.1,1.4c1.3,0.9,2.3,2.1,2.9,3.6s1,3.2,0.9,4.8c0,3.3-1.1,6.5-3.2,9.6
			c-1.9,2.3-4.1,4.3-6.6,6s-5.1,3.2-7.8,4.5c-0.4,0.1-0.7,0.4-1,0.7c-0.3,0.7-0.4,1.9-0.4,3.7c0,3,0.7,6,1.9,8.8
			c1.2,1.1,2.8,1.7,4.4,1.7c2.4-0.2,4.6-1.1,6.5-2.6c3-2.3,5.6-5,7.7-8.1c2.2-3.1,4.1-6.4,5.7-9.8c0.9-1.9,2-2.8,3.1-2.8
			c0.9,0,1.6,0.6,1.9,1.4c0.2,0.4,0.3,0.8,0.3,1.2c0,1.5-1.9,5.2-5.6,11c-1.4,2.3-2.9,4.4-4.6,6.5c-3.4,4.3-7.1,7.2-11.3,8.9
			C459.4,123.9,457.3,124.3,455.1,124.3z M452.5,97.2c3.7-1.6,7.1-4,9.8-7.1c1.3-1.3,2.2-3,2.8-4.7c0.2-0.6,0.2-1.2,0.2-1.9
			c0-0.9-0.2-1.8-0.5-2.6c-0.3-0.9-0.9-1.3-1.6-1.3c-0.9,0-1.8,0.5-2.4,1.2c-3.1,3-5.3,6.7-6.6,10.8C453.6,93.5,453,95.3,452.5,97.2
			L452.5,97.2z"/>
		<path class="st0" d="M482.4,124.6c-1.4,0-2.8-0.1-4.2-0.3c-1.2-0.2-2.2-0.9-2.8-1.9c-0.4-0.7-0.6-1.5-0.6-2.3
			c0-0.7,0.1-1.5,0.2-2.2c1.5-9.1,3-18,4.3-26.7l2.9-18c0.1-0.7,0.3-1.2,0.7-1.5c0.5-0.3,1-0.4,1.6-0.4c2.6,0.1,4.8,0.7,6.6,1.9
			c1.8,1.1,2.7,2.8,2.7,5c0,0.7-0.1,1.3-0.2,2c-0.1,0.6-1,6-2.6,16.1c1.2-3.4,2.6-6.7,4.1-10c1.5-3.2,3.4-6.2,5.6-9
			c1-1.2,2.2-2.3,3.5-3.2c1.3-0.8,2.8-1.3,4.3-1.3c2.4,0,4.5,1,6.4,3.1c1.4,1.8,2.1,4.3,2.1,7.4c-0.3,5-1,9.9-2.1,14.7
			c-0.7,3.5-1.3,7-1.7,10.7c-0.1,1-0.2,2.1-0.2,3.2s0.1,2.1,0.3,3.2c0.1,0.5,0.3,0.9,0.5,1.3c0.3,0.4,0.7,0.6,1.1,0.6
			c0.5,0,1-0.2,1.4-0.6c1.6-1.3,3-2.9,4-4.8c2.7-4.3,4.9-8.9,6.4-13.8c0.6-2.5,1.7-3.8,3.2-3.8c1.3,0.1,2,1,2.2,2.4
			c0,1-0.2,2-0.7,2.8c-1.2,3.3-2.6,6.4-4,9.6c-1.5,3.1-3.3,6.1-5.4,8.9c-3.3,4.4-6.8,6.5-10.6,6.5c-3.4,0-6.5-1.8-8.3-4.7
			c-0.8-1.3-1.3-2.7-1.6-4.2c-0.2-1.5-0.3-3-0.3-4.5c0-2.6,0.2-5.2,0.6-7.8c0.4-2.6,0.8-5.2,1.4-7.8c0.7-3.3,1.2-6.6,1.6-9.9
			c0-0.4,0.1-0.7,0.1-0.9c0-0.2,0-0.6,0-1c0-0.3,0-0.5-0.1-0.7c0-0.2-0.1-0.3-0.2-0.5c-0.1-0.1-0.1-0.2-0.2-0.3
			c-0.1,0-0.1-0.1-0.2-0.1l-0.1-0.1c-1.1,0.2-2,1.1-2.7,2.7c-5.3,10.4-9.3,21.3-11.9,32.6c-0.3,1.4-0.7,2.8-1.3,4
			C487.3,123.4,485.3,124.6,482.4,124.6z"/>
		<path class="st0" d="M534,124.6c-2.4,0-4.5-0.9-6.4-2.8c-2.5-3.1-3.7-7.5-3.7-13.4c0-3.2,0.3-6.4,0.9-9.5c0.6-3.2,1.3-6.3,2.3-9.3
			c2.8-9.4,7.4-14.8,13.6-16.2c0.8-0.1,1.7-0.2,2.5-0.2c3.1,0,6.5,1,10,3v-0.9l-0.1-0.5l-0.1-0.2c0-0.2-0.1-0.3-0.1-0.5
			c0-0.6,0.2-1.3,0.7-1.7c0.5-0.5,1.1-0.7,1.7-0.7c0.2,0,1.5,0.3,3.9,0.9c1.5,0.4,2.9,1.2,3.9,2.4c1,1.2,1.5,2.7,1.5,4.2
			c0,1.3-0.2,2.5-0.7,3.7l-1.5,6.3c-1,4.2-2.1,8.6-3.1,13.3c-0.8,3.1-1.2,6.3-1.4,9.5c0,0.9,0.2,1.8,0.5,2.7c0.3,0.9,1,1.4,1.9,1.4
			l1.1-0.1c3.4-0.6,6.3-2.7,8.8-6.4c2.5-3.5,3.8-6.9,3.8-10.2c0-1.2-0.3-2.4-1-3.4c-0.5-0.5-0.8-1.3-0.8-2c0-1.1,0.6-1.9,1.8-2.6
			c1.1-0.6,2.3-1,3.5-1c2.2,0.1,3.8,0.9,4.8,2.5c1,1.5,1.5,3.4,1.5,5.2c0,2.8-0.7,5.5-2,7.9c-1.3,2.5-2.9,4.8-4.7,6.9
			c-2.1,2.5-4.5,4.7-7.2,6.7c-2.6,2-5.6,3.4-8.7,4.3c-1.3,0.4-2.6,0.5-3.9,0.6c-2.6,0-4.8-0.7-6.7-2.2c-2.8-2.3-4.3-5.8-4.3-10.3
			v-1.2c-1.4,3.6-3.3,6.9-5.6,10C539.1,123.2,536.7,124.6,534,124.6z M537.2,115.7c0.3-0.1,0.5-0.2,0.7-0.5c0.2-0.2,0.3-0.4,0.5-0.7
			c0.1-0.2,0.2-0.4,0.3-0.5c1.5-2,2.7-4.1,3.5-6.4l0.4-0.9l1.4-4.3c1-2.8,2.1-6,3.3-9.6s2.3-6.8,3.1-9.6c0.2-1.1,0.7-1.9,1.5-2.3
			l-0.3-0.1c-0.8-0.5-1.8-0.8-2.8-0.9c-1.2,0-2.3,0.4-3.2,1.1c-1,0.8-1.9,1.7-2.6,2.7c-0.7,1-1.3,2.1-1.9,3.2
			c-3.4,7.2-5.2,15.1-5.3,23.7l0.1,2.4c0,0.1,0,0.3,0,0.5s0,0.5,0.1,0.9c0,0.3,0.1,0.7,0.2,1c0.1,0.3,0.4,0.4,0.6,0.4L537.2,115.7z"
			/>
		<path class="st0" d="M16.3,198.7c-1.4,0-2.8-0.2-4.1-0.6c-3-0.9-5.6-2.8-7.5-5.3c-3-3.8-4.5-8.3-4.5-13.5c0-2.3,0.2-4.6,0.7-6.8
			c0.5-2.3,1.1-4.5,1.9-6.6c1.3-4.1,3.3-7.9,5.9-11.3c2.6-3.4,6.2-5.9,10.2-7.2c1.2-0.3,2.3-0.5,3.5-0.5c2.7,0,5,0.8,6.7,2.4
			c2,2,3,4.7,3,7.9c0,3.3-1.1,6.2-3.4,9c-0.9,1-2.1,1.7-3.4,1.8c-0.5,0-1-0.1-1.4-0.4c-0.7-0.3-1.1-1-1.1-1.8c0-0.5,0.2-1,0.5-1.4
			c0.3-0.5,0.7-1,1.1-1.4c1.3-1.5,2-3.5,2.1-5.5c0-1-0.2-1.9-0.5-2.8c-0.3-0.7-0.7-1.1-1.2-1.1s-0.9,0.2-1.2,0.6
			c-2.8,2.2-4.9,5.2-6.2,8.5c-2.2,4.9-3.6,10.2-4.1,15.6c-0.1,1.1-0.2,2.3-0.2,3.4c0,2.1,0.3,4.3,0.9,6.3c0.3,1.5,1.2,2.8,2.5,3.7
			c0.6,0.3,1.3,0.5,1.9,0.4c0.7,0,1.3-0.1,1.9-0.3c3.6-1,7.2-3.4,10.7-7.2s6.5-8.1,9-12.7l0.2-0.4c0.4-1,1.1-1.9,2-2.6
			c0.5-0.4,1.1-0.6,1.7-0.7c0.3,0,0.7,0.1,0.9,0.3c0.5,0.6,0.7,1.4,0.7,2.2c0,0.9-0.2,1.8-0.6,2.7c-2.6,5-5.8,9.7-9.4,14
			c-2.8,3.6-6.3,6.7-10.3,9C22.7,197.8,19.5,198.6,16.3,198.7z"/>
		<path class="st0" d="M52.1,199h-0.8c-2.2-0.2-4.4-1-6.2-2.4c-1.8-1.3-3.3-3.1-4.3-5c-1.9-4-2.9-8.3-2.9-12.7l-0.1-2.3
			c0-6.4,1.1-12.2,3.2-17.3c2.8-6.9,6.9-11.2,12.4-12.7c1.1-0.3,2.2-0.4,3.3-0.4c2.9,0,5.6,0.9,7.9,2.7c4.2,3.9,6.4,9.9,6.4,18.1
			c-0.1,4.7-0.7,9.4-1.9,14c4-1.6,7.1-4.8,9.5-9.8l0.2-0.4c0.9-1.9,1.9-2.9,3.3-2.9l0.6,0.1c1,0.6,1.4,1.5,1.4,2.7
			c-0.2,1.1-0.6,2.1-1.2,3c-3.2,5.6-6.7,9.3-10.6,11.1c-1.6,0.7-3.3,1.1-5.1,1.1c-1.4,3.4-3.4,6.5-6,9.1c-1.2,1.2-2.7,2.1-4.2,2.9
			C55.5,198.6,53.8,199,52.1,199z M54.8,193c0.6-0.2,1.2-0.6,1.6-1.1c1.9-2.2,3.4-4.7,4.3-7.5l0.1-0.4c0-0.2-0.2-0.4-0.4-0.5
			c-3.3-2.7-5.1-6.8-5.5-12.3c-0.1-1.1-0.2-2.2-0.2-3.3c0-4.1,0.6-8.9,1.8-14.1c-2.6,3.8-4.4,8.5-5.3,14c-0.7,4.1-1.1,8.2-1.1,12.3
			c0,2.3,0.2,4.7,0.7,7c0.3,1.6,0.8,3.1,1.7,4.4c0.6,1,1.3,1.4,2.2,1.4L54.8,193z M62.2,178.7l0.7-3.9c0.1-1.2,0.2-2.2,0.2-2.8
			c0.1-0.7,0.1-1.3,0.1-1.9s0-1.5,0.1-2.6l-0.2-4.3c-0.3-2.1-0.6-3.6-0.8-4.4c-0.3-1.3-0.7-2.5-1.3-3.7c-0.3,1.2-0.6,2.1-0.7,2.8
			c-0.1,0.7-0.3,1.3-0.3,1.8c-0.1,0.5-0.1,1.1-0.2,1.8s-0.1,1.6-0.3,2.7c-0.1,1.3-0.2,2.5-0.2,3.7c0,0.9,0,1.9,0.1,3
			c0.1,1.9,0.4,3.2,0.6,4c0.4,1,0.8,1.9,1.3,2.8v0.1c0.1,0.3,0.3,0.5,0.6,0.8l0.1,0.1C62.1,178.6,62.2,178.7,62.2,178.7L62.2,178.7z
			"/>
		<path class="st0" d="M82.5,198.5c-3,0-5-0.8-6-2.5c-0.3-0.7-0.4-1.5-0.4-2.2c0-0.8,0.1-1.6,0.2-2.3c4.7-29,7.1-43.6,7.1-43.9
			c0-0.5,0.1-0.9,0.3-1.4c0.2-0.6,1-0.9,2.3-0.9c0.7,0,1.5,0.1,2.2,0.2c2.3,0.2,4.4,1.4,5.7,3.3c0.7,1.2,1.1,2.7,1.1,4.1
			c-0.1,1.9-0.4,3.7-0.9,5.5c-0.5,1.6-0.8,3.3-0.8,5v0.2l2-4.1c0.7-1.6,1.5-3.1,2.3-4.6c1.5-2.9,3.8-5.3,6.7-6.9
			c1.3-0.7,2.8-1,4.3-1c1.8,0,3.5,0.6,4.9,1.7c1.3,1.2,2.2,2.8,2.6,4.6s0.6,3.7,0.6,5.6c1.1-1.8,2.2-3.5,3.5-5.2
			c1.2-1.6,2.7-3.1,4.4-4.3c2-1.4,4.3-2.2,6.8-2.2c1.7,0,3.4,0.5,4.9,1.5c2.6,2.1,3.9,5.2,3.9,9.3c0,2.8-0.7,7.2-2.2,13.2
			c-0.6,2.6-1.2,5.1-1.6,7.7c-0.5,2.7-0.7,5.3-0.7,8c0,0.7,0.1,1.3,0.2,2c0.1,0.6,0.5,1.1,0.9,1.4c0.3,0.2,0.7,0.3,1.1,0.3
			c0.9,0,1.7-0.3,2.4-0.8c2-1.5,3.8-3.4,5.2-5.5c2.7-3.8,4.9-8,6.7-12.4c0.3-1.1,0.9-2.1,1.6-2.9c0.5-0.5,1.2-0.9,2-0.9
			c0.4,0,0.7,0.1,1,0.3c0.6,0.5,1,1.2,0.9,2c0,0.9-0.2,1.8-0.6,2.6c-2.2,5.5-5,10.6-8.4,15.5c-4.4,6.4-9.2,9.6-14.5,9.6
			c-2.8,0-5.1-0.9-6.9-2.6c-2-2-3-4.9-3.3-8.6l-0.1-2.6c0-2.6,0.2-5.2,0.7-7.7c0.5-2.6,1-5.1,1.6-7.7c1.2-5.3,1.8-8.8,1.8-10.5
			c0-0.9-0.1-1.8-0.4-2.7l-0.4-0.1c-0.6,0-1.2,0.3-1.8,1c-2.5,2.4-4.7,5.3-6.3,8.4c-4.2,7.8-6.5,16.4-6.6,25.3
			c0,0.6-0.1,1.2-0.2,1.9c-0.1,0.6-0.4,1.2-0.9,1.6c-0.5,0.4-1.4,0.7-2.6,0.7h-1.2c-1.3,0-2.5-0.2-3.8-0.5c-1.2-0.3-2.2-1-2.8-2
			c-0.4-1-0.7-2.1-0.7-3.2v-0.9c0.3-5.5,1.1-11,2.3-16.3c1-4.6,1.7-9.3,2.1-14c0-0.4-0.1-0.9-0.2-1.3c-0.1-0.3-0.4-0.5-0.7-0.6
			c-0.4,0-0.7,0.2-0.9,0.5c-1.6,2-2.9,4.3-3.9,6.7c-4.7,10.4-8.4,21.3-10.9,32.5c-0.1,0.9-0.5,1.7-1.1,2.4c-0.6,0.5-1.5,0.8-2.7,0.9
			L82.5,198.5z"/>
		<path class="st0" d="M160.4,198.2h-0.9c-2.1-0.1-4.2-0.7-5.9-2c-2-1.6-3.4-4-3.9-6.5c-0.3-1.5-0.4-3-0.4-4.5c0-1.1,0-2.2,0.1-3.3
			c0.4-4.3,1.1-8.5,2-12.7s1.9-8.4,3.1-12.5c0.3-1.1,0.6-2.1,0.8-3.2c0.2-1.1,0.3-2.1,0.3-3.2v-1.8c0-1.9,0.8-2.9,2.4-2.9
			c1,0,2,0.2,2.9,0.6l0.4,0.2c2.1,0.4,3.9,1.7,5.1,3.5c0.5,1,0.7,2.1,0.7,3.2c0,1.4-0.2,2.9-0.7,4.2l-1.3,5.3
			c-1.7,6.3-3,12.7-4.1,19.1c-0.2,1.2-0.3,2.5-0.3,3.8c0,1.6,0.2,2.8,0.6,3.6c0.3,0.7,1,1.2,1.8,1.2c1,0,1.9-0.6,2.9-1.8
			c1.6-1.9,3-4,4.2-6.2s2.3-4.4,3.3-6.7c0.8-1.7,1.6-3.5,2.4-5.2c0.3-0.8,0.9-1.5,1.6-2c0.3-0.2,0.7-0.3,1.1-0.3
			c0.5,0,1.1,0.2,1.5,0.5c0.5,0.3,0.8,0.8,0.8,1.4l0.1,0.4c0,0.7-0.2,1.5-0.6,2.1c-3.4,7.7-6.6,14-9.5,18.7c-1.2,2.2-3,4.2-5,5.7
			C164.2,197.7,162.3,198.2,160.4,198.2z M163.1,143.1h-0.3c-0.5,0-1.1-0.1-1.6-0.4c-1.6-0.8-2.7-2.3-3.1-4c-0.1-0.3-0.1-0.7-0.1-1
			c0-0.8,0.3-1.7,0.9-2.3c0.6-0.7,1.4-1.1,2.3-1.4c0.7-0.2,1.3-0.3,2-0.4h0.2c1.1,0,2.1,0.4,2.9,1.2c0.8,0.8,1.4,1.8,1.7,2.9
			c0.1,0.4,0.2,0.8,0.2,1.3c0,0.7-0.2,1.3-0.6,1.9C166.9,142.2,165.3,142.9,163.1,143.1L163.1,143.1z"/>
		<path class="st0" d="M183.1,198.6c-1,0-2.1-0.2-3.1-0.5c-4.8-2.1-7.2-6.5-7.2-13.3c0-1.2,0.1-2.4,0.2-3.6
			c0.7-8.4,3.1-16.6,7.1-24.1c3-5.7,6.7-9,11.1-10c0.7-0.1,1.4-0.2,2.2-0.2c1.9,0,3.8,0.4,5.6,1.1c1.8,0.7,3.6,1.6,5.4,2.5
			c2.4-9.9,4.4-19.8,5.9-29.8c0-0.5,0.1-1,0.3-1.5s0.5-0.9,0.9-1.2c0.4-0.3,0.9-0.5,1.4-0.4c0.7,0,1.4,0.1,2,0.4
			c4.6,1.4,6.9,4.1,6.9,8.1c0,1.2-0.2,2.4-0.4,3.6c-7.1,32.4-10.7,49.1-10.9,50.3c-0.3,1.7-0.4,3.5-0.4,5.2c0,0.6,0,1.1,0.1,1.7
			c0,0.5,0.1,1.1,0.3,1.6c0.1,0.4,0.4,0.8,0.8,1.1c0.4,0.2,0.8,0.4,1.2,0.4c0.9,0,1.7-0.3,2.4-0.9c4.9-3.4,9.2-9.2,12.9-17.3
			c0.4-1.1,1-2.2,1.8-3.1c0.5-0.5,1.2-0.7,1.9-0.7c0.5,0,1,0.2,1.4,0.6c0.4,0.4,0.7,1,0.7,1.6c0,0.9-0.3,1.8-0.7,2.6
			c-3,6.6-6.8,12.7-11.3,18.3c-1.7,2.2-3.8,4-6,5.6c-1.9,1.3-4.1,1.9-6.3,1.9c-0.5,0-1.1,0-1.6-0.1c-2.8-0.5-5.3-2.2-6.8-4.7
			c-1.5-2.4-2.3-5.2-2.4-8c-1,1.8-2,3.5-3.1,5.2s-2.4,3.2-3.9,4.5C188.8,197.5,186.1,198.6,183.1,198.6z M187.1,189.8
			c0.9,0,1.8-0.5,2.6-1.6c1.6-1.8,2.9-3.8,4-6s2.1-4.4,3-6.6l1.1-2.7c1.1-2.7,2.2-5.5,3.2-8.4c1-2.8,1.8-5.6,2.3-8.5
			c0.1-0.3,0.2-0.6,0.2-0.9l-0.8-0.4c-1.2-0.6-2.5-1-3.8-1.1c-1.2,0-2.4,0.5-3.2,1.4c-1,0.9-1.8,1.9-2.5,3.1
			c-3.4,5.7-6,12.8-7.7,21.2c-0.4,1.8-0.7,3.6-0.7,5.4c0,1.8,0.3,3.2,0.8,4.1C185.8,189.4,186.4,189.9,187.1,189.8L187.1,189.8z"/>
		<path class="st0" d="M234.7,198.5h-0.2c-3-0.4-5.3-1.9-7-4.5c-1.4-2.5-2.3-5.3-2.4-8.2c-0.1-1.2-0.2-2.4-0.2-3.6
			c0-2.5,0.2-5.1,0.6-7.6c0.4-2.5,0.9-5,1.6-7.5c0.7-2.7,1.5-5.3,2.6-7.8c1-2.5,2.4-4.9,4.1-7c1.7-2.3,4.1-4,6.8-4.9
			c1.1-0.3,2.3-0.5,3.5-0.5c3,0,6.4,1,10.3,2.9c-0.1-0.6-0.2-1.2-0.2-1.8c0-0.8,0.3-1.6,0.9-2.2c0.4-0.3,1-0.5,1.5-0.4
			c0.6,0,1.2,0.1,1.8,0.3c1.3,0.3,2.5,0.7,3.7,1.1c2.5,1.1,3.8,3.1,3.8,6c0,1.5-0.8,5.5-2.5,11.9c-0.9,3.4-1.7,6.8-2.4,10.3
			c-0.8,3.8-1.3,7.6-1.5,11.4c0,0.6,0.1,1.1,0.3,1.7c0.3,0.9,1,1.6,1.9,1.8h0.2c0.9,0,1.8-0.4,2.4-1.1c1.4-1.4,2.6-2.9,3.6-4.6
			c2.4-4.2,4.6-8.5,6.4-13c0.2-0.6,0.5-1.1,0.8-1.6s0.8-1,1.3-1.3c0.4-0.3,0.9-0.4,1.4-0.5c0.9,0,1.5,0.5,1.8,1.6
			c0.1,0.3,0.1,0.6,0.1,0.9c0,0.5-0.1,0.9-0.2,1.3c-2.6,6.6-5.8,13-9.6,19.1c-1.2,2.2-2.9,4.2-4.9,5.8c-1.7,1.1-3.7,1.7-5.8,1.7
			c-2.3,0-4.6-0.7-6.5-2.1c-1.5-1.1-2.7-2.6-3.5-4.3s-1.2-3.6-1.2-5.4c0-0.6,0.1-1.2,0.2-1.8c-0.6,1.1-1.2,2.3-1.8,3.4
			c-0.9,1.9-2,3.8-3.2,5.5c-1,1.4-2.2,2.5-3.6,3.5C238,198,236.3,198.5,234.7,198.5z M237.7,189.8c0.4-0.1,0.7-0.3,1-0.5
			c0.3-0.3,0.5-0.5,0.8-0.8l0.5-0.6c0.9-1.4,1.7-2.8,2.4-4.2c0.5-0.9,0.9-1.9,1.2-2.8h0.1v-0.1c2.8-7,5.2-14.1,7.2-21.4l0.7-2.2
			c0.2-0.2,0.2-0.5,0.2-0.8c0.2-0.7,0.6-1.2,1.3-1.5c-0.6-0.3-1.1-0.5-1.3-0.6c-0.1-0.1-0.3-0.2-0.4-0.2c-0.1,0-0.1,0-0.2,0
			c-0.1,0-0.2,0-0.3-0.1c-0.5-0.1-1.1-0.1-1.6-0.1l-0.7,0.2c-0.1,0-0.3,0.1-0.4,0.1c-0.2,0.1-0.4,0.2-0.6,0.3
			c-0.4,0.2-0.7,0.4-1.1,0.6c0,0.1-0.1,0.1-0.2,0.1c-0.8,0.6-1.5,1.3-2,2.1c0,0.1-0.1,0.2-0.1,0.2c-0.4,0.5-0.8,1.1-1.1,1.6
			c-0.5,0.9-0.9,1.8-1.3,2.8l-0.6,1.3c-1.8,4.3-3,8.8-3.7,13.3l-0.2,1.7c-0.2,2.2-0.4,4.4-0.4,6.5l0.2,2.9
			C237.2,188.4,237.4,189.1,237.7,189.8z"/>
		<path class="st0" d="M277.1,192.3c0-4.1,2.8-7.2,6.8-7.2s6.7,2.9,6.7,7.2c0,4.1-2.7,7.2-6.9,7.2
			C279.8,199.5,277.1,196.4,277.1,192.3z"/>
		<path class="st2" d="M349.4,291.5v0.6c0,0,0,0.2-0.1,0.2h-1.9c0-0.3,0-0.6,0-0.9c-0.1-0.8-0.2-1.6-0.3-2.4
			c-0.1-0.3-0.1-0.5-0.2-0.8c-0.1-0.5-0.3-1-0.5-1.4v-0.2c-0.3-0.5-0.5-1-0.8-1.5c-0.2-0.3-0.4-0.6-0.6-0.9l-0.1-0.2
			c-0.9-1.3-2.1-2.4-3.4-3.3c-0.2-0.2-0.5-0.3-0.8-0.5c-0.5-0.3-1-0.6-1.5-0.8l0,0c-0.7-0.3-1.5-0.6-2.3-0.8c-1-0.2-2-0.4-3-0.4
			c-0.1,0-0.2,0-0.2,0l0,0v-1.7c0-0.3,0-0.3,0.3-0.3h0.5c0.4,0,0.8,0,1.2,0c0.1-0.1,0.3-0.1,0.4,0c1.1,0.2,2.1,0.4,3.2,0.8
			c2.9,1.1,5.4,2.9,7.3,5.4l0,0c0.1,0.1,0.2,0.3,0.3,0.4c0.3,0.4,0.6,0.9,0.8,1.3c0.6,1,1.1,2.1,1.4,3.3c0.1,0.2,0.1,0.4,0,0.6
			c0.2,0.8,0.3,1.5,0.4,2.3L349.4,291.5L349.4,291.5z"/>
		<path class="st2" d="M317,282.9c0-0.1,0-0.3,0-0.4c0-0.3,0.1-0.5,0.2-0.7s0.2-0.4,0.4-0.6c0.6-0.6,1.3-1.3,1.9-1.9
			c0.2-0.2,0.5-0.4,0.7-0.6c0.3-0.2,0.6-0.3,0.9-0.4l0.6-0.1h0.9l0.8,0.2c1.1,0.4,2,1.2,2.5,2.3c0.2,0.4,0.3,0.8,0.4,1.3
			c0.3,1,0.6,2.1,0.8,3.1c0.2,1,0.1,2-0.4,2.9c-0.2,0.3-0.4,0.5-0.6,0.8c-0.3,0.3-0.7,0.7-1.1,1c-0.2,0.1-0.2,0.4-0.1,0.6l0.4,1.2
			c0.6,1.5,1.4,2.8,2.4,4.1c0.2,0.2,0.3,0.4,0.5,0.6c1.2,1.3,2.6,2.4,4.1,3.2c0.5,0.3,1,0.5,1.5,0.7c0.4,0.2,0.9,0.3,1.3,0.5
			c0.1,0.1,0.3,0.1,0.4,0l1.1-1.1c0.8-0.8,1.9-1.3,3-1.2c0.5,0,1,0.2,1.4,0.3h0.2l2.9,0.8h0.3c1.3,0.5,2.3,1.5,2.6,2.9
			c0.1,0.2,0.1,0.4,0.2,0.6v1c0,0.2,0,0.4,0,0.6c-0.2,0.7-0.6,1.3-1.1,1.8l-1.6,1.6c-0.2,0.2-0.4,0.4-0.7,0.5
			c-0.4,0.2-0.8,0.3-1.1,0.3c-0.6,0-1.2,0-1.8,0c-0.7,0-1.3,0-2-0.2s-1.4-0.2-2.1-0.4c-1.3-0.3-2.6-0.7-3.8-1.2l-0.4-0.2l-0.7-0.3
			l-1.8-0.9c-0.8-0.5-1.6-0.9-2.3-1.5c-0.6-0.5-1.3-1-1.9-1.5c-0.7-0.6-1.3-1.2-1.9-1.8c-0.6-0.7-1-1.2-1.5-1.8l-0.4-0.5
			c-0.1-0.1-0.1-0.2-0.2-0.3c-0.5-0.7-1-1.5-1.5-2.3c-0.3-0.6-0.6-1.1-0.9-1.7c-0.1-0.2-0.2-0.4-0.3-0.6c-0.1-0.2-0.5-1.2-0.7-1.8
			c-0.3-0.8-0.5-1.6-0.7-2.4c0-0.2,0-0.4,0-0.6c0-0.3,0-0.7-0.2-1s0-0.4,0-0.6s-0.1-1.2-0.2-1.8c0-0.6,0-1,0-1.5V283L317,282.9z"/>
		<path class="st2" d="M333.2,284.2v-1.9c0-0.1,0-0.2,0.2-0.2h1.5c0.2-0.1,0.4-0.1,0.6,0c0.7,0.2,1.4,0.4,2,0.7
			c2.8,1.3,4.9,3.9,5.6,6.9l0,0c0.1,0.1,0.1,0.3,0,0.4v1.4c0,0.5,0,0.4-0.3,0.3h-1.7v-0.3c0-0.2,0-0.5,0-0.7s0-0.4,0-0.5
			c0-0.3,0-0.7-0.2-1c-0.4-1.3-1.1-2.4-2.1-3.3c-0.9-0.9-2-1.5-3.2-1.9c-0.3-0.1-0.6-0.2-0.9-0.2h-1.2L333.2,284.2z"/>
		<path class="st2" d="M333.5,290.3c-0.2,0-0.3-0.2-0.3-0.4v-1.7c0.5,0,1.1,0.1,1.6,0.3c0.2,0,0.3,0,0.4,0.2
			c0.1,0.1,0.2,0.1,0.3,0.2c0.4,0.3,0.7,0.6,0.9,0.9c0.2,0.2,0.3,0.5,0.5,0.8c0.2,0.4,0.3,0.8,0.3,1.3v0.3l0,0c-0.3,0-0.5,0-0.8,0
			h-0.9c-0.3,0-0.3,0-0.3-0.3c-0.1-0.8-0.7-1.5-1.5-1.7L333.5,290.3L333.5,290.3z"/>
		<path class="st2" d="M46.6,280.5c-1.4-1.3-3.1-2.1-5-2.4c-0.5,0-1-0.1-1.6-0.2h-2.7c-0.8,0-1.6,0.1-2.4,0.3c-4.6,1.7-7.7,6-7.7,11
			c0,2.3,0.5,4.6,1.6,6.6c1.9,4,4.6,7.6,7.9,10.6c0.5,0.5,1.1,0.8,1.7,0.9h0.9c0.5-0.1,1-0.3,1.3-0.6c1-0.9,1.9-1.8,2.8-2.6
			c1.8-1.9,3.4-4.1,4.7-6.4c1.5-2.4,2.3-5.1,2.5-7.9c0.2-3.7-1.3-7.2-4.1-9.5L46.6,280.5z M39,295.2c-3.2,0-5.7-2.7-5.7-5.8
			c0-3.2,2.7-5.7,5.8-5.7c3.2,0,5.7,2.7,5.7,5.8C44.8,292.7,42.2,295.3,39,295.2L39,295.2L39,295.2z"/>
		<path class="st2" d="M77.8,281.5c0.9-1.5,2.1-2.7,3.6-3.5c3.3-1.8,7.2-1.7,10.4,0.2c1.6,1,2.8,2.5,3.5,4.3h-3.8
			c-0.4-1-1.2-1.7-2.1-2.3c-0.9-0.5-2-0.8-3.1-0.7c-1.2,0-2.4,0.3-3.4,0.9s-1.8,1.4-2.3,2.5c-1.1,2.4-1.1,5.1,0,7.5
			c0.5,1,1.3,1.9,2.3,2.5s2.2,0.9,3.4,0.9c1.1,0,2.1-0.2,3.1-0.8c0.9-0.5,1.6-1.3,2.1-2.3h3.8c-0.7,1.8-1.9,3.3-3.5,4.3
			s-3.5,1.5-5.5,1.5c-1.7,0-3.4-0.4-4.9-1.3c-1.5-0.8-2.7-2-3.6-3.5C76.1,288.5,76.1,284.6,77.8,281.5L77.8,281.5z"/>
		<path class="st2" d="M103.9,281.4c0.8-0.4,1.8-0.7,2.7-0.6v3.3h-0.8c-1.2,0-2.2,0.3-2.8,0.9s-1,1.7-1,3.3v8h-3.2V281h3.2v2.2
			C102.5,282.5,103.2,281.8,103.9,281.4z"/>
		<path class="st2" d="M109.4,284.5c1.2-2.3,3.6-3.8,6.2-3.7c1.1,0,2.2,0.2,3.1,0.7c0.8,0.4,1.6,1,2.1,1.8V281h3.2v15.2h-3V294
			c-0.6,0.8-1.3,1.4-2.2,1.8c-2.2,1.1-4.7,0.9-6.7-0.3c-1.1-0.7-2-1.7-2.6-2.8c-0.7-1.3-1-2.7-1-4.1
			C108.5,287.1,108.8,285.7,109.4,284.5z M120.3,285.9c-0.4-0.7-1-1.3-1.7-1.8c-0.7-0.4-1.5-0.6-2.3-0.6s-1.6,0.2-2.3,0.6
			c-0.7,0.4-1.3,1-1.7,1.7c-0.4,0.8-0.7,1.8-0.6,2.7c0,1,0.2,1.9,0.6,2.8c0.4,0.7,1,1.4,1.7,1.8s1.5,0.6,2.3,0.6s1.6-0.2,2.3-0.6
			c0.7-0.4,1.3-1,1.7-1.8c0.4-0.8,0.7-1.8,0.7-2.8C121,287.6,120.8,286.7,120.3,285.9L120.3,285.9z"/>
		<path class="st3" d="M128.1,295.8c-0.8-0.8-0.8-2.1,0-2.9c0.4-0.4,0.9-0.6,1.4-0.6s1,0.2,1.4,0.6c0.8,0.8,0.8,2.1,0,2.9
			c-0.4,0.4-0.9,0.6-1.4,0.6S128.5,296.2,128.1,295.8z"/>
		<path class="st2" d="M141.3,279v-2.9h5.7v20.1h-3.2V279H141.3z"/>
		<path class="st2" d="M161.1,278.8c-0.7-0.5-1.4-0.7-2.2-0.6c-1.5,0-2.5,0.6-3.3,1.7c-0.7,1.1-1.1,3-1.1,5.5
			c0.5-0.8,1.2-1.5,2.1-1.9c0.9-0.4,2-0.7,3-0.7c1.1,0,2.2,0.2,3.2,0.8c0.9,0.5,1.7,1.3,2.2,2.3c1,2.2,1.1,4.8,0,7
			c-0.5,1-1.3,1.8-2.3,2.4c-1.1,0.6-2.3,0.9-3.6,0.9c-1.9,0-3.4-0.4-4.5-1.3s-1.9-2.2-2.3-3.6c-0.5-1.9-0.7-3.8-0.6-5.7
			c0-6.7,2.4-10.1,7.1-10.1c1.8,0,3.3,0.5,4.4,1.5c1,1,1.7,2.3,1.9,3.7h-2.9C162.1,280,161.7,279.3,161.1,278.8z M156,286.5
			c-0.8,0.7-1.2,1.6-1.2,2.9c-0.1,1.1,0.3,2.2,1.1,3c0.7,0.8,1.7,1.1,3.1,1.1c1,0.1,2-0.3,2.8-1.1c0.7-0.8,1.1-1.8,1-2.9
			c0.1-1.1-0.3-2.2-1-3c-0.7-0.7-1.6-1.1-2.9-1.1C157.8,285.5,156.8,285.9,156,286.5z"/>
		<path class="st2" d="M185.7,283.6l-1,4.8h3.6v2.8h-4.2l-1.1,5.1h-3l1.1-5.1h-5.4l-1.1,5.1h-3l1.1-5.1h-4.3v-2.8h4.9l1-4.8H170
			v-2.8h4.8l1.1-5h3l-1.1,5h5.4l1.1-5h3l-1.1,5h3.7v2.8H185.7z M182.6,283.6h-5.4l-1,4.8h5.4L182.6,283.6z"/>
		<path class="st2" d="M192.8,279v-2.9h5.7v20.1h-3.2V279H192.8z"/>
		<path class="st2" d="M203.4,281.2c0-2,1.1-3.9,3-4.7c2.3-1,5-1,7.3,0c0.9,0.4,1.7,1.1,2.3,2c0.5,0.8,0.8,1.8,0.8,2.7
			c0,1-0.3,1.9-0.8,2.7c-0.5,0.8-1.2,1.4-2.1,1.8c1,0.4,1.9,1,2.5,1.9s0.9,2,0.9,3.1s-0.3,2.2-0.9,3.2c-0.6,0.9-1.5,1.7-2.5,2.1
			c-1.2,0.5-2.4,0.8-3.7,0.8s-2.5-0.2-3.7-0.8c-1-0.5-1.9-1.2-2.5-2.1s-0.9-2.1-0.9-3.2s0.3-2.2,0.9-3.1c0.6-0.9,1.5-1.5,2.5-1.9
			C204.4,284.7,203.4,283.2,203.4,281.2z M207.1,288c-0.8,0.6-1.2,1.6-1.1,2.6c0,1,0.4,1.9,1.1,2.6c0.8,0.7,1.9,1,3,1
			c1.1,0.1,2.1-0.3,3-1c0.7-0.6,1.1-1.6,1.1-2.5c0.1-1-0.4-1.9-1.1-2.6c-0.8-0.6-1.9-1-2.9-0.9C209,287,208,287.4,207.1,288
			L207.1,288z M212.7,279.2c-0.8-0.6-1.7-0.9-2.7-0.8c-0.9-0.1-1.9,0.2-2.6,0.8c-0.7,0.6-1,1.5-1,2.4s0.3,1.7,1,2.3
			c1.5,1.2,3.7,1.2,5.2,0c0.7-0.6,1-1.4,1-2.3C213.7,280.7,213.4,279.8,212.7,279.2L212.7,279.2z"/>
		<path class="st2" d="M233.3,278.5l-7.7,17.7h-3.2l7.8-17.4H220v-2.7h13.3V278.5z"/>
		<path class="st2" d="M248.1,284.9v2.7h-11.4v-2.7H248.1z"/>
		<path class="st2" d="M251.8,279v-2.9h5.7v20.1h-3.2V279H251.8z"/>
		<path class="st2" d="M263.6,291.9c1.8-1.5,3.2-2.8,4.2-3.8c1-0.9,1.8-1.9,2.6-3.1c0.6-0.9,1-2.1,1-3.2c0.1-0.9-0.2-1.8-0.8-2.6
			c-0.5-0.6-1.4-0.9-2.5-0.9c-1-0.1-1.9,0.3-2.5,1c-0.6,0.8-1,1.8-1,2.8h-3c0.1-2.1,0.7-3.7,1.9-4.8c1.3-1.1,2.9-1.7,4.6-1.7
			c2,0,3.6,0.6,4.7,1.7s1.7,2.6,1.7,4.4c0,1.3-0.4,2.7-1,3.8c-0.7,1.2-1.5,2.3-2.4,3.3s-2.1,2.1-3.6,3.4l-1.2,1.1h8.7v2.6h-13.4
			v-2.3L263.6,291.9z"/>
		<path class="st3" d="M85.5,301.8l-4.2,11H80l-4.2-11H77l3.6,9.8l3.6-9.8H85.5z"/>
		<path class="st3" d="M94.9,308.9h-7.1c0,0.6,0.2,1.2,0.5,1.7c0.3,0.4,0.7,0.8,1.1,1c0.5,0.2,1,0.4,1.5,0.4c0.6,0,1.3-0.2,1.8-0.5
			s0.8-0.8,1-1.4h1.2c-0.2,0.8-0.7,1.5-1.3,2.1c-0.7,0.5-1.7,0.8-2.6,0.8c-0.8,0-1.5-0.2-2.2-0.5c-0.6-0.4-1.2-0.9-1.5-1.5
			c-0.4-0.7-0.6-1.5-0.5-2.3c0-0.8,0.2-1.6,0.5-2.3c0.3-0.6,0.9-1.2,1.5-1.5c0.7-0.4,1.4-0.5,2.2-0.5c0.8,0,1.5,0.2,2.1,0.5
			s1.1,0.8,1.4,1.4s0.5,1.3,0.5,2C94.9,308.4,94.9,308.7,94.9,308.9z M93.4,306.4c-0.3-0.4-0.6-0.8-1.1-1s-1-0.3-1.5-0.3
			c-0.8,0-1.5,0.3-2.1,0.8c-0.6,0.6-0.9,1.4-1,2.2h6.1C93.8,307.5,93.7,306.9,93.4,306.4z"/>
		<path class="st3" d="M99.1,304.5c0.6-0.3,1.2-0.5,1.8-0.4v1.1h-0.3c-0.7,0-1.4,0.2-1.9,0.6S98,306.9,98,308v4.8h-1.1v-8.6H98v1.5
			C98.3,305.2,98.6,304.8,99.1,304.5z"/>
		<path class="st3" d="M105,304.7c0.6-0.4,1.4-0.6,2.1-0.6s1.5,0.2,2.1,0.5c0.6,0.4,1.1,0.9,1.5,1.5c0.7,1.5,0.7,3.2,0,4.7
			c-0.3,0.6-0.8,1.2-1.5,1.6c-0.6,0.4-1.4,0.6-2.1,0.6s-1.5-0.2-2.1-0.6c-0.6-0.3-1-0.9-1.3-1.5v1.9h-1.1v-11.6h1.1v5
			C104,305.5,104.5,305,105,304.7z M109.7,306.6c-0.3-0.5-0.7-0.9-1.1-1.2c-0.5-0.3-1.1-0.4-1.6-0.4c-0.6,0-1.1,0.1-1.6,0.4
			s-0.9,0.7-1.1,1.2c-0.6,1.2-0.6,2.5,0,3.7c0.3,0.5,0.7,0.9,1.1,1.2c0.5,0.3,1,0.4,1.6,0.4s1.1-0.1,1.6-0.4s0.9-0.7,1.1-1.2
			c0.3-0.6,0.4-1.2,0.4-1.9C110.1,307.9,110,307.2,109.7,306.6L109.7,306.6z"/>
		<path class="st3" d="M121,308.9h-7.1c0,0.6,0.2,1.2,0.5,1.7c0.3,0.4,0.7,0.8,1.1,1c0.5,0.2,1,0.4,1.5,0.4c0.6,0,1.3-0.2,1.8-0.5
			s0.8-0.8,1-1.4h1.2c-0.2,0.8-0.7,1.5-1.3,2.1c-0.7,0.5-1.7,0.8-2.6,0.8c-0.8,0-1.5-0.2-2.2-0.5c-0.6-0.4-1.2-0.9-1.5-1.5
			c-0.4-0.7-0.6-1.5-0.5-2.3c0-0.8,0.2-1.6,0.5-2.3c0.3-0.6,0.9-1.2,1.5-1.5c0.7-0.4,1.4-0.5,2.2-0.5c0.8,0,1.5,0.2,2.1,0.5
			s1.1,0.8,1.4,1.4s0.5,1.3,0.5,2C121.1,308.4,121,308.7,121,308.9z M119.5,306.4c-0.3-0.4-0.6-0.8-1.1-1s-1-0.3-1.5-0.3
			c-0.8,0-1.5,0.3-2.1,0.8c-0.6,0.6-0.9,1.4-1,2.2h6.1C120,307.5,119.8,306.9,119.5,306.4z"/>
		<path class="st3" d="M129.6,305c0.7,0.6,1,1.6,1,2.8v5h-1.1v-4.9c0.1-0.8-0.2-1.5-0.7-2.1c-0.5-0.5-1.2-0.8-1.9-0.7
			c-0.7,0-1.5,0.2-2,0.8c-0.5,0.5-0.7,1.3-0.7,2.3v4.7h-1.1v-8.6h1.1v1.5c0.3-0.5,0.7-0.9,1.2-1.2c0.5-0.3,1.1-0.4,1.8-0.4
			C128,304,128.9,304.4,129.6,305z"/>
		<path class="st3" d="M133.1,306.2c0.3-0.6,0.8-1.2,1.5-1.5c0.6-0.4,1.4-0.6,2.1-0.5c0.7,0,1.5,0.2,2.1,0.6c0.6,0.3,1,0.8,1.3,1.4
			v-1.9h1.1v8.6h-1.1V311c-0.3,0.6-0.7,1.1-1.3,1.5s-1.4,0.6-2.1,0.6c-0.7,0-1.5-0.2-2.1-0.6s-1.1-0.9-1.5-1.6
			C132.4,309.4,132.4,307.6,133.1,306.2L133.1,306.2z M139.6,306.7c-0.3-0.5-0.7-0.9-1.1-1.2c-0.5-0.3-1-0.4-1.6-0.4
			s-1.1,0.1-1.6,0.4s-0.9,0.7-1.1,1.2c-0.3,0.6-0.4,1.2-0.4,1.9c0,0.6,0.1,1.3,0.4,1.9c0.3,0.5,0.7,0.9,1.1,1.2
			c0.5,0.3,1.1,0.4,1.6,0.4c0.6,0,1.1-0.1,1.6-0.4s0.9-0.7,1.1-1.2C140.2,309.2,140.2,307.8,139.6,306.7L139.6,306.7z"/>
		<path class="st3" d="M144.8,301.2v11.7h-1.1v-11.7H144.8z"/>
		<path class="st3" d="M148.3,311l-1.6,4.1h-0.8l1.1-4.1H148.3z"/>
		<path class="st3" d="M161.1,308.1c0.4,0.5,0.7,1.1,0.6,1.8c0,0.5-0.1,1.1-0.4,1.5c-0.3,0.5-0.7,0.8-1.2,1.1
			c-0.6,0.3-1.3,0.4-1.9,0.4h-3.8v-11h3.7c1.1,0,2,0.3,2.5,0.8c0.6,0.5,0.9,1.2,0.9,2c0,0.6-0.2,1.2-0.6,1.7
			c-0.4,0.4-0.9,0.7-1.4,0.9C160.1,307.2,160.7,307.6,161.1,308.1z M155.4,306.7h2.6c0.6,0,1.2-0.1,1.7-0.5c0.4-0.4,0.6-0.9,0.6-1.5
			c0-0.5-0.2-1.1-0.6-1.4c-0.5-0.4-1.1-0.6-1.8-0.5h-2.5V306.7z M159.9,311.3c0.4-0.4,0.7-1,0.7-1.6s-0.2-1.2-0.7-1.6
			s-1.2-0.6-1.9-0.6h-2.6v4.3h2.6C158.7,311.9,159.4,311.7,159.9,311.3L159.9,311.3z"/>
		<path class="st3" d="M165.3,312.4c-0.6-0.4-1.2-0.9-1.5-1.5c-0.8-1.5-0.8-3.2,0-4.7c0.4-0.6,0.9-1.2,1.5-1.5
			c0.7-0.4,1.4-0.6,2.2-0.5c0.8,0,1.5,0.2,2.2,0.5c0.6,0.4,1.2,0.9,1.5,1.5c0.8,1.5,0.8,3.2,0,4.7c-0.4,0.7-0.9,1.2-1.6,1.6
			c-0.7,0.4-1.4,0.6-2.2,0.5C166.7,313,166,312.8,165.3,312.4z M169.1,311.6c0.5-0.3,0.9-0.7,1.2-1.1c0.3-0.6,0.5-1.2,0.5-1.9
			c0-0.7-0.1-1.3-0.4-1.9c-0.3-0.5-0.7-0.9-1.2-1.1c-1-0.5-2.2-0.5-3.1,0c-0.5,0.3-0.9,0.7-1.1,1.1c-0.6,1.2-0.6,2.6,0,3.8
			c0.3,0.5,0.7,0.9,1.1,1.1c0.5,0.3,1,0.4,1.6,0.4C168.1,312,168.6,311.8,169.1,311.6L169.1,311.6z"/>
		<path class="st3" d="M179.6,304.7c0.6,0.3,1,0.8,1.3,1.4v-1.9h1.1v8.8c0,0.7-0.2,1.5-0.5,2.1s-0.8,1.1-1.4,1.4
			c-0.6,0.3-1.4,0.5-2.1,0.5c-1,0-1.9-0.2-2.7-0.8c-0.7-0.5-1.2-1.3-1.4-2.1h1.1c0.2,0.6,0.6,1.1,1.1,1.4c0.6,0.4,1.3,0.6,1.9,0.5
			c0.5,0,1-0.1,1.5-0.4c0.4-0.2,0.8-0.6,1-1c0.3-0.5,0.4-1.1,0.4-1.6v-2.1c-0.3,0.6-0.7,1.1-1.3,1.5s-1.4,0.6-2.1,0.6
			c-0.7,0-1.5-0.2-2.1-0.6s-1.1-0.9-1.5-1.6c-0.7-1.5-0.7-3.2,0-4.7c0.3-0.6,0.8-1.2,1.5-1.5c0.6-0.4,1.4-0.6,2.1-0.5
			C178.2,304.1,178.9,304.3,179.6,304.7z M180.4,306.7c-0.3-0.5-0.7-0.9-1.1-1.2c-0.5-0.3-1-0.4-1.6-0.4s-1.1,0.1-1.6,0.4
			s-0.9,0.7-1.1,1.2c-0.3,0.6-0.4,1.2-0.4,1.9c0,0.6,0.1,1.3,0.4,1.9c0.3,0.5,0.7,0.9,1.1,1.2c0.5,0.3,1.1,0.4,1.6,0.4
			c0.6,0,1.1-0.1,1.6-0.4s0.9-0.7,1.1-1.2C181,309.2,181,307.8,180.4,306.7L180.4,306.7z"/>
		<path class="st3" d="M186.1,312.4c-0.6-0.4-1.2-0.9-1.5-1.5c-0.8-1.5-0.8-3.2,0-4.7c0.4-0.6,0.9-1.2,1.5-1.5c1.4-0.7,3-0.7,4.4,0
			c0.6,0.4,1.2,0.9,1.5,1.5c0.8,1.5,0.8,3.2,0,4.7c-0.4,0.7-0.9,1.2-1.6,1.6c-0.7,0.4-1.4,0.6-2.2,0.5
			C187.5,313,186.7,312.8,186.1,312.4z M189.8,311.6c0.5-0.3,0.9-0.7,1.2-1.1c0.3-0.6,0.5-1.2,0.4-1.9c0-0.7-0.1-1.3-0.4-1.9
			c-0.3-0.5-0.7-0.9-1.1-1.1c-1-0.5-2.2-0.5-3.2,0c-0.5,0.3-0.9,0.7-1.1,1.1c-0.6,1.2-0.6,2.6,0,3.8c0.3,0.5,0.7,0.9,1.1,1.1
			c0.5,0.3,1,0.4,1.6,0.4C188.8,312,189.3,311.8,189.8,311.6L189.8,311.6z"/>
		<path class="st3" d="M196,305.1v5.4c0,0.4,0.1,0.8,0.3,1.1c0.3,0.2,0.7,0.3,1.1,0.3h1v0.9h-1.2c-0.6,0.1-1.2-0.1-1.7-0.5
			c-0.4-0.4-0.6-1-0.6-1.8v-5.4h-1.2v-0.9h1.2V302h1.1v2.2h2.4v0.9H196z"/>
		<path class="st3" d="M200.2,306.2c0.3-0.6,0.8-1.2,1.5-1.5c0.6-0.4,1.4-0.6,2.1-0.5c0.7,0,1.5,0.2,2.1,0.6c0.6,0.3,1,0.8,1.3,1.4
			v-1.9h1.1v8.6h-1.1V311c-0.3,0.6-0.7,1.1-1.3,1.5s-1.4,0.6-2.1,0.6c-0.7,0-1.5-0.2-2.1-0.6s-1.1-0.9-1.5-1.6
			C199.5,309.4,199.5,307.6,200.2,306.2z M206.8,306.7c-0.3-0.5-0.7-0.9-1.1-1.2c-0.5-0.3-1-0.4-1.6-0.4s-1.1,0.1-1.6,0.4
			s-0.9,0.7-1.1,1.2c-0.3,0.6-0.4,1.2-0.4,1.9c0,0.6,0.1,1.3,0.4,1.9c0.3,0.5,0.7,0.9,1.1,1.2c0.5,0.3,1.1,0.4,1.6,0.4
			c0.6,0,1.1-0.1,1.6-0.4s0.9-0.7,1.1-1.2C207.4,309.2,207.4,307.8,206.8,306.7L206.8,306.7z M205.7,301.7l-3.2,1.9v-0.9l3.2-2
			V301.7z"/>
		<path class="st2" d="M367,272.7c1.3-1,2.9-1.5,4.8-1.5c1.2,0,2.4,0.2,3.5,0.7c0.9,0.4,1.7,1.1,2.2,2c0.5,0.8,0.8,1.8,0.8,2.8
			c0,1.1-0.3,2.2-1,3.1c-0.6,0.8-1.4,1.4-2.3,1.7v0.1c1.1,0.3,2,1,2.6,1.9c0.7,1,1,2.3,1,3.5c0,1.1-0.2,2.1-0.8,3
			c-0.5,0.9-1.3,1.6-2.3,2.1c-1.1,0.5-2.4,0.8-3.7,0.8c-2.1,0-3.8-0.5-5.1-1.6c-1.3-1.1-2.1-2.6-2.2-4.6h3.2c0,1,0.5,1.9,1.2,2.5
			c0.8,0.7,1.8,1,2.9,1c1.2,0,2.1-0.3,2.7-1s1-1.6,1-2.5c0-1.3-0.4-2.3-1.3-2.9s-2.2-0.9-3.9-0.9h-0.8v-2.7h0.8
			c1.6,0,2.8-0.3,3.6-0.8c0.8-0.5,1.3-1.4,1.2-2.4c0-0.8-0.3-1.6-0.9-2.2s-1.4-0.8-2.5-0.8c-0.9-0.1-1.8,0.2-2.5,0.8
			c-0.6,0.5-1,1.3-1.1,2h-3.2C364.9,275.3,365.7,273.7,367,272.7z"/>
		<path class="st2" d="M384,288.3c1.9-1.6,3.3-2.9,4.4-3.9c1-1,1.9-2,2.7-3.2c0.7-1,1-2.2,1.1-3.4c0.1-1-0.2-1.9-0.8-2.7
			c-0.5-0.7-1.4-1-2.6-1c-1-0.1-2,0.3-2.6,1.1c-0.7,0.8-1,1.9-1,2.9H382c0.1-2.2,0.7-3.9,2-5c1.3-1.2,3-1.8,4.8-1.8
			c2.1,0,3.7,0.6,4.9,1.7c1.2,1.2,1.8,2.7,1.8,4.6c0,1.4-0.4,2.8-1.1,4c-0.7,1.3-1.5,2.4-2.5,3.4s-2.2,2.2-3.7,3.5l-1.3,1.1h9.2v2.7
			H382v-2.4L384,288.3z"/>
		<path class="st2" d="M398.4,274.7v-3h6v21.1h-3.3v-18.1H398.4z"/>
		<path class="st2" d="M408.5,288.4v-2.5l9.7-13.9h4v13.6h2.7v2.9h-2.7v4.4H419v-4.4h-10.5V288.4z M419.1,275.3l-6.8,10.2h6.8V275.3
			z"/>
		<path class="st2" d="M428.2,277c0-2.1,1.2-4.1,3.1-4.9c2.4-1,5.2-1,7.6,0c1,0.4,1.8,1.2,2.4,2.1c0.5,0.9,0.8,1.9,0.8,2.9
			s-0.3,2-0.8,2.8s-1.3,1.5-2.2,1.9c1.1,0.4,2,1.1,2.6,2s1,2.1,1,3.2c0,1.2-0.3,2.3-1,3.3s-1.6,1.8-2.7,2.2c-2.5,1-5.3,1-7.7,0
			c-1.1-0.5-2-1.2-2.6-2.2s-1-2.1-1-3.3c0-1.2,0.3-2.3,1-3.2c0.6-0.9,1.5-1.6,2.6-2C429.2,280.8,428.2,279.2,428.2,277z M432,284.1
			c-0.8,0.7-1.3,1.7-1.2,2.7c0,1,0.4,2,1.1,2.7c0.8,0.7,1.8,1,3.2,1c1.1,0.1,2.2-0.3,3.1-1c0.8-0.7,1.2-1.6,1.1-2.7
			c0.1-1-0.4-2-1.1-2.7c-0.9-0.7-2-1-3.1-1C434,283.2,432.9,283.5,432,284.1z M437.9,275c-1.7-1.2-3.9-1.2-5.5,0
			c-0.7,0.6-1.1,1.6-1,2.5c0,0.9,0.4,1.8,1.1,2.4c1.6,1.2,3.8,1.2,5.4,0c0.7-0.6,1.1-1.5,1.1-2.4C439,276.5,438.6,275.6,437.9,275
			L437.9,275z"/>
		<path class="st2" d="M448.1,272.7c1.3-1,2.9-1.5,4.8-1.5c1.2,0,2.4,0.2,3.5,0.7c0.9,0.4,1.7,1.1,2.2,2c0.5,0.8,0.8,1.8,0.8,2.8
			c0,1.1-0.3,2.2-1,3.1c-0.6,0.8-1.4,1.4-2.3,1.7v0.1c1.1,0.3,2,1,2.7,1.9c0.7,1,1,2.3,1,3.5c0,1.1-0.2,2.1-0.8,3
			c-0.5,0.9-1.3,1.6-2.3,2.1c-1.1,0.5-2.4,0.8-3.7,0.8c-2.1,0-3.8-0.5-5.1-1.6c-1.3-1.1-2.1-2.6-2.2-4.6h3.2c0,1,0.5,1.9,1.2,2.5
			c0.8,0.7,1.8,1,2.9,1c1.2,0,2.1-0.3,2.7-1s1-1.6,1-2.5c0-1.3-0.4-2.3-1.3-2.9s-2.2-0.9-3.9-0.9h-0.8v-2.7h0.8
			c1.6,0,2.8-0.3,3.6-0.8c0.8-0.5,1.3-1.4,1.2-2.4c0-0.8-0.3-1.6-0.9-2.2c-0.7-0.6-1.6-0.9-2.5-0.8c-0.9-0.1-1.8,0.2-2.5,0.8
			c-0.6,0.5-1,1.3-1.1,2H446C446.1,275.3,446.8,273.7,448.1,272.7z"/>
		<path class="st2" d="M465.3,272.7c1.3-1,2.9-1.5,4.8-1.5c1.2,0,2.4,0.2,3.5,0.7c0.9,0.4,1.7,1.1,2.2,2c0.5,0.8,0.8,1.8,0.8,2.8
			c0,1.1-0.3,2.2-1,3.1c-0.6,0.8-1.4,1.4-2.3,1.7v0.1c1.1,0.3,2,1,2.7,1.9c0.7,1,1,2.3,1,3.5c0,1.1-0.2,2.1-0.8,3
			c-0.5,0.9-1.3,1.6-2.3,2.1c-1.1,0.5-2.4,0.8-3.7,0.8c-2.1,0-3.8-0.5-5.1-1.6c-1.3-1.1-2.1-2.6-2.2-4.6h3.2c0,1,0.5,1.9,1.2,2.5
			c0.8,0.7,1.8,1,2.9,1c1.2,0,2.1-0.3,2.7-1s1-1.6,1-2.5c0-1.3-0.4-2.3-1.3-2.9s-2.2-0.9-3.9-0.9h-0.8v-2.7h0.8
			c1.6,0,2.8-0.3,3.6-0.8c0.8-0.5,1.3-1.4,1.2-2.4c0-0.8-0.3-1.6-0.9-2.2c-0.7-0.6-1.6-0.9-2.5-0.8c-0.9-0.1-1.8,0.2-2.5,0.8
			c-0.6,0.5-1,1.3-1.1,2h-3.2C463.2,275.3,464,273.7,465.3,272.7z"/>
		<path class="st2" d="M494,274.5h-9.7v5.7c0.5-0.6,1.1-1.1,1.8-1.4c0.8-0.4,1.7-0.6,2.6-0.5c1.6,0,2.9,0.3,3.9,1
			c1,0.6,1.7,1.6,2.2,2.6c0.4,1.1,0.7,2.2,0.7,3.4c0,1.3-0.3,2.6-0.8,3.8c-0.5,1.1-1.4,2-2.5,2.6c-1.2,0.7-2.6,1-4,1
			c-2.1,0-3.8-0.5-5.1-1.6c-1.3-1-2.1-2.5-2.3-4.1h3.2c0.2,0.9,0.7,1.6,1.4,2.2c0.8,0.5,1.8,0.8,2.7,0.8c1.4,0,2.4-0.4,3.1-1.2
			c0.7-0.9,1.1-2.1,1-3.3c0-1.4-0.3-2.5-1-3.2s-1.7-1.1-3.1-1.1c-1.7-0.1-3.3,1-3.8,2.6h-3.1v-12.2H494V274.5z"/>
		<path class="st2" d="M500.6,274.1c1.1-1.9,3.1-2.8,5.8-2.8c2.8,0,4.7,0.9,5.8,2.8c1.1,1.9,1.7,4.5,1.7,7.8s-0.6,6-1.7,7.9
			c-1.1,1.9-3.1,2.8-5.8,2.8c-2.8,0-4.7-0.9-5.8-2.8c-1.1-1.9-1.7-4.5-1.7-7.9C498.9,278.6,499.5,276,500.6,274.1z M510.4,278
			c-0.2-1-0.6-1.9-1.2-2.6s-1.5-1-2.7-1s-2.1,0.3-2.7,1c-0.6,0.8-1.1,1.7-1.2,2.6c-0.2,1.3-0.3,2.6-0.3,4s0.1,2.7,0.3,4.1
			c0.1,1,0.6,1.9,1.2,2.7c0.6,0.7,1.5,1,2.8,1c1.2,0,2.1-0.3,2.8-1c0.7-0.7,1.1-1.7,1.2-2.7c0.2-1.3,0.3-2.7,0.3-4.1
			C510.7,280.6,510.6,279.3,510.4,278L510.4,278z"/>
		<path class="st2" d="M527.6,274.6c-0.7-0.5-1.5-0.7-2.3-0.7c-1.5,0-2.7,0.6-3.4,1.8s-1.1,3.1-1.2,5.8c0.5-0.9,1.3-1.5,2.2-2
			c1-0.5,2-0.7,3.1-0.7c1.2,0,2.3,0.3,3.4,0.8c1,0.6,1.8,1.4,2.3,2.4c1.1,2.3,1.1,5,0,7.3c-0.5,1-1.3,1.9-2.4,2.5
			c-1.1,0.6-2.4,1-3.8,0.9c-2,0-3.5-0.4-4.7-1.3s-2-2.3-2.4-3.7c-0.5-2-0.7-4-0.7-6c0-7.1,2.5-10.6,7.5-10.6c1.9,0,3.4,0.5,4.6,1.6
			c1.1,1,1.8,2.4,1.9,3.8h-3C528.6,275.8,528.2,275.1,527.6,274.6z M522.3,282.6c-0.8,0.7-1.2,1.7-1.2,3.1c-0.1,1.2,0.4,2.3,1.1,3.2
			c0.8,0.8,1.8,1.2,3.2,1.2c1.1,0.1,2.1-0.4,2.9-1.1c0.7-0.8,1.1-1.9,1.1-3c0.1-1.1-0.3-2.3-1-3.1c-0.7-0.8-1.7-1.2-3-1.2
			C524.2,281.6,523.1,281.9,522.3,282.6L522.3,282.6z"/>
		<path class="st3" d="M375.4,301.2h-7.7v5.4c0.4-0.5,0.9-0.9,1.5-1.2c1.6-0.7,3.5-0.6,5,0.2c0.7,0.4,1.3,1.1,1.6,1.8
			c0.3,0.8,0.5,1.6,0.5,2.4c0,0.9-0.2,1.8-0.6,2.7c-0.4,0.8-1,1.4-1.7,1.9c-0.9,0.5-1.9,0.7-2.9,0.7c-1.3,0.1-2.5-0.4-3.5-1.1
			c-0.9-0.8-1.5-1.9-1.6-3.1h1.5c0.1,0.9,0.6,1.6,1.3,2.2c0.7,0.5,1.6,0.8,2.5,0.8c1.2,0,2.1-0.4,2.8-1.1c0.7-0.8,1-1.8,0.9-2.9
			c0.1-1-0.3-2-1-2.7c-0.6-0.7-1.5-1-2.7-1c-0.8,0-1.5,0.2-2.2,0.6c-0.6,0.4-1.1,0.9-1.4,1.5h-1.4V300h9.1L375.4,301.2z"/>
		<path class="st3" d="M384.4,300.9c-1.2-0.1-2.4,0.5-3.1,1.6s-1,2.8-1,5.3c0.3-0.8,0.9-1.5,1.6-2c0.8-0.5,1.8-0.7,2.7-0.7
			c1.3-0.1,2.6,0.4,3.5,1.4c0.9,0.9,1.3,2.2,1.3,3.7c0,0.9-0.2,1.7-0.5,2.5c-0.4,0.8-0.9,1.4-1.6,1.8c-0.8,0.5-1.8,0.7-2.8,0.7
			c-2.1,0-3.5-0.7-4.3-2s-1.2-3.2-1.2-5.7c0-5.2,1.8-7.8,5.4-7.8c1.4,0,2.4,0.4,3.2,1.1c0.8,0.8,1.3,1.8,1.4,2.9h-1.4
			C387.3,301.8,386.2,300.9,384.4,300.9z M382.5,306.7c-0.6,0.3-1.1,0.7-1.4,1.2c-0.4,0.6-0.6,1.3-0.6,2c0,1,0.3,2.1,1,2.9
			s1.7,1.1,3,1.1c1,0,1.9-0.3,2.6-1s1-1.7,1-2.7c0.1-1-0.3-2.1-1-2.9c-0.7-0.7-1.7-1.1-2.7-1C383.8,306.3,383.1,306.5,382.5,306.7
			L382.5,306.7z"/>
		<path class="st3" d="M397.7,300.9c-1.3-0.1-2.4,0.5-3.1,1.6s-1,2.8-1,5.3c0.3-0.8,0.9-1.5,1.6-2c0.8-0.5,1.8-0.7,2.7-0.7
			c1.3-0.1,2.6,0.4,3.5,1.4c0.9,0.9,1.3,2.2,1.3,3.7c0,0.9-0.2,1.7-0.5,2.5c-0.4,0.8-0.9,1.4-1.6,1.8c-0.8,0.5-1.8,0.7-2.8,0.7
			c-2.1,0-3.5-0.7-4.3-2s-1.2-3.2-1.2-5.7c0-5.2,1.8-7.8,5.4-7.8c1.3,0,2.4,0.4,3.2,1.1c0.8,0.8,1.3,1.8,1.4,2.9h-1.4
			C400.5,301.8,399.5,300.9,397.7,300.9z M395.8,306.7c-1.3,0.6-2.1,1.8-2,3.2c0,1,0.3,2.1,1,2.9s1.7,1.1,3,1.1c1,0,1.9-0.3,2.6-1
			s1-1.7,1-2.7c0.1-1-0.3-2.1-1-2.9c-0.7-0.7-1.7-1.1-2.7-1C397,306.3,396.4,306.5,395.8,306.7L395.8,306.7z"/>
		<path class="st3" d="M414.5,301.1l-5.9,14h-1.5l6-13.9h-8.4V300h9.9v1.1H414.5z"/>
		<path class="st3" d="M419.7,313.2c0.6,0.5,1.4,0.8,2.3,0.7c1.2,0.1,2.3-0.5,2.9-1.5s0.9-2.7,0.9-5.1c-0.3,0.8-0.8,1.4-1.5,1.8
			c-0.8,0.4-1.7,0.7-2.6,0.7c-1.3,0.1-2.6-0.4-3.6-1.3c-0.9-0.9-1.3-2.1-1.3-3.7c0-0.9,0.2-1.8,0.6-2.6c0.4-0.8,0.9-1.4,1.7-1.8
			c0.8-0.5,1.8-0.7,2.7-0.7c2,0,3.4,0.7,4.2,2c0.8,1.3,1.2,3.2,1.2,5.6c0,2.6-0.4,4.6-1.2,5.9s-2.1,2-4,2c-1.4,0-2.5-0.4-3.3-1.1
			c-0.8-0.8-1.3-1.8-1.4-3h1.4C418.8,311.9,419.1,312.6,419.7,313.2z M423.7,308c0.6-0.3,1-0.7,1.3-1.2c0.3-0.6,0.5-1.2,0.5-1.9
			c0-1-0.3-2.1-1-2.9c-0.7-0.7-1.6-1.1-2.8-1.1c-1,0-1.9,0.3-2.6,1s-1,1.7-1,2.7c-0.1,1,0.3,2,1,2.8c0.7,0.7,1.7,1.1,2.7,1
			C422.5,308.5,423.2,308.3,423.7,308z"/>
		<path class="st3" d="M430.8,305.9c-0.5-0.6-0.7-1.4-0.7-2.2c0-0.7,0.2-1.4,0.6-2s1-1.1,1.7-1.4c1.7-0.7,3.6-0.7,5.4,0
			c0.7,0.3,1.3,0.8,1.7,1.4c0.4,0.6,0.6,1.3,0.6,2c0,0.8-0.2,1.6-0.7,2.2c-0.5,0.7-1.2,1.1-2,1.3c0.9,0.2,1.7,0.7,2.3,1.4
			c0.6,0.7,0.8,1.6,0.8,2.5c0,0.8-0.2,1.7-0.7,2.4c-0.5,0.7-1.1,1.2-1.9,1.5c-1.8,0.7-3.8,0.7-5.6,0c-0.8-0.3-1.4-0.9-1.9-1.5
			c-0.5-0.7-0.7-1.5-0.7-2.4s0.3-1.8,0.8-2.5c0.6-0.7,1.4-1.2,2.3-1.4C432,307,431.3,306.6,430.8,305.9z M432.3,308.7
			c-0.7,0.5-1.2,1.4-1.1,2.4c0,0.9,0.3,1.8,1.1,2.4c1.7,1.2,4,1.2,5.7,0c0.7-0.6,1.1-1.5,1.1-2.4c0.1-0.9-0.4-1.8-1.1-2.4
			c-0.8-0.6-1.8-0.8-2.8-0.8C434.1,307.9,433.1,308.1,432.3,308.7L432.3,308.7z M437.7,301.7c-1.6-1-3.6-1-5.2,0
			c-0.6,0.5-1,1.3-1,2.2c0,0.8,0.3,1.6,1,2.1c1.5,1,3.6,1,5.1,0c0.6-0.5,1-1.3,1-2.1C438.7,303.1,438.3,302.3,437.7,301.7
			L437.7,301.7z"/>
		<path class="st3" d="M442.4,311.5v-1.1l7.7-10.3h1.8v10.2h2.3v1.3h-2.3v3.6h-1.5v-3.6L442.4,311.5z M450.5,301.7l-6.3,8.6h6.3
			V301.7z"/>
	</g>
</g>
</svg>
